<svg version="1.1" id="Layer_1" xmlns="http://www.w3.org/2000/svg" xmlns:xlink="http://www.w3.org/1999/xlink" x="0px" y="0px"
	 width="100%" viewBox="0 0 60 60" enable-background="new 0 0 60 60" xml:space="preserve">
<path fill="#000000" opacity="1.000000" stroke="none" 
	d="
M41.000957,61.000000 
	C27.334108,61.000000 14.167461,61.000000 1.000611,61.000000 
	C1.000407,41.000301 1.000407,21.000603 1.000204,1.000678 
	C20.999670,1.000452 40.999340,1.000452 60.999256,1.000226 
	C60.999504,20.999640 60.999504,40.999279 60.999752,60.999458 
	C54.500385,61.000000 48.000774,61.000000 41.000957,61.000000 
M46.008892,18.422915 
	C47.700211,17.296299 49.391529,16.169682 51.695938,14.786592 
	C53.244041,13.690971 54.792145,12.595350 56.340248,11.499729 
	C55.927967,10.999305 55.515686,10.498879 55.103405,9.998455 
	C53.318424,9.998455 51.532124,10.042790 49.748711,9.989908 
	C44.936928,9.847227 40.246231,10.555825 35.640186,7.328764 
	C33.413124,5.768451 28.215557,5.789642 26.040430,7.383712 
	C21.898798,10.418963 17.736645,9.865694 13.406550,9.985529 
	C10.854980,10.056144 8.299856,9.998428 5.301349,9.998428 
	C8.007275,16.829853 13.566196,18.415609 18.696260,20.795624 
	C18.468596,22.478949 18.240931,24.162275 17.376637,26.149332 
	C16.205133,28.092806 15.033629,30.036280 13.150474,32.006508 
	C9.504735,33.362583 9.682928,35.922520 10.506862,39.243389 
	C12.284474,40.468567 14.062086,41.693748 15.971120,43.704945 
	C12.561193,53.268238 13.082232,52.617344 21.821676,54.020164 
	C23.872797,54.349407 25.942047,54.565704 28.850023,54.983501 
	C30.565739,54.933666 32.281452,54.883831 34.826843,54.980164 
	C36.732784,54.648376 38.659985,54.407784 40.541027,53.969204 
	C49.228607,51.943630 49.843529,51.656124 45.484116,43.875229 
	C45.371193,43.673679 45.836227,43.148315 46.744564,42.897583 
	C48.254349,42.004368 49.764133,41.111153 51.273918,40.217937 
	C50.843590,39.767689 50.413265,39.317444 50.011456,38.137524 
	C53.074471,34.976383 51.739170,33.144512 47.861546,31.353184 
	C46.287914,29.563082 44.714283,27.772978 43.209404,25.274107 
	C44.942280,23.329132 45.540291,21.479540 43.108692,19.420612 
	C43.867577,19.199228 44.626461,18.977844 46.008892,18.422915 
z"/>
<path fill="#44BE00" opacity="1.000000" stroke="none" 
	d="
M19.014296,20.155107 
	C13.566196,18.415609 8.007275,16.829853 5.301349,9.998428 
	C8.299856,9.998428 10.854980,10.056144 13.406550,9.985529 
	C17.736645,9.865694 21.898798,10.418963 26.040430,7.383712 
	C28.215557,5.789642 33.413124,5.768451 35.640186,7.328764 
	C40.246231,10.555825 44.936928,9.847227 49.748711,9.989908 
	C51.532124,10.042790 53.318424,9.998455 55.103405,9.998455 
	C55.515686,10.498879 55.927967,10.999305 56.340248,11.499729 
	C54.792145,12.595350 53.244041,13.690971 51.181145,14.775414 
	C50.425232,14.533758 50.184109,14.303279 49.804855,13.671359 
	C46.935398,13.269918 44.204067,13.269918 40.894096,13.269918 
	C41.190453,14.691868 41.459694,15.983706 41.801407,17.482574 
	C41.873878,17.689604 41.995499,18.111107 41.993126,18.394756 
	C41.984615,19.056555 41.978485,19.434702 41.660980,19.976772 
	C40.168430,20.993208 38.909199,21.756866 37.819790,22.713850 
	C33.454342,26.548639 28.844257,26.848652 24.088854,23.550636 
	C22.416666,22.390921 20.706902,21.285381 19.014296,20.155107 
M15.903564,12.999804 
	C14.844511,12.999804 13.785458,12.999804 12.726404,12.999804 
	C12.630575,13.402364 12.534745,13.804923 12.438915,14.207482 
	C15.069732,15.257353 17.700548,16.307224 20.404287,17.386194 
	C22.164001,12.348030 19.099319,13.052928 15.903564,12.999804 
z"/>
<path fill="#FFC400" opacity="1.000000" stroke="none" 
	d="
M13.862127,31.979753 
	C15.033629,30.036280 16.205133,28.092806 17.988243,26.170609 
	C22.034580,28.139126 25.469309,30.086363 28.763861,32.423573 
	C28.416775,40.153687 28.209866,47.493824 28.002956,54.833965 
	C25.942047,54.565704 23.872797,54.349407 21.821676,54.020164 
	C13.082232,52.617344 12.561193,53.268238 16.079498,43.051437 
	C16.598173,41.942432 17.008471,41.486931 17.738394,40.941650 
	C20.978075,39.289688 20.127960,37.554562 18.252192,35.830811 
	C16.819265,34.514011 15.327641,33.261089 13.862127,31.979753 
z"/>
<path fill="#FFC400" opacity="1.000000" stroke="none" 
	d="
M43.140648,25.982876 
	C44.714283,27.772978 46.287914,29.563082 47.800133,31.944508 
	C46.524559,33.337543 45.336395,34.182369 44.091442,34.932999 
	C40.137222,37.317158 41.045872,39.273994 44.690132,41.304611 
	C45.207069,41.974949 45.619396,42.374458 46.031723,42.773968 
	C45.836227,43.148315 45.371193,43.673679 45.484116,43.875229 
	C49.843529,51.656124 49.228607,51.943630 40.541027,53.969204 
	C38.659985,54.407784 36.732784,54.648376 34.412529,54.449081 
	C33.697529,46.623211 33.396851,39.328423 33.357506,31.898350 
	C36.792774,29.836336 39.966713,27.909605 43.140648,25.982876 
z"/>
<path fill="#FEEB75" opacity="1.000000" stroke="none" 
	d="
M43.175026,25.628490 
	C39.966713,27.909605 36.792774,29.836336 32.938194,31.890160 
	C31.139715,32.022701 30.021875,32.028149 28.904037,32.033600 
	C25.469309,30.086363 22.034580,28.139126 18.306559,26.018744 
	C18.240931,24.162275 18.468596,22.478949 18.855278,20.475365 
	C20.706902,21.285381 22.416666,22.390921 24.088854,23.550636 
	C28.844257,26.848652 33.454342,26.548639 37.819790,22.713850 
	C38.909199,21.756866 40.168430,20.993208 41.852570,20.042755 
	C42.355534,19.944815 42.758892,19.913984 42.758892,19.913984 
	C45.540291,21.479540 44.942280,23.329132 43.175026,25.628490 
z"/>
<path fill="#FFEC76" opacity="1.000000" stroke="none" 
	d="
M28.763861,32.423573 
	C30.021875,32.028149 31.139715,32.022701 32.676861,32.025444 
	C33.396851,39.328423 33.697529,46.623211 33.997688,54.375999 
	C32.281452,54.883831 30.565739,54.933666 28.426489,54.908733 
	C28.209866,47.493824 28.416775,40.153687 28.763861,32.423573 
z"/>
<path fill="#FFEC75" opacity="1.000000" stroke="none" 
	d="
M44.585518,41.033783 
	C41.045872,39.273994 40.137222,37.317158 44.091442,34.932999 
	C45.336395,34.182369 46.524559,33.337543 47.946503,32.264175 
	C51.739170,33.144512 53.074471,34.976383 49.629452,38.551628 
	C47.693470,39.655083 46.139496,40.344433 44.585518,41.033783 
z"/>
<path fill="#FFEC76" opacity="1.000000" stroke="none" 
	d="
M13.506300,31.993130 
	C15.327641,33.261089 16.819265,34.514011 18.252192,35.830811 
	C20.127960,37.554562 20.978075,39.289688 17.436659,40.697281 
	C14.876509,39.975346 12.937718,39.408005 10.998929,38.840660 
	C9.682928,35.922520 9.504735,33.362583 13.506300,31.993130 
z"/>
<path fill="#42B800" opacity="1.000000" stroke="none" 
	d="
M10.752895,39.042023 
	C12.937718,39.408005 14.876509,39.975346 17.117033,40.787060 
	C17.008471,41.486931 16.598173,41.942432 16.013788,42.658432 
	C14.062086,41.693748 12.284474,40.468567 10.752895,39.042023 
z"/>
<path fill="#42BB00" opacity="1.000000" stroke="none" 
	d="
M44.690132,41.304611 
	C46.139496,40.344433 47.693470,39.655083 49.615192,38.916466 
	C50.413265,39.317444 50.843590,39.767689 51.273918,40.217937 
	C49.764133,41.111153 48.254349,42.004368 46.388145,42.835777 
	C45.619396,42.374458 45.207069,41.974949 44.690132,41.304611 
z"/>
<path fill="#41B800" opacity="1.000000" stroke="none" 
	d="
M49.942986,14.072801 
	C50.184109,14.303279 50.425232,14.533758 50.874599,14.903651 
	C49.391529,16.169682 47.700211,17.296299 45.609055,18.386463 
	C45.209217,18.350014 44.977036,17.977558 44.978401,17.621643 
	C44.988167,17.028397 44.996559,16.791065 45.246208,16.361122 
	C46.972637,15.469939 48.457809,14.771371 49.942986,14.072801 
z"/>
<path fill="#41B800" opacity="1.000000" stroke="none" 
	d="
M42.933792,19.667297 
	C42.758892,19.913984 42.355534,19.944815 42.163944,19.878832 
	C41.978485,19.434702 41.984615,19.056555 42.365280,18.360104 
	C43.485550,18.020388 44.231293,17.998972 44.977036,17.977558 
	C44.977036,17.977558 45.209217,18.350014 45.297279,18.553238 
	C44.626461,18.977844 43.867577,19.199228 42.933792,19.667297 
z"/>
<path fill="#FFC1BF" opacity="1.000000" stroke="none" 
	d="
M16.320215,12.999791 
	C19.099319,13.052928 22.164001,12.348030 20.404287,17.386194 
	C17.700548,16.307224 15.069732,15.257353 12.438915,14.207482 
	C12.534745,13.804923 12.630575,13.402364 12.726404,12.999804 
	C13.785458,12.999804 14.844511,12.999804 16.320215,12.999791 
z"/>
<path fill="#FFC1BF" opacity="1.000000" stroke="none" 
	d="
M49.804855,13.671360 
	C48.457809,14.771371 46.972637,15.469939 44.835327,16.441759 
	C43.365108,16.901854 42.547024,17.088699 41.728935,17.275543 
	C41.459694,15.983706 41.190453,14.691868 40.894096,13.269918 
	C44.204067,13.269918 46.935398,13.269918 49.804855,13.671360 
z"/>
<path fill="#358B04" opacity="1.000000" stroke="none" 
	d="
M41.801407,17.482574 
	C42.547024,17.088699 43.365108,16.901854 44.594078,16.634373 
	C44.996559,16.791065 44.988167,17.028397 44.978401,17.621643 
	C44.231293,17.998972 43.485550,18.020388 42.367653,18.076454 
	C41.995499,18.111107 41.873878,17.689604 41.801407,17.482574 
z"/>
</svg>