<svg version="1.1" id="Layer_1" xmlns="http://www.w3.org/2000/svg" xmlns:xlink="http://www.w3.org/1999/xlink" x="0px" y="0px"
	 width="100%" viewBox="0 0 512 512" enable-background="new 0 0 512 512" xml:space="preserve">
<path fill="#000000" opacity="1.000000" stroke="none" 
	d="
M513.000000,379.000000 
	C513.000000,423.627411 513.000000,468.254791 513.000000,513.000000 
	C391.979126,513.000000 270.958221,513.000000 149.475525,512.636719 
	C154.714233,503.529877 160.414749,494.786255 166.433411,485.876038 
	C168.119003,482.896179 169.339401,479.990570 173.492035,481.177643 
	C179.084549,482.776367 184.701248,484.300476 190.343842,485.711609 
	C197.787872,487.573242 205.267075,489.294250 213.446442,491.246429 
	C209.345627,480.918976 205.589890,471.460571 201.901031,461.625549 
	C198.923126,453.166016 195.878311,445.083038 192.790100,436.637726 
	C192.145721,434.790924 191.544678,433.306519 190.943787,431.822052 
	C188.668549,426.201050 186.393341,420.580048 184.067444,414.573334 
	C182.715759,410.138763 181.414734,406.089935 180.419037,401.911163 
	C185.681915,396.813721 191.121399,392.202850 193.446716,384.843628 
	C194.000885,380.572937 196.398361,379.926758 200.052750,379.929932 
	C302.171295,380.018494 404.289917,380.007263 506.408508,379.959198 
	C508.605804,379.958160 510.802856,379.333649 513.000000,379.000000 
z"/>
<path fill="#0DAFD4" opacity="1.000000" stroke="none" 
	d="
M1.000000,20.000000 
	C1.000000,13.671673 1.000000,7.343345 1.000000,1.039947 
	C171.666672,1.039947 342.333344,1.039947 513.000000,1.039947 
	C513.000000,8.407437 513.000000,15.734982 512.532349,23.523746 
	C506.431763,23.989862 500.798798,23.994757 495.096558,23.558884 
	C495.027252,21.521063 495.027252,19.924007 495.027252,17.998917 
	C492.806396,17.998917 491.160828,17.998917 489.515289,17.998917 
	C334.183411,17.998915 178.851547,17.998833 23.519674,18.000227 
	C22.186552,18.000240 20.799307,17.803360 19.541927,18.117315 
	C18.858608,18.287931 18.396101,19.342882 17.376797,19.999218 
	C11.613065,19.999657 6.306532,19.999828 1.000000,20.000000 
z"/>
<path fill="#000000" opacity="1.000000" stroke="none" 
	d="
M68.000000,513.000000 
	C45.706448,513.000000 23.412897,513.000000 1.000000,513.000000 
	C1.000000,453.645813 1.000000,394.291565 1.279625,334.140259 
	C2.046911,334.114594 2.555471,334.873657 3.018795,335.659454 
	C5.647100,340.117035 8.264603,344.580994 11.025873,349.352234 
	C14.549175,352.582886 17.932386,355.504120 21.245581,358.364899 
	C21.152393,360.447601 21.052982,362.669373 20.597122,365.120300 
	C19.800846,372.565521 20.755936,379.516388 24.204237,386.350403 
	C28.456202,391.814178 32.670841,396.927887 36.926910,402.417664 
	C34.607063,409.182129 32.245796,415.570526 29.559999,422.146057 
	C29.065662,423.132507 28.990625,423.966644 28.711740,424.725861 
	C24.879850,435.158173 21.019857,445.580170 16.998177,456.345520 
	C12.560331,467.954071 8.291080,479.221802 3.983221,490.591431 
	C4.666862,490.752136 5.184444,491.051117 5.598807,490.945435 
	C16.877636,488.068848 28.214071,485.385406 39.386398,482.138184 
	C44.743412,480.581177 48.131313,481.027283 51.167603,486.434662 
	C56.292881,495.562378 62.340328,504.172333 68.000000,513.000000 
z"/>
<path fill="#7653F3" opacity="1.000000" stroke="none" 
	d="
M513.000000,378.750000 
	C510.802856,379.333649 508.605804,379.958160 506.408508,379.959198 
	C404.289917,380.007263 302.171295,380.018494 200.052750,379.929932 
	C196.398361,379.926758 194.000885,380.572937 193.030655,384.754944 
	C186.149673,384.562317 180.016739,384.260681 174.034393,383.630920 
	C177.748276,378.450317 179.291092,372.980316 179.625031,367.000549 
	C287.599457,367.000153 395.115692,366.993103 502.631927,367.011536 
	C512.523193,367.013245 512.068970,365.817596 511.981628,376.856293 
	C512.348083,377.500946 512.674072,377.750458 513.000000,378.000000 
	C513.000000,378.000000 513.000000,378.500000 513.000000,378.750000 
z"/>
<path fill="#000000" opacity="1.000000" stroke="none" 
	d="
M146.000000,513.000000 
	C121.312439,513.000000 96.624878,513.000000 71.134094,512.699707 
	C70.779114,511.192261 71.227760,509.985260 71.675552,508.777924 
	C77.825500,492.196594 83.975311,475.615204 90.450836,458.850006 
	C94.128731,449.444000 97.480965,440.221771 100.920265,430.598694 
	C105.908501,429.847473 110.809669,429.497131 115.341919,429.173187 
	C116.308533,431.371399 117.130608,433.240875 117.985367,435.489624 
	C121.306145,444.258575 124.594215,452.648254 127.935448,461.428680 
	C130.953110,469.559174 133.917618,477.298950 136.935028,485.428772 
	C138.380112,489.725525 139.848373,493.607117 141.145523,497.545074 
	C142.834747,502.673309 144.388153,507.846283 146.000000,513.000000 
z"/>
<path fill="#9438FC" opacity="1.000000" stroke="none" 
	d="
M90.125168,459.033813 
	C83.975311,475.615204 77.825500,492.196594 71.675552,508.777924 
	C71.227760,509.985260 70.779114,511.192261 70.665436,512.699707 
	C70.250000,513.000000 69.500000,513.000000 68.375000,513.000000 
	C62.340328,504.172333 56.292881,495.562378 51.167603,486.434662 
	C48.131313,481.027283 44.743412,480.581177 39.386398,482.138184 
	C28.214071,485.385406 16.877636,488.068848 5.598807,490.945435 
	C5.184444,491.051117 4.666862,490.752136 3.983221,490.591431 
	C8.291080,479.221802 12.560331,467.954071 17.455721,456.344482 
	C24.001371,455.996521 29.920885,455.990448 35.799488,456.351196 
	C34.583649,459.659790 33.408718,462.601532 32.077679,465.934143 
	C38.236088,464.440002 44.088749,463.344666 49.716309,461.545288 
	C53.748367,460.256104 56.040905,461.323639 58.032753,464.821930 
	C60.068226,468.396912 62.542587,471.721985 65.097137,475.566254 
	C67.628059,469.278473 69.897438,463.640503 72.563782,458.093750 
	C78.682220,458.467926 84.403694,458.750854 90.125168,459.033813 
z"/>
<path fill="#7356F2" opacity="1.000000" stroke="none" 
	d="
M511.941162,376.461182 
	C512.068970,365.817596 512.523193,367.013245 502.631927,367.011536 
	C395.115692,366.993103 287.599457,367.000153 179.552887,366.605042 
	C178.001251,362.892120 176.979950,359.574371 175.948273,356.222870 
	C171.691803,361.552338 167.899368,366.300812 163.715469,370.885834 
	C155.511368,370.467194 147.698700,370.211975 140.029999,369.640656 
	C148.050095,364.048370 154.152161,357.147369 159.266418,348.989014 
	C175.170731,349.037109 190.645264,349.044220 205.975876,349.358826 
	C202.397522,352.633301 198.963104,355.600281 195.554123,358.545288 
	C195.804977,359.890991 196.068863,361.306610 196.329666,362.705688 
	C295.837738,362.705688 395.283508,362.705688 495.166901,362.705688 
	C495.166901,359.943207 495.166901,357.472015 495.624390,355.000519 
	C501.721222,355.000122 507.360626,355.000061 513.000000,355.000000 
	C513.000000,362.020966 513.000000,369.041901 512.864746,376.142334 
	C512.466736,376.301605 512.203918,376.381378 511.941162,376.461182 
z"/>
<path fill="#5A6BEB" opacity="1.000000" stroke="none" 
	d="
M1.000000,290.000000 
	C1.000000,281.979095 1.000000,273.958191 1.467256,265.468628 
	C7.234162,265.000305 12.533813,265.000610 17.903364,265.464935 
	C17.973265,273.074768 17.973265,280.220612 17.973265,287.366455 
	C18.438784,287.494385 18.904301,287.622314 19.369820,287.750244 
	C19.912561,286.152557 20.849771,284.573334 20.925655,282.953766 
	C21.174446,277.643768 21.110222,272.319092 21.620667,267.000061 
	C27.661263,267.332886 33.247505,267.665710 38.880882,268.417969 
	C36.758709,275.514648 38.100796,281.721558 41.198135,287.990295 
	C44.927826,283.092499 48.405983,278.524994 52.310944,273.997040 
	C57.135498,274.357330 61.538845,274.617279 65.928955,275.021118 
	C68.645935,275.271088 71.342804,275.739777 73.915833,276.414429 
	C69.561569,281.158997 65.340187,285.599457 60.642765,290.031189 
	C40.444489,290.014954 20.722244,290.007477 1.000000,290.000000 
z"/>
<path fill="#6165ED" opacity="1.000000" stroke="none" 
	d="
M1.000000,290.468262 
	C20.722244,290.007477 40.444489,290.014954 60.490974,290.355896 
	C56.203194,298.908936 52.134602,307.314026 51.375465,317.004211 
	C45.334587,317.004364 39.750919,317.005157 34.095497,316.586060 
	C34.973263,310.513763 35.922787,304.861389 36.997665,298.462799 
	C30.957037,300.610291 26.424845,303.399414 22.680080,308.049561 
	C15.135038,308.357544 8.067519,308.678772 1.000000,309.000000 
	C1.000000,302.978851 1.000000,296.957703 1.000000,290.468262 
z"/>
<path fill="#6D5BF0" opacity="1.000000" stroke="none" 
	d="
M34.167252,317.005951 
	C39.750919,317.005157 45.334587,317.004364 51.437019,317.412415 
	C51.644341,319.732330 50.736336,321.774719 51.123329,323.531952 
	C52.926331,331.718689 55.087326,339.826630 56.644135,347.970886 
	C47.022411,347.986023 37.874454,347.869446 28.732065,348.044067 
	C22.779116,348.157776 16.834259,348.695190 10.885780,349.042786 
	C8.264603,344.580994 5.647100,340.117035 3.018795,335.659454 
	C2.555471,334.873657 2.046911,334.114594 1.279625,333.671570 
	C1.000000,332.611115 1.000000,331.222198 1.409106,329.334686 
	C7.489747,328.558136 13.161281,328.280212 18.995274,328.333984 
	C22.247948,336.981873 27.478722,342.941528 36.025581,344.913940 
	C35.391846,335.396637 34.779549,326.201294 34.167252,317.005951 
z"/>
<path fill="#447FE4" opacity="1.000000" stroke="none" 
	d="
M513.000000,181.000000 
	C513.000000,191.687561 513.000000,202.375122 512.532288,213.534454 
	C506.431946,214.004227 500.799316,214.002213 495.096161,213.536224 
	C495.072723,202.381454 495.119812,191.690659 495.624390,180.999908 
	C501.721283,180.999969 507.360626,180.999985 513.000000,181.000000 
z"/>
<path fill="#4D77E7" opacity="1.000000" stroke="none" 
	d="
M495.166687,214.000214 
	C500.799316,214.002213 506.431946,214.004227 512.532288,214.003113 
	C513.000000,224.687561 513.000000,235.375122 512.532288,246.536499 
	C506.432129,247.006927 500.799713,247.003510 495.096313,246.536194 
	C495.072449,235.381607 495.119568,224.690918 495.166687,214.000214 
z"/>
<path fill="#3A87E1" opacity="1.000000" stroke="none" 
	d="
M513.000000,180.531342 
	C507.360626,180.999985 501.721283,180.999969 495.554321,180.535889 
	C495.073395,169.379791 495.120087,158.687744 495.624268,147.996033 
	C501.721161,147.997574 507.360565,147.998779 513.000000,148.000000 
	C513.000000,158.687561 513.000000,169.375122 513.000000,180.531342 
z"/>
<path fill="#6067EC" opacity="1.000000" stroke="none" 
	d="
M513.000000,279.000000 
	C513.000000,289.354218 513.000000,299.708466 512.532349,310.539551 
	C506.432007,311.011597 500.799347,311.006744 495.095184,310.537903 
	C495.071198,299.716492 495.118652,289.359039 495.623657,279.001160 
	C501.720795,279.000519 507.360382,279.000244 513.000000,279.000000 
z"/>
<path fill="#576EEA" opacity="1.000000" stroke="none" 
	d="
M513.000000,278.531342 
	C507.360382,279.000244 501.720795,279.000519 495.552460,278.537170 
	C495.071564,267.715729 495.119415,257.357910 495.167267,247.000092 
	C500.799713,247.003510 506.432129,247.006927 512.532288,247.005157 
	C513.000000,257.354218 513.000000,267.708466 513.000000,278.531342 
z"/>
<path fill="#2F91DE" opacity="1.000000" stroke="none" 
	d="
M513.000000,147.531342 
	C507.360565,147.998779 501.721161,147.997574 495.554382,147.532440 
	C495.073730,136.709610 495.120453,126.350693 495.624603,115.992439 
	C501.721375,115.995399 507.360687,115.997696 513.000000,116.000000 
	C513.000000,126.354225 513.000000,136.708450 513.000000,147.531342 
z"/>
<path fill="#269ADB" opacity="1.000000" stroke="none" 
	d="
M513.000000,115.531342 
	C507.360687,115.997696 501.721375,115.995399 495.554749,115.529289 
	C495.074249,105.043167 495.121063,95.020866 495.625305,84.998718 
	C501.721802,84.999260 507.360901,84.999634 513.000000,85.000000 
	C513.000000,95.020897 513.000000,105.041786 513.000000,115.531342 
z"/>
<path fill="#3F83E2" opacity="1.000000" stroke="none" 
	d="
M1.000000,205.000000 
	C1.000000,194.645767 1.000000,184.291550 1.418750,173.435867 
	C7.169842,172.623016 12.502185,172.311615 17.904701,172.464233 
	C17.927927,183.619324 17.880978,194.310394 17.376827,205.001190 
	C11.613083,205.000580 6.306541,205.000290 1.000000,205.000000 
z"/>
<path fill="#209ED9" opacity="1.000000" stroke="none" 
	d="
M513.000000,84.531342 
	C507.360901,84.999634 501.721802,84.999260 495.555237,84.534805 
	C495.073883,74.048149 495.120026,64.025566 495.623688,54.002945 
	C501.720795,54.001938 507.360413,54.000969 513.000000,54.000000 
	C513.000000,64.020897 513.000000,74.041786 513.000000,84.531342 
z"/>
<path fill="#269ADB" opacity="1.000000" stroke="none" 
	d="
M1.000000,109.000000 
	C1.000000,98.645775 1.000000,88.291542 1.467256,77.468658 
	C7.234155,76.999451 12.533799,76.998901 17.904186,77.462463 
	C17.927567,88.284279 17.880203,98.641983 17.426212,109.035675 
	C11.679723,109.047775 6.339861,109.023888 1.000000,109.000000 
z"/>
<path fill="#17A6D6" opacity="1.000000" stroke="none" 
	d="
M513.000000,53.531342 
	C507.360413,54.000969 501.720795,54.001938 495.554016,53.538445 
	C495.073181,43.382542 495.119507,33.691097 495.165863,23.999653 
	C500.798798,23.994757 506.431763,23.989862 512.532349,23.992483 
	C513.000000,33.687561 513.000000,43.375122 513.000000,53.531342 
z"/>
<path fill="#2F91DE" opacity="1.000000" stroke="none" 
	d="
M1.000000,109.468658 
	C6.339861,109.023888 11.679723,109.047775 17.496632,109.499695 
	C17.926832,120.620003 17.879988,131.312286 17.412008,142.001434 
	C11.660582,141.665527 6.330291,141.332764 1.000000,141.000000 
	C1.000000,130.645767 1.000000,120.291542 1.000000,109.468658 
z"/>
<path fill="#1CA2D8" opacity="1.000000" stroke="none" 
	d="
M17.833443,76.998352 
	C12.533799,76.998901 7.234155,76.999451 1.467256,77.000000 
	C1.000000,66.645775 1.000000,56.291546 1.431300,45.471291 
	C7.186263,45.336502 12.509924,45.667740 17.904470,46.462971 
	C17.928051,56.950764 17.880747,66.974556 17.833443,76.998352 
z"/>
<path fill="#4D77E7" opacity="1.000000" stroke="none" 
	d="
M1.000000,205.468658 
	C6.306541,205.000290 11.613083,205.000580 17.446058,205.465256 
	C17.925888,215.954971 17.879282,225.980331 17.375559,236.005188 
	C11.612294,236.003143 6.306147,236.001572 1.000000,236.000000 
	C1.000000,225.979111 1.000000,215.958206 1.000000,205.468658 
z"/>
<path fill="#3A87E1" opacity="1.000000" stroke="none" 
	d="
M1.000000,141.468658 
	C6.330291,141.332764 11.660582,141.665527 17.482050,142.464951 
	C17.926994,152.621155 17.880762,162.310684 17.834528,172.000229 
	C12.502185,172.311615 7.169842,172.623016 1.418750,172.967209 
	C1.000000,162.645767 1.000000,152.291550 1.000000,141.468658 
z"/>
<path fill="#695EEF" opacity="1.000000" stroke="none" 
	d="
M495.166687,311.001892 
	C500.799347,311.006744 506.432007,311.011597 512.532349,311.008240 
	C513.000000,320.020905 513.000000,329.041779 512.532349,338.538086 
	C506.432037,339.009125 500.799408,339.004761 495.095215,338.536560 
	C495.071320,329.049133 495.118988,320.025543 495.166687,311.001892 
z"/>
<path fill="#5471E9" opacity="1.000000" stroke="none" 
	d="
M1.000000,236.468658 
	C6.306147,236.001572 11.612294,236.003143 17.445370,236.468658 
	C17.926020,246.288742 17.879742,255.644836 17.833464,265.000946 
	C12.533813,265.000610 7.234162,265.000305 1.467256,265.000000 
	C1.000000,255.645767 1.000000,246.291550 1.000000,236.468658 
z"/>
<path fill="#9A33FE" opacity="1.000000" stroke="none" 
	d="
M146.375000,513.000000 
	C144.388153,507.846283 142.834747,502.673309 141.145523,497.545074 
	C139.848373,493.607117 138.380112,489.725525 137.411133,485.420654 
	C140.328735,485.014954 142.827194,484.912231 145.316757,485.018188 
	C152.251556,485.313324 159.182693,485.695099 166.115265,486.042633 
	C160.414749,494.786255 154.714233,503.529877 149.006866,512.636719 
	C148.250000,513.000000 147.500000,513.000000 146.375000,513.000000 
z"/>
<path fill="#14A9D6" opacity="1.000000" stroke="none" 
	d="
M17.833586,45.998978 
	C12.509924,45.667740 7.186263,45.336502 1.431300,45.002632 
	C1.000000,36.979099 1.000000,28.958199 1.000000,20.468649 
	C6.306532,19.999828 11.613065,19.999657 17.447716,20.463215 
	C17.928417,29.284290 17.881001,37.641632 17.833586,45.998978 
z"/>
<path fill="#6761EE" opacity="1.000000" stroke="none" 
	d="
M18.832815,328.002319 
	C13.161281,328.280212 7.489747,328.558136 1.409106,328.918030 
	C1.000000,322.645599 1.000000,316.291199 1.000000,309.468384 
	C8.067519,308.678772 15.135038,308.357544 22.508316,308.368958 
	C18.789757,314.578827 17.593357,321.039337 18.832815,328.002319 
z"/>
<path fill="#6F59F1" opacity="1.000000" stroke="none" 
	d="
M495.166748,339.000366 
	C500.799408,339.004761 506.432037,339.009125 512.532349,339.006744 
	C513.000000,344.022095 513.000000,349.044189 513.000000,354.533142 
	C507.360626,355.000061 501.721222,355.000122 495.553101,354.538361 
	C495.071838,349.051117 495.119293,344.025757 495.166748,339.000366 
z"/>
<path fill="#000000" opacity="1.000000" stroke="none" 
	d="
M511.981628,376.856293 
	C512.203918,376.381378 512.466736,376.301605 512.864746,376.610901 
	C513.000000,377.000000 513.000000,377.500000 513.000000,377.750000 
	C512.674072,377.750458 512.348083,377.500946 511.981628,376.856293 
z"/>
<path fill="#7D4DF5" opacity="1.000000" stroke="none" 
	d="
M173.883789,383.958984 
	C180.016739,384.260681 186.149673,384.562317 192.698669,384.952637 
	C191.121399,392.202850 185.681915,396.813721 179.943176,401.902466 
	C162.163635,402.016602 145.165268,402.009521 128.203156,401.649231 
	C129.538483,398.744293 130.837540,396.192535 132.581131,392.767548 
	C116.234497,398.070007 100.694633,398.086914 84.158020,392.700745 
	C86.115997,396.596130 87.474762,399.299408 88.375305,402.002075 
	C70.906548,402.014862 53.896015,402.028198 36.885483,402.041565 
	C32.670841,396.927887 28.456202,391.814178 24.660679,386.350372 
	C31.092434,385.653717 37.105072,385.307190 43.430305,385.100525 
	C55.118881,394.328979 64.366570,394.829468 74.630981,389.013184 
	C97.431053,388.993378 119.773338,388.976471 142.447937,389.113647 
	C148.676331,392.152252 154.857971,394.676941 161.279037,391.854645 
	C165.769836,389.880798 169.702072,386.636078 173.883789,383.958984 
z"/>
<path fill="#9439FC" opacity="1.000000" stroke="none" 
	d="
M166.433411,485.876038 
	C159.182693,485.695099 152.251556,485.313324 145.316757,485.018188 
	C142.827194,484.912231 140.328735,485.014954 137.358231,485.030579 
	C133.917618,477.298950 130.953110,469.559174 128.410614,461.420654 
	C134.499557,461.015839 140.166519,461.009766 145.996109,461.339050 
	C148.041977,466.148102 149.925186,470.621796 152.008453,475.570709 
	C154.751709,471.347137 157.240387,467.775177 159.446930,464.036652 
	C161.234131,461.008606 163.550888,460.421692 166.779587,461.325104 
	C172.637329,462.964081 178.557175,464.381104 184.523483,465.909302 
	C184.286041,464.482483 184.082458,463.259125 184.354156,462.028015 
	C190.497650,462.014221 196.165909,462.008179 201.834152,462.002136 
	C205.589890,471.460571 209.345627,480.918976 213.446442,491.246429 
	C205.267075,489.294250 197.787872,487.573242 190.343842,485.711609 
	C184.701248,484.300476 179.084549,482.776367 173.492035,481.177643 
	C169.339401,479.990570 168.119003,482.896179 166.433411,485.876038 
z"/>
<path fill="#814AF6" opacity="1.000000" stroke="none" 
	d="
M128.166885,402.002441 
	C145.165268,402.009521 162.163635,402.016602 179.637863,402.032410 
	C181.414734,406.089935 182.715759,410.138763 183.651733,414.661530 
	C181.192841,415.422913 179.102676,415.741333 177.004318,415.990814 
	C173.657303,416.388763 170.304825,416.740906 166.627457,416.931091 
	C165.430725,414.371185 164.561203,411.992615 163.656570,409.518005 
	C157.311203,409.518005 151.051453,409.518005 144.449448,409.518005 
	C143.218094,411.089600 141.669388,413.066254 139.727722,414.881653 
	C132.726944,414.479889 126.109306,414.378357 119.517555,413.911316 
	C117.626617,413.777344 115.810516,412.587189 114.136383,411.562439 
	C118.930733,408.163177 123.548813,405.082825 128.166885,402.002441 
z"/>
<path fill="#8C40F9" opacity="1.000000" stroke="none" 
	d="
M201.901031,461.625549 
	C196.165909,462.008179 190.497650,462.014221 184.032104,461.853638 
	C180.211716,453.457550 177.188629,445.228058 174.623322,436.998444 
	C180.998550,436.998901 186.916031,436.999512 192.833496,437.000092 
	C195.878311,445.083038 198.923126,453.166016 201.901031,461.625549 
z"/>
<path fill="#8447F7" opacity="1.000000" stroke="none" 
	d="
M192.790100,436.637726 
	C186.916031,436.999512 180.998550,436.998901 174.453476,436.658569 
	C171.535461,429.916687 169.245071,423.514557 166.954681,417.112427 
	C170.304825,416.740906 173.657303,416.388763 177.004318,415.990814 
	C179.102676,415.741333 181.192841,415.422913 183.702393,415.047241 
	C186.393341,420.580048 188.668549,426.201050 190.943787,431.822052 
	C191.544678,433.306519 192.145721,434.790924 192.790100,436.637726 
z"/>
<path fill="#000000" opacity="1.000000" stroke="none" 
	d="
M495.095215,338.536560 
	C495.119293,344.025757 495.071838,349.051117 495.095642,354.538666 
	C495.166901,357.472015 495.166901,359.943207 495.166901,362.705688 
	C395.283508,362.705688 295.837738,362.705688 196.329666,362.705688 
	C196.068863,361.306610 195.804977,359.890991 195.554123,358.545288 
	C198.963104,355.600281 202.397522,352.633301 206.325104,349.143433 
	C208.662338,348.080963 210.505905,347.071625 212.350555,347.069611 
	C285.507477,346.990021 358.664490,347.001892 431.821503,347.001892 
	C433.765137,347.001892 435.708740,347.001862 436.176422,347.001862 
	C438.576324,337.840698 440.739258,329.584259 443.169373,321.170380 
	C452.273682,308.220367 465.316650,305.175323 479.798889,305.948547 
	C479.798889,300.227020 479.798889,295.107788 479.873199,289.540344 
	C479.898010,286.056274 479.848511,283.020416 479.871735,279.521606 
	C479.902100,272.381561 479.859711,265.704437 479.896484,258.562927 
	C479.927521,251.388626 479.879425,244.678696 479.899292,237.507202 
	C479.919434,229.373993 479.871582,221.702347 479.894196,213.568726 
	C479.919678,208.737656 479.874634,204.368561 479.900574,199.535583 
	C479.922699,187.374924 479.873871,175.678116 479.895325,163.586853 
	C479.918610,162.126907 479.871521,161.061432 479.895447,159.531693 
	C479.925446,150.370331 479.884460,141.673233 479.917938,132.552094 
	C479.945587,130.409012 479.898743,128.689972 479.918335,126.508774 
	C479.938477,117.701614 479.892181,109.356590 479.912903,100.681992 
	C479.935059,99.908875 479.890137,99.465324 479.913910,98.556198 
	C479.982605,90.516243 479.982605,82.941856 479.982605,75.704163 
	C473.916138,74.916275 468.417877,74.320908 462.960388,73.465508 
	C454.805786,72.187355 449.787140,66.054939 443.961792,60.631905 
	C438.744720,51.953991 437.680298,42.635551 437.888580,33.392258 
	C316.531677,33.392258 195.840256,33.392258 75.406013,33.392258 
	C74.973846,39.531551 74.570175,45.266190 74.004791,51.329411 
	C70.212738,57.069061 66.582382,62.480129 62.591049,67.944412 
	C53.866859,74.080551 44.169331,75.323502 34.166794,75.094490 
	C34.166794,82.142265 34.166794,88.570282 34.096283,95.462418 
	C34.072483,105.617531 34.119202,115.308517 34.095745,125.463547 
	C34.072811,136.285553 34.120049,146.643509 34.096992,157.465363 
	C34.073620,168.286758 34.120544,178.644257 34.097614,189.465637 
	C34.074062,200.620804 34.120365,211.312057 34.097065,222.467163 
	C34.001259,230.252792 33.975056,237.574615 33.639915,245.035858 
	C27.480154,250.557953 23.293598,256.899841 21.727718,264.987305 
	C21.385794,265.383850 21.283957,265.683624 21.117208,266.236633 
	C21.090302,266.659943 21.128304,266.829987 21.166307,267.000061 
	C21.110222,272.319092 21.174446,277.643768 20.925655,282.953766 
	C20.849771,284.573334 19.912561,286.152557 19.369820,287.750244 
	C18.904301,287.622314 18.438784,287.494385 17.973265,287.366455 
	C17.973265,280.220612 17.973265,273.074768 17.903364,265.464935 
	C17.879742,255.644836 17.926020,246.288742 17.902487,236.469147 
	C17.879282,225.980331 17.925888,215.954971 17.903259,205.465546 
	C17.880978,194.310394 17.927927,183.619324 17.904701,172.464233 
	C17.880762,162.310684 17.926994,152.621155 17.903185,142.468079 
	C17.879988,131.312286 17.926832,120.620003 17.903259,109.463715 
	C17.880203,98.641983 17.927567,88.284279 17.904186,77.462463 
	C17.880747,66.974556 17.928051,56.950764 17.904470,46.462975 
	C17.881001,37.641632 17.928417,29.284290 17.904915,20.462950 
	C18.396101,19.342882 18.858608,18.287931 19.541927,18.117315 
	C20.799307,17.803360 22.186552,18.000240 23.519674,18.000227 
	C178.851547,17.998833 334.183411,17.998915 489.515289,17.998917 
	C491.160828,17.998917 492.806396,17.998917 495.027252,17.998917 
	C495.027252,19.924007 495.027252,21.521063 495.096558,23.558884 
	C495.119507,33.691097 495.073181,43.382542 495.096497,53.538490 
	C495.120026,64.025566 495.073883,74.048149 495.097809,84.534637 
	C495.121063,95.020866 495.074249,105.043167 495.097290,115.528625 
	C495.120453,126.350693 495.073730,136.709610 495.096924,147.532104 
	C495.120087,158.687744 495.073395,169.379791 495.096802,180.535858 
	C495.119812,191.690659 495.072723,202.381454 495.096161,213.536224 
	C495.119568,224.690918 495.072449,235.381607 495.096313,246.536194 
	C495.119415,257.357910 495.071564,267.715729 495.094910,278.537567 
	C495.118652,289.359039 495.071198,299.716492 495.095215,310.537933 
	C495.118988,320.025543 495.071320,329.049133 495.095215,338.536560 
z"/>
<path fill="#7356F2" opacity="1.000000" stroke="none" 
	d="
M11.025870,349.352234 
	C16.834259,348.695190 22.779116,348.157776 28.732065,348.044067 
	C37.874454,347.869446 47.022411,347.986023 56.949783,348.131592 
	C58.007019,348.862396 58.185093,349.517761 58.572853,350.006958 
	C63.045250,355.649292 67.549408,361.266449 71.808838,367.207428 
	C69.748695,368.016022 67.939178,368.856537 66.098289,368.932007 
	C61.033878,369.139648 55.956318,369.026550 50.572090,368.903381 
	C47.342911,364.617218 44.425606,360.468079 41.090755,355.725067 
	C39.918030,359.423645 38.875305,362.712250 37.375732,366.000580 
	C31.597107,365.630615 26.275339,365.260895 20.953571,364.891174 
	C21.052982,362.669373 21.152393,360.447601 21.245581,358.364899 
	C17.932386,355.504120 14.549175,352.582886 11.025870,349.352234 
z"/>
<path fill="#814AF6" opacity="1.000000" stroke="none" 
	d="
M36.926907,402.417664 
	C53.896015,402.028198 70.906548,402.014862 88.522659,402.312866 
	C93.766243,405.705566 98.404259,408.786865 102.874481,412.227631 
	C101.059509,413.057495 99.425156,413.871552 97.762711,413.933624 
	C92.848091,414.117279 87.913582,413.836548 83.005630,414.094666 
	C81.218483,414.188660 79.484291,415.289490 77.503571,415.817139 
	C77.281212,415.703339 77.412750,415.221344 77.138321,415.045227 
	C76.533257,414.595154 76.202637,414.321167 75.561127,413.875153 
	C74.262711,412.098816 73.275177,410.494446 72.372688,409.028290 
	C70.137817,409.389404 68.251854,409.924408 66.358055,409.953796 
	C61.965061,410.022034 56.486038,408.219666 53.475235,410.223145 
	C50.420990,412.255493 49.802647,417.948517 47.692078,421.999573 
	C41.472641,421.960205 35.678581,421.959564 29.884521,421.958923 
	C32.245796,415.570526 34.607063,409.182129 36.926907,402.417664 
z"/>
<path fill="#8943F8" opacity="1.000000" stroke="none" 
	d="
M29.559998,422.146057 
	C35.678581,421.959564 41.472641,421.960205 47.639290,422.389771 
	C43.954720,433.873932 39.897560,444.929138 35.840401,455.984375 
	C29.920885,455.990448 24.001371,455.996521 17.624315,456.003662 
	C21.019857,445.580170 24.879850,435.158173 28.711740,424.725861 
	C28.990625,423.966644 29.065662,423.132507 29.559998,422.146057 
z"/>
<path fill="#7653F3" opacity="1.000000" stroke="none" 
	d="
M20.597122,365.120300 
	C26.275339,365.260895 31.597107,365.630615 37.446396,366.444855 
	C36.958542,373.690186 40.048935,379.322357 43.117710,384.960663 
	C37.105072,385.307190 31.092434,385.653717 24.623354,386.000305 
	C20.755936,379.516388 19.800846,372.565521 20.597122,365.120300 
z"/>
<path fill="#000000" opacity="1.000000" stroke="none" 
	d="
M174.034378,383.630920 
	C169.702072,386.636078 165.769836,389.880798 161.279037,391.854645 
	C154.857971,394.676941 148.676331,392.152252 142.540192,388.774902 
	C150.830017,384.133484 158.536285,378.942627 164.106918,371.049286 
	C167.899368,366.300812 171.691803,361.552338 175.948273,356.222870 
	C176.979950,359.574371 178.001251,362.892120 179.094696,366.605377 
	C179.291092,372.980316 177.748276,378.450317 174.034378,383.630920 
z"/>
<path fill="#8447F7" opacity="1.000000" stroke="none" 
	d="
M77.725952,415.930908 
	C79.484291,415.289490 81.218483,414.188660 83.005630,414.094666 
	C87.913582,413.836548 92.848091,414.117279 97.762711,413.933624 
	C99.425156,413.871552 101.059509,413.057495 103.326111,412.284851 
	C107.283714,411.948883 110.621902,411.915100 113.960098,411.881317 
	C115.810516,412.587189 117.626617,413.777344 119.517555,413.911316 
	C126.109306,414.378357 132.726944,414.479889 139.586121,415.191803 
	C134.072952,419.872894 130.364197,424.687134 134.996140,431.989563 
	C135.154526,432.239227 135.083206,432.634552 134.703217,433.049500 
	C132.193329,433.424042 130.102875,433.742065 128.004211,433.991119 
	C124.656563,434.388336 121.303474,434.739685 117.952682,435.110413 
	C117.130608,433.240875 116.308533,431.371399 115.341919,429.173187 
	C110.809669,429.497131 105.908501,429.847473 100.511703,430.562469 
	C94.305176,430.604156 88.594284,430.281189 82.932999,429.571838 
	C83.605286,426.940033 84.227951,424.694672 84.850624,422.449310 
	C84.190865,423.059357 83.531105,423.669403 82.871346,424.279449 
	C81.156219,421.496582 79.441093,418.713745 77.725952,415.930908 
z"/>
<path fill="#8943F8" opacity="1.000000" stroke="none" 
	d="
M82.883392,429.958252 
	C88.594284,430.281189 94.305176,430.604156 100.424637,430.963348 
	C97.480965,440.221771 94.128731,449.444000 90.450829,458.849976 
	C84.403694,458.750854 78.682220,458.467926 72.496773,457.717834 
	C73.018127,454.699188 73.978981,452.137939 74.993568,449.598175 
	C77.610840,443.046448 80.251862,436.504242 82.883392,429.958252 
z"/>
<path fill="#8C40F9" opacity="1.000000" stroke="none" 
	d="
M117.985374,435.489624 
	C121.303474,434.739685 124.656563,434.388336 128.004211,433.991119 
	C130.102875,433.742065 132.193329,433.424042 135.022034,433.224579 
	C139.115570,442.542694 142.474518,451.773224 145.833466,461.003723 
	C140.166519,461.009766 134.499557,461.015839 128.357452,461.029938 
	C124.594215,452.648254 121.306145,444.258575 117.985374,435.489624 
z"/>
<path fill="#000000" opacity="1.000000" stroke="none" 
	d="
M82.933006,429.571808 
	C80.251862,436.504242 77.610840,443.046448 74.993568,449.598175 
	C73.978981,452.137939 73.018127,454.699188 72.099800,457.626587 
	C69.897438,463.640503 67.628059,469.278473 65.097137,475.566254 
	C62.542587,471.721985 60.068226,468.396912 58.032753,464.821930 
	C56.040905,461.323639 53.748367,460.256104 49.716309,461.545288 
	C44.088749,463.344666 38.236088,464.440002 32.077679,465.934143 
	C33.408718,462.601532 34.583649,459.659790 35.799492,456.351196 
	C39.897560,444.929138 43.954720,433.873932 48.064667,422.428467 
	C49.802647,417.948517 50.420990,412.255493 53.475235,410.223145 
	C56.486038,408.219666 61.965061,410.022034 66.358055,409.953796 
	C68.251854,409.924408 70.137817,409.389404 72.372688,409.028290 
	C73.275177,410.494446 74.262711,412.098816 75.700089,414.188293 
	C76.570869,414.856079 76.991806,415.038727 77.412750,415.221344 
	C77.412750,415.221344 77.281212,415.703339 77.503593,415.817139 
	C79.441093,418.713745 81.156219,421.496582 82.871346,424.279449 
	C83.531105,423.669403 84.190865,423.059357 84.850624,422.449310 
	C84.227951,424.694672 83.605286,426.940033 82.933006,429.571808 
z"/>
<path fill="#6D5BF0" opacity="1.000000" stroke="none" 
	d="
M442.902161,321.327820 
	C440.739258,329.584259 438.576324,337.840698 436.176422,347.001862 
	C435.708740,347.001862 433.765137,347.001892 431.821503,347.001892 
	C358.664490,347.001892 285.507477,346.990021 212.350555,347.069611 
	C210.505905,347.071625 208.662338,348.080963 206.469040,348.835938 
	C190.645264,349.044220 175.170731,349.037109 159.333832,348.619690 
	C161.036880,342.473358 163.102295,336.737396 165.624817,331.001160 
	C171.424210,331.012695 176.766495,331.024506 182.061966,331.465332 
	C181.339828,336.162659 180.664474,340.431000 179.998993,344.636963 
	C187.607803,345.003967 196.014175,336.662079 198.623734,326.002319 
	C204.664917,326.002136 210.248886,326.002594 215.892120,326.401184 
	C215.660446,327.681976 215.369537,328.564636 214.974121,329.764343 
	C284.051544,329.764343 352.782684,329.764343 421.391785,329.764343 
	C422.339722,326.770721 423.252777,323.887207 424.624329,321.002930 
	C431.022614,321.110687 436.962402,321.219238 442.902161,321.327820 
z"/>
<path fill="#000000" opacity="1.000000" stroke="none" 
	d="
M165.167694,331.001434 
	C163.102295,336.737396 161.036880,342.473358 158.904053,348.578674 
	C154.152161,357.147369 148.050095,364.048370 139.670837,369.668274 
	C121.164879,380.951996 102.615990,382.462250 83.504311,373.112823 
	C79.603447,371.204498 75.860733,368.972900 72.045120,366.890289 
	C67.549408,361.266449 63.045250,355.649292 58.572853,350.006958 
	C58.185093,349.517761 58.007019,348.862396 57.425915,348.123474 
	C55.087326,339.826630 52.926331,331.718689 51.123329,323.531952 
	C50.736336,321.774719 51.644341,319.732330 51.894230,317.413086 
	C52.134602,307.314026 56.203194,298.908936 60.967010,290.364624 
	C65.340187,285.599457 69.561569,281.158997 74.275108,276.361511 
	C89.550453,265.971222 105.581223,262.127533 123.018890,267.112335 
	C128.854828,268.780670 134.321106,271.742096 140.093582,274.421661 
	C144.450851,278.503052 148.670883,282.275177 153.037872,286.368164 
	C156.845596,294.163422 160.506378,301.637878 164.127960,309.574219 
	C164.393265,311.606873 164.916382,313.171265 164.962601,314.749603 
	C165.121170,320.164246 165.112564,325.583771 165.167694,331.001434 
M146.761612,305.303711 
	C144.056595,301.251495 141.855759,296.720734 138.550308,293.238464 
	C129.308151,283.501801 117.703888,280.188934 104.322327,280.854431 
	C90.602684,281.536682 75.599365,291.738251 70.297127,305.263245 
	C66.223679,314.251404 66.069244,323.540558 68.274452,333.735291 
	C69.213287,336.293427 69.795723,339.059387 71.147308,341.376801 
	C82.003510,359.990479 102.754333,369.191315 123.795036,360.909607 
	C136.157257,356.043823 144.539062,347.182434 148.738998,333.662018 
	C148.918869,332.203430 149.007172,330.726593 149.293793,329.289276 
	C150.894104,321.264618 150.212097,313.494263 146.761612,305.303711 
z"/>
<path fill="#7951F4" opacity="1.000000" stroke="none" 
	d="
M71.808823,367.207428 
	C75.860733,368.972900 79.603447,371.204498 83.504311,373.112823 
	C102.615990,382.462250 121.164879,380.951996 139.526886,369.984406 
	C147.698700,370.211975 155.511368,370.467194 163.715469,370.885834 
	C158.536285,378.942627 150.830017,384.133484 142.207886,388.620880 
	C119.773338,388.976471 97.431053,388.993378 74.477005,388.689331 
	C65.510399,382.751373 56.308907,378.141083 50.883965,369.040405 
	C55.956318,369.026550 61.033878,369.139648 66.098289,368.932007 
	C67.939178,368.856537 69.748695,368.016022 71.808823,367.207428 
z"/>
<path fill="#5471E9" opacity="1.000000" stroke="none" 
	d="
M21.967806,264.890564 
	C23.293598,256.899841 27.480154,250.557953 33.985455,245.272293 
	C36.599216,245.579666 38.557922,245.966110 40.517864,245.972488 
	C55.955856,246.022552 71.394089,246.000015 86.786926,246.357147 
	C86.132607,247.969894 85.523605,249.225311 85.019066,250.265411 
	C92.945938,249.495193 100.635101,248.175278 108.326553,248.161758 
	C116.024162,248.148209 123.724068,249.440155 131.709991,250.186691 
	C130.538727,247.691345 129.212418,244.865707 128.278656,241.878998 
	C130.794495,241.478745 132.916672,241.044846 135.041260,241.032623 
	C146.803345,240.964920 158.566437,241.049408 170.328049,240.949722 
	C172.235718,240.933548 174.137772,240.256500 176.397247,239.941071 
	C189.908691,247.957687 195.994766,259.974365 196.376373,275.000977 
	C190.334946,275.001373 184.750595,275.002228 179.095276,274.591827 
	C177.824097,255.712311 158.177704,245.853867 142.501205,255.501999 
	C145.511047,257.402893 148.524658,259.297943 150.986420,261.331177 
	C136.987900,261.977142 123.543526,262.802216 110.093811,262.901123 
	C97.319839,262.995026 84.538094,262.389038 71.765938,261.922028 
	C70.158669,261.863281 68.588966,260.777191 67.320793,260.012970 
	C69.947548,258.381653 72.255363,256.904449 74.695068,255.342804 
	C66.614754,250.912842 58.440376,250.493195 50.229996,254.381485 
	C44.429558,257.128479 41.528366,262.531372 38.833744,267.998535 
	C33.247505,267.665710 27.661263,267.332886 21.620667,267.000061 
	C21.128304,266.829987 21.090302,266.659943 21.271290,266.071808 
	C21.680607,265.418854 21.839781,265.164459 21.967806,264.890564 
z"/>
<path fill="#576EEA" opacity="1.000000" stroke="none" 
	d="
M67.001854,260.167084 
	C68.588966,260.777191 70.158669,261.863281 71.765938,261.922028 
	C84.538094,262.389038 97.319839,262.995026 110.093811,262.901123 
	C123.543526,262.802216 136.987900,261.977142 151.222107,261.507812 
	C155.352921,264.658508 158.696259,267.770691 161.696701,271.121765 
	C157.892303,271.573730 154.406708,271.602203 150.975815,272.050018 
	C147.275955,272.532928 143.627335,273.408295 139.956360,274.112427 
	C134.321106,271.742096 128.854828,268.780670 123.018890,267.112335 
	C105.581223,262.127533 89.550453,265.971222 74.407974,276.057373 
	C71.342804,275.739777 68.645935,275.271088 65.928955,275.021118 
	C61.538845,274.617279 57.135498,274.357330 52.449818,273.689331 
	C57.108547,268.950439 62.055199,264.558746 67.001854,260.167084 
z"/>
<path fill="#000000" opacity="1.000000" stroke="none" 
	d="
M67.320793,260.012970 
	C62.055199,264.558746 57.108547,268.950439 52.023018,273.649780 
	C48.405983,278.524994 44.927826,283.092499 41.198135,287.990295 
	C38.100796,281.721558 36.758709,275.514648 38.880882,268.417969 
	C41.528366,262.531372 44.429558,257.128479 50.229996,254.381485 
	C58.440376,250.493195 66.614754,250.912842 74.695068,255.342804 
	C72.255363,256.904449 69.947548,258.381653 67.320793,260.012970 
z"/>
<path fill="#000000" opacity="1.000000" stroke="none" 
	d="
M18.995274,328.333984 
	C17.593357,321.039337 18.789757,314.578827 22.985840,308.382233 
	C26.424845,303.399414 30.957037,300.610291 36.997665,298.462799 
	C35.922787,304.861389 34.973263,310.513763 34.095497,316.586060 
	C34.779549,326.201294 35.391846,335.396637 36.025581,344.913940 
	C27.478722,342.941528 22.247948,336.981873 18.995274,328.333984 
z"/>
<path fill="#000000" opacity="1.000000" stroke="none" 
	d="
M50.572090,368.903381 
	C56.308907,378.141083 65.510399,382.751373 74.019211,388.692261 
	C64.366570,394.829468 55.118881,394.328979 43.430305,385.100525 
	C40.048935,379.322357 36.958542,373.690186 37.903252,366.445099 
	C38.875305,362.712250 39.918030,359.423645 41.090755,355.725067 
	C44.425606,360.468079 47.342911,364.617218 50.572090,368.903381 
z"/>
<path fill="#000000" opacity="1.000000" stroke="none" 
	d="
M114.136383,411.562439 
	C110.621902,411.915100 107.283714,411.948883 103.493896,411.925415 
	C98.404259,408.786865 93.766243,405.705566 88.980881,402.313477 
	C87.474762,399.299408 86.115997,396.596130 84.158020,392.700745 
	C100.694633,398.086914 116.234497,398.070007 132.581131,392.767548 
	C130.837540,396.192535 129.538483,398.744293 128.203156,401.649231 
	C123.548813,405.082825 118.930733,408.163177 114.136383,411.562439 
z"/>
<path fill="#000000" opacity="1.000000" stroke="none" 
	d="
M145.996109,461.339050 
	C142.474518,451.773224 139.115570,442.542694 135.437775,433.137085 
	C135.083206,432.634552 135.154526,432.239227 134.996140,431.989563 
	C130.364197,424.687134 134.072952,419.872894 139.979095,415.353088 
	C141.669388,413.066254 143.218094,411.089600 144.449448,409.518005 
	C151.051453,409.518005 157.311203,409.518005 163.656570,409.518005 
	C164.561203,411.992615 165.430725,414.371185 166.627472,416.931091 
	C169.245071,423.514557 171.535461,429.916687 173.995697,436.658691 
	C177.188629,445.228058 180.211716,453.457550 183.556854,461.861420 
	C184.082458,463.259125 184.286041,464.482483 184.523483,465.909302 
	C178.557175,464.381104 172.637329,462.964081 166.779587,461.325104 
	C163.550888,460.421692 161.234131,461.008606 159.446930,464.036652 
	C157.240387,467.775177 154.751709,471.347137 152.008453,475.570709 
	C149.925186,470.621796 148.041977,466.148102 145.996109,461.339050 
z"/>
<path fill="#17A6D6" opacity="1.000000" stroke="none" 
	d="
M74.166496,51.000832 
	C74.570175,45.266190 74.973846,39.531551 75.406013,33.392258 
	C195.840256,33.392258 316.531677,33.392258 437.888580,33.392258 
	C437.680298,42.635551 438.744720,51.953991 443.485962,60.640190 
	C440.384094,60.985294 437.576385,60.756561 434.828278,61.062847 
	C431.711334,61.410233 428.647827,62.236729 425.318298,62.543804 
	C423.834595,58.590206 422.593719,54.947731 421.294861,51.135105 
	C420.780426,51.098259 420.127075,51.010509 419.473724,51.010464 
	C311.554474,51.002861 203.635239,50.996864 95.716011,51.046204 
	C94.158203,51.046917 92.600708,51.741936 90.700073,51.875195 
	C84.960220,51.425259 79.563354,51.213047 74.166496,51.000832 
z"/>
<path fill="#229DDA" opacity="1.000000" stroke="none" 
	d="
M425.561066,62.854927 
	C428.647827,62.236729 431.711334,61.410233 434.828278,61.062847 
	C437.576385,60.756561 440.384094,60.985294 443.641327,60.969482 
	C449.787140,66.054939 454.805786,72.187355 462.960388,73.465508 
	C468.417877,74.320908 473.916138,74.916275 479.982605,75.704163 
	C479.982605,82.941856 479.982605,90.516243 479.493896,98.547836 
	C473.392487,99.002983 467.779785,99.000931 462.097748,98.558212 
	C462.028381,95.829124 462.028381,93.540680 462.028381,91.620552 
	C445.219452,87.247780 432.390778,78.848312 425.561066,62.854927 
z"/>
<path fill="#6364ED" opacity="1.000000" stroke="none" 
	d="
M443.169373,321.170349 
	C436.962402,321.219238 431.022614,321.110687 424.668152,320.642975 
	C426.830536,315.808228 428.848541,310.869415 432.096344,306.949646 
	C439.804901,297.646362 449.341431,291.029022 462.361389,289.966064 
	C468.490387,289.979828 474.144623,289.984192 479.798889,289.988525 
	C479.798889,295.107788 479.798889,300.227020 479.798889,305.948547 
	C465.316650,305.175323 452.273682,308.220367 443.169373,321.170349 
z"/>
<path fill="#5075E7" opacity="1.000000" stroke="none" 
	d="
M86.832245,245.999832 
	C71.394089,246.000015 55.955856,246.022552 40.517864,245.972488 
	C38.557922,245.966110 36.599216,245.579666 34.294395,245.132858 
	C33.975056,237.574615 34.001259,230.252792 34.553665,222.466583 
	C40.331146,222.002533 45.582413,222.002884 50.903198,222.463181 
	C50.972717,226.871521 50.972717,230.819901 50.972717,234.994705 
	C58.062748,234.994705 64.558418,235.083649 71.046761,234.905426 
	C72.103424,234.876419 73.127647,233.666000 74.624924,233.001282 
	C77.551811,233.000595 80.027191,232.884583 82.488113,233.023926 
	C87.675674,233.317688 92.855667,233.745193 97.878983,234.420990 
	C92.865944,237.300644 89.212051,241.035156 86.832245,245.999832 
z"/>
<path fill="#229DDA" opacity="1.000000" stroke="none" 
	d="
M34.166794,94.998291 
	C34.166794,88.570282 34.166794,82.142265 34.166794,75.094490 
	C44.169331,75.323502 53.866859,74.080551 62.827881,68.261162 
	C65.423531,69.016258 67.396881,69.733650 69.424171,69.953468 
	C73.974350,70.446838 78.551323,70.693069 82.969650,71.360367 
	C75.004105,82.616943 64.320473,89.002747 51.186939,91.367104 
	C51.055897,92.711456 50.944427,93.854980 50.376152,94.998741 
	C44.668495,94.998749 39.417645,94.998520 34.166794,94.998291 
z"/>
<path fill="#2D94DD" opacity="1.000000" stroke="none" 
	d="
M462.167114,98.998871 
	C467.779785,99.000931 473.392487,99.002983 479.425171,99.013397 
	C479.890137,99.465324 479.935059,99.908875 479.720825,101.045502 
	C479.591736,110.149353 479.721802,118.560135 479.851868,126.970917 
	C479.898743,128.689972 479.945587,130.409012 479.707977,132.559753 
	C479.423523,132.991455 479.003662,133.007874 478.537811,133.006165 
	C472.770264,132.669571 467.468536,132.334671 462.096863,131.535706 
	C462.073669,120.380722 462.120392,109.689796 462.167114,98.998871 
z"/>
<path fill="#3F83E2" opacity="1.000000" stroke="none" 
	d="
M479.825012,163.981323 
	C479.873871,175.678116 479.922699,187.374924 479.575012,199.402252 
	C476.651550,198.821716 474.186493,197.496063 471.581604,197.107315 
	C468.505829,196.648285 465.309174,196.999191 462.094604,196.535110 
	C462.071655,185.714096 462.119049,175.356934 462.622681,164.999893 
	C468.660980,164.660431 474.243011,164.320877 479.825012,163.981323 
z"/>
<path fill="#5075E7" opacity="1.000000" stroke="none" 
	d="
M479.831299,237.968750 
	C479.879425,244.678696 479.927521,251.388626 479.738159,258.706024 
	C479.301849,259.519135 479.130463,259.745605 478.522888,259.994080 
	C472.761749,260.329590 467.464233,260.663879 462.095734,260.534546 
	C462.071991,249.379379 462.119293,238.687820 462.623718,227.996399 
	C468.385773,227.999023 473.690643,228.001526 478.995941,228.445465 
	C479.274658,231.914169 479.552979,234.941452 479.831299,237.968750 
z"/>
<path fill="#3D85E2" opacity="1.000000" stroke="none" 
	d="
M34.167469,189.001755 
	C34.120544,178.644257 34.073620,168.286758 34.553551,157.465088 
	C40.331356,157.000748 45.582306,157.000565 50.903442,157.464371 
	C50.926853,168.619446 50.880074,179.310532 50.380440,190.001404 
	C44.674213,189.668030 39.420841,189.334900 34.167469,189.001755 
z"/>
<path fill="#368BE0" opacity="1.000000" stroke="none" 
	d="
M479.895325,163.586853 
	C474.243011,164.320877 468.660980,164.660431 462.552734,164.535828 
	C462.073303,153.381042 462.120087,142.690399 462.166840,131.999771 
	C467.468536,132.334671 472.770264,132.669571 478.537476,133.473938 
	C479.276794,142.627594 479.550629,151.311783 479.824432,159.995956 
	C479.871521,161.061432 479.918610,162.126907 479.895325,163.586853 
z"/>
<path fill="#477DE4" opacity="1.000000" stroke="none" 
	d="
M34.097614,189.465637 
	C39.420841,189.334900 44.674213,189.668030 50.450241,190.465332 
	C50.926491,201.287399 50.880089,211.645309 50.833687,222.003235 
	C45.582413,222.002884 40.331146,222.002533 34.623276,222.002747 
	C34.120365,211.312057 34.074062,200.620804 34.097614,189.465637 
z"/>
<path fill="#338EDF" opacity="1.000000" stroke="none" 
	d="
M50.833252,157.000381 
	C45.582306,157.000565 40.331356,157.000748 34.623848,157.001205 
	C34.120049,146.643509 34.072811,136.285553 34.550766,125.463615 
	C40.328335,125.332489 45.580708,125.665321 50.903294,126.462395 
	C50.926754,136.951218 50.880005,146.975800 50.833252,157.000381 
z"/>
<path fill="#477DE4" opacity="1.000000" stroke="none" 
	d="
M478.995544,228.004044 
	C473.690643,228.001526 468.385773,227.999023 462.553131,227.532898 
	C462.071899,217.045837 462.118408,207.022415 462.164917,196.998978 
	C465.309174,196.999191 468.505829,196.648285 471.581604,197.107315 
	C474.186493,197.496063 476.651550,198.821716 479.504028,199.866119 
	C479.874634,204.368561 479.919678,208.737656 479.708862,213.930206 
	C479.300507,219.170441 479.148010,223.587250 478.995544,228.004044 
z"/>
<path fill="#5A6BEB" opacity="1.000000" stroke="none" 
	d="
M462.166748,260.998199 
	C467.464233,260.663879 472.761749,260.329590 478.528503,260.463135 
	C479.264862,267.282196 479.531952,273.633362 479.799011,279.984558 
	C479.848511,283.020416 479.898010,286.056274 479.873199,289.540344 
	C474.144623,289.984192 468.490387,289.979828 462.408508,289.502289 
	C462.042877,279.685486 462.104797,270.341827 462.166748,260.998199 
z"/>
<path fill="#2A96DC" opacity="1.000000" stroke="none" 
	d="
M50.833080,125.998161 
	C45.580708,125.665321 40.328335,125.332489 34.620941,124.999580 
	C34.119202,115.308517 34.072483,105.617531 34.096283,95.462418 
	C39.417645,94.998520 44.668495,94.998749 50.446693,95.462860 
	C50.927052,105.950554 50.880066,115.974358 50.833080,125.998161 
z"/>
<path fill="#1CA2D8" opacity="1.000000" stroke="none" 
	d="
M83.117386,71.039909 
	C78.551323,70.693069 73.974350,70.446838 69.424171,69.953468 
	C67.396881,69.733650 65.423531,69.016258 63.188866,68.207947 
	C66.582382,62.480129 70.212738,57.069061 74.004791,51.329414 
	C79.563354,51.213047 84.960220,51.425259 90.681931,52.275597 
	C88.376984,58.955780 85.747185,64.997849 83.117386,71.039909 
z"/>
<path fill="#3F83E2" opacity="1.000000" stroke="none" 
	d="
M479.895447,159.531693 
	C479.550629,151.311783 479.276794,142.627594 479.003326,133.475647 
	C479.003662,133.007874 479.423523,132.991455 479.633484,132.983795 
	C479.884460,141.673233 479.925446,150.370331 479.895447,159.531693 
z"/>
<path fill="#229DDA" opacity="1.000000" stroke="none" 
	d="
M479.918335,126.508774 
	C479.721802,118.560135 479.591736,110.149353 479.653748,101.375069 
	C479.892181,109.356590 479.938477,117.701614 479.918335,126.508774 
z"/>
<path fill="#3F83E2" opacity="1.000000" stroke="none" 
	d="
M478.995941,228.445465 
	C479.148010,223.587250 479.300507,219.170441 479.638367,214.392166 
	C479.871582,221.702347 479.919434,229.373993 479.899292,237.507202 
	C479.552979,234.941452 479.274658,231.914169 478.995941,228.445465 
z"/>
<path fill="#6364ED" opacity="1.000000" stroke="none" 
	d="
M479.871735,279.521606 
	C479.531952,273.633362 479.264862,267.282196 478.992188,260.461914 
	C479.130463,259.745605 479.301849,259.519135 479.658997,259.170410 
	C479.859711,265.704437 479.902100,272.381561 479.871735,279.521606 
z"/>
<path fill="#5A6BEB" opacity="1.000000" stroke="none" 
	d="
M21.727718,264.987305 
	C21.839781,265.164459 21.680607,265.418854 21.336201,265.818604 
	C21.283957,265.683624 21.385794,265.383850 21.727718,264.987305 
z"/>
<path fill="#8447F7" opacity="1.000000" stroke="none" 
	d="
M77.138313,415.045227 
	C76.991806,415.038727 76.570869,414.856079 76.010971,414.360291 
	C76.202637,414.321167 76.533257,414.595154 77.138313,415.045227 
z"/>
<path fill="#000000" opacity="1.000000" stroke="none" 
	d="
M82.969650,71.360367 
	C85.747185,64.997849 88.376984,58.955780 91.024918,52.513313 
	C92.600708,51.741936 94.158203,51.046917 95.716011,51.046204 
	C203.635239,50.996864 311.554474,51.002861 419.473724,51.010464 
	C420.127075,51.010509 420.780426,51.098259 421.294861,51.135105 
	C422.593719,54.947731 423.834595,58.590206 425.318298,62.543804 
	C432.390778,78.848312 445.219452,87.247780 462.028381,91.620552 
	C462.028381,93.540680 462.028381,95.829124 462.097748,98.558220 
	C462.120392,109.689796 462.073669,120.380722 462.096863,131.535706 
	C462.120087,142.690399 462.073303,153.381042 462.096466,164.535736 
	C462.119049,175.356934 462.071655,185.714096 462.094604,196.535110 
	C462.118408,207.022415 462.071899,217.045837 462.095978,227.532776 
	C462.119293,238.687820 462.071991,249.379379 462.095734,260.534546 
	C462.104797,270.341827 462.042877,279.685486 461.933807,289.492920 
	C449.341431,291.029022 439.804901,297.646362 432.096344,306.949646 
	C428.848541,310.869415 426.830536,315.808228 424.209656,320.643768 
	C423.252777,323.887207 422.339722,326.770721 421.391785,329.764343 
	C352.782684,329.764343 284.051544,329.764343 214.974121,329.764343 
	C215.369537,328.564636 215.660446,327.681976 215.963470,325.946350 
	C216.599945,317.669403 215.042831,310.674011 211.798645,303.659637 
	C206.625549,297.165894 201.485870,291.016022 195.803177,284.216370 
	C196.043594,282.065979 196.438507,278.533722 196.833420,275.001434 
	C195.994766,259.974365 189.908691,247.957687 176.222809,239.626404 
	C166.642593,235.118896 157.424988,232.365402 147.281799,234.846390 
	C146.077896,235.140854 144.136276,233.814117 143.004211,232.744110 
	C139.706879,229.627548 136.939270,225.901337 133.444321,223.051407 
	C116.228874,209.013229 85.681061,213.122314 74.166855,233.001648 
	C73.127647,233.666000 72.103424,234.876419 71.046761,234.905426 
	C64.558418,235.083649 58.062748,234.994705 50.972717,234.994705 
	C50.972717,230.819901 50.972717,226.871521 50.903202,222.463181 
	C50.880089,211.645309 50.926491,201.287399 50.903095,190.465546 
	C50.880074,179.310532 50.926853,168.619446 50.903442,157.464371 
	C50.880005,146.975800 50.926754,136.951218 50.903294,126.462395 
	C50.880066,115.974358 50.927052,105.950554 50.903500,95.462631 
	C50.944427,93.854980 51.055897,92.711456 51.186939,91.367104 
	C64.320473,89.002747 75.004105,82.616943 82.969650,71.360367 
M100.025932,80.925323 
	C100.073051,86.283371 100.120171,91.641426 100.026154,97.927101 
	C100.026154,104.190498 100.026154,110.453896 100.026154,116.695145 
	C204.989151,116.695145 309.331085,116.695145 413.831726,116.695145 
	C413.831726,110.262405 413.831726,104.131126 413.971497,97.073746 
	C413.925293,91.715683 413.879089,86.357620 413.973419,80.079117 
	C413.982239,77.747124 413.997894,75.415138 413.998596,73.083145 
	C414.000702,66.001755 413.998474,65.999779 406.972229,65.999748 
	C306.692383,65.999313 206.412506,65.999451 106.132645,65.999451 
	C104.196320,65.999451 102.259995,65.999451 100.166473,65.999451 
	C100.166473,71.067894 100.166473,75.533577 100.025932,80.925323 
M365.500000,165.000000 
	C299.094452,165.000000 232.688934,165.000000 166.385681,165.000000 
	C166.385681,171.392471 166.385681,177.116028 166.385681,182.750183 
	C249.022202,182.750183 331.272156,182.750183 413.696472,182.750183 
	C413.696472,176.781693 413.696472,171.063980 413.696472,165.000000 
	C397.763794,165.000000 382.131897,165.000000 365.500000,165.000000 
M262.500000,197.999893 
	C230.417419,197.999893 198.334824,197.999893 166.404968,197.999893 
	C166.404968,204.422089 166.404968,210.146362 166.404968,215.744537 
	C249.067749,215.744537 331.324646,215.744537 413.690918,215.744537 
	C413.690918,209.765152 413.690918,204.044266 413.690918,197.999893 
	C363.420624,197.999893 313.460297,197.999893 262.500000,197.999893 
M395.499390,248.998444 
	C401.594025,248.998444 407.688690,248.998444 413.601990,248.998444 
	C413.601990,242.582458 413.601990,236.855957 413.601990,231.259323 
	C344.611481,231.259323 276.019226,231.259323 207.312408,231.259323 
	C207.312408,237.242233 207.312408,242.962967 207.312408,248.998444 
	C269.916534,248.998444 332.208038,248.998444 395.499390,248.998444 
M297.500000,150.001282 
	C314.252441,150.001282 331.004913,150.001282 347.601074,150.001282 
	C347.601074,143.572983 347.601074,137.847763 347.601074,132.260284 
	C286.944092,132.260284 226.687027,132.260284 166.311523,132.260284 
	C166.311523,138.242966 166.311523,143.963318 166.311523,150.001282 
	C209.914963,150.001282 253.207474,150.001282 297.500000,150.001282 
M252.500137,314.001282 
	C273.249359,314.001282 293.998566,314.001282 314.611145,314.001282 
	C314.611145,307.925537 314.611145,302.533112 314.611145,297.252045 
	C286.625732,297.252045 259.030182,297.252045 231.299530,297.252045 
	C231.299530,302.893738 231.299530,308.280731 231.299530,314.001282 
	C238.230362,314.001282 244.865295,314.001282 252.500137,314.001282 
M372.500000,297.000946 
	C358.414154,297.000946 344.328308,297.000946 330.390289,297.000946 
	C330.390289,303.084381 330.390289,308.477020 330.390289,313.748901 
	C358.378265,313.748901 385.974304,313.748901 413.696533,313.748901 
	C413.696533,308.105835 413.696533,302.719055 413.696533,297.000946 
	C400.096893,297.000946 386.798431,297.000946 372.500000,297.000946 
M100.140511,165.803818 
	C100.140511,171.404709 100.140511,177.005615 100.140511,182.675781 
	C105.935272,182.675781 111.317940,182.675781 116.629951,182.675781 
	C116.629951,176.628113 116.629951,170.909134 116.629951,165.136780 
	C111.114479,165.136780 105.968643,165.136780 100.140511,165.803818 
M133.003754,167.727005 
	C133.003754,172.673676 133.003754,177.620346 133.003754,182.700226 
	C138.886673,182.700226 144.269058,182.700226 149.654205,182.700226 
	C149.654205,176.679077 149.654205,170.960602 149.654205,165.002945 
	C144.833328,165.002945 140.352600,164.900513 135.883575,165.083389 
	C134.908203,165.123291 133.974533,166.182449 133.003754,167.727005 
z"/>
<path fill="#000000" opacity="1.000000" stroke="none" 
	d="
M198.166534,326.002899 
	C196.014175,336.662079 187.607803,345.003967 179.998993,344.636963 
	C180.664474,340.431000 181.339828,336.162659 182.417023,331.218445 
	C182.490326,323.363098 182.161758,316.183685 181.766449,308.619080 
	C181.068710,305.287781 180.437729,302.341644 179.475891,297.850677 
	C184.490601,300.757324 188.191589,302.902527 192.039841,305.368774 
	C196.697769,311.719788 199.430649,318.273041 198.166534,326.002899 
z"/>
<path fill="#6761EE" opacity="1.000000" stroke="none" 
	d="
M198.623734,326.002319 
	C199.430649,318.273041 196.697769,311.719788 192.431274,305.205841 
	C199.060989,304.482391 205.446533,304.242950 211.832062,304.003479 
	C215.042831,310.674011 216.599945,317.669403 215.904236,325.548218 
	C210.248886,326.002594 204.664917,326.002136 198.623734,326.002319 
z"/>
<path fill="#695EEF" opacity="1.000000" stroke="none" 
	d="
M181.833191,309.004242 
	C182.161758,316.183685 182.490326,323.363098 182.463821,330.789429 
	C176.766495,331.024506 171.424210,331.012695 165.624817,331.001160 
	C165.112564,325.583771 165.121170,320.164246 164.962601,314.749603 
	C164.916382,313.171265 164.393265,311.606873 164.649643,309.555756 
	C170.751419,309.051666 176.292313,309.027954 181.833191,309.004242 
z"/>
<path fill="#6F59F1" opacity="1.000000" stroke="none" 
	d="
M148.041718,334.105530 
	C144.539062,347.182434 136.157257,356.043823 123.795036,360.909607 
	C102.754333,369.191315 82.003510,359.990479 71.147308,341.376801 
	C69.795723,339.059387 69.213287,336.293427 68.678131,333.368408 
	C74.998894,333.001953 80.915993,333.002319 86.982880,333.318665 
	C92.363861,341.253357 98.804085,346.394745 108.813210,346.093994 
	C119.204369,345.781738 125.779778,340.183868 131.275406,332.120758 
	C133.603104,332.520691 135.536377,332.782196 137.475021,332.994568 
	C140.995560,333.380310 144.519302,333.736816 148.041718,334.105530 
z"/>
<path fill="#6067EC" opacity="1.000000" stroke="none" 
	d="
M70.953545,304.891876 
	C75.599365,291.738251 90.602684,281.536682 104.322327,280.854431 
	C117.703888,280.188934 129.308151,283.501801 138.550308,293.238464 
	C141.855759,296.720734 144.056595,301.251495 146.340057,305.652496 
	C141.817322,306.001770 137.699417,305.784515 133.622345,306.098175 
	C131.694382,306.246521 129.844620,307.411285 127.649094,307.953796 
	C123.366806,301.176422 116.942146,298.755432 109.800896,298.062134 
	C101.326599,297.239441 94.913094,301.678680 88.699707,306.874054 
	C86.252960,306.424255 84.149887,306.210938 82.046547,306.000305 
	C78.348969,305.629944 74.651222,305.261261 70.953545,304.891876 
z"/>
<path fill="#6067EC" opacity="1.000000" stroke="none" 
	d="
M181.766449,308.619080 
	C176.292313,309.027954 170.751419,309.051666 164.688843,309.093872 
	C160.506378,301.637878 156.845596,294.163422 153.429504,286.205261 
	C160.060532,285.481903 166.446854,285.242218 172.990631,285.326477 
	C173.771515,286.468811 174.394928,287.287201 176.040527,289.447388 
	C177.281708,283.711700 178.223969,279.357361 179.166229,275.003052 
	C184.750595,275.002228 190.334946,275.001373 196.376373,275.000977 
	C196.438507,278.533722 196.043594,282.065979 195.803177,284.216370 
	C201.485870,291.016022 206.625549,297.165894 211.798645,303.659637 
	C205.446533,304.242950 199.060989,304.482391 192.284027,304.884766 
	C188.191589,302.902527 184.490601,300.757324 179.475891,297.850677 
	C180.437729,302.341644 181.068710,305.287781 181.766449,308.619080 
z"/>
<path fill="#6761EE" opacity="1.000000" stroke="none" 
	d="
M70.625336,305.077576 
	C74.651222,305.261261 78.348969,305.629944 82.046547,306.000305 
	C84.149887,306.210938 86.252960,306.424255 88.670364,307.238464 
	C83.567406,315.826050 82.611282,324.193024 86.833084,333.002716 
	C80.915993,333.002319 74.998894,333.001953 68.624298,333.002106 
	C66.069244,323.540558 66.223679,314.251404 70.625336,305.077576 
z"/>
<path fill="#6761EE" opacity="1.000000" stroke="none" 
	d="
M127.959419,308.115540 
	C129.844620,307.411285 131.694382,306.246521 133.622345,306.098175 
	C137.699417,305.784515 141.817322,306.001770 146.375732,306.001740 
	C150.212097,313.494263 150.894104,321.264618 149.293793,329.289276 
	C149.007172,330.726593 148.918869,332.203430 148.390350,333.883789 
	C144.519302,333.736816 140.995560,333.380310 137.475021,332.994568 
	C135.536377,332.782196 133.603104,332.520691 131.325165,331.716187 
	C133.823227,322.967438 133.272018,315.229004 127.959419,308.115540 
z"/>
<path fill="#5A6BEB" opacity="1.000000" stroke="none" 
	d="
M172.833176,285.002563 
	C166.446854,285.242218 160.060532,285.481903 153.282562,285.884460 
	C148.670883,282.275177 144.450851,278.503052 140.093582,274.421661 
	C143.627335,273.408295 147.275955,272.532928 150.975815,272.050018 
	C154.406708,271.602203 157.892303,271.573730 162.007141,271.263550 
	C166.051361,275.778503 169.442276,280.390533 172.833176,285.002563 
z"/>
<path fill="#4D77E7" opacity="1.000000" stroke="none" 
	d="
M74.624916,233.001266 
	C85.681061,213.122314 116.228874,209.013229 133.444321,223.051407 
	C136.939270,225.901337 139.706879,229.627548 143.004211,232.744110 
	C144.136276,233.814117 146.077896,235.140854 147.281799,234.846390 
	C157.424988,232.365402 166.642593,235.118896 175.867981,239.570251 
	C174.137772,240.256500 172.235718,240.933548 170.328049,240.949722 
	C158.566437,241.049408 146.803345,240.964920 135.041260,241.032623 
	C132.916672,241.044846 130.794495,241.478745 127.963928,241.735596 
	C123.755760,239.152710 120.389526,236.341476 116.723801,233.998871 
	C110.561768,230.060928 104.263992,232.577942 98.038765,234.117798 
	C92.855667,233.745193 87.675674,233.317688 82.488113,233.023926 
	C80.027191,232.884583 77.551811,233.000595 74.624916,233.001266 
z"/>
<path fill="#000000" opacity="1.000000" stroke="none" 
	d="
M97.878983,234.420990 
	C104.263992,232.577942 110.561768,230.060928 116.723801,233.998871 
	C120.389526,236.341476 123.755760,239.152710 127.571381,241.896652 
	C129.212418,244.865707 130.538727,247.691345 131.709991,250.186691 
	C123.724068,249.440155 116.024162,248.148209 108.326553,248.161758 
	C100.635101,248.175278 92.945938,249.495193 85.019066,250.265411 
	C85.523605,249.225311 86.132607,247.969894 86.786926,246.357147 
	C89.212051,241.035156 92.865944,237.300644 97.878983,234.420990 
z"/>
<path fill="#000000" opacity="1.000000" stroke="none" 
	d="
M172.990631,285.326508 
	C169.442276,280.390533 166.051361,275.778503 162.350021,271.024689 
	C158.696259,267.770691 155.352921,264.658508 151.773926,261.369659 
	C148.524658,259.297943 145.511047,257.402893 142.501205,255.501999 
	C158.177704,245.853867 177.824097,255.712311 179.095276,274.591827 
	C178.223969,279.357361 177.281708,283.711700 176.040527,289.447388 
	C174.394928,287.287201 173.771515,286.468811 172.990631,285.326508 
z"/>
<path fill="#2A96DC" opacity="1.000000" stroke="none" 
	d="
M413.831726,97.999847 
	C413.831726,104.131126 413.831726,110.262405 413.831726,116.695145 
	C309.331085,116.695145 204.989151,116.695145 100.026154,116.695145 
	C100.026154,110.453896 100.026154,104.190498 100.553284,97.463394 
	C106.331032,96.999695 111.581657,96.999695 116.927971,97.426086 
	C118.812202,98.234810 120.600273,98.948418 122.389351,98.950996 
	C165.657455,99.013206 208.925674,98.999519 252.193863,98.999519 
	C298.457550,98.999512 344.721283,99.021111 390.984741,98.915123 
	C392.713501,98.911171 394.439423,97.666161 396.622986,96.999634 
	C402.663422,97.333122 408.247559,97.666481 413.831726,97.999847 
z"/>
<path fill="#3D85E2" opacity="1.000000" stroke="none" 
	d="
M366.000000,165.000000 
	C382.131897,165.000000 397.763794,165.000000 413.696472,165.000000 
	C413.696472,171.063980 413.696472,176.781693 413.696472,182.750183 
	C331.272156,182.750183 249.022202,182.750183 166.385681,182.750183 
	C166.385681,177.116028 166.385681,171.392471 166.385681,165.000000 
	C232.688934,165.000000 299.094452,165.000000 366.000000,165.000000 
z"/>
<path fill="#477DE4" opacity="1.000000" stroke="none" 
	d="
M263.000000,197.999893 
	C313.460297,197.999893 363.420624,197.999893 413.690918,197.999893 
	C413.690918,204.044266 413.690918,209.765152 413.690918,215.744537 
	C331.324646,215.744537 249.067749,215.744537 166.404968,215.744537 
	C166.404968,210.146362 166.404968,204.422089 166.404968,197.999893 
	C198.334824,197.999893 230.417419,197.999893 263.000000,197.999893 
z"/>
<path fill="#209ED9" opacity="1.000000" stroke="none" 
	d="
M100.166473,79.999268 
	C100.166473,75.533577 100.166473,71.067894 100.166473,65.999451 
	C102.259995,65.999451 104.196320,65.999451 106.132645,65.999451 
	C206.412506,65.999451 306.692383,65.999313 406.972229,65.999748 
	C413.998474,65.999779 414.000702,66.001755 413.998596,73.083145 
	C413.997894,75.415138 413.982239,77.747124 413.494354,80.503159 
	C409.713257,80.618126 406.411346,80.040565 403.109161,80.039001 
	C302.128296,79.990982 201.147385,79.999512 100.166473,79.999268 
z"/>
<path fill="#5075E7" opacity="1.000000" stroke="none" 
	d="
M394.999481,248.998444 
	C332.208038,248.998444 269.916534,248.998444 207.312408,248.998444 
	C207.312408,242.962967 207.312408,237.242233 207.312408,231.259323 
	C276.019226,231.259323 344.611481,231.259323 413.601990,231.259323 
	C413.601990,236.855957 413.601990,242.582458 413.601990,248.998444 
	C407.688690,248.998444 401.594025,248.998444 394.999481,248.998444 
z"/>
<path fill="#338EDF" opacity="1.000000" stroke="none" 
	d="
M297.000000,150.001282 
	C253.207474,150.001282 209.914963,150.001282 166.311523,150.001282 
	C166.311523,143.963318 166.311523,138.242966 166.311523,132.260284 
	C226.687027,132.260284 286.944092,132.260284 347.601074,132.260284 
	C347.601074,137.847763 347.601074,143.572983 347.601074,150.001282 
	C331.004913,150.001282 314.252441,150.001282 297.000000,150.001282 
z"/>
<path fill="#249CDA" opacity="1.000000" stroke="none" 
	d="
M100.096207,80.462296 
	C201.147385,79.999512 302.128296,79.990982 403.109161,80.039001 
	C406.411346,80.040565 409.713257,80.618126 413.424072,80.963379 
	C413.879089,86.357620 413.925293,91.715683 413.901611,97.536797 
	C408.247559,97.666481 402.663422,97.333122 396.553101,96.538963 
	C396.026947,92.144966 396.026947,88.211761 396.026947,84.303375 
	C302.682190,84.303375 210.005707,84.303375 116.832275,84.303375 
	C116.832275,88.734474 116.832275,92.867088 116.832275,96.999702 
	C111.581657,96.999695 106.331032,96.999695 100.623856,96.999580 
	C100.120171,91.641426 100.073051,86.283371 100.096207,80.462296 
z"/>
<path fill="#6364ED" opacity="1.000000" stroke="none" 
	d="
M252.000183,314.001282 
	C244.865295,314.001282 238.230362,314.001282 231.299530,314.001282 
	C231.299530,308.280731 231.299530,302.893738 231.299530,297.252045 
	C259.030182,297.252045 286.625732,297.252045 314.611145,297.252045 
	C314.611145,302.533112 314.611145,307.925537 314.611145,314.001282 
	C293.998566,314.001282 273.249359,314.001282 252.000183,314.001282 
z"/>
<path fill="#6364ED" opacity="1.000000" stroke="none" 
	d="
M373.000000,297.000946 
	C386.798431,297.000946 400.096893,297.000946 413.696533,297.000946 
	C413.696533,302.719055 413.696533,308.105835 413.696533,313.748901 
	C385.974304,313.748901 358.378265,313.748901 330.390289,313.748901 
	C330.390289,308.477020 330.390289,303.084381 330.390289,297.000946 
	C344.328308,297.000946 358.414154,297.000946 373.000000,297.000946 
z"/>
<path fill="#3D85E2" opacity="1.000000" stroke="none" 
	d="
M100.481659,165.470306 
	C105.968643,165.136780 111.114479,165.136780 116.629951,165.136780 
	C116.629951,170.909134 116.629951,176.628113 116.629951,182.675781 
	C111.317940,182.675781 105.935272,182.675781 100.140511,182.675781 
	C100.140511,177.005615 100.140511,171.404709 100.481659,165.470306 
z"/>
<path fill="#3D85E2" opacity="1.000000" stroke="none" 
	d="
M133.012711,167.249603 
	C133.974533,166.182449 134.908203,165.123291 135.883575,165.083389 
	C140.352600,164.900513 144.833328,165.002945 149.654205,165.002945 
	C149.654205,170.960602 149.654205,176.679077 149.654205,182.700226 
	C144.269058,182.700226 138.886673,182.700226 133.003754,182.700226 
	C133.003754,177.620346 133.003754,172.673676 133.012711,167.249603 
z"/>
<path fill="#000000" opacity="1.000000" stroke="none" 
	d="
M127.649094,307.953796 
	C133.272018,315.229004 133.823227,322.967438 130.933167,331.555603 
	C125.779778,340.183868 119.204369,345.781738 108.813210,346.093994 
	C98.804085,346.394745 92.363861,341.253357 86.982880,333.318665 
	C82.611282,324.193024 83.567406,315.826050 89.013924,307.476135 
	C94.913094,301.678680 101.326599,297.239441 109.800896,298.062134 
	C116.942146,298.755432 123.366806,301.176422 127.649094,307.953796 
z"/>
<path fill="#000000" opacity="1.000000" stroke="none" 
	d="
M116.927971,97.426086 
	C116.832275,92.867088 116.832275,88.734474 116.832275,84.303375 
	C210.005707,84.303375 302.682190,84.303375 396.026947,84.303375 
	C396.026947,88.211761 396.026947,92.144966 396.096802,96.538834 
	C394.439423,97.666161 392.713501,98.911171 390.984741,98.915123 
	C344.721283,99.021111 298.457550,98.999512 252.193863,98.999519 
	C208.925674,98.999519 165.657455,99.013206 122.389351,98.950996 
	C120.600273,98.948418 118.812202,98.234810 116.927971,97.426086 
z"/>
</svg>