<svg version="1.1" id="Layer_1" xmlns="http://www.w3.org/2000/svg" xmlns:xlink="http://www.w3.org/1999/xlink" x="0px" y="0px"
	 width="100%" viewBox="0 0 512 512" enable-background="new 0 0 512 512" xml:space="preserve">
<path fill="#000000" opacity="1.000000" stroke="none" 
	d="
M1.000000,181.000000 
	C1.000000,122.000000 1.038148,63.499912 0.903000,5.000224 
	C0.895088,1.575287 1.576367,0.903139 5.000061,0.905342 
	C172.999985,1.013444 341.000000,1.013444 508.999939,0.905342 
	C512.423645,0.903139 513.096802,1.576367 513.094604,5.000061 
	C512.986511,172.999985 512.986511,341.000000 513.094604,508.999939 
	C513.096802,512.423645 512.423645,513.096802 508.999939,513.094604 
	C341.000000,512.986511 172.999985,512.986511 5.000061,513.094604 
	C1.576367,513.096802 0.900996,512.423889 0.904634,508.999908 
	C1.020620,399.833374 1.000000,290.666656 1.000000,181.000000 
z"/>
<path fill="#E05E9C" opacity="1.000000" stroke="none" 
	d="
M149.518082,136.373932 
	C148.146515,134.304535 146.469833,135.043640 145.096848,135.037491 
	C131.765884,134.977798 118.433075,135.108765 105.104362,134.925293 
	C101.833809,134.880264 100.920830,135.788208 100.967316,139.061340 
	C101.147133,151.723175 101.024193,164.389328 100.914688,177.511154 
	C98.181862,177.605423 98.056816,175.523895 97.916862,173.570709 
	C97.671867,170.151535 97.660027,166.724838 98.033768,162.858643 
	C97.670540,157.289688 97.818733,152.158752 97.745201,147.031631 
	C97.659523,141.056168 97.103302,140.547638 91.267265,140.209381 
	C89.014450,140.078812 86.557281,140.619659 84.453552,138.312988 
	C84.111877,134.190567 84.020729,130.381546 84.010155,126.572304 
	C83.994308,120.862862 86.849564,118.028091 92.759766,118.016823 
	C111.161476,117.981720 129.563293,118.000412 148.426300,117.978424 
	C154.606018,114.446236 160.399597,114.969490 166.564087,118.027054 
	C168.888947,123.299385 168.481964,128.284073 167.419037,133.786530 
	C166.599152,136.379105 165.100571,137.771652 162.964859,137.876373 
	C158.567963,138.091949 154.039688,139.295929 149.518082,136.373932 
z"/>
<path fill="#4DA7EA" opacity="1.000000" stroke="none" 
	d="
M310.038513,404.595886 
	C283.328033,432.807159 238.998611,434.632324 210.026123,410.356567 
	C211.093689,406.875671 213.878662,406.983643 216.542542,406.826691 
	C223.500549,406.416718 230.451859,407.212311 237.831421,406.799133 
	C243.013062,405.189362 247.417511,407.629059 252.007050,408.039581 
	C261.754395,408.911377 270.837433,407.065338 279.637177,403.121521 
	C281.604218,402.239899 283.499237,401.109039 286.218689,401.367157 
	C292.181305,402.459808 297.752167,401.375153 303.291779,401.804932 
	C305.709198,401.992462 308.311401,401.630005 310.038513,404.595886 
z"/>
<path fill="#DF5F9D" opacity="1.000000" stroke="none" 
	d="
M424.659851,118.758415 
	C428.849854,119.711876 429.808044,122.573380 429.955811,125.770256 
	C430.129608,129.532166 429.985474,133.308792 429.906372,137.540192 
	C425.362000,141.743423 420.316467,140.235291 415.429047,139.412842 
	C413.792419,139.137466 413.494415,137.380920 413.150635,135.438110 
	C398.378448,135.023865 383.880219,134.978241 369.382660,135.056961 
	C367.935211,135.064819 366.008453,133.987717 364.927429,136.575348 
	C363.956024,138.039398 362.960358,138.890427 361.527283,138.986832 
	C355.080872,139.420502 348.632660,139.393585 342.186462,138.998184 
	C340.608734,138.901398 339.344452,138.184906 338.382751,136.341675 
	C338.156708,133.681046 339.517395,132.422089 341.402649,132.097595 
	C344.968811,131.483780 345.784058,129.205048 345.813019,126.074875 
	C345.834045,123.800743 345.670837,121.419853 347.702118,119.197632 
	C352.855530,116.949524 357.876190,117.463470 362.722443,118.202415 
	C365.681458,118.653587 368.590759,118.995056 371.560059,118.996498 
	C386.801453,119.003922 402.042847,118.993851 417.284241,119.006599 
	C419.605347,119.008545 421.919403,118.991455 424.659851,118.758415 
z"/>
<path fill="#7E91EB" opacity="1.000000" stroke="none" 
	d="
M474.920990,339.620239 
	C464.955536,350.269745 452.950989,357.604126 438.857574,360.464539 
	C417.202545,364.859589 396.738373,361.819916 378.301422,347.984802 
	C377.679199,347.649200 377.416351,347.416229 376.954712,347.016296 
	C376.724396,346.885406 376.289612,346.779602 376.202423,346.573547 
	C377.025482,343.405457 379.425201,342.910156 382.033203,342.872864 
	C388.003540,342.787476 393.984894,342.398499 399.935394,343.153870 
	C401.466095,343.348175 402.894470,343.480591 404.620270,342.362122 
	C408.707428,340.786682 412.224640,342.580994 415.822662,342.882080 
	C426.176147,343.748596 436.056549,342.294617 445.446228,337.775146 
	C447.112701,336.973022 448.816742,336.324493 451.152405,336.649200 
	C457.098602,337.360352 462.619629,336.382111 468.138092,336.812286 
	C470.564392,337.001404 473.132050,336.737427 474.920990,339.620239 
z"/>
<path fill="#CA6DDC" opacity="1.000000" stroke="none" 
	d="
M38.073891,240.378738 
	C38.691208,235.480545 43.088387,234.347107 45.869198,231.874008 
	C52.006401,226.415970 59.323341,222.665817 67.515083,219.974030 
	C81.722832,218.501892 95.568909,218.259537 109.435455,219.343658 
	C110.110329,219.396439 110.718300,219.091599 111.638344,218.444275 
	C122.201660,221.520737 131.809479,225.967163 139.972992,233.635147 
	C139.188385,237.082199 136.559998,237.021698 134.060165,237.162552 
	C127.596519,237.526779 121.139259,236.949203 114.259888,237.142441 
	C111.877655,238.055878 109.956612,237.720764 107.982338,237.199936 
	C93.240334,233.310928 79.016281,234.312073 65.491066,241.791885 
	C63.894077,242.675064 62.264652,243.557327 59.896877,243.299957 
	C54.616394,242.426361 49.765537,243.660507 44.904209,243.192642 
	C42.447586,242.956192 39.979652,242.990387 38.073891,240.378738 
z"/>
<path fill="#F0546C" opacity="1.000000" stroke="none" 
	d="
M282.593445,36.840057 
	C288.521515,37.226303 293.416565,39.724964 297.956879,42.222439 
	C302.655762,44.807167 305.474915,44.082108 308.392456,40.153854 
	C311.384735,36.124989 315.319427,34.778000 319.953796,37.092865 
	C321.506683,37.868546 322.767029,39.300442 324.038574,40.556427 
	C328.981293,45.438713 333.874817,50.370861 338.917938,55.589607 
	C339.248230,59.368332 336.804688,59.865211 334.227692,60.073227 
	C329.636108,60.443859 325.023224,60.016193 320.047760,60.551109 
	C316.640289,60.819412 314.029724,61.464909 311.574249,63.698879 
	C307.847046,67.089912 303.092102,67.015388 298.955566,64.705391 
	C289.902985,59.650120 280.505005,55.697311 270.499481,52.895428 
	C263.300415,50.879456 261.077576,44.221607 264.898010,37.137188 
	C270.867706,35.139698 276.501404,35.300087 282.593445,36.840057 
z"/>
<path fill="#CB6DDA" opacity="1.000000" stroke="none" 
	d="
M373.034302,235.402222 
	C382.326813,224.887894 394.323883,219.762100 407.545807,217.007874 
	C409.505096,216.599747 411.640686,216.653748 413.086304,214.397522 
	C418.341888,210.404678 423.717712,211.218918 429.491699,213.640244 
	C429.801208,217.077484 432.506927,216.057037 433.843445,216.290939 
	C445.156921,218.271011 455.353516,222.780258 464.897339,229.580475 
	C464.856201,233.323685 462.138000,233.057205 459.964233,233.101318 
	C452.553589,233.251724 445.130188,233.629272 437.734589,232.786575 
	C436.234589,232.615646 434.786255,232.361908 433.144775,233.707581 
	C431.053711,235.242828 429.030090,235.226257 427.069275,235.088348 
	C418.727325,234.501648 410.623383,235.590500 402.718842,238.280365 
	C401.303680,238.761932 399.865295,239.119644 397.919495,238.651184 
	C391.620636,237.309280 385.707977,238.752884 379.827301,238.202942 
	C377.402252,237.976151 374.769958,238.403824 373.034302,235.402222 
z"/>
<path fill="#9487EC" opacity="1.000000" stroke="none" 
	d="
M29.253719,326.321899 
	C25.594278,322.144653 24.378548,317.210144 22.208183,312.365784 
	C23.457104,310.143982 25.387075,309.847961 27.434721,309.849823 
	C30.908358,309.853027 34.371197,309.597992 38.222939,309.480988 
	C42.078506,310.052795 43.248009,312.984619 44.695835,315.510895 
	C46.159370,318.064545 47.646748,318.881287 50.035706,316.538269 
	C51.690384,314.915405 53.555260,313.497620 56.528648,313.916687 
	C77.386101,313.470551 97.853546,313.879791 118.318748,313.742096 
	C120.988518,313.724152 123.639931,313.900360 126.683197,314.197388 
	C129.835754,313.410980 132.008347,314.610840 133.825958,316.433563 
	C136.089798,318.703766 137.728821,318.306580 139.342789,315.717346 
	C140.313980,314.159332 141.595612,312.810760 143.997360,312.498535 
	C148.115265,311.428864 151.908707,311.818604 155.688065,311.912933 
	C157.604874,311.960785 159.242432,312.553467 160.558212,314.645416 
	C159.034821,318.535187 158.491760,322.665466 155.429443,325.903748 
	C152.842560,327.355621 150.337280,327.207214 147.866943,327.230194 
	C138.142334,327.320557 128.416428,327.079742 118.310776,327.530914 
	C115.652214,328.541962 113.762573,327.571564 111.803909,326.543579 
	C98.070839,319.336273 84.461555,319.382324 71.015282,327.356018 
	C69.431145,328.295380 67.780243,329.085785 65.428207,328.708160 
	C55.936111,327.751282 46.839809,328.510406 37.756195,328.243896 
	C34.946804,328.161469 32.078911,328.405548 29.253719,326.321899 
z"/>
<path fill="#CF69CB" opacity="1.000000" stroke="none" 
	d="
M215.348297,210.126953 
	C211.209152,207.924179 208.785294,209.345779 206.067078,212.281540 
	C199.747528,219.106857 196.405258,218.914124 189.722565,212.227890 
	C184.201202,206.703598 178.678146,201.181015 173.018921,195.348587 
	C173.858704,192.392685 176.098434,191.987411 178.499512,191.887817 
	C183.119141,191.696167 187.736557,191.682053 192.761871,192.022049 
	C196.940582,192.532242 199.990356,191.503296 203.066879,189.017014 
	C206.696106,186.084030 211.383789,185.946579 215.244217,188.453308 
	C223.991409,194.133194 233.587662,197.467804 243.509689,200.273651 
	C248.876114,201.791229 250.519897,205.199432 248.594421,210.030701 
	C238.756775,212.109680 229.232559,211.305984 219.717712,210.742920 
	C218.414841,210.665817 217.142242,210.179962 215.348297,210.126953 
z"/>
<path fill="#CD6BD1" opacity="1.000000" stroke="none" 
	d="
M215.056000,210.368698 
	C219.335648,208.105911 224.021942,209.171021 228.596985,209.044464 
	C235.032654,208.866440 241.476959,208.999939 248.375824,209.000687 
	C249.885986,209.319672 250.393845,210.154144 250.786270,211.084839 
	C252.635117,215.469635 255.306732,216.742249 259.850098,215.631561 
	C262.070404,215.088806 262.659088,213.585709 262.788483,211.639999 
	C262.967468,208.947739 263.286255,206.330872 266.455750,204.760971 
	C285.583313,202.836868 304.335754,204.031235 323.067810,203.844223 
	C325.229675,203.822632 327.445007,203.939896 328.952087,206.575485 
	C326.833344,209.431534 324.630859,211.899231 322.258392,214.190994 
	C318.195526,218.115646 313.866913,218.080322 309.752289,214.240555 
	C303.324066,208.241699 303.253021,208.107941 295.447815,212.252625 
	C292.401947,213.870026 289.167389,214.951218 285.961792,215.809753 
	C282.767029,216.665405 281.517212,218.047531 281.908325,221.589386 
	C280.531952,223.826797 278.599579,224.141418 276.566193,224.166794 
	C263.525696,224.329437 250.484940,224.337204 237.444748,224.155212 
	C235.805023,224.132324 234.109863,224.081024 232.507996,222.367401 
	C232.545807,218.218765 230.939667,216.239075 227.099319,215.480011 
	C222.893021,214.648605 219.047638,212.630981 215.056000,210.368698 
z"/>
<path fill="#858DEC" opacity="1.000000" stroke="none" 
	d="
M146.612701,337.596558 
	C142.397598,343.015289 137.386566,347.368835 131.402313,351.055664 
	C114.626732,351.341309 98.204597,351.245544 81.782867,351.244141 
	C72.486679,351.243347 63.188904,351.385468 53.425476,351.074341 
	C46.659622,347.110535 40.286270,343.202698 36.023232,336.358917 
	C37.133347,333.745575 39.387577,333.935486 41.483864,333.832947 
	C46.709274,333.577362 51.953796,334.039032 57.602638,333.390503 
	C60.685802,333.760376 63.078419,334.804474 65.427094,336.094971 
	C82.568031,345.513153 99.863579,345.539337 117.284485,336.840424 
	C119.337471,335.815277 121.278969,334.387299 124.198441,334.681885 
	C129.849533,335.031433 135.080750,334.565125 140.307373,334.835083 
	C142.595108,334.953247 144.969849,334.853271 146.612701,337.596558 
z"/>
<path fill="#A57FEC" opacity="1.000000" stroke="none" 
	d="
M202.025726,306.399719 
	C205.711212,300.602600 210.653809,296.483368 216.531372,292.981445 
	C220.008926,291.469788 223.381744,291.780457 226.660461,291.770233 
	C246.720901,291.707703 266.781708,291.749451 286.842285,291.725250 
	C290.006165,291.721436 293.116333,292.146851 296.675293,292.750305 
	C302.252838,294.548676 305.113739,298.988251 308.980530,302.649353 
	C307.907013,305.652954 305.499359,306.004456 302.961029,306.132751 
	C297.548920,306.406281 292.150940,306.209564 286.322205,305.763062 
	C282.704590,306.719055 280.022858,305.048645 277.301819,303.986755 
	C260.961395,297.609894 245.185440,298.971802 229.860809,307.195892 
	C228.108704,308.136200 226.461594,309.297577 223.915085,309.232300 
	C218.409561,308.644318 213.344345,309.598724 208.276291,309.184265 
	C205.996735,308.997803 203.600281,309.197876 202.025726,306.399719 
z"/>
<path fill="#F4505F" opacity="1.000000" stroke="none" 
	d="
M282.856445,36.518955 
	C277.522339,39.266724 271.722961,37.429546 265.624268,38.001709 
	C259.904144,36.853550 254.522141,37.460484 248.773010,36.930214 
	C243.095734,36.919636 237.747910,38.442879 232.440247,35.387299 
	C232.194458,31.422977 231.669678,27.915039 232.762558,24.270456 
	C233.870575,20.575388 236.264999,19.117374 239.508636,19.070089 
	C251.118881,18.900845 262.734009,18.917068 274.345306,19.044168 
	C279.225250,19.097584 281.662506,22.213247 282.023987,27.898092 
	C282.198944,30.649296 281.299011,33.492615 282.856445,36.518955 
z"/>
<path fill="#3AB0EA" opacity="1.000000" stroke="none" 
	d="
M68.394493,451.244324 
	C62.797211,451.072754 57.642040,451.079010 52.488468,450.991089 
	C44.910748,450.861877 40.987698,444.393677 44.689411,437.864319 
	C46.599411,434.495300 49.051304,431.433502 51.572441,428.094910 
	C57.668888,424.504608 63.680618,425.283630 70.086060,427.290161 
	C71.701614,429.620483 72.414917,431.731720 75.705368,431.985260 
	C85.478554,432.738312 89.778030,440.904114 85.428253,450.615662 
	C79.737122,452.976013 74.299431,452.607880 68.394493,451.244324 
z"/>
<path fill="#7C92EB" opacity="1.000000" stroke="none" 
	d="
M53.115898,351.423248 
	C54.655640,349.123322 56.956020,348.994110 59.327278,348.995178 
	C81.399521,349.005219 103.471764,348.997131 125.544006,349.007172 
	C127.351601,349.007996 129.249969,348.787720 130.820312,350.779785 
	C120.596931,358.287140 108.943886,361.455292 96.354248,362.060638 
	C84.202896,362.644867 72.520340,361.110535 61.430031,355.972473 
	C58.653965,354.686340 55.990879,353.156372 53.115898,351.423248 
z"/>
<path fill="#5F9FEB" opacity="1.000000" stroke="none" 
	d="
M68.414230,403.434296 
	C73.947945,394.704224 79.636101,386.257629 85.570961,377.988068 
	C88.513680,373.887756 94.240570,373.552399 97.668602,377.224060 
	C104.129021,384.143677 108.394646,392.640778 113.964783,400.630493 
	C113.417023,403.489166 111.405701,404.011749 109.180817,404.088409 
	C105.275169,404.223053 101.359207,404.540833 97.086182,403.666687 
	C93.244591,402.438812 90.338097,404.113464 86.960159,405.404480 
	C82.297516,405.270111 78.025475,405.254150 73.755173,405.159790 
	C71.968185,405.120300 70.096718,405.238556 68.414230,403.434296 
z"/>
<path fill="#AD7BED" opacity="1.000000" stroke="none" 
	d="
M296.965576,292.633606 
	C294.393951,293.784027 291.621674,294.030731 288.775238,294.024323 
	C268.214233,293.978088 247.652969,293.974915 227.091965,294.025696 
	C223.920685,294.033539 220.809998,293.813263 217.313538,292.992950 
	C224.279755,287.184845 232.833939,283.977814 241.886108,282.132141 
	C243.612015,281.780212 245.250458,280.887268 247.481384,280.975342 
	C253.238129,277.472656 258.756561,278.152069 264.723145,280.623718 
	C276.635712,282.073425 287.103912,286.137421 296.965576,292.633606 
z"/>
<path fill="#CF69CB" opacity="1.000000" stroke="none" 
	d="
M329.419128,206.916321 
	C326.968414,205.888474 324.633972,205.996964 322.309692,205.997726 
	C303.901031,206.003708 285.492340,206.001801 266.625488,206.003082 
	C265.097046,202.069885 268.171631,201.132889 270.700623,200.220261 
	C274.429962,198.874435 278.372986,198.144638 282.104218,196.762131 
	C287.241577,194.858658 292.159821,192.534760 296.813141,189.586243 
	C302.877777,185.743515 307.381256,185.853455 312.726227,190.390839 
	C315.169373,192.464844 317.497223,192.111450 320.507812,191.883759 
	C325.684540,191.889069 330.446136,191.620270 335.211365,191.845047 
	C337.367615,191.946747 339.547607,191.995331 340.983276,194.604980 
	C337.319366,198.956924 333.522675,202.873276 329.419128,206.916321 
z"/>
<path fill="#18BFE9" opacity="1.000000" stroke="none" 
	d="
M445.502960,478.646759 
	C445.888489,481.822601 446.085022,484.649261 445.966278,487.462646 
	C445.771484,492.078064 442.700928,494.984039 438.168793,494.994080 
	C427.701569,495.017303 417.234222,495.006744 406.766937,494.999359 
	C400.953064,494.995270 398.093353,492.187531 398.006409,486.384491 
	C397.974060,484.225250 398.015503,482.064880 398.094666,479.453430 
	C400.683624,475.873016 404.247803,477.019806 407.447052,476.788269 
	C409.595093,476.632843 411.761108,476.779572 414.387756,477.023956 
	C419.286682,476.760468 423.708344,476.583618 428.608704,477.027069 
	C434.467987,477.204926 440.003906,475.402496 445.502960,478.646759 
z"/>
<path fill="#EF546E" opacity="1.000000" stroke="none" 
	d="
M170.913635,60.350372 
	C175.062897,55.666107 179.173157,51.440113 183.587891,47.081444 
	C186.467102,46.228775 189.061615,45.686752 191.763184,45.744553 
	C207.397003,46.079037 223.031662,45.611485 238.665512,45.781406 
	C240.811890,45.804737 243.018051,45.615234 245.381104,46.943569 
	C247.883438,50.783096 245.117661,51.926586 242.714172,53.065853 
	C239.713379,54.488247 236.335373,54.765461 233.235321,55.929955 
	C227.499680,58.084454 221.960648,60.606438 216.697052,63.793957 
	C210.881027,67.316002 206.493790,66.978012 201.216492,62.701733 
	C199.123184,61.005497 197.329315,60.379921 195.067993,62.188305 
	C194.156265,62.917408 192.996536,63.204044 191.386566,63.210060 
	C186.145859,63.058243 181.328568,63.417187 176.513000,63.161861 
	C174.367386,63.048100 172.087143,63.188194 170.913635,60.350372 
z"/>
<path fill="#8F89EC" opacity="1.000000" stroke="none" 
	d="
M475.423126,339.888611 
	C469.315918,338.215027 463.343628,339.292725 457.452148,338.996063 
	C455.500061,338.897766 453.488007,339.350281 451.292480,338.136169 
	C451.635437,333.123688 448.397003,330.944824 445.130402,328.555084 
	C442.354004,326.523987 438.191101,325.601501 438.234436,320.627686 
	C439.481262,318.260437 441.402710,317.903198 443.426575,317.879639 
	C449.161774,317.812866 454.903931,317.427734 461.012634,318.156799 
	C465.904449,319.327789 469.073853,316.344330 473.013062,314.491089 
	C478.850708,313.912872 484.426147,312.263977 489.598816,316.620789 
	C486.849304,325.642487 481.197327,332.632477 475.423126,339.888611 
z"/>
<path fill="#E35C92" opacity="1.000000" stroke="none" 
	d="
M424.867279,118.589188 
	C422.390015,119.789612 419.615662,120.029846 416.768097,120.024307 
	C394.206543,119.980415 371.644836,120.000023 348.625000,120.000214 
	C338.542450,123.228897 332.441040,120.030678 329.746033,110.224655 
	C328.800018,106.782440 326.810486,103.401581 328.976196,99.314346 
	C334.955627,97.275040 340.575714,96.839462 346.483582,99.668076 
	C346.932251,101.347115 347.497223,102.077156 349.005615,102.019852 
	C351.333740,101.931404 353.667969,101.983910 355.999359,102.006172 
	C362.198944,102.065376 364.937897,104.829590 364.999664,111.065353 
	C365.068329,117.997398 365.068390,117.976402 372.186218,118.001816 
	C389.665802,118.064224 407.145355,118.147881 424.867279,118.589188 
z"/>
<path fill="#CA6DDC" opacity="1.000000" stroke="none" 
	d="
M232.094299,222.422211 
	C248.416031,222.001740 264.666870,222.001022 281.375793,222.000793 
	C282.329590,231.794907 279.327301,235.072281 269.399231,234.924774 
	C266.118744,234.876038 264.272278,235.417969 264.908997,239.567596 
	C263.405701,242.060196 261.230896,242.280304 259.058319,242.127304 
	C255.055069,241.845383 251.573181,242.705521 248.595947,245.983490 
	C248.107483,242.646133 248.997604,238.839813 247.653381,236.150192 
	C246.166901,233.175980 241.971283,235.711945 239.030045,234.650131 
	C233.783569,232.756104 232.011246,230.106186 232.094299,222.422211 
z"/>
<path fill="#629DEB" opacity="1.000000" stroke="none" 
	d="
M197.287338,396.249573 
	C193.003479,390.767212 190.060059,385.008148 187.935104,378.421021 
	C189.939438,374.906006 193.204712,376.007294 196.040314,375.811646 
	C198.503952,375.641632 201.006302,375.635834 203.836136,376.345093 
	C206.440475,376.547546 207.988144,377.823273 208.983414,379.605774 
	C210.751068,382.771576 212.654434,384.182220 215.836380,381.157410 
	C216.913513,380.133453 218.438278,379.710358 220.413513,380.207611 
	C232.226303,379.244537 243.668961,379.863159 255.102829,379.859528 
	C257.117554,379.858887 259.125580,380.060577 260.436829,382.506042 
	C260.400085,384.996429 258.907318,385.809326 257.213531,385.914276 
	C246.856812,386.556061 237.776138,390.409973 229.557922,396.568970 
	C228.902374,397.060242 228.045670,397.194366 226.783722,397.264404 
	C219.077774,397.111877 211.807770,397.311981 204.537933,397.240112 
	C202.229462,397.217316 199.886841,397.451111 197.287338,396.249573 
z"/>
<path fill="#9487EC" opacity="1.000000" stroke="none" 
	d="
M363.246460,332.308838 
	C358.110626,327.121765 355.999176,320.684509 353.100586,314.365173 
	C354.311279,311.931488 356.328613,311.941223 358.294098,311.862732 
	C361.551392,311.732635 364.829224,311.914948 368.422760,311.165558 
	C371.386963,310.803680 372.932068,312.432068 373.901123,314.364441 
	C375.496124,317.544922 377.433441,318.433350 380.540710,316.382141 
	C381.501129,315.748138 382.736572,315.673920 384.302032,316.053101 
	C392.792358,315.449921 400.908386,315.790253 409.020325,315.854736 
	C411.027893,315.870697 413.038300,316.019714 414.436646,318.382324 
	C414.688141,320.823212 413.280823,321.919189 411.727295,322.363403 
	C404.922760,324.309021 399.319305,328.305786 393.770355,332.442596 
	C392.969788,333.039429 392.026886,333.356659 390.601257,333.488586 
	C382.405243,333.325745 374.637146,332.941620 366.870789,333.486938 
	C365.647705,333.572815 364.592834,333.243561 363.246460,332.308838 
z"/>
<path fill="#F15267" opacity="1.000000" stroke="none" 
	d="
M246.522156,49.170647 
	C244.197540,47.491447 241.944763,48.025269 239.838867,48.020451 
	C223.575226,47.983231 207.311462,48.005753 191.047729,47.992687 
	C188.901947,47.990963 186.718384,48.229656 184.282623,47.116226 
	C186.403030,44.328114 188.845703,41.637928 191.439362,39.102139 
	C195.974289,34.668373 200.802734,34.794525 205.721283,40.431026 
	C209.169174,44.382221 212.035660,44.858532 216.264236,42.016891 
	C220.962173,38.859837 226.763657,38.133430 231.991455,35.341827 
	C237.499283,35.008785 242.832108,35.016045 248.639221,35.033195 
	C252.723053,40.342438 251.844086,46.259735 246.522156,49.170647 
z"/>
<path fill="#3AB0EA" opacity="1.000000" stroke="none" 
	d="
M463.703735,430.758636 
	C467.092194,435.246979 472.136353,438.586365 470.090942,445.111816 
	C469.330292,447.538574 467.897644,448.991302 465.397186,450.063080 
	C458.439728,448.947693 451.808380,449.369476 445.196045,449.840637 
	C440.060730,450.206512 434.947052,450.800934 429.456879,449.196411 
	C425.723846,445.637939 426.459503,441.670563 427.867523,437.970154 
	C429.326874,434.134705 432.535706,432.212250 436.706757,431.912048 
	C439.298523,431.725494 442.009033,432.268768 444.849731,430.656433 
	C451.279694,429.484314 457.291016,429.243988 463.703735,430.758636 
z"/>
<path fill="#18BFE9" opacity="1.000000" stroke="none" 
	d="
M115.490662,481.630371 
	C115.889137,483.819824 116.068481,485.650330 115.974220,487.466614 
	C115.734619,492.083527 112.703651,494.981415 108.144592,494.993225 
	C98.007698,495.019470 87.870682,495.002289 77.733719,495.001221 
	C70.586746,495.000458 68.017807,492.455170 68.001411,485.358185 
	C67.999496,484.527374 68.015175,483.696533 68.093918,482.431213 
	C70.676476,478.901276 74.275795,479.557770 77.403458,479.840881 
	C87.643417,480.767700 97.842621,480.354218 108.066879,479.810303 
	C110.465782,479.682648 113.086067,479.352875 115.490662,481.630371 
z"/>
<path fill="#DB61A8" opacity="1.000000" stroke="none" 
	d="
M338.617676,134.589447 
	C339.811218,137.520981 342.057281,136.965424 343.965881,136.979874 
	C350.615936,137.030228 357.266602,137.000793 364.375031,137.002411 
	C364.887482,139.157974 365.071228,141.318954 364.969330,143.466400 
	C364.762848,147.816650 361.841217,150.705643 357.506500,150.988052 
	C356.349030,151.063446 355.146515,151.186951 354.026367,150.969940 
	C348.551758,149.909393 346.285553,152.683472 345.440613,157.857162 
	C339.677612,161.714081 333.968445,160.546143 327.883942,158.686127 
	C326.667603,157.258759 326.126434,155.907669 326.488983,154.625198 
	C328.113403,148.878784 329.110229,142.909393 331.730072,137.504700 
	C332.933380,135.022415 335.090088,133.318512 338.617676,134.589447 
z"/>
<path fill="#3AB0EA" opacity="1.000000" stroke="none" 
	d="
M381.414124,450.600189 
	C373.649139,448.958740 371.335724,444.155884 374.727570,437.749969 
	C375.542419,436.211029 376.455414,434.724060 377.641907,433.047974 
	C384.488831,432.605286 391.051971,433.277924 398.007416,432.178558 
	C399.954742,432.434448 401.412781,432.117737 402.879547,431.946075 
	C414.722931,430.560028 419.523376,440.421478 415.806458,449.227631 
	C410.693573,452.292267 405.429718,451.648865 400.502838,450.824585 
	C394.228912,449.774902 388.064056,449.937775 381.414124,450.600189 
z"/>
<path fill="#E35C92" opacity="1.000000" stroke="none" 
	d="
M166.439514,119.368912 
	C160.798309,116.977783 155.252426,118.460976 149.361298,117.968277 
	C148.919464,117.631660 148.973755,117.305145 148.980103,116.977692 
	C149.254730,102.781891 149.250412,102.696266 163.231613,102.074692 
	C165.994705,101.951851 167.063705,100.852974 167.575363,98.158844 
	C173.335693,95.659691 178.825134,96.665413 184.695480,97.935944 
	C187.255356,110.260010 181.427170,123.205513 169.872116,121.044151 
	C168.702866,120.825439 167.608627,120.594093 166.439514,119.368912 
z"/>
<path fill="#DB61A8" opacity="1.000000" stroke="none" 
	d="
M149.097610,136.449982 
	C154.618164,135.242752 160.347427,137.622299 165.817123,134.216461 
	C170.438187,130.944412 176.736755,130.967361 180.116119,134.971161 
	C184.966782,140.718124 186.996063,147.638977 185.251450,155.634277 
	C179.455933,157.741196 174.019241,158.223648 168.261032,155.364182 
	C166.903885,152.561798 165.877411,150.594513 162.421143,150.929642 
	C150.532013,152.082443 148.188080,148.281555 149.097610,136.449982 
z"/>
<path fill="#24BAE9" opacity="1.000000" stroke="none" 
	d="
M115.906998,481.533630 
	C100.250053,481.996246 84.665733,481.996704 68.623276,481.996948 
	C68.117691,477.636902 68.070236,473.277039 68.094681,468.457153 
	C73.032951,464.113464 78.455681,465.918213 84.164658,466.626892 
	C87.010887,468.133972 87.061516,470.555908 87.225784,472.874512 
	C87.466255,476.268921 89.672134,476.773376 92.459785,476.735260 
	C95.376991,476.695282 96.615799,475.265961 96.773331,472.428619 
	C96.926819,469.663910 96.321075,466.681580 98.918442,464.104614 
	C104.616707,462.430664 109.936241,461.771729 115.500793,464.644257 
	C115.882355,470.357849 115.930977,475.714661 115.906998,481.533630 
z"/>
<path fill="#3AB0EA" opacity="1.000000" stroke="none" 
	d="
M137.580170,435.812988 
	C140.649475,439.086914 141.755692,442.778259 139.691818,446.480042 
	C137.696442,450.058960 134.222000,451.330688 130.015472,451.062408 
	C125.706001,450.787537 121.365150,451.004669 116.577332,451.023865 
	C110.874825,454.707123 105.255684,453.343842 99.210823,452.027527 
	C95.369629,446.227783 96.169662,439.126495 101.091339,435.105377 
	C110.647224,436.557404 119.706703,434.319794 128.789200,434.736603 
	C131.599258,434.865570 134.428909,434.680817 137.580170,435.812988 
z"/>
<path fill="#C670E8" opacity="1.000000" stroke="none" 
	d="
M372.534698,234.966217 
	C377.029266,236.839325 381.416687,235.689651 385.684570,235.997345 
	C389.791382,236.293396 394.008759,235.253357 398.431641,237.209717 
	C398.719147,239.719620 396.989838,240.817215 395.277039,241.825790 
	C388.319855,245.922501 382.514740,251.265671 377.700714,257.729126 
	C376.401581,259.473450 374.940796,261.083008 372.117065,261.210510 
	C367.878113,261.221222 364.051514,261.346741 360.230377,261.094391 
	C357.976685,260.945526 355.844025,260.559540 355.747528,257.284943 
	C360.124390,248.664886 365.021362,240.983780 372.534698,234.966217 
z"/>
<path fill="#4DA7EA" opacity="1.000000" stroke="none" 
	d="
M67.993416,403.382202 
	C74.555244,403.275543 81.005417,402.194427 87.763916,403.948456 
	C89.430855,406.571228 87.897530,408.538300 86.607803,410.358978 
	C82.428223,416.259125 78.555664,422.373718 73.937576,428.405273 
	C73.328255,428.996460 72.935532,429.279572 72.181076,429.668396 
	C71.611252,429.859528 71.373512,429.903717 70.775528,429.905640 
	C68.173210,427.008484 64.994789,428.190979 62.171921,428.036896 
	C59.068630,427.867554 55.949711,427.984558 52.362068,427.966858 
	C56.510311,419.413391 62.271324,411.616821 67.993416,403.382202 
z"/>
<path fill="#C471EA" opacity="1.000000" stroke="none" 
	d="
M37.574356,240.089722 
	C44.925907,242.096344 52.292000,240.019440 59.708645,241.863159 
	C60.694366,244.073380 59.454456,245.246002 58.224922,246.376129 
	C52.578941,251.565659 47.508362,257.210815 43.798363,263.995361 
	C42.913837,265.612915 41.604504,266.920441 39.254982,267.387329 
	C33.697884,266.706360 28.268282,268.513824 23.115898,265.340973 
	C25.795647,255.619583 30.395084,247.260529 37.574356,240.089722 
z"/>
<path fill="#5F9FEB" opacity="1.000000" stroke="none" 
	d="
M398.887878,402.293274 
	C401.748962,397.637054 404.537506,393.421844 407.638855,389.049561 
	C417.347687,387.449493 426.735107,386.417511 436.433716,389.742188 
	C439.144928,393.421356 441.459106,396.839539 443.911804,400.575562 
	C443.956085,404.024536 441.532532,403.945251 439.445068,404.089355 
	C435.462921,404.364258 431.468567,404.251007 427.093628,404.229919 
	C423.299438,402.735657 420.241791,404.074615 416.798309,405.483887 
	C412.187256,405.473328 407.973724,405.190094 403.752655,405.115509 
	C401.780762,405.080658 399.792877,404.909271 398.887878,402.293274 
z"/>
<path fill="#EC5677" opacity="1.000000" stroke="none" 
	d="
M318.812012,60.430534 
	C319.922058,57.296780 322.356445,58.253246 324.340149,57.990780 
	C329.077179,57.364021 334.093964,59.493706 338.821228,56.220428 
	C342.727356,59.438087 347.363983,62.114513 347.118835,68.478416 
	C346.910095,73.896935 342.021729,75.312477 339.362152,78.967033 
	C333.092804,81.064529 327.026581,80.228409 320.614868,79.639526 
	C316.794983,77.776848 317.534210,74.894600 319.309845,72.971428 
	C322.619690,69.386604 322.838013,66.385048 319.237823,63.068325 
	C318.654541,62.530983 318.600769,61.585857 318.812012,60.430534 
z"/>
<path fill="#D565BA" opacity="1.000000" stroke="none" 
	d="
M413.287750,163.241882 
	C413.118439,162.555923 413.073944,162.115097 413.097290,161.347198 
	C418.092438,156.625412 423.521667,156.906662 429.505127,159.654144 
	C429.882416,169.030975 429.932373,178.055084 429.907410,187.542969 
	C424.661194,191.591904 419.286255,190.768936 413.511414,188.382690 
	C413.125153,180.318207 413.083282,172.615906 413.107239,164.447968 
	C413.252930,163.817215 413.332764,163.652115 413.287750,163.241882 
z"/>
<path fill="#5F9FEB" opacity="1.000000" stroke="none" 
	d="
M310.489014,404.899231 
	C306.240479,403.240540 302.059082,404.232361 297.984222,404.013397 
	C294.221008,403.811188 290.393036,404.476746 286.303802,403.039490 
	C286.160217,399.728088 285.355774,397.052582 282.528717,395.043091 
	C280.746796,393.776611 279.598450,391.961517 280.906128,389.224304 
	C284.462036,385.745850 288.681335,386.600189 292.469177,386.876709 
	C299.739655,387.407440 306.965332,386.581940 314.207031,386.829681 
	C316.509521,386.908447 318.915894,386.807983 320.599365,389.585327 
	C318.539337,395.634338 314.141235,399.838776 310.489014,404.899231 
z"/>
<path fill="#CF69CB" opacity="1.000000" stroke="none" 
	d="
M413.097015,188.482559 
	C418.417755,188.014984 423.668518,188.009491 429.375854,188.005371 
	C429.882751,196.363937 429.933075,204.721146 429.908325,213.542114 
	C424.582336,214.004486 419.331360,214.003067 413.623749,214.002258 
	C413.120422,205.650131 413.073730,197.297394 413.097015,188.482559 
z"/>
<path fill="#629DEB" opacity="1.000000" stroke="none" 
	d="
M320.989441,389.675262 
	C308.638855,387.996307 296.375519,389.222656 284.139709,389.282166 
	C283.257416,389.286438 282.379120,390.108551 281.229584,390.833618 
	C280.337524,391.736542 279.482086,392.127502 278.731873,391.846161 
	C273.696899,389.957794 268.560181,388.327942 263.665497,386.082733 
	C262.923309,385.742279 262.576965,384.894226 262.474731,383.614075 
	C263.461304,380.912750 265.316315,379.993774 267.607300,379.953033 
	C275.986298,379.803986 284.373932,379.271027 293.150635,380.286255 
	C297.751282,379.361755 299.816589,382.236816 302.103058,385.299530 
	C302.373444,385.857117 302.511017,386.086304 302.662506,386.305878 
	C302.696991,386.236481 302.615479,386.219208 302.489441,385.833862 
	C302.945557,381.829926 304.586945,378.964783 308.690063,377.552063 
	C314.559387,376.720337 320.012939,375.684570 325.566467,378.618134 
	C325.873840,379.167419 325.914368,379.336334 325.888428,379.757141 
	C325.696594,380.197449 325.571167,380.385803 325.239014,380.843445 
	C324.148743,384.053345 323.679749,387.189575 320.989441,389.675262 
z"/>
<path fill="#E85984" opacity="1.000000" stroke="none" 
	d="
M318.831238,78.222397 
	C325.568176,78.322426 332.011169,77.312286 338.717712,78.851761 
	C339.271027,84.352402 343.422272,88.042183 344.537689,92.969498 
	C345.027588,95.133667 346.138733,97.157219 346.900696,99.623260 
	C341.249420,100.001389 335.665314,100.000877 329.623901,100.000618 
	C324.322296,97.444359 317.272217,83.201721 318.831238,78.222397 
z"/>
<path fill="#D367C1" opacity="1.000000" stroke="none" 
	d="
M194.186401,192.568024 
	C191.213669,194.915039 187.989090,193.755219 184.947586,193.969666 
	C181.200348,194.233856 177.379501,193.529556 173.299561,194.956451 
	C165.188675,190.245178 164.188324,182.310257 172.577026,176.090240 
	C179.264221,172.468185 186.013733,173.697861 193.082642,174.574036 
	C195.700333,176.598419 195.733994,179.103195 193.992249,180.810242 
	C190.519165,184.214111 190.954224,187.147995 193.972885,190.362045 
	C194.404678,190.821793 194.374741,191.587952 194.186401,192.568024 
z"/>
<path fill="#C86EE0" opacity="1.000000" stroke="none" 
	d="
M431.944580,233.519012 
	C433.388214,230.568130 435.864716,231.087631 438.139771,230.998718 
	C446.883331,230.656906 455.659119,231.723724 464.714478,230.145966 
	C471.216705,233.007477 474.711365,239.066833 479.982758,243.629517 
	C479.000732,246.421051 476.825531,247.005585 474.389679,247.099136 
	C469.579132,247.283905 464.767792,247.468582 459.561371,246.588623 
	C457.253845,246.775116 455.522736,246.322800 453.990906,245.263214 
	C448.137939,241.214645 441.799469,238.198547 434.974365,236.194489 
	C433.681213,235.814804 432.522125,235.244598 431.944580,233.519012 
z"/>
<path fill="#D864B2" opacity="1.000000" stroke="none" 
	d="
M194.449295,177.122345 
	C189.289413,174.753403 184.224869,176.515671 179.329880,176.026291 
	C177.516022,175.844925 175.670303,175.982101 173.363647,175.963776 
	C174.673859,174.209793 175.049774,172.671661 173.729202,170.086624 
	C171.407349,165.541550 168.991547,160.936295 167.935699,155.430115 
	C173.311874,155.020294 178.740326,154.999344 184.644012,154.969467 
	C189.759064,156.562225 197.627975,170.714264 196.381287,175.259186 
	C196.158493,176.071381 195.630386,176.713516 194.449295,177.122345 
z"/>
<path fill="#CD6BD1" opacity="1.000000" stroke="none" 
	d="
M111.590240,218.091919 
	C111.911148,219.926437 111.061462,220.984283 109.229797,220.943207 
	C95.712517,220.640228 82.170418,221.853363 68.283936,220.116913 
	C71.725243,217.280899 76.394722,217.217896 80.683640,216.352264 
	C83.898651,215.703354 84.152390,214.397705 84.030716,211.880478 
	C83.902748,209.233078 84.016754,206.573975 84.094833,203.459808 
	C89.302933,199.438385 94.648689,200.200790 100.375168,202.618057 
	C100.759209,205.632477 101.156815,208.310440 100.812553,210.889374 
	C100.250572,215.099350 102.107704,217.007904 106.006332,216.907410 
	C107.917580,216.858154 109.352470,218.204361 111.590240,218.091919 
z"/>
<path fill="#C471EA" opacity="1.000000" stroke="none" 
	d="
M248.128510,246.426453 
	C248.530991,240.593018 251.660690,239.283081 256.492859,239.942780 
	C258.926086,240.274979 261.441833,240.002441 264.376892,240.004730 
	C264.882782,247.694138 264.932068,255.382172 264.908691,263.533691 
	C259.661407,267.594971 254.285507,266.780762 248.512177,264.359802 
	C248.132339,258.293274 248.093384,252.593079 248.128510,246.426453 
z"/>
<path fill="#51A5EA" opacity="1.000000" stroke="none" 
	d="
M94.625122,402.348846 
	C101.021027,401.591156 107.230537,402.806763 113.718536,401.118225 
	C119.468033,406.836884 122.780357,414.166779 127.803459,420.652863 
	C126.675209,423.052490 124.656883,423.061920 122.679283,423.150238 
	C118.420189,423.340454 114.157852,423.133759 109.474220,423.268311 
	C103.826477,421.223328 94.655632,408.332520 94.625122,402.348846 
z"/>
<path fill="#D565BA" opacity="1.000000" stroke="none" 
	d="
M327.516663,156.842102 
	C333.221069,159.221466 338.775665,157.419067 344.636017,158.034027 
	C344.619202,162.267441 342.688782,166.185516 340.511688,169.471497 
	C338.221619,172.928024 339.566895,174.338715 341.911743,176.580048 
	C341.912811,179.954865 339.548157,179.992203 337.460938,180.085327 
	C332.224274,180.318970 326.971405,180.605026 321.326050,179.405823 
	C317.929169,178.472641 316.774963,176.074951 317.341187,173.529831 
	C318.795746,166.991638 321.675018,161.114334 327.516663,156.842102 
z"/>
<path fill="#E85984" opacity="1.000000" stroke="none" 
	d="
M185.594421,99.063446 
	C179.700272,98.630486 174.138199,99.804565 168.321075,98.041763 
	C168.427414,92.880066 171.193253,88.679787 173.290619,84.223465 
	C173.968063,82.784088 175.154800,81.555885 174.931229,79.417328 
	C175.588364,77.093292 177.088440,76.127472 179.046432,76.027969 
	C183.836853,75.784569 188.648636,75.229858 193.817505,76.652328 
	C196.200073,77.772263 196.823792,79.658371 196.149719,81.380180 
	C193.652557,87.758835 191.028015,94.117798 185.594421,99.063446 
z"/>
<path fill="#57A3EB" opacity="1.000000" stroke="none" 
	d="
M197.027985,396.359558 
	C206.684662,394.304932 216.504440,394.619202 226.724548,395.876587 
	C227.574646,399.296234 229.492981,401.152069 232.481781,402.455750 
	C234.977707,403.544434 237.950241,404.244232 239.113525,407.554413 
	C236.540970,409.806183 233.631882,408.796631 230.901138,408.980011 
	C224.181656,409.431335 217.383041,408.110413 210.301300,409.956482 
	C204.317810,406.849335 200.944427,401.572357 197.027985,396.359558 
z"/>
<path fill="#858DEC" opacity="1.000000" stroke="none" 
	d="
M362.937866,332.393250 
	C372.006989,330.536621 381.131409,330.372742 390.687866,332.006958 
	C392.478210,334.997559 395.248444,336.181183 397.894043,337.620392 
	C400.617950,339.102173 404.000092,339.559875 405.917206,342.830688 
	C404.378723,345.479736 401.919617,344.863953 399.659790,345.007477 
	C392.113678,345.486725 384.476318,343.894653 376.559113,346.186340 
	C371.238373,342.309540 366.642639,337.980713 362.937866,332.393250 
z"/>
<path fill="#9A84EC" opacity="1.000000" stroke="none" 
	d="
M201.575226,306.087219 
	C206.492905,307.915558 211.337555,306.626923 216.060150,306.997894 
	C218.499435,307.189514 221.009735,306.526245 223.706818,307.862427 
	C223.125290,312.013367 210.988937,325.209686 206.702454,326.564392 
	C200.959106,327.166748 195.594559,328.476410 190.305038,325.122314 
	C192.546188,317.762573 196.236801,311.586517 201.575226,306.087219 
z"/>
<path fill="#EC5677" opacity="1.000000" stroke="none" 
	d="
M195.091400,77.764351 
	C188.465164,78.369751 182.022812,77.138435 175.297852,78.955399 
	C172.036652,75.683098 167.004532,74.088486 166.935486,68.487823 
	C166.894089,65.129021 167.698074,62.367958 170.624786,60.048012 
	C174.131042,61.993160 177.686783,60.663071 181.059357,60.977703 
	C184.476959,61.296539 187.980453,60.436146 191.726074,61.874973 
	C192.106979,62.266502 194.761414,72.991005 194.901276,73.273491 
	C195.576065,74.636353 195.992249,76.025925 195.091400,77.764351 
z"/>
<path fill="#DB61A8" opacity="1.000000" stroke="none" 
	d="
M84.096558,138.463776 
	C89.187065,138.522507 95.524139,135.750824 98.921150,139.282013 
	C102.074577,142.560028 99.687195,148.750137 99.975121,153.647339 
	C100.120163,156.114349 99.984833,158.597839 99.962616,161.543121 
	C95.073784,165.514252 89.998749,164.840012 84.510719,162.368500 
	C84.119522,154.310776 84.072830,146.619324 84.096558,138.463776 
z"/>
<path fill="#DB61A8" opacity="1.000000" stroke="none" 
	d="
M429.906830,159.542999 
	C424.522766,159.790268 419.245941,160.094055 413.586304,161.013260 
	C413.104767,152.667450 413.044434,144.314743 412.930298,135.498260 
	C414.312683,137.790146 416.725037,138.189499 419.545105,138.037476 
	C422.661987,137.869446 425.794983,138.000015 429.377228,138.000931 
	C429.882721,145.027283 429.931976,152.053207 429.906830,159.542999 
z"/>
<path fill="#C471EA" opacity="1.000000" stroke="none" 
	d="
M457.738037,245.401886 
	C465.005280,244.627487 472.209991,245.855042 479.695374,243.976929 
	C484.285492,249.170731 487.234070,255.101990 490.023987,261.506470 
	C490.078247,264.689606 487.976898,264.904205 485.987122,265.052734 
	C482.347504,265.324432 478.697418,265.325073 474.634399,265.125183 
	C472.391083,265.351685 470.939697,264.513550 469.977173,263.139435 
	C466.405579,258.040833 462.589905,253.148178 458.408142,248.534607 
	C457.746490,247.804642 457.535980,246.786880 457.738037,245.401886 
z"/>
<path fill="#C471EA" opacity="1.000000" stroke="none" 
	d="
M151.673096,246.820755 
	C156.379532,252.500809 159.010208,258.912872 161.793121,265.631195 
	C160.138336,269.202698 157.113022,269.203888 154.091537,269.190186 
	C151.286163,269.177460 148.461151,269.419342 145.284332,268.516998 
	C142.881332,268.063721 141.666382,266.699097 140.729355,265.096527 
	C138.212860,260.792664 135.550629,256.596466 132.406052,252.712967 
	C131.435883,251.514801 131.001724,250.083679 131.577515,248.111206 
	C138.094391,244.221130 144.680023,245.752197 151.673096,246.820755 
z"/>
<path fill="#8F89EC" opacity="1.000000" stroke="none" 
	d="
M146.978241,337.681946 
	C141.477356,336.235626 135.951218,337.284576 130.506699,336.994202 
	C128.537903,336.889191 126.508415,337.353210 124.295471,336.135040 
	C121.531242,333.218536 117.748375,331.763123 116.852676,327.477753 
	C117.659370,325.915222 118.693726,325.063324 120.133247,325.092224 
	C131.530411,325.320953 142.953537,324.159454 154.716064,325.881348 
	C153.690826,330.700134 150.410583,334.037201 146.978241,337.681946 
z"/>
<path fill="#45ABEA" opacity="1.000000" stroke="none" 
	d="
M107.930450,422.258118 
	C114.334129,420.121094 120.668526,421.351471 127.375977,420.996155 
	C131.141647,425.742554 134.449997,430.489563 137.902954,435.547729 
	C137.631592,436.125488 137.223022,436.612335 136.798645,436.626526 
	C125.411102,437.007385 114.018204,437.681122 102.254707,436.121765 
	C102.761726,430.341949 107.852074,432.970459 110.981003,431.323181 
	C110.500816,428.192413 106.891296,426.131775 107.930450,422.258118 
z"/>
<path fill="#D367C1" opacity="1.000000" stroke="none" 
	d="
M319.948914,178.278046 
	C327.234955,177.664078 334.340729,178.705261 341.715088,177.150452 
	C349.204498,183.106552 349.130920,187.378723 341.429108,194.908020 
	C336.511597,193.087387 331.669830,194.366699 326.948639,194.003113 
	C324.836761,193.840485 322.656158,194.397537 320.294250,193.136047 
	C319.792175,192.593445 319.543030,192.160522 319.689667,191.990250 
	C323.547760,187.511490 322.331268,183.037979 319.948914,178.278046 
z"/>
<path fill="#9F82EC" opacity="1.000000" stroke="none" 
	d="
M490.002380,316.651978 
	C484.207916,315.926727 478.519440,315.902679 472.352417,315.971008 
	C471.075745,315.219086 470.645569,314.149109 471.014832,313.250793 
	C473.529724,307.132660 473.814514,300.253876 477.785156,294.253174 
	C483.582611,293.440857 489.021149,292.858276 494.519928,295.661072 
	C494.835510,303.125763 492.786865,309.781067 490.002380,316.651978 
z"/>
<path fill="#45ABEA" opacity="1.000000" stroke="none" 
	d="
M464.059082,430.598694 
	C458.126038,433.080353 451.922699,431.502563 445.367371,432.032349 
	C443.820892,432.390045 442.832336,432.041840 442.161377,431.300903 
	C438.698730,427.477203 435.825073,423.235809 433.624268,418.566315 
	C433.118317,417.492889 433.187164,416.297180 434.030518,414.841614 
	C440.555145,411.639404 446.816895,412.108368 453.465729,414.756409 
	C457.237762,420.088715 460.621368,425.164856 464.059082,430.598694 
z"/>
<path fill="#B976ED" opacity="1.000000" stroke="none" 
	d="
M355.615540,257.060638 
	C356.806213,259.509949 359.046783,258.870514 360.959503,259.000885 
	C364.751556,259.259338 368.615326,258.379547 372.730713,259.882660 
	C373.600708,260.521820 374.122345,261.155151 373.944458,261.750427 
	C372.105347,267.905396 371.110596,274.447998 365.755493,279.369385 
	C360.083313,279.976990 354.679565,282.050903 349.947113,277.386658 
	C349.915619,269.858398 353.325043,263.746033 355.615540,257.060638 
z"/>
<path fill="#D565BA" opacity="1.000000" stroke="none" 
	d="
M84.096939,162.466217 
	C89.119957,162.002808 94.073700,162.003357 99.488197,162.008133 
	C100.262245,167.090698 99.495567,172.201523 100.611534,177.615143 
	C100.836372,179.676392 100.857391,181.384338 100.793510,183.510559 
	C95.372574,185.761002 90.058853,186.192764 84.478683,183.337769 
	C84.119392,176.310287 84.073532,169.620239 84.096939,162.466217 
z"/>
<path fill="#C86EE0" opacity="1.000000" stroke="none" 
	d="
M151.975098,246.632660 
	C147.678436,248.890823 143.001144,247.647980 138.445602,247.993408 
	C136.496674,248.141174 134.482178,247.648834 132.286041,248.861511 
	C131.657761,249.274521 131.272415,249.511566 131.039536,249.384460 
	C124.532127,245.832153 117.927650,242.414261 112.883102,236.480911 
	C116.139587,233.992798 119.704369,235.305374 123.086090,235.025589 
	C128.488174,234.578644 133.968964,235.770035 139.719742,234.117447 
	C144.991577,237.150406 148.319336,241.823471 151.975098,246.632660 
z"/>
<path fill="#D367C1" opacity="1.000000" stroke="none" 
	d="
M84.093994,183.463989 
	C89.436333,183.292801 94.754036,182.345322 100.348862,183.762085 
	C100.763161,189.978760 100.817711,196.028717 100.783516,202.538818 
	C95.489067,202.998779 90.283371,202.998596 84.621147,202.999023 
	C84.117332,196.642303 84.070038,190.284988 84.093994,183.463989 
z"/>
<path fill="#45ABEA" opacity="1.000000" stroke="none" 
	d="
M398.393127,433.702759 
	C391.429108,435.439026 384.824829,436.106232 378.111755,433.252533 
	C381.414246,427.658966 384.868011,422.435150 388.636139,417.052185 
	C394.882263,416.258636 400.785309,416.657440 407.041656,417.589508 
	C408.647705,418.732147 408.996460,420.121918 408.361023,421.349457 
	C405.948151,426.010223 404.060669,431.138458 398.393127,433.702759 
z"/>
<path fill="#9F82EC" opacity="1.000000" stroke="none" 
	d="
M370.356995,311.567261 
	C365.153687,315.855896 359.393372,313.246704 353.621948,313.998047 
	C350.478394,308.250336 349.388916,302.137390 349.092041,295.430481 
	C354.042633,291.096069 359.439880,292.929871 365.172791,293.733826 
	C369.687805,298.973419 370.827545,304.920959 370.356995,311.567261 
z"/>
<path fill="#8B8BEC" opacity="1.000000" stroke="none" 
	d="
M189.800751,324.858643 
	C195.783234,324.797607 201.474045,324.908417 207.641357,325.028870 
	C208.611649,325.514130 209.132355,326.152771 208.948318,326.762634 
	C207.063019,333.009735 205.880325,339.557770 201.073288,344.882935 
	C195.337601,344.791992 189.856537,346.625519 184.468781,343.330078 
	C185.703491,336.936981 186.550644,330.669495 189.800751,324.858643 
z"/>
<path fill="#51A5EA" opacity="1.000000" stroke="none" 
	d="
M408.211975,418.998169 
	C401.734863,418.454742 395.420929,420.362122 389.240204,417.149841 
	C392.072021,411.983002 395.193542,407.072998 398.637756,402.007629 
	C401.086212,403.679321 403.653229,402.920410 406.039948,402.961243 
	C409.803467,403.025696 413.569305,402.872833 417.652710,404.042969 
	C417.849121,410.927734 413.817383,415.343750 408.211975,418.998169 
z"/>
<path fill="#6F97EB" opacity="1.000000" stroke="none" 
	d="
M326.005890,378.650635 
	C320.164948,378.991241 314.496521,378.983978 308.352814,378.967072 
	C307.246002,378.364471 306.742126,377.544647 306.965729,376.779663 
	C308.598785,371.193268 309.016144,365.187836 312.952057,360.009399 
	C318.670532,358.531769 323.977509,357.738678 329.503693,360.644409 
	C330.461609,367.155884 328.039795,372.670197 326.005890,378.650635 
z"/>
<path fill="#6F97EB" opacity="1.000000" stroke="none" 
	d="
M206.111374,377.665955 
	C200.166901,378.009735 194.500732,378.016388 188.359680,378.032288 
	C185.319382,372.601776 184.309036,366.812256 184.093872,360.430054 
	C188.992661,356.091858 194.392990,357.975616 200.086395,358.619019 
	C204.838043,364.211395 205.845108,370.696899 206.111374,377.665955 
z"/>
<path fill="#B677ED" opacity="1.000000" stroke="none" 
	d="
M22.547474,265.150085 
	C28.346111,265.360077 33.895100,264.205963 39.703438,265.959198 
	C42.835495,271.006073 38.755527,275.200500 38.502842,279.840485 
	C38.435181,281.082947 37.751945,282.383057 36.456673,283.678040 
	C30.756769,285.866302 25.314981,285.577759 19.506432,284.309326 
	C18.322515,277.474030 20.932533,271.515869 22.547474,265.150085 
z"/>
<path fill="#2DB6EA" opacity="1.000000" stroke="none" 
	d="
M428.723969,448.283691 
	C439.208466,448.003906 449.250244,447.968353 459.291382,448.033905 
	C461.165466,448.046143 463.321960,447.336884 464.886780,449.750122 
	C460.450409,452.011017 455.634918,451.023682 450.981659,450.855133 
	C446.698151,450.699982 445.375366,452.051392 445.950928,456.112122 
	C446.227814,458.065582 445.985352,460.092651 445.905884,462.544952 
	C440.541199,466.761688 434.914337,465.425476 428.854797,463.798889 
	C425.973999,458.549194 426.046600,453.566254 428.723969,448.283691 
z"/>
<path fill="#8B8BEC" opacity="1.000000" stroke="none" 
	d="
M59.454460,334.840759 
	C51.779743,337.158142 44.253101,335.449738 36.359219,336.032043 
	C32.527180,333.732971 31.193312,329.923737 28.939747,326.400818 
	C39.453159,326.029907 50.020035,325.989624 60.586639,326.027252 
	C62.325901,326.033447 64.277626,325.450378 65.834877,327.513855 
	C65.711266,331.758881 63.307114,333.744415 59.454460,334.840759 
z"/>
<path fill="#2DB6EA" opacity="1.000000" stroke="none" 
	d="
M85.273697,467.722046 
	C79.582314,467.997009 74.331078,467.997345 68.623207,467.997406 
	C68.109146,462.674530 68.051720,457.351929 67.972977,451.568970 
	C73.138992,448.790222 78.610008,450.558746 84.376434,450.000488 
	C88.905090,455.625610 87.674889,461.518036 85.273697,467.722046 
z"/>
<path fill="#AD7BED" opacity="1.000000" stroke="none" 
	d="
M494.904724,295.536133 
	C489.542633,295.815613 484.194885,296.596069 478.575043,295.032166 
	C474.991791,293.083679 475.990997,289.871185 475.816315,287.089081 
	C475.664642,284.673401 475.684570,282.222443 476.504364,279.387817 
	C481.575836,273.871521 487.434692,275.834869 493.583496,276.732666 
	C496.137421,282.849976 494.470154,289.016785 494.904724,295.536133 
z"/>
<path fill="#B677ED" opacity="1.000000" stroke="none" 
	d="
M143.872421,267.333679 
	C149.786285,266.660522 155.480499,267.798279 161.437592,266.083313 
	C163.423767,271.604828 165.198334,277.180115 164.905151,283.558350 
	C159.958389,287.901703 154.533615,286.070007 148.791901,285.325958 
	C144.280655,280.010498 143.500763,273.959198 143.872421,267.333679 
z"/>
<path fill="#629DEB" opacity="1.000000" stroke="none" 
	d="
M436.804352,389.661621 
	C427.430786,389.638123 417.999451,390.735687 408.285950,389.145569 
	C409.949219,385.776611 411.889618,382.622253 413.956543,379.553101 
	C418.064392,373.453308 423.587921,373.109863 428.874756,378.305206 
	C432.172241,381.545624 433.238037,386.305908 436.804352,389.661621 
z"/>
<path fill="#7E91EB" opacity="1.000000" stroke="none" 
	d="
M329.904053,360.582336 
	C324.582062,360.997650 319.331329,360.997894 313.623749,360.997650 
	C310.157898,359.220245 310.895660,356.183716 310.822083,353.535614 
	C310.737000,350.473541 310.407837,347.338776 311.979034,343.958618 
	C317.833649,340.876221 323.402252,340.938080 329.410095,343.713684 
	C329.838348,349.390594 330.812866,354.770996 329.904053,360.582336 
z"/>
<path fill="#B976ED" opacity="1.000000" stroke="none" 
	d="
M248.096558,264.456360 
	C253.421661,263.995117 258.672028,263.996765 264.379211,263.997742 
	C264.893951,269.342163 264.951874,274.687164 265.061005,280.494446 
	C259.687408,280.962982 254.262619,280.969238 248.363083,280.966156 
	C247.932831,275.610962 247.977310,270.265137 248.096558,264.456360 
z"/>
<path fill="#9487EC" opacity="1.000000" stroke="none" 
	d="
M318.682831,314.734253 
	C321.955505,319.071533 323.819916,323.688202 325.790344,328.637207 
	C324.852997,331.201263 323.055695,332.041290 320.755798,332.088287 
	C317.027863,332.164459 313.286987,332.562256 309.169464,331.493896 
	C303.537872,327.260895 298.904694,322.769775 299.167786,315.099915 
	C305.700531,311.957764 311.966156,311.730957 318.682831,314.734253 
z"/>
<path fill="#AD7BED" opacity="1.000000" stroke="none" 
	d="
M366.196442,294.723022 
	C360.582458,295.000824 355.331024,295.001129 349.622925,295.001160 
	C349.183563,289.127258 349.200867,283.253632 349.586670,277.142456 
	C354.883270,279.218781 360.114166,277.420044 365.641785,278.034302 
	C367.679932,279.053467 368.066650,280.610291 368.070984,282.324219 
	C368.081390,286.427734 367.717377,290.486786 366.196442,294.723022 
z"/>
<path fill="#7E91EB" opacity="1.000000" stroke="none" 
	d="
M201.207306,359.739929 
	C195.582230,359.999481 190.331085,359.999664 184.623337,359.999786 
	C184.117661,354.641022 184.068588,349.282288 184.089874,343.460388 
	C189.563156,343.330017 195.017120,342.303314 200.716095,343.860901 
	C202.649979,345.093506 203.149887,346.652893 203.027283,348.367371 
	C202.760605,352.096039 203.133926,355.917297 201.207306,359.739929 
z"/>
<path fill="#9F82EC" opacity="1.000000" stroke="none" 
	d="
M318.956818,314.630188 
	C312.638123,315.150421 306.135803,314.508575 299.315887,316.021606 
	C297.911682,316.580719 296.809479,316.483948 296.088684,315.862885 
	C292.050995,312.383789 286.934448,310.097839 284.164307,304.824493 
	C292.136292,303.114441 300.320862,305.139404 308.688141,302.993835 
	C313.152405,306.056488 316.338776,309.880249 318.956818,314.630188 
z"/>
<path fill="#AA7DEC" opacity="1.000000" stroke="none" 
	d="
M147.780823,284.269562 
	C153.418060,283.996338 158.669189,283.996826 164.377014,283.996246 
	C167.038467,289.011139 164.310989,294.073547 164.904266,299.549957 
	C159.336716,303.670013 153.616150,302.695129 147.506378,300.468933 
	C144.781464,294.891846 145.992340,289.716125 147.780823,284.269562 
z"/>
<path fill="#24BAE9" opacity="1.000000" stroke="none" 
	d="
M428.729919,463.272919 
	C434.417725,463.003418 439.669098,463.002838 445.377075,463.002899 
	C445.882111,468.028290 445.930481,473.053040 445.906219,478.539856 
	C440.501068,478.993256 435.168579,478.984650 429.361816,478.965912 
	C425.545258,473.938995 426.125641,468.771027 428.729919,463.272919 
z"/>
<path fill="#24BAE9" opacity="1.000000" stroke="none" 
	d="
M415.455933,478.572144 
	C409.769012,478.970795 404.424744,478.985809 398.623230,479.001343 
	C398.118347,473.977173 398.070679,468.952545 398.094879,463.466125 
	C403.430511,459.225311 409.046753,460.601746 415.089539,462.158356 
	C418.138214,467.645142 417.954010,472.899597 415.455933,478.572144 
z"/>
<path fill="#2DB6EA" opacity="1.000000" stroke="none" 
	d="
M415.276306,462.725037 
	C409.582550,463.003510 404.331268,463.003113 398.623352,463.003540 
	C397.427460,459.120911 399.866333,453.738983 397.059479,451.650787 
	C394.459045,449.716125 389.401001,451.080963 385.424957,451.001495 
	C384.259644,450.978210 383.093750,450.984253 381.465027,450.905396 
	C382.055695,448.345734 384.294006,449.039978 386.162964,449.028229 
	C395.413879,448.970215 404.665405,449.002136 414.374878,449.002716 
	C418.693726,453.249237 417.645416,457.818756 415.276306,462.725037 
z"/>
<path fill="#AA7DEC" opacity="1.000000" stroke="none" 
	d="
M19.091782,284.458252 
	C24.330637,282.271240 29.666670,283.261047 35.378860,282.998718 
	C39.675838,287.935822 38.188698,293.347992 36.959946,299.086304 
	C31.684624,302.535522 26.143852,300.797638 20.400349,301.170593 
	C17.871895,295.815613 19.525251,290.305542 19.091782,284.458252 
z"/>
<path fill="#51A5EA" opacity="1.000000" stroke="none" 
	d="
M453.838318,414.667480 
	C447.464050,415.370880 441.017792,414.196564 434.278748,415.879272 
	C427.872559,414.062134 425.873993,409.124084 424.950989,403.281433 
	C431.114136,400.819122 437.417023,403.039215 443.716248,401.145721 
	C447.307709,405.369690 450.565063,409.846039 453.838318,414.667480 
z"/>
<path fill="#B976ED" opacity="1.000000" stroke="none" 
	d="
M494.025208,276.459595 
	C491.062317,278.968994 487.677368,277.681030 484.483337,277.973450 
	C482.535797,278.151764 480.538239,277.850372 478.287689,278.869659 
	C472.523895,275.603638 472.259308,270.185516 472.588623,264.345703 
	C478.197937,261.642426 484.010498,264.162689 489.722870,262.128235 
	C492.338196,266.326080 493.768494,271.018585 494.025208,276.459595 
z"/>
<path fill="#9F82EC" opacity="1.000000" stroke="none" 
	d="
M147.537659,298.877747 
	C153.141586,301.211823 158.611389,299.439636 164.375885,299.996674 
	C163.945053,304.844513 162.783005,309.619019 160.911499,314.610168 
	C155.253784,313.188965 149.498413,314.328430 143.358429,313.968994 
	C141.256561,308.076691 143.747513,303.349030 147.537659,298.877747 
z"/>
<path fill="#858DEC" opacity="1.000000" stroke="none" 
	d="
M307.881500,330.299988 
	C313.787201,329.661682 319.480225,330.800385 325.435974,329.088074 
	C328.398590,333.391968 328.444122,338.467316 329.763672,343.608673 
	C324.498077,344.009857 319.162567,344.018005 313.352203,344.036560 
	C307.631744,340.933990 307.622192,335.764648 307.881500,330.299988 
z"/>
<path fill="#2DB6EA" opacity="1.000000" stroke="none" 
	d="
M98.723694,451.277222 
	C104.499870,451.006165 109.833572,451.014008 115.641953,451.031555 
	C116.070488,455.388153 116.024353,459.735077 115.905968,464.541504 
	C110.582619,465.000702 105.331505,465.000397 99.623581,465.000305 
	C95.306320,460.753876 96.354500,456.183929 98.723694,451.277222 
z"/>
<path fill="#9F82EC" opacity="1.000000" stroke="none" 
	d="
M19.973711,301.523468 
	C22.163609,297.767670 25.590046,299.304779 28.532301,299.037354 
	C30.646105,298.845245 32.791405,298.999664 35.377842,298.999207 
	C40.571007,301.505066 40.853889,305.801849 40.122871,310.696594 
	C34.312233,312.401886 28.679491,311.941895 22.622105,312.000916 
	C21.333344,308.669891 19.818079,305.486267 19.973711,301.523468 
z"/>
<path fill="#DB61A8" opacity="1.000000" stroke="none" 
	d="
M413.100861,163.243835 
	C413.412842,163.211441 413.479767,163.467178 413.268372,163.873169 
	C413.128326,163.818512 413.083588,163.654694 413.100861,163.243835 
z"/>
<path fill="#858DEC" opacity="1.000000" stroke="none" 
	d="
M376.853394,347.154938 
	C377.019318,347.079681 377.314270,347.273987 377.793762,347.654480 
	C377.646362,347.701965 377.314392,347.563202 376.853394,347.154938 
z"/>
<path fill="#6F97EB" opacity="1.000000" stroke="none" 
	d="
M325.278351,381.017883 
	C325.145538,380.827118 325.300720,380.566528 325.659912,380.169983 
	C325.722839,380.313751 325.623627,380.618408 325.278351,381.017883 
z"/>
<path fill="#000000" opacity="1.000000" stroke="none" 
	d="
M319.990784,177.651367 
	C321.696869,180.967514 324.648438,182.659012 327.013428,185.757812 
	C324.806610,187.871155 322.510498,190.070023 320.088562,192.574631 
	C317.187469,196.345596 314.917603,195.958694 311.981903,192.638855 
	C307.705933,187.803406 303.687561,187.633362 298.182281,191.341644 
	C290.326630,196.633026 281.564972,199.744431 272.463531,201.896835 
	C269.932434,202.495407 267.910583,203.425995 266.199341,205.649475 
	C264.622803,207.631226 265.014618,209.666031 265.004272,211.607834 
	C264.970215,217.995605 264.976532,217.995636 258.381012,217.996094 
	C258.050018,217.996109 257.718994,217.996078 257.388000,217.996094 
	C249.036026,217.996140 249.036026,217.996155 248.905914,209.453857 
	C248.480453,204.791534 245.932144,202.827896 242.010208,201.972473 
	C232.796448,199.962860 224.056091,196.710800 216.099426,191.550568 
	C209.845093,187.494339 206.584732,187.665375 201.482880,193.158798 
	C198.884216,195.956894 196.947861,196.519958 194.352188,193.023224 
	C191.832413,190.502365 189.624863,188.120911 187.253296,185.562485 
	C189.032639,182.667343 192.457489,181.027924 194.014404,177.471619 
	C196.347000,174.626480 194.798660,172.209610 193.536072,170.126236 
	C190.630798,165.332306 188.087906,160.369949 185.432312,155.126083 
	C183.998917,150.454361 182.896652,145.943634 181.753510,141.443253 
	C180.455170,136.331924 176.966141,134.088242 171.872314,134.008881 
	C170.225189,133.983215 168.577499,133.994507 166.486420,133.939423 
	C166.032608,129.247559 166.022461,124.605194 166.062317,119.502319 
	C168.586395,119.027489 171.074356,119.173920 173.531235,118.961174 
	C177.211960,118.642448 179.926682,116.881798 181.031540,113.128059 
	C182.339188,108.685318 183.676910,104.251434 185.087311,99.431595 
	C187.651093,91.905373 193.042938,86.168427 194.903320,78.380356 
	C194.152451,73.203369 189.972687,70.956207 186.664093,66.920288 
	C188.350784,65.529640 190.096985,64.089935 191.980499,62.344666 
	C192.511749,61.750481 192.943604,61.501617 193.293808,61.167236 
	C198.055893,56.620564 198.216827,56.466042 202.830841,61.448463 
	C205.978287,64.847244 209.956909,65.213432 213.063766,63.195839 
	C223.149872,56.645885 234.416931,53.289108 245.854187,49.439945 
	C250.867737,45.595840 248.365189,40.413719 249.065140,35.494038 
	C253.439224,35.029392 257.764923,35.019596 262.090576,34.999870 
	C263.599426,34.992992 265.232330,34.791183 265.092773,37.568672 
	C265.159302,42.140305 263.711578,46.496326 268.079651,49.732079 
	C270.217438,51.315708 272.615295,51.414726 274.875519,51.902187 
	C283.228363,53.703663 290.702698,57.548908 298.001892,61.662018 
	C304.363251,65.246666 307.380615,65.337440 312.470734,59.898258 
	C314.731903,57.482010 316.359009,56.758286 318.657654,59.984131 
	C321.186676,62.484463 324.530884,64.522758 325.353058,67.306053 
	C326.331573,70.618408 321.571655,71.897453 320.097717,74.645401 
	C319.651855,75.476646 319.384521,76.403625 319.101013,77.643967 
	C318.961761,80.722176 320.012848,82.955322 321.534973,85.172668 
	C324.555145,89.572174 326.860657,94.377281 329.006775,99.665382 
	C330.120850,103.564804 331.128113,107.115570 332.017487,110.695625 
	C333.525696,116.767128 336.342041,118.962013 342.763550,119.013466 
	C344.408539,119.026642 346.052429,119.184586 347.931824,119.638161 
	C348.111603,121.662338 348.013367,123.324242 348.008392,124.986420 
	C347.982269,133.703430 347.990479,133.703461 339.197083,134.526154 
	C335.751343,134.941391 333.909302,136.757309 333.008240,139.656723 
	C331.306030,145.134064 329.660278,150.628967 327.973267,156.504150 
	C325.276550,161.747818 322.656982,166.638062 319.890533,171.443726 
	C318.727264,173.464432 318.488342,175.328659 319.990784,177.651367 
z"/>
<path fill="#000000" opacity="1.000000" stroke="none" 
	d="
M239.450592,407.937500 
	C235.233124,405.980103 231.529160,403.804901 227.583618,402.237976 
	C223.496857,400.614929 224.048111,398.909912 226.984406,396.345673 
	C236.298538,388.093781 246.748276,383.507324 259.552368,383.905457 
	C260.727905,383.312164 261.510437,383.233429 262.645874,383.825500 
	C268.900604,385.932648 275.080719,387.183289 280.595337,391.064423 
	C283.883972,393.883881 287.288971,396.139801 289.737335,399.474701 
	C289.218323,401.183990 286.963104,400.869110 286.024963,402.643982 
	C280.746307,404.864624 275.957031,407.669495 270.580933,408.976257 
	C260.249786,411.487335 250.012878,410.989777 239.450592,407.937500 
z"/>
<path fill="#000000" opacity="1.000000" stroke="none" 
	d="
M406.389374,343.230774 
	C400.847778,341.878632 396.340149,339.107086 391.634369,336.818115 
	C389.911652,335.980164 388.144836,334.581482 390.987427,332.345093 
	C397.605255,326.419373 404.416412,321.385254 413.605164,319.906219 
	C417.643341,315.120117 422.742218,317.025452 427.315582,317.126282 
	C429.710876,317.179077 432.203033,317.786407 434.939575,318.790405 
	C435.888947,319.079895 436.396790,319.315338 437.175232,319.905945 
	C437.778412,320.636169 438.095001,321.077423 438.696136,321.808624 
	C444.509155,325.774231 450.496674,328.869751 454.699188,334.454224 
	C454.360474,336.245453 451.953705,335.778442 451.092529,337.572052 
	C444.924957,339.952759 439.413147,343.116821 432.866028,344.244354 
	C423.952728,345.779388 415.399719,345.778290 406.389374,343.230774 
z"/>
<path fill="#000000" opacity="1.000000" stroke="none" 
	d="
M39.990517,311.329102 
	C38.615967,307.234100 37.397663,303.465179 36.006195,299.347595 
	C35.882992,293.941772 35.932957,288.884644 35.908539,283.412750 
	C36.530766,277.424591 37.889038,272.021606 40.061890,266.427917 
	C45.075138,256.931305 51.076611,248.703064 59.904793,242.431305 
	C66.253609,239.069901 72.147270,235.293732 79.116554,233.994812 
	C90.305748,231.909409 101.322586,232.407288 112.557159,236.067169 
	C119.327309,240.007004 126.337440,242.970840 131.641129,248.982422 
	C136.954010,254.143677 140.564423,260.131256 144.009521,266.666962 
	C145.932388,272.264771 147.913940,277.484436 148.095337,283.573547 
	C149.545181,288.684906 147.598907,293.333649 147.976898,298.449005 
	C146.296783,303.657715 145.444504,308.707764 142.942688,313.583496 
	C137.388321,322.869354 137.388321,322.869354 129.353210,315.019714 
	C126.465370,314.976013 124.238342,314.011536 122.048035,312.749207 
	C103.055565,301.803406 83.814346,301.302582 64.284531,311.353485 
	C61.540157,312.765869 59.027393,314.939331 55.254585,314.825684 
	C54.029797,315.690338 53.122158,316.376801 52.319542,317.169556 
	C46.100437,323.312500 46.106827,323.318817 42.097847,315.470734 
	C41.448017,314.198608 40.797142,312.927002 39.990517,311.329102 
z"/>
<path fill="#000000" opacity="1.000000" stroke="none" 
	d="
M472.565155,263.885681 
	C474.223145,268.938293 476.838898,273.455597 477.562317,278.834564 
	C477.939819,284.047363 477.981781,289.062134 478.094971,294.539276 
	C477.100128,302.042450 475.335571,308.870239 471.939758,315.590302 
	C471.240356,316.825775 470.422546,317.609558 469.992371,318.567505 
	C468.193420,322.573395 466.121582,322.608276 463.357666,319.024292 
	C460.336548,318.853790 458.455078,317.079681 456.416290,315.687592 
	C434.272888,300.567719 411.845917,300.311127 389.126495,314.347168 
	C387.426666,315.397308 385.719208,316.440399 383.336914,316.864685 
	C382.091339,317.321625 381.095795,317.604675 380.390198,318.220123 
	C379.101593,319.344147 377.571350,321.909027 376.871460,321.676544 
	C374.524200,320.896851 373.839661,318.168304 372.625214,316.121490 
	C371.885132,314.874237 371.326202,313.519501 370.365356,312.050659 
	C368.690460,306.537689 366.020111,301.520172 365.908020,295.418457 
	C363.729797,289.622040 366.849884,284.303406 366.066681,278.491699 
	C368.067871,272.152924 370.023010,266.262970 373.065674,260.415955 
	C378.684235,252.859085 384.247375,245.669479 392.395721,241.118637 
	C394.355621,240.024048 396.347198,238.986282 398.597229,237.659470 
	C409.157928,232.643448 420.041504,232.272415 431.518036,233.067032 
	C441.195312,235.244843 449.605438,239.164688 457.559204,244.903091 
	C463.139404,250.907181 469.063690,256.265991 472.565155,263.885681 
z"/>
<path fill="#000000" opacity="1.000000" stroke="none" 
	d="
M59.441051,335.100403 
	C61.207043,332.682587 63.293701,330.403900 65.692230,327.992737 
	C82.546249,316.567200 99.301369,315.622040 116.626266,326.983887 
	C119.604355,329.642883 123.428932,331.107178 124.075180,335.587585 
	C117.166351,339.108795 110.714302,342.791077 103.013817,344.225922 
	C87.902176,347.041748 74.159988,344.775604 61.491344,336.063324 
	C60.971718,335.705963 60.340790,335.510437 59.441051,335.100403 
z"/>
<path fill="#9A84EC" opacity="1.000000" stroke="none" 
	d="
M55.279675,315.120544 
	C66.238243,305.986481 79.188950,301.695526 93.604218,302.027771 
	C105.713295,302.306885 116.730316,306.074371 126.618614,313.103455 
	C127.269127,313.565887 128.025131,313.879944 128.887451,314.574036 
	C127.686172,316.159546 125.983391,315.994659 124.332237,315.995087 
	C103.073654,316.000641 81.815041,316.014221 60.556561,315.967865 
	C58.927406,315.964325 57.299210,315.523865 55.279675,315.120544 
z"/>
<path fill="#000000" opacity="1.000000" stroke="none" 
	d="
M308.013519,329.673096 
	C309.652039,334.508789 311.797211,338.824188 312.540131,343.850403 
	C312.926361,349.388702 312.975372,354.730408 313.095642,360.534607 
	C312.051575,366.915741 310.758667,372.780975 307.938782,378.581787 
	C306.331238,381.385437 304.784943,383.813477 303.096436,386.554077 
	C302.829987,387.025757 302.705750,387.184875 302.295258,387.245361 
	C299.891998,385.149475 297.775055,383.152161 295.350220,381.021240 
	C292.491241,380.764618 290.244507,379.813019 288.086121,378.494629 
	C267.281586,365.786835 246.421631,366.406250 225.604141,378.416107 
	C223.711899,379.507751 221.916626,380.590302 219.340210,380.867493 
	C211.115814,387.684174 211.115814,387.684174 205.986206,378.327576 
	C203.597443,372.455261 201.233063,366.943817 200.906189,360.417511 
	C199.283737,354.978760 201.339569,350.000092 201.028259,344.554382 
	C202.801544,337.787537 204.850052,331.572113 208.062057,325.407715 
	C211.839844,320.379944 215.336578,315.525116 219.898605,311.601440 
	C221.115234,310.555023 221.963303,309.021759 223.890930,308.425049 
	C236.022308,299.714264 249.429535,296.759216 263.823517,298.049164 
	C270.775513,298.672180 277.241394,301.231567 283.858826,304.269958 
	C289.256378,307.732422 294.182648,311.232849 298.575562,315.908630 
	C301.965118,320.413177 305.450256,324.518005 308.013519,329.673096 
z"/>
<path fill="#000000" opacity="1.000000" stroke="none" 
	d="
M99.094032,450.543823 
	C99.118126,455.359161 99.070076,459.719971 99.094391,464.540649 
	C99.111328,467.155914 99.013977,469.311188 99.008041,471.466766 
	C98.987297,478.999115 98.999306,478.999146 91.468033,478.998291 
	C85.050468,478.997559 85.050468,478.997559 84.905472,468.454529 
	C84.881210,462.306793 84.928864,456.616852 84.904938,450.463867 
	C84.888939,448.024200 84.999924,446.047333 84.990013,444.071106 
	C84.956169,437.324738 81.648468,434.013245 74.987755,434.001221 
	C72.874710,433.997406 70.761642,434.000610 68.279259,434.000610 
	C69.003136,432.567291 69.540703,431.502899 70.246773,430.150940 
	C70.415276,429.863373 70.798386,429.684204 70.835022,429.475952 
	C71.042473,428.953461 71.264778,428.681305 71.681885,428.227173 
	C77.168396,420.222351 82.511642,412.441620 88.020676,404.342957 
	C88.720108,403.258667 89.380043,402.550659 89.765266,401.715820 
	C91.326675,398.332092 92.777847,398.727570 94.560989,401.897461 
	C98.339912,409.061584 103.523643,414.926483 108.013214,421.676575 
	C110.586067,425.769653 113.007462,429.545685 115.613136,433.609131 
	C111.171051,434.837616 106.378967,432.763611 102.058472,435.604553 
	C96.972504,439.876770 99.688698,445.322906 99.094032,450.543823 
z"/>
<path fill="#000000" opacity="1.000000" stroke="none" 
	d="
M425.033569,402.677521 
	C427.886108,407.235657 430.576935,411.482452 433.577545,415.886230 
	C437.349731,421.270905 440.812134,426.498566 444.583679,431.883789 
	C444.989319,432.734039 446.580750,433.819031 444.496338,433.954346 
	C442.535583,434.081604 440.560852,433.995728 438.592285,434.000305 
	C431.598358,434.016602 429.007538,436.627869 429.001190,443.675354 
	C429.000153,444.823730 429.015106,445.972107 429.094788,447.562500 
	C429.118561,452.696533 429.070221,457.388550 429.094116,462.542297 
	C429.105621,468.013397 429.044891,473.022797 428.935883,478.493988 
	C424.600342,478.968994 420.313049,478.982208 415.569519,478.975586 
	C415.067963,473.946106 415.022675,468.936462 414.905640,463.465363 
	C414.881317,458.643372 414.928772,454.282837 414.904663,449.462708 
	C414.888763,447.853302 414.986237,446.703766 414.993378,445.553680 
	C415.046478,436.979675 412.054230,434.005768 403.399597,433.999908 
	C401.916199,433.998901 400.432831,433.990295 398.497345,433.936951 
	C401.290619,429.154419 404.535980,424.420135 407.808472,419.342255 
	C411.156647,414.238739 414.477661,409.478790 417.937744,404.404663 
	C419.277954,402.438263 420.479065,400.786072 421.752014,399.035095 
	C423.545746,399.377106 423.371735,401.700684 425.033569,402.677521 
z"/>
<path fill="#9A84EC" opacity="1.000000" stroke="none" 
	d="
M383.289520,317.142487 
	C390.127625,308.947662 399.841888,305.488770 409.683899,303.187714 
	C423.748291,299.899384 437.455627,302.365662 450.247772,309.089752 
	C454.841644,311.504547 459.266571,314.304718 462.911743,318.577637 
	C457.204956,321.228821 451.107056,319.413391 445.161652,320.012421 
	C443.146149,320.215546 440.832977,319.222656 439.110046,321.745087 
	C438.517426,322.068909 438.076569,322.023163 437.311279,321.902924 
	C436.800018,321.701050 436.613251,321.573608 436.155762,321.241943 
	C430.456512,320.186646 425.153412,318.465454 419.531067,318.948578 
	C417.890900,319.089539 416.303802,319.137848 414.422974,319.899048 
	C412.944031,317.343750 410.707001,318.105621 408.831451,318.015717 
	C400.434021,317.613037 391.998260,318.756470 383.289520,317.142487 
z"/>
<path fill="#6A9AEB" opacity="1.000000" stroke="none" 
	d="
M219.289215,381.142883 
	C227.131851,373.494415 236.898270,369.814575 247.646103,367.931274 
	C265.322083,364.833923 280.673218,369.979462 294.903442,380.571930 
	C292.199432,382.915863 288.959961,381.860046 285.906464,381.951111 
	C280.136444,382.123230 274.357758,382.012421 268.582672,382.005310 
	C266.724487,382.003021 264.962738,382.276855 263.222534,383.824585 
	C262.210052,384.062775 261.469299,384.019745 260.364166,383.904938 
	C258.939880,381.338074 256.693726,382.038208 254.820084,382.027405 
	C244.877853,381.970154 234.935074,382.014954 224.992615,381.986481 
	C223.191010,381.981323 221.333878,382.298737 219.289215,381.142883 
z"/>
<path fill="#3AB0EA" opacity="1.000000" stroke="none" 
	d="
M71.640259,428.190247 
	C71.688004,428.335236 71.550865,428.667389 71.142685,429.133606 
	C71.066231,428.970917 71.260803,428.674194 71.640259,428.190247 
z"/>
<path fill="#5F9FEB" opacity="1.000000" stroke="none" 
	d="
M302.138916,387.222412 
	C302.008972,387.146759 302.473999,386.980957 302.714111,386.923828 
	C302.826202,387.193634 302.597717,387.337402 302.138916,387.222412 
z"/>
<path fill="#EA587E" opacity="1.000000" stroke="none" 
	d="
M213.017517,87.389877 
	C235.082047,62.530190 274.955841,61.066364 297.681335,83.993484 
	C298.739990,87.635948 296.176971,87.901711 293.893280,88.050461 
	C288.912323,88.374908 283.903473,88.516716 278.936127,87.985001 
	C277.027252,87.780670 275.325623,88.033730 273.157471,88.786026 
	C268.301727,89.619415 264.364014,87.083687 259.954712,87.135925 
	C254.081497,87.205490 248.323486,87.368301 242.787704,89.637604 
	C241.117630,90.322220 239.330856,90.892166 237.000610,90.547348 
	C230.994476,89.469704 225.398056,90.698578 219.824142,90.199257 
	C217.398254,89.981934 214.745499,90.439018 213.017517,87.389877 
z"/>
<path fill="#D565BA" opacity="1.000000" stroke="none" 
	d="
M298.950745,167.605194 
	C288.991608,177.753174 277.272980,183.656479 263.018188,185.161270 
	C248.221588,186.723251 235.217010,182.859589 223.037979,175.002869 
	C221.003860,173.690674 219.133194,172.125137 217.039825,170.360550 
	C217.697189,167.228165 220.001205,166.917358 222.367294,166.879105 
	C228.275970,166.783630 234.205109,166.331390 240.081192,167.201416 
	C242.305069,167.530685 244.312897,167.181000 246.758652,166.254669 
	C255.746887,167.035492 264.135864,165.434402 272.991272,164.416473 
	C279.464264,165.916931 285.541107,164.143127 291.593597,164.785004 
	C294.179871,165.059296 296.972351,164.579346 298.950745,167.605194 
z"/>
<path fill="#E65A8A" opacity="1.000000" stroke="none" 
	d="
M212.561035,87.116272 
	C217.463470,88.916924 222.308304,87.649315 227.033432,87.992874 
	C230.133789,88.218292 233.306503,87.495605 236.721893,88.877899 
	C237.815826,91.512260 236.016541,92.746941 234.472687,93.879684 
	C229.326447,97.655533 225.089279,102.198326 221.953812,107.772789 
	C220.961105,109.537704 219.683777,111.046349 217.092636,111.484299 
	C212.803818,112.579323 208.872192,112.243484 204.951614,112.068741 
	C203.247772,111.992798 201.711685,111.535530 200.922867,109.353508 
	C202.349548,101.547592 206.233810,95.487045 210.750748,89.741928 
	C211.341324,88.990776 211.763123,88.106941 212.561035,87.116272 
z"/>
<path fill="#D864B2" opacity="1.000000" stroke="none" 
	d="
M299.440796,167.907318 
	C292.822144,166.144852 286.347504,167.340820 279.956451,166.996094 
	C277.839325,166.881897 275.659027,167.398560 273.294556,166.137314 
	C272.595947,163.612976 274.261108,162.614395 275.787964,161.733368 
	C281.437866,158.473251 285.919037,153.984451 289.847870,148.856369 
	C291.050537,147.286575 292.396729,145.813675 294.973755,145.495605 
	C300.850952,144.729507 306.327026,143.679276 311.875793,146.635895 
	C310.305084,155.318039 304.597778,161.288422 299.440796,167.907318 
z"/>
<path fill="#E05E9C" opacity="1.000000" stroke="none" 
	d="
M200.605545,109.091965 
	C206.217773,111.227188 211.775818,109.416267 217.638489,110.032257 
	C219.262833,111.001984 219.516037,112.343254 219.157410,113.626427 
	C217.290573,120.305931 217.514938,127.233978 216.319351,134.377762 
	C210.720749,137.165482 205.289719,136.522812 199.398529,135.229340 
	C196.855621,127.694138 198.058685,120.371231 199.451996,113.054840 
	C199.691528,111.796967 199.989105,110.550140 200.605545,109.091965 
z"/>
<path fill="#DF5F9D" opacity="1.000000" stroke="none" 
	d="
M312.459778,146.835968 
	C306.364471,147.011261 300.600739,146.992233 294.361877,146.963470 
	C292.820770,145.904526 292.659485,144.554077 293.122833,143.296753 
	C295.235413,137.564011 296.556793,131.662811 297.254669,125.603531 
	C297.348511,124.788666 297.905396,124.108162 298.824799,123.200653 
	C304.556946,121.436371 309.900055,120.725494 315.501678,123.641006 
	C316.848816,131.818115 314.761871,139.222061 312.459778,146.835968 
z"/>
<path fill="#E65A8A" opacity="1.000000" stroke="none" 
	d="
M271.816650,87.416527 
	C278.556549,85.414062 285.350616,86.201942 292.094482,85.974609 
	C293.988403,85.910767 296.114380,86.670410 297.829681,84.478745 
	C302.955994,88.738991 306.856232,94.122177 309.908875,100.551102 
	C310.250671,103.949394 308.230743,104.829048 305.730652,105.026588 
	C302.123474,105.311607 298.505249,105.365334 294.483673,104.996254 
	C291.868958,105.415901 290.129272,104.396027 288.882965,102.832123 
	C284.723358,97.612564 279.622772,93.602501 273.788239,90.444626 
	C272.759674,89.887932 272.018738,88.991013 271.816650,87.416527 
z"/>
<path fill="#D864B2" opacity="1.000000" stroke="none" 
	d="
M248.156647,167.559967 
	C241.823349,169.865479 235.346359,168.645920 228.955887,169.007278 
	C225.194138,169.220001 221.365494,168.381485 217.283386,169.878510 
	C211.829239,166.210510 208.843109,160.686279 205.183838,155.342087 
	C206.148621,152.765945 207.985641,151.990005 210.296524,151.895493 
	C214.561478,151.721039 218.818375,151.607880 223.461777,152.453461 
	C225.803650,152.368912 227.466949,153.035416 228.778870,154.376892 
	C233.456329,159.159775 238.989639,162.529175 245.305115,164.683029 
	C246.553162,165.108658 247.693497,165.797974 248.156647,167.559967 
z"/>
<path fill="#E35C92" opacity="1.000000" stroke="none" 
	d="
M292.671448,104.405830 
	C296.148499,102.000053 299.722748,103.387817 303.104156,103.012062 
	C305.335052,102.764153 307.805481,103.625114 309.835052,101.194138 
	C313.880096,107.802979 315.335968,115.367256 315.907379,123.572342 
	C310.583191,123.997108 305.331024,123.996819 299.621887,123.996735 
	C298.518219,123.799835 297.809418,123.502678 297.607635,122.885201 
	C295.647614,116.887672 292.193481,111.314255 292.671448,104.405830 
z"/>
<path fill="#DB61A8" opacity="1.000000" stroke="none" 
	d="
M225.271942,153.610138 
	C218.737000,154.417999 212.278870,153.142410 205.555634,154.910522 
	C201.740906,149.079285 199.577911,142.757614 198.978271,135.507172 
	C204.146774,132.819214 209.605453,134.542099 215.367737,134.011810 
	C217.109695,134.316711 217.820740,135.290619 218.159851,136.408890 
	C219.947739,142.304779 224.050644,147.195892 225.271942,153.610138 
z"/>
<path fill="#8F89EC" opacity="1.000000" stroke="none" 
	d="
M435.976624,321.286804 
	C436.173676,321.145325 436.434204,321.300293 436.826660,321.665558 
	C436.680603,321.730957 436.374420,321.633423 435.976624,321.286804 
z"/>
<path fill="#C670E8" opacity="1.000000" stroke="none" 
	d="
M61.475693,262.335327 
	C64.279594,250.596710 70.881042,242.135086 82.583023,239.099884 
	C99.698616,234.660522 114.975624,241.157501 121.799957,258.634888 
	C120.445480,261.008789 118.331993,261.138367 116.178978,261.168060 
	C112.761192,261.215210 109.343559,261.268036 105.525208,261.484924 
	C103.208313,261.534027 101.649551,260.699097 100.038788,259.751038 
	C92.974030,255.592850 88.555038,255.985855 82.433502,261.248688 
	C81.284256,262.236694 80.210281,263.238220 78.219666,263.485779 
	C72.416924,264.171173 66.992401,265.467712 61.475693,262.335327 
z"/>
<path fill="#AD7BED" opacity="1.000000" stroke="none" 
	d="
M121.877602,276.654419 
	C120.683952,288.843018 107.747581,298.811676 97.303925,299.980865 
	C78.076805,302.133362 66.093521,290.946747 62.933342,280.417175 
	C63.785572,277.753876 65.651131,277.025665 67.911194,276.922913 
	C71.639473,276.753418 75.367912,276.560974 79.488968,277.332275 
	C81.793350,277.285278 83.522087,277.751526 85.129089,278.740479 
	C90.683533,282.158691 95.874870,281.424438 100.690102,277.257629 
	C101.968269,276.151581 103.221504,275.106415 105.391167,274.922211 
	C111.097336,275.277863 116.563484,273.436462 121.877602,276.654419 
z"/>
<path fill="#BE74ED" opacity="1.000000" stroke="none" 
	d="
M122.479134,276.804321 
	C116.625244,276.647644 111.077484,277.689301 105.288559,276.140381 
	C102.909439,270.970184 103.656830,265.750610 103.588402,260.344788 
	C109.469269,258.250793 115.235901,259.261993 121.381409,258.998108 
	C123.973534,264.751373 122.753166,270.696655 122.479134,276.804321 
z"/>
<path fill="#B976ED" opacity="1.000000" stroke="none" 
	d="
M81.298088,278.601898 
	C75.323669,279.382385 69.444038,278.169159 63.300549,279.957581 
	C59.536263,274.631012 61.529129,268.638733 61.088989,262.458130 
	C66.832428,262.005341 72.503021,262.014191 78.649048,262.033142 
	C79.505699,262.361450 80.024628,262.717896 80.005074,263.184174 
	C79.791565,268.276550 81.175117,273.207306 81.298088,278.601898 
z"/>
<path fill="#C670E8" opacity="1.000000" stroke="none" 
	d="
M393.416443,257.370789 
	C396.941193,246.485672 404.728455,240.170761 415.314606,238.190582 
	C427.705475,235.872833 438.676697,239.321167 446.939758,249.450439 
	C447.643463,250.313019 448.175537,251.315536 448.937653,252.559570 
	C449.228760,256.322174 446.827209,256.860413 444.199005,257.089874 
	C439.733490,257.479767 435.270203,257.017365 430.392883,257.120483 
	C423.838562,256.955750 417.747711,257.067444 411.557343,259.584137 
	C407.009064,259.448212 402.889130,259.207916 398.761780,259.155884 
	C396.966003,259.133240 395.085205,259.222412 393.416443,257.370789 
z"/>
<path fill="#B677ED" opacity="1.000000" stroke="none" 
	d="
M396.287689,286.342041 
	C392.341492,282.725525 391.811890,278.211395 391.094116,273.398743 
	C395.748169,269.113281 401.071869,271.189087 406.523560,271.270447 
	C409.229431,271.924896 410.558167,273.591522 411.763123,275.451721 
	C414.759949,280.078278 419.232971,281.479645 424.362671,280.596619 
	C429.256042,279.754303 432.158783,276.379669 433.634949,271.791962 
	C434.196808,270.045807 434.421570,268.192017 436.427979,266.812866 
	C441.990875,265.621155 447.172791,264.660522 452.513428,267.654907 
	C454.024933,274.492157 451.695740,280.172455 448.433563,285.876282 
	C446.117767,287.794312 443.707184,288.209564 441.159668,288.223969 
	C428.389557,288.296082 415.619507,288.302734 402.849518,288.217773 
	C400.671539,288.203278 398.534821,287.981689 396.287689,286.342041 
z"/>
<path fill="#AA7DEC" opacity="1.000000" stroke="none" 
	d="
M395.942108,286.388794 
	C412.977753,286.034668 430.070038,286.028015 447.638275,286.031250 
	C444.172394,294.007874 436.865387,298.299591 428.962860,299.652710 
	C415.896362,301.889984 403.894806,298.909760 395.942108,286.388794 
z"/>
<path fill="#BE74ED" opacity="1.000000" stroke="none" 
	d="
M408.200867,272.819214 
	C402.581329,272.996185 397.331421,272.996643 391.624939,272.996460 
	C389.694122,267.682434 390.668762,262.632416 392.987030,257.354706 
	C399.201630,257.230225 405.302917,256.320465 411.693970,258.009460 
	C412.180939,263.213104 410.213928,267.888550 408.200867,272.819214 
z"/>
<path fill="#BE74ED" opacity="1.000000" stroke="none" 
	d="
M452.906647,267.568878 
	C447.582733,268.000854 442.331055,268.001007 436.622528,268.000854 
	C432.727509,264.915375 431.050568,260.661560 428.853668,256.473694 
	C433.180389,253.884796 437.728302,255.464447 442.103271,255.009903 
	C444.342590,254.777206 446.814331,255.615891 448.855896,253.192505 
	C451.862488,257.220215 453.261078,261.949493 452.906647,267.568878 
z"/>
<path fill="#7C92EB" opacity="1.000000" stroke="none" 
	d="
M284.932068,347.636841 
	C279.538605,358.643829 271.157867,364.519012 258.822540,365.109741 
	C246.117798,365.718170 236.824478,360.637238 229.810837,350.396515 
	C228.579437,348.598511 228.338898,346.497375 227.204391,344.359467 
	C231.899689,338.854889 237.818207,341.057129 243.859528,341.426056 
	C244.777740,341.519958 245.391724,341.393982 245.740662,341.647400 
	C251.947723,346.155457 258.748260,346.377289 266.271149,344.622223 
	C270.805878,345.247070 274.934967,344.509064 279.058716,344.844666 
	C281.240082,345.022217 283.401306,345.108856 284.932068,347.636841 
z"/>
<path fill="#9A84EC" opacity="1.000000" stroke="none" 
	d="
M228.131836,323.354126 
	C229.795288,314.425293 235.853256,308.982269 243.084793,305.636810 
	C254.712219,300.257751 271.204407,301.669373 280.183228,312.690765 
	C281.407990,314.194153 282.580780,315.739838 283.911987,317.576843 
	C284.138184,321.314514 281.775513,321.888580 279.126434,322.095276 
	C274.651093,322.444427 270.189392,322.181458 265.285522,321.798828 
	C258.537354,322.118835 252.216202,322.281097 246.003296,325.344452 
	C241.669525,324.865417 237.771606,325.473328 233.884598,325.187775 
	C231.961685,325.046509 229.937988,325.286957 228.131836,323.354126 
z"/>
<path fill="#8B8BEC" opacity="1.000000" stroke="none" 
	d="
M227.538773,323.166260 
	C233.692184,323.382782 239.569061,322.231171 245.723755,323.876801 
	C246.352402,324.477814 246.765762,324.998260 246.632553,325.405029 
	C244.803024,330.992004 245.682053,336.719635 245.397919,342.680786 
	C239.401245,343.115753 233.641983,342.584747 227.581665,343.989990 
	C225.243622,337.119690 225.451187,330.244629 227.538773,323.166260 
z"/>
<path fill="#858DEC" opacity="1.000000" stroke="none" 
	d="
M285.453369,347.858337 
	C279.104004,345.818756 272.689758,348.049286 266.292053,346.137451 
	C265.603302,340.601196 268.965118,336.643311 271.232422,331.931793 
	C276.862335,330.519989 282.088501,329.746613 287.510254,332.652557 
	C288.752716,338.113373 287.283203,342.892517 285.453369,347.858337 
z"/>
<path fill="#8F89EC" opacity="1.000000" stroke="none" 
	d="
M287.905396,332.569336 
	C282.581940,333.000916 277.329956,333.000763 271.621002,333.000153 
	C267.473846,329.724670 265.668121,325.022919 262.361298,321.057068 
	C267.534973,319.503265 272.831116,320.190613 278.088928,319.996460 
	C280.028809,319.924866 282.109222,320.353455 283.819519,318.214844 
	C286.850220,322.225708 288.299255,326.937347 287.905396,332.569336 
z"/>
<path fill="#000000" opacity="1.000000" stroke="none" 
	d="
M225.421692,154.089508 
	C220.611298,148.271988 217.172333,142.075989 215.897430,134.412720 
	C213.607101,126.010918 215.519302,118.392891 218.050171,110.433716 
	C222.441132,101.501907 228.560623,94.608818 236.965881,89.361755 
	C244.744064,86.225723 252.452957,84.324287 260.769501,84.845833 
	C264.416321,85.074532 267.615448,86.461670 271.482544,87.023911 
	C280.094177,90.939247 287.119965,96.277695 292.642883,103.970139 
	C295.299194,110.365295 298.466370,116.356819 299.092773,123.588097 
	C299.267426,131.825836 297.670410,139.259003 293.940002,146.580780 
	C288.519287,154.742752 282.361023,161.641525 273.123596,165.568146 
	C265.076324,167.778442 257.204193,169.840469 248.558273,167.973724 
	C239.450455,165.350494 231.596985,161.403198 225.421692,154.089508 
z"/>
<path fill="#000000" opacity="1.000000" stroke="none" 
	d="
M81.444176,279.101196 
	C77.705132,273.954956 76.815041,268.617371 79.059700,262.458984 
	C84.746094,253.309128 95.678680,251.779617 103.558243,259.903992 
	C106.047142,264.908325 107.163078,269.858765 104.992020,275.472961 
	C101.140587,280.712128 96.662949,283.760406 89.994431,283.130371 
	C86.554100,282.805298 84.495476,280.540131 81.444176,279.101196 
z"/>
<path fill="#000000" opacity="1.000000" stroke="none" 
	d="
M428.570496,256.064819 
	C432.981842,258.759918 435.801147,262.161438 436.093445,267.609192 
	C435.757080,275.708984 431.793396,281.557739 426.040466,282.941040 
	C418.481659,284.758636 412.560822,281.685303 407.984009,273.321777 
	C408.041931,267.918365 407.420593,262.608826 411.971130,258.372681 
	C417.162292,254.901627 422.366455,253.045135 428.570496,256.064819 
z"/>
<path fill="#000000" opacity="1.000000" stroke="none" 
	d="
M262.040100,320.462036 
	C267.516846,322.799286 270.386719,326.666565 271.092957,332.609833 
	C271.502716,337.879028 269.609833,341.861237 266.099976,345.565979 
	C258.694275,349.046417 251.764969,349.638428 245.435867,343.098389 
	C242.311203,336.767639 241.565567,330.650848 245.958481,324.380981 
	C250.610321,319.814606 256.032135,319.396851 262.040100,320.462036 
z"/>
</svg>