<svg version="1.1" id="Layer_1" xmlns="http://www.w3.org/2000/svg" xmlns:xlink="http://www.w3.org/1999/xlink" x="0px" y="0px"
	 width="100%" viewBox="0 0 512 512" enable-background="new 0 0 512 512" xml:space="preserve">
<path fill="#000000" opacity="1.000000" stroke="none" 
	d="
M513.000000,185.000000 
	C513.000000,294.640015 513.000000,403.780029 513.000000,512.960022 
	C342.401642,512.960022 171.803268,512.960022 1.102453,512.960022 
	C1.102453,342.443359 1.102453,171.886612 1.102453,1.164938 
	C171.666534,1.164938 342.333252,1.164938 513.000000,1.164938 
	C513.000000,62.196690 513.000000,123.348343 513.000000,185.000000 
M463.769379,270.252258 
	C459.885864,265.821960 456.002319,261.391663 451.840179,256.337280 
	C444.596680,251.542725 437.353210,246.748184 429.759064,241.300232 
	C421.999634,238.016769 422.015503,238.016724 421.992554,229.936996 
	C421.983124,226.623810 421.888733,223.310837 421.976135,219.070541 
	C421.928497,210.046524 421.880890,201.022522 421.976440,191.071060 
	C421.928955,181.046875 421.881439,171.022705 421.976501,160.070984 
	C421.928619,149.378510 421.880768,138.686035 421.974915,127.066925 
	C421.927734,117.377823 421.880554,107.688728 421.977844,97.072777 
	C421.655151,88.631996 423.523895,79.916832 418.807343,71.329796 
	C416.874512,68.726082 415.098358,65.986565 412.980377,63.543335 
	C405.733856,55.183952 395.945557,52.262192 385.456573,52.097530 
	C363.680939,51.755676 341.896515,51.971535 320.012238,51.214680 
	C317.203400,43.817173 312.229919,39.058769 304.378967,36.883507 
	C296.495605,34.699257 289.183594,37.084484 281.807159,38.710312 
	C271.234558,41.040607 271.291046,41.291203 267.692688,31.249918 
	C267.421722,30.493792 267.118256,29.749321 266.769592,28.301216 
	C263.870361,24.036283 261.659241,19.004068 257.932495,15.661862 
	C249.473923,8.076062 239.434982,4.656032 227.646622,4.776147 
	C212.309250,4.932424 196.252960,16.621855 191.201370,31.353577 
	C190.629150,34.171513 190.056931,36.989452 189.371613,40.364342 
	C181.627899,39.124752 173.833618,38.446468 166.349335,36.546864 
	C154.839157,33.625443 141.921143,41.172180 138.022354,51.985088 
	C133.864075,51.989567 129.704956,51.941486 125.547668,52.007465 
	C105.832306,52.320358 86.070938,51.949764 66.417435,53.228539 
	C51.310589,54.211475 39.555679,66.212967 37.018658,83.924072 
	C37.067787,96.615517 37.116917,109.306969 37.018814,122.925598 
	C37.067604,133.618317 37.116394,144.311050 37.019508,155.930084 
	C37.068390,166.620819 37.117275,177.311569 37.021042,188.929367 
	C37.069511,199.619598 37.117981,210.309845 37.021336,221.927307 
	C37.069710,232.285110 37.118084,242.642899 37.022053,253.927963 
	C37.070202,264.618896 37.118355,275.309814 37.022396,286.928131 
	C37.070477,296.951508 37.118557,306.974854 37.022820,317.926147 
	C37.070805,328.282318 37.118790,338.638519 37.023106,349.923370 
	C37.070889,359.947937 37.118675,369.972534 37.023258,380.925079 
	C37.071030,391.284302 37.118801,401.643524 37.023914,412.930084 
	C37.071785,423.956390 37.119656,434.982697 37.024937,446.935577 
	C37.016533,457.290588 36.975876,467.645782 37.039078,478.000366 
	C37.047310,479.348816 37.590206,480.693939 37.987614,482.817505 
	C40.987606,498.142853 57.075573,509.227051 71.667488,509.180725 
	C177.232513,508.845428 282.799194,508.930267 388.365021,509.091614 
	C401.310547,509.111389 415.984924,500.243713 420.748474,485.692352 
	C421.109985,473.796387 421.471497,461.900452 421.978180,449.076538 
	C421.929901,437.051605 421.881622,425.026642 421.977814,412.074219 
	C421.985352,410.094086 422.299194,408.057953 421.949219,406.143158 
	C420.099762,396.024445 423.033142,388.911987 434.390015,386.114868 
	C436.371399,385.058075 438.497986,384.204620 440.309967,382.910645 
	C450.195007,375.851562 459.405914,368.113159 465.741302,356.716766 
	C469.105377,347.811035 472.469421,338.905304 475.977325,329.141296 
	C477.415436,318.691650 478.084290,308.263885 475.011688,297.134247 
	C473.085815,287.661194 469.775665,278.766266 463.769379,270.252258 
z"/>
<path fill="#8C4CFF" opacity="1.000000" stroke="none" 
	d="
M420.042358,486.115814 
	C415.984924,500.243713 401.310547,509.111389 388.365021,509.091614 
	C282.799194,508.930267 177.232513,508.845428 71.667488,509.180725 
	C57.075573,509.227051 40.987606,498.142853 38.410393,482.420349 
	C43.595959,482.003540 48.358742,481.983917 53.429955,482.121155 
	C57.833561,492.043915 66.356796,494.878296 75.648788,494.893707 
	C178.187927,495.063599 280.727478,495.037994 383.266815,494.934052 
	C392.090729,494.925110 399.864166,491.924042 405.271362,484.123474 
	C410.455109,484.895996 415.248749,485.505920 420.042358,486.115814 
z"/>
<path fill="#10B3FF" opacity="1.000000" stroke="none" 
	d="
M37.166821,82.996674 
	C39.555679,66.212967 51.310589,54.211475 66.417435,53.228539 
	C86.070938,51.949764 105.832306,52.320358 125.547668,52.007465 
	C129.704956,51.941486 133.864075,51.989567 138.820892,52.186691 
	C144.451889,52.939178 149.284363,53.490055 154.057053,54.437759 
	C153.675247,55.565750 153.117386,56.281338 153.067917,57.030495 
	C152.606598,64.016205 152.232590,71.007675 151.388092,77.998077 
	C146.350754,77.331306 141.758636,76.663948 137.094971,75.543976 
	C137.023422,72.487190 137.023422,69.883034 137.023422,66.999557 
	C116.629639,66.999557 96.830948,67.148956 77.035927,66.943993 
	C65.000626,66.819374 56.375057,71.435768 51.624832,83.041779 
	C46.491379,83.018677 41.829098,83.007675 37.166821,82.996674 
z"/>
<path fill="#10B3FF" opacity="1.000000" stroke="none" 
	d="
M320.115723,51.958122 
	C341.896515,51.971535 363.680939,51.755676 385.456573,52.097530 
	C395.945557,52.262192 405.733856,55.183952 412.980377,63.543335 
	C415.098358,65.986565 416.874512,68.726082 418.367493,71.670578 
	C412.247192,72.352615 406.566711,72.693871 400.567291,72.901474 
	C396.076355,68.198532 390.399445,67.163826 384.771820,67.093788 
	C365.192261,66.850090 345.607849,66.994186 326.025269,67.012306 
	C324.754486,67.013481 323.483887,67.195831 321.833832,67.323196 
	C321.833832,70.737640 321.833832,73.867920 321.378967,76.998726 
	C316.338104,76.998840 311.752106,76.998428 307.094604,76.534637 
	C307.015289,71.650269 307.398285,67.182182 306.872955,62.823574 
	C306.471252,59.490417 304.920776,56.295723 304.307983,53.004150 
	C309.861725,52.631950 314.988708,52.295036 320.115723,51.958122 
z"/>
<path fill="#6969FF" opacity="1.000000" stroke="none" 
	d="
M465.118011,357.039246 
	C459.405914,368.113159 450.195007,375.851562 440.309967,382.910645 
	C438.497986,384.204620 436.371399,385.058075 433.683655,386.143555 
	C431.841370,385.943848 430.703430,385.507874 429.569824,385.518921 
	C417.251648,385.638947 404.934174,385.829529 392.616486,385.999878 
	C381.462067,386.154144 370.307678,386.307220 358.868256,386.280273 
	C354.573822,383.688690 350.095062,381.803284 346.666321,378.741913 
	C341.674469,374.284912 337.438751,368.981110 333.356140,364.029541 
	C339.568207,363.641846 345.304779,363.262939 351.356628,363.026184 
	C352.971069,364.134125 354.286865,365.078491 355.566925,366.069000 
	C376.655304,382.387573 399.474518,385.270386 423.853607,374.548889 
	C433.373413,370.362213 441.287994,363.867279 448.294189,356.133850 
	C454.125244,356.602783 459.621643,356.821014 465.118011,357.039246 
z"/>
<path fill="#4687FF" opacity="1.000000" stroke="none" 
	d="
M430.109711,241.953629 
	C437.353210,246.748184 444.596680,251.542725 451.562164,256.733765 
	C447.871582,257.420593 444.454468,257.666718 441.047760,258.014404 
	C438.012909,258.324158 434.989532,258.746338 431.594055,259.061462 
	C429.189423,258.009918 427.135895,257.047089 425.116821,256.016663 
	C410.705017,248.661713 395.517334,247.080139 380.037933,251.170029 
	C367.734833,254.420700 357.170654,261.196716 347.709747,269.863220 
	C344.283569,269.409271 341.159241,269.410553 338.111420,268.928162 
	C336.003937,268.594604 334.002136,267.593262 331.979309,266.541534 
	C340.913879,255.050339 351.295105,245.825516 365.233948,241.161194 
	C367.870087,241.961380 370.231903,242.911804 372.600800,242.929977 
	C389.503601,243.059662 406.407990,243.038208 423.311340,242.952866 
	C425.579102,242.941437 427.843658,242.302170 430.109711,241.953629 
z"/>
<path fill="#0BB8FF" opacity="1.000000" stroke="none" 
	d="
M154.116821,54.040932 
	C149.284363,53.490055 144.451889,52.939178 139.284424,52.141258 
	C141.921143,41.172180 154.839157,33.625443 166.349335,36.546864 
	C173.833618,38.446468 181.627899,39.124752 189.371613,40.364342 
	C190.056931,36.989452 190.629150,34.171513 191.961121,31.089224 
	C198.186584,30.567659 203.652283,30.310448 208.965942,30.381771 
	C205.279007,36.177139 203.653564,42.098354 203.942245,48.666050 
	C204.187454,54.245003 199.939407,57.913960 194.525818,56.951469 
	C186.107040,55.454670 177.755203,53.568398 169.320145,52.180740 
	C164.160446,51.331921 158.740784,49.862263 154.116821,54.040932 
z"/>
<path fill="#0BB8FF" opacity="1.000000" stroke="none" 
	d="
M320.063965,51.586403 
	C314.988708,52.295036 309.861725,52.631950 303.964722,52.842613 
	C301.215149,52.144657 299.127197,50.845535 297.274048,51.121754 
	C286.864227,52.673386 276.469543,54.398945 266.152740,56.477364 
	C259.107452,57.896706 254.827499,55.012173 255.070175,47.807995 
	C255.274673,41.737377 253.849197,36.235943 251.270630,30.876793 
	C256.716705,30.142960 261.773315,29.571194 266.829895,28.999428 
	C267.118256,29.749321 267.421722,30.493792 267.692688,31.249918 
	C271.291046,41.291203 271.234558,41.040607 281.807159,38.710312 
	C289.183594,37.084484 296.495605,34.699257 304.378967,36.883507 
	C312.229919,39.058769 317.203400,43.817173 320.063965,51.586403 
z"/>
<path fill="#03BEFF" opacity="1.000000" stroke="none" 
	d="
M266.799744,28.650322 
	C261.773315,29.571194 256.716705,30.142960 250.962830,30.726128 
	C241.494888,16.667034 219.257233,15.689462 209.117981,30.053236 
	C203.652283,30.310448 198.186584,30.567659 192.302521,30.891792 
	C196.252960,16.621855 212.309250,4.932424 227.646622,4.776147 
	C239.434982,4.656032 249.473923,8.076062 257.932495,15.661862 
	C261.659241,19.004068 263.870361,24.036283 266.799744,28.650322 
z"/>
<path fill="#6E65FF" opacity="1.000000" stroke="none" 
	d="
M359.153259,386.460846 
	C370.307678,386.307220 381.462067,386.154144 392.616486,385.999878 
	C404.934174,385.829529 417.251648,385.638947 429.569824,385.518921 
	C430.703430,385.507874 431.841370,385.943848 433.398010,386.323364 
	C423.033142,388.911987 420.099762,396.024445 421.949219,406.143158 
	C422.299194,408.057953 421.985352,410.094086 421.453064,412.537720 
	C416.339752,412.338043 411.751190,411.674866 407.094421,410.547455 
	C407.026215,405.162689 407.026215,400.242188 407.026215,395.043640 
	C402.419952,395.529968 398.313110,395.963531 393.833160,396.436523 
	C393.833160,399.767242 393.833160,402.883728 393.437622,406.088104 
	C388.416748,406.450287 383.791382,406.724548 379.094055,406.540161 
	C379.014740,403.581787 378.837067,401.067963 379.042389,398.585876 
	C379.310120,395.349091 378.401917,393.780640 374.895813,392.780273 
	C369.487549,391.237091 364.385284,388.621552 359.153259,386.460846 
z"/>
<path fill="#408CFF" opacity="1.000000" stroke="none" 
	d="
M429.934387,241.626923 
	C427.843658,242.302170 425.579102,242.941437 423.311340,242.952866 
	C406.407990,243.038208 389.503601,243.059662 372.600800,242.929977 
	C370.231903,242.911804 367.870087,241.961380 365.410858,240.838379 
	C368.678406,239.153275 371.993774,237.880920 375.416656,237.052887 
	C378.076263,236.409485 379.144318,235.224106 379.064728,232.385071 
	C378.902466,226.594833 379.111053,220.794205 379.621613,214.998260 
	C384.662018,214.998428 389.247681,214.998184 393.906006,215.461517 
	C393.978668,221.825592 393.978668,227.726059 393.978668,233.649780 
	C398.578308,234.067062 402.661011,234.437439 407.174194,234.846863 
	C407.174194,231.899094 407.174194,229.441360 407.366821,226.650742 
	C407.707947,224.213348 407.856415,222.108826 408.467987,220.003052 
	C413.231720,220.000458 417.532379,219.999115 421.833008,219.997772 
	C421.888733,223.310837 421.983124,226.623810 421.992554,229.936996 
	C422.015503,238.016724 421.999634,238.016769 429.934387,241.626923 
z"/>
<path fill="#1CAAFF" opacity="1.000000" stroke="none" 
	d="
M37.092739,83.460373 
	C41.829098,83.007675 46.491379,83.018677 51.584496,83.504654 
	C51.954899,96.986153 51.894463,109.992676 51.438263,122.911255 
	C46.417015,122.548347 41.791534,122.273376 37.166050,121.998413 
	C37.116917,109.306969 37.067787,96.615517 37.092739,83.460373 
z"/>
<path fill="#795CFF" opacity="1.000000" stroke="none" 
	d="
M407.162659,411.011719 
	C411.751190,411.674866 416.339752,412.338043 421.380798,413.001465 
	C421.881622,425.026642 421.929901,437.051605 421.451019,449.539795 
	C409.161194,450.000122 409.161194,450.000122 407.088684,442.538971 
	C407.063324,431.720825 407.113007,421.366272 407.162659,411.011719 
z"/>
<path fill="#8453FF" opacity="1.000000" stroke="none" 
	d="
M53.121525,481.964325 
	C48.358742,481.983917 43.595959,482.003540 38.359314,482.031891 
	C37.590206,480.693939 37.047310,479.348816 37.039078,478.000366 
	C36.975876,467.645782 37.016533,457.290588 37.550812,446.470764 
	C42.662006,446.006744 47.247322,446.007538 51.903942,446.471344 
	C52.357342,458.610992 52.739433,470.287659 53.121525,481.964325 
z"/>
<path fill="#8453FF" opacity="1.000000" stroke="none" 
	d="
M407.163757,443.002563 
	C409.161194,450.000122 409.161194,450.000122 421.378418,450.003784 
	C421.471497,461.900452 421.109985,473.796387 420.395416,485.904083 
	C415.248749,485.505920 410.455109,484.895996 405.332336,483.730225 
	C405.668945,480.215118 406.829803,477.269440 406.911163,474.294220 
	C407.196289,463.869171 407.109375,453.433929 407.163757,443.002563 
z"/>
<path fill="#795CFF" opacity="1.000000" stroke="none" 
	d="
M51.832638,446.008362 
	C47.247322,446.007538 42.662006,446.006744 37.622108,446.007477 
	C37.119656,434.982697 37.071785,423.956390 37.542191,412.465942 
	C42.651295,412.335571 47.242130,412.669373 51.904381,413.466736 
	C51.928082,424.622955 51.880360,435.315674 51.832638,446.008362 
z"/>
<path fill="#27A0FF" opacity="1.000000" stroke="none" 
	d="
M37.092430,122.462006 
	C41.791534,122.273376 46.417015,122.548347 51.511894,123.374779 
	C51.932476,134.618744 51.883659,145.311249 51.383457,156.003815 
	C46.343109,155.670517 41.754143,155.337143 37.165184,155.003769 
	C37.116394,144.311050 37.067604,133.618317 37.092430,122.462006 
z"/>
<path fill="#3892FF" opacity="1.000000" stroke="none" 
	d="
M37.166451,221.000076 
	C37.117981,210.309845 37.069511,199.619598 37.544693,188.465515 
	C42.656975,187.668228 47.245613,187.334778 51.906788,187.464844 
	C51.930744,198.952408 51.882164,209.976440 51.378704,221.000671 
	C46.338036,221.000610 41.752243,221.000351 37.166451,221.000076 
z"/>
<path fill="#27A0FF" opacity="1.000000" stroke="none" 
	d="
M421.832886,127.993553 
	C421.880768,138.686035 421.928619,149.378510 421.460083,160.535217 
	C416.351440,160.328476 411.759216,159.657486 407.095856,158.554718 
	C407.072205,156.081512 407.119690,154.040085 407.359985,151.656372 
	C407.425598,148.217209 407.298492,145.120346 407.100891,141.558151 
	C407.076355,134.399246 407.122314,127.705673 407.376221,121.008865 
	C407.584167,121.005638 408.000000,120.998779 408.000549,121.436813 
	C407.333984,126.501564 409.119629,128.597214 413.970276,128.049057 
	C416.560150,127.756401 419.210052,127.994835 421.832886,127.993553 
z"/>
<path fill="#547BFF" opacity="1.000000" stroke="none" 
	d="
M37.166637,316.998230 
	C37.118557,306.974854 37.070477,296.951508 37.486656,286.377258 
	C42.578281,285.217804 47.205643,284.609192 51.905159,284.464264 
	C51.929138,295.618134 51.880959,306.308289 51.377953,316.998535 
	C46.337631,316.998444 41.752132,316.998322 37.166637,316.998230 
z"/>
<path fill="#6E65FF" opacity="1.000000" stroke="none" 
	d="
M51.832966,413.003174 
	C47.242130,412.669373 42.651295,412.335571 37.613518,412.002258 
	C37.118801,401.643524 37.071030,391.284302 37.543961,380.461365 
	C42.654266,380.330658 47.243862,380.663666 51.905006,381.460876 
	C51.928692,392.284454 51.880829,402.643829 51.832966,413.003174 
z"/>
<path fill="#5878FF" opacity="1.000000" stroke="none" 
	d="
M475.089966,297.940308 
	C478.084290,308.263885 477.415436,318.691650 475.454346,329.570648 
	C470.343170,329.667053 465.755005,329.334106 461.095123,328.571838 
	C462.651276,318.142609 462.630280,308.190063 460.681793,298.246643 
	C465.827606,298.103851 470.458771,298.022095 475.089966,297.940308 
z"/>
<path fill="#3198FF" opacity="1.000000" stroke="none" 
	d="
M51.834251,187.001343 
	C47.245613,187.334778 42.656975,187.668228 37.617249,188.001984 
	C37.117275,177.311569 37.068390,166.620819 37.092346,155.466919 
	C41.754143,155.337143 46.343109,155.670517 51.456371,156.466965 
	C51.931862,166.953812 51.883057,176.977570 51.834251,187.001343 
z"/>
<path fill="#4389FF" opacity="1.000000" stroke="none" 
	d="
M37.093895,221.463684 
	C41.752243,221.000351 46.338036,221.000610 51.451267,221.464264 
	C51.930256,232.285477 51.881805,242.643280 51.378494,253.001144 
	C46.337906,253.001038 41.752182,253.000870 37.166458,253.000702 
	C37.118084,242.642899 37.069710,232.285110 37.093895,221.463684 
z"/>
<path fill="#5B75FF" opacity="1.000000" stroke="none" 
	d="
M37.094727,317.462189 
	C41.752132,316.998322 46.337631,316.998444 51.449905,317.462494 
	C51.928856,328.282623 51.881035,338.638855 51.378357,348.995422 
	C46.337929,348.995422 41.752354,348.995056 37.166775,348.994690 
	C37.118790,338.638519 37.070805,328.282318 37.094727,317.462189 
z"/>
<path fill="#4B83FF" opacity="1.000000" stroke="none" 
	d="
M37.094254,253.464325 
	C41.752182,253.000870 46.337906,253.001038 51.450768,253.464722 
	C51.929604,263.952362 51.881306,273.976471 51.833004,284.000580 
	C47.205643,284.609192 42.578281,285.217804 37.558716,285.913574 
	C37.118355,275.309814 37.070202,264.618896 37.094254,253.464325 
z"/>
<path fill="#3198FF" opacity="1.000000" stroke="none" 
	d="
M407.166992,158.986481 
	C411.759216,159.657486 416.351440,160.328476 421.388794,160.998993 
	C421.881439,171.022705 421.928955,181.046875 421.457062,191.535126 
	C416.154022,192.113907 411.088928,190.936951 407.094238,194.536270 
	C407.070831,182.377045 407.118896,170.681763 407.166992,158.986481 
z"/>
<path fill="#636EFF" opacity="1.000000" stroke="none" 
	d="
M37.094940,349.459045 
	C41.752354,348.995056 46.337929,348.995422 51.450096,349.459839 
	C51.928944,360.281464 51.881203,370.639099 51.833458,380.996704 
	C47.243862,380.663666 42.654266,380.330658 37.615562,379.997375 
	C37.118675,369.972534 37.070889,359.947937 37.094940,349.459045 
z"/>
<path fill="#6071FF" opacity="1.000000" stroke="none" 
	d="
M461.166809,329.001190 
	C465.755005,329.334106 470.343170,329.667053 475.382446,329.999756 
	C472.469421,338.905304 469.105377,347.811035 465.429657,356.877991 
	C459.621643,356.821014 454.125244,356.602783 448.431641,355.820251 
	C448.777130,354.643555 449.501282,354.116394 449.834900,353.405823 
	C453.646637,345.287109 457.398743,337.140411 461.166809,329.001190 
z"/>
<path fill="#1CAAFF" opacity="1.000000" stroke="none" 
	d="
M421.903870,127.530243 
	C419.210052,127.994835 416.560150,127.756401 413.970276,128.049057 
	C409.119629,128.597214 407.333984,126.501564 408.000519,120.987213 
	C407.719330,116.737640 407.438690,113.375710 407.086060,109.559570 
	C407.062836,105.737389 407.111633,102.369408 407.568115,98.969757 
	C412.595001,98.625267 417.214172,98.312447 421.833374,97.999626 
	C421.880554,107.688728 421.927734,117.377823 421.903870,127.530243 
z"/>
<path fill="#4F7FFF" opacity="1.000000" stroke="none" 
	d="
M475.050842,297.537292 
	C470.458771,298.022095 465.827606,298.103851 460.607574,297.899689 
	C457.265503,288.551056 452.959961,280.319458 447.340271,273.035583 
	C450.981842,273.017151 454.178436,273.270966 457.305115,272.913544 
	C459.600067,272.651184 461.803467,271.587616 464.047638,270.881104 
	C469.775665,278.766266 473.085815,287.661194 475.050842,297.537292 
z"/>
<path fill="#19ACFF" opacity="1.000000" stroke="none" 
	d="
M421.905609,97.536201 
	C417.214172,98.312447 412.595001,98.625267 407.496674,98.506584 
	C406.774048,89.287621 408.872803,79.926628 400.886261,73.035126 
	C406.566711,72.693871 412.247192,72.352615 418.384460,72.016647 
	C423.523895,79.916832 421.655151,88.631996 421.905609,97.536201 
z"/>
<path fill="#3892FF" opacity="1.000000" stroke="none" 
	d="
M407.165680,195.000214 
	C411.088928,190.936951 416.154022,192.113907 421.385498,191.998856 
	C421.880890,201.022522 421.928497,210.046524 421.904572,219.534149 
	C417.532379,219.999115 413.231720,220.000458 408.465698,219.560303 
	C407.721344,216.083694 407.442322,213.048599 407.091095,209.551392 
	C407.067841,204.392944 407.116760,199.696579 407.165680,195.000214 
z"/>
<path fill="#4B83FF" opacity="1.000000" stroke="none" 
	d="
M463.908508,270.566711 
	C461.803467,271.587616 459.600067,272.651184 457.305115,272.913544 
	C454.178436,273.270966 450.981842,273.017151 447.034302,272.885406 
	C445.292542,271.456299 444.508881,269.970825 443.338043,268.914459 
	C439.623413,265.563141 435.764313,262.372009 431.961090,259.118896 
	C434.989532,258.746338 438.012909,258.324158 441.047760,258.014404 
	C444.454468,257.666718 447.871582,257.420593 451.701477,257.045807 
	C456.002319,261.391663 459.885864,265.821960 463.908508,270.566711 
z"/>
<path fill="#000000" opacity="1.000000" stroke="none" 
	d="
M51.905006,381.460907 
	C51.881203,370.639099 51.928944,360.281464 51.904945,349.459473 
	C51.881035,338.638855 51.928856,328.282623 51.904732,317.462463 
	C51.880959,306.308289 51.929138,295.618134 51.905159,284.464264 
	C51.881306,273.976471 51.929604,263.952362 51.905628,253.464661 
	C51.881805,242.643280 51.930256,232.285477 51.906143,221.464081 
	C51.882164,209.976440 51.930744,198.952408 51.906792,187.464844 
	C51.883057,176.977570 51.931862,166.953812 51.907757,156.466888 
	C51.883659,145.311249 51.932476,134.618744 51.907658,123.462723 
	C51.894463,109.992676 51.954899,96.986153 52.055672,83.516747 
	C56.375057,71.435768 65.000626,66.819374 77.035927,66.943993 
	C96.830948,67.148956 116.629639,66.999557 137.023422,66.999557 
	C137.023422,69.883034 137.023422,72.487190 137.021118,75.984711 
	C137.018799,78.144028 137.018799,79.409966 137.018799,80.998215 
	C134.888016,80.998215 133.243958,80.998215 131.599915,80.998215 
	C111.808228,80.998230 92.016548,80.993690 72.224861,81.001419 
	C67.223495,81.003365 65.074669,82.998611 65.029198,88.052994 
	C64.966408,95.033531 65.110771,102.015930 65.092880,109.461258 
	C65.068321,120.949776 65.117302,131.974564 65.093063,143.462936 
	C65.068535,154.284973 65.117210,164.643448 65.093040,175.465240 
	C65.068604,185.621170 65.117012,195.313751 65.092972,205.469620 
	C65.068970,215.956223 65.117432,225.979523 65.093788,236.466400 
	C65.070114,247.619156 65.118553,258.308380 65.094803,269.461548 
	C65.070717,279.949951 65.118835,289.974396 65.094879,300.462646 
	C65.070793,311.283661 65.118782,321.640869 65.094894,332.461975 
	C65.070900,343.615967 65.118774,354.306061 65.094971,365.460388 
	C65.071007,376.283112 65.118721,386.641663 65.095016,397.464020 
	C65.071411,407.953278 65.119225,417.978668 65.095520,428.467529 
	C65.071663,438.621521 65.119316,448.312073 65.095398,458.465942 
	C65.015892,463.091156 65.002167,467.253052 65.001289,471.414978 
	C64.999603,479.432526 66.534019,480.999817 74.394409,480.999878 
	C177.778976,481.000946 281.163544,481.000580 384.548126,481.000488 
	C385.546997,481.000488 386.548889,481.048889 387.544250,480.989410 
	C391.627197,480.745270 393.901184,478.564575 393.966858,474.473541 
	C394.044250,469.651428 393.888092,464.825623 393.905548,459.537598 
	C393.929718,450.715515 393.881500,442.357269 393.905609,433.535370 
	C393.929657,424.047882 393.881409,415.024017 393.833160,406.000183 
	C393.833160,402.883728 393.833160,399.767242 393.833160,396.436523 
	C398.313110,395.963531 402.419952,395.529968 407.026215,395.043640 
	C407.026215,400.242188 407.026215,405.162689 407.094452,410.547455 
	C407.113007,421.366272 407.063324,431.720825 407.088715,442.538971 
	C407.109375,453.433929 407.196289,463.869171 406.911163,474.294220 
	C406.829803,477.269440 405.668945,480.215118 404.942200,483.567627 
	C399.864166,491.924042 392.090729,494.925110 383.266815,494.934052 
	C280.727478,495.037994 178.187927,495.063599 75.648788,494.893707 
	C66.356796,494.878296 57.833561,492.043915 53.429955,482.121155 
	C52.739433,470.287659 52.357342,458.610992 51.903942,446.471344 
	C51.880360,435.315674 51.928082,424.622955 51.904381,413.466736 
	C51.880829,402.643829 51.928692,392.284454 51.905006,381.460907 
z"/>
<path fill="#000000" opacity="1.000000" stroke="none" 
	d="
M208.965942,30.381771 
	C219.257233,15.689462 241.494888,16.667034 250.573349,30.888197 
	C253.849197,36.235943 255.274673,41.737377 255.070175,47.807995 
	C254.827499,55.012173 259.107452,57.896706 266.152740,56.477364 
	C276.469543,54.398945 286.864227,52.673386 297.274048,51.121754 
	C299.127197,50.845535 301.215149,52.144657 303.537994,52.877899 
	C304.920776,56.295723 306.471252,59.490417 306.872955,62.823574 
	C307.398285,67.182182 307.015289,71.650269 307.020996,76.992004 
	C307.018921,81.183380 307.018921,84.454018 307.018921,87.704330 
	C255.028366,87.704330 203.647873,87.704330 151.833282,87.704330 
	C151.833282,84.273972 151.833282,81.135727 151.833282,77.997482 
	C152.232590,71.007675 152.606598,64.016205 153.067917,57.030495 
	C153.117386,56.281338 153.675247,55.565750 154.057053,54.437759 
	C158.740784,49.862263 164.160446,51.331921 169.320145,52.180740 
	C177.755203,53.568398 186.107040,55.454670 194.525818,56.951469 
	C199.939407,57.913960 204.187454,54.245003 203.942245,48.666050 
	C203.653564,42.098354 205.279007,36.177139 208.965942,30.381771 
z"/>
<path fill="#19ACFF" opacity="1.000000" stroke="none" 
	d="
M151.388092,77.998077 
	C151.833282,81.135727 151.833282,84.273972 151.833282,87.704330 
	C203.647873,87.704330 255.028366,87.704330 307.018921,87.704330 
	C307.018921,84.454018 307.018921,81.183380 307.092529,77.455383 
	C311.752106,76.998428 316.338104,76.998840 321.452728,77.436066 
	C321.394989,81.281059 323.625641,81.023872 325.893555,81.019783 
	C346.383301,80.982849 366.873138,81.013542 387.362885,80.986343 
	C391.797882,80.980461 394.070282,82.968010 394.012817,87.519623 
	C393.914062,95.344818 393.889038,103.170937 393.425934,110.965744 
	C388.401489,110.622200 383.784119,110.309586 379.095490,109.534760 
	C379.024200,104.473145 379.024200,99.873741 379.024200,95.147858 
	C359.793427,95.147858 341.183960,95.147858 322.598145,95.147858 
	C320.221283,101.869995 318.620789,102.998001 311.530731,102.998001 
	C257.590942,102.998024 203.650970,102.939423 149.711517,103.076851 
	C143.422363,103.092873 138.255905,102.292053 136.814346,95.300079 
	C117.755821,95.300079 99.018349,95.300079 79.833412,95.300079 
	C79.833412,100.063660 79.833412,104.530502 79.378632,108.998001 
	C74.338028,108.998283 69.752220,108.997910 65.166412,108.997536 
	C65.110771,102.015930 64.966408,95.033531 65.029198,88.052994 
	C65.074669,82.998611 67.223495,81.003365 72.224861,81.001419 
	C92.016548,80.993690 111.808228,80.998230 131.599915,80.998215 
	C133.243958,80.998215 134.888016,80.998215 137.018799,80.998215 
	C137.018799,79.409966 137.018799,78.144028 137.092651,76.437340 
	C141.758636,76.663948 146.350754,77.331306 151.388092,77.998077 
z"/>
<path fill="#000000" opacity="1.000000" stroke="none" 
	d="
M393.833038,110.996674 
	C393.889038,103.170937 393.914062,95.344818 394.012817,87.519623 
	C394.070282,82.968010 391.797882,80.980461 387.362885,80.986343 
	C366.873138,81.013542 346.383301,80.982849 325.893555,81.019783 
	C323.625641,81.023872 321.394989,81.281059 321.907593,77.435547 
	C321.833832,73.867920 321.833832,70.737640 321.833832,67.323196 
	C323.483887,67.195831 324.754486,67.013481 326.025269,67.012306 
	C345.607849,66.994186 365.192261,66.850090 384.771820,67.093788 
	C390.399445,67.163826 396.076355,68.198532 400.567291,72.901474 
	C408.872803,79.926628 406.774048,89.287621 407.088989,98.538254 
	C407.111633,102.369408 407.062836,105.737389 407.014709,110.012238 
	C407.066376,114.283447 407.117340,117.647766 407.168304,121.012093 
	C407.122314,127.705673 407.076355,134.399246 407.026031,142.005035 
	C407.070221,145.944366 407.118713,148.971497 407.167206,151.998642 
	C407.119690,154.040085 407.072205,156.081512 407.095825,158.554718 
	C407.118896,170.681763 407.070831,182.377045 407.094238,194.536270 
	C407.116760,199.696579 407.067841,204.392944 407.019897,210.013519 
	C407.071991,216.286362 407.123077,221.634995 407.174194,226.983612 
	C407.174194,229.441360 407.174194,231.899094 407.174194,234.846863 
	C402.661011,234.437439 398.578308,234.067062 393.978668,233.649780 
	C393.978668,227.726059 393.978668,221.825592 393.977264,214.997833 
	C393.928345,202.046844 393.880859,190.023148 393.904602,177.535568 
	C393.928284,166.380127 393.880737,155.688568 393.904480,144.533356 
	C393.928192,133.045349 393.880615,122.021011 393.833038,110.996674 
z"/>
<path fill="#000000" opacity="1.000000" stroke="none" 
	d="
M79.833405,108.997337 
	C79.833412,104.530502 79.833412,100.063660 79.833412,95.300079 
	C99.018349,95.300079 117.755821,95.300079 136.814346,95.300079 
	C138.255905,102.292053 143.422363,103.092873 149.711517,103.076851 
	C203.650970,102.939423 257.590942,102.998024 311.530731,102.998001 
	C318.620789,102.998001 320.221283,101.869995 322.598145,95.147858 
	C341.183960,95.147858 359.793427,95.147858 379.024200,95.147858 
	C379.024200,99.873741 379.024200,104.473145 379.021881,109.998535 
	C379.068665,121.615608 379.117767,132.306686 379.093567,143.461502 
	C379.068909,154.950104 379.117523,165.974945 379.093445,177.463470 
	C379.069427,190.284042 379.118134,202.640945 379.166870,214.997849 
	C379.111053,220.794205 378.902466,226.594833 379.064728,232.385071 
	C379.144318,235.224106 378.076263,236.409485 375.416656,237.052887 
	C371.993774,237.880920 368.678406,239.153275 365.139832,240.557068 
	C351.295105,245.825516 340.913879,255.050339 331.659973,266.686096 
	C330.357788,268.473328 329.265289,269.688843 328.466217,271.073700 
	C322.900757,280.719086 317.614380,290.479126 316.964417,302.378876 
	C316.508484,303.660034 315.984375,304.579224 316.042999,305.459625 
	C316.699036,315.308777 317.444946,325.151917 318.102051,335.379333 
	C318.370544,336.827209 318.644257,337.915405 319.045959,338.954132 
	C322.521179,347.940613 325.719452,357.083771 332.880646,364.038330 
	C337.438751,368.981110 341.674469,374.284912 346.666321,378.741913 
	C350.095062,381.803284 354.573822,383.688690 358.868256,386.280273 
	C364.385284,388.621552 369.487549,391.237091 374.895813,392.780273 
	C378.401917,393.780640 379.310120,395.349091 379.042389,398.585876 
	C378.837067,401.067963 379.014740,403.581787 379.022522,407.004150 
	C379.070953,416.284668 379.118896,424.642487 379.095276,433.464142 
	C379.071289,442.952362 379.118896,451.976715 379.094818,461.441467 
	C379.023163,463.148224 379.023163,464.414581 379.023163,465.712646 
	C279.086304,465.712646 179.672089,465.712646 79.833061,465.712646 
	C79.833061,462.955048 79.833061,460.478882 79.905518,457.538696 
	C79.929573,447.384552 79.881180,437.694336 79.905144,427.540161 
	C79.929482,417.050903 79.881462,407.025604 79.905518,396.536560 
	C79.929665,385.713898 79.881729,375.355042 79.905563,364.532623 
	C79.929382,353.379089 79.881424,342.689087 79.905136,331.535339 
	C79.928864,320.714386 79.880928,310.357117 79.904526,299.536041 
	C79.928474,289.047760 79.880882,279.023346 79.904816,268.535156 
	C79.928886,257.715210 79.881424,247.358978 79.905563,236.538635 
	C79.929596,225.718430 79.882027,215.362366 79.905655,204.541702 
	C79.929214,194.052124 79.881577,184.027115 79.905151,173.538116 
	C79.928734,162.715912 79.881104,152.357697 79.904724,141.535660 
	C79.928459,130.380341 79.880936,119.688835 79.833405,108.997337 
M104.022491,243.923187 
	C104.645226,250.297714 105.267960,256.672241 105.995750,263.771240 
	C109.525444,273.155121 116.994202,277.710938 126.330360,277.846863 
	C155.064896,278.265106 183.813187,278.273743 212.548325,277.876373 
	C225.701538,277.694489 234.997406,268.608582 234.976273,255.116684 
	C235.261810,245.409714 235.547348,235.702759 235.975403,225.074615 
	C235.649460,217.505890 235.555664,209.916351 234.879776,202.378998 
	C234.620697,199.489532 233.032669,196.719238 231.992783,193.181290 
	C231.972549,193.016205 231.997894,192.827194 231.925552,192.689484 
	C227.685608,184.617630 219.959076,181.574173 211.960373,179.077515 
	C205.802094,177.155289 199.536896,175.575592 193.225372,173.817429 
	C194.659546,171.502701 195.753265,169.737473 197.167572,167.313965 
	C202.679565,158.884109 202.331467,149.453400 201.961334,139.223969 
	C198.517288,125.243202 190.226364,117.089172 175.505890,114.616295 
	C160.654846,112.121490 141.641296,119.405548 138.010681,138.618210 
	C135.579285,148.284454 137.246948,157.371857 141.989487,166.751770 
	C143.498703,169.026245 145.007904,171.300735 146.784027,173.977478 
	C142.715149,175.001022 138.722473,175.962555 134.753204,177.012619 
	C125.735138,179.398331 116.672607,181.710587 109.286949,189.209946 
	C104.566605,197.563950 103.412231,206.599533 104.021515,216.927246 
	C104.069984,225.617615 104.118446,234.307968 104.022491,243.923187 
M186.977997,433.072601 
	C186.929916,423.381317 186.881836,413.690033 186.977737,403.075653 
	C186.985001,399.420959 187.157928,395.757629 186.968002,392.113220 
	C186.429871,381.786621 178.941376,375.350769 169.721573,375.117584 
	C153.285645,374.701904 136.827835,374.796265 120.387177,375.104645 
	C114.118027,375.222260 109.009705,378.062225 105.905937,384.109192 
	C102.406837,390.926300 104.594116,398.030457 104.023430,405.925812 
	C104.071053,415.617218 104.118668,425.308594 104.023682,435.910889 
	C104.015976,437.743835 104.001602,439.576813 104.001678,441.409760 
	C104.002083,451.439484 110.577332,457.999115 120.632713,458.000092 
	C137.296555,458.001740 153.960617,458.049988 170.624146,457.976624 
	C177.436340,457.946655 182.947510,455.139008 184.966217,448.410126 
	C186.339676,443.832062 186.262161,438.818695 186.977997,433.072601 
M186.976654,342.072662 
	C186.928864,332.048218 186.881058,322.023804 186.976562,311.078918 
	C186.984207,307.750702 187.076248,304.420074 186.982620,301.094727 
	C186.760864,293.217346 179.144424,285.157257 171.262253,285.063873 
	C154.123962,284.860779 136.973633,284.689789 119.844193,285.128784 
	C111.000404,285.355438 103.761490,292.032837 103.992523,301.528168 
	C104.093636,305.683685 104.111191,309.841217 104.022896,314.925873 
	C104.070915,324.616974 104.118942,334.308075 104.023499,344.915527 
	C104.015732,347.245758 103.999641,349.575989 104.001663,351.906219 
	C104.009621,361.089813 110.848602,367.967957 120.115974,367.989014 
	C137.093826,368.027557 154.073914,368.147247 171.048477,367.908203 
	C175.989365,367.838654 180.139587,365.825775 183.417221,361.409760 
	C187.717865,355.615417 187.007904,349.367188 186.976654,342.072662 
M299.500000,427.000397 
	C270.378448,427.000397 241.256912,426.992706 212.135361,427.006958 
	C206.439285,427.009735 204.080963,429.030670 204.000916,433.836090 
	C203.919159,438.745117 207.112579,441.976379 212.392654,441.980438 
	C257.156616,442.014740 301.920563,442.013947 346.684540,441.981476 
	C351.837616,441.977753 355.025055,438.944397 354.999664,434.399841 
	C354.969971,429.083405 352.759521,427.016876 346.928070,427.008240 
	C331.452087,426.985321 315.976013,427.000427 299.500000,427.000397 
M324.500000,407.000214 
	C331.663330,407.000214 338.826782,407.022919 345.989990,406.992950 
	C351.677551,406.969147 354.970856,404.228546 354.999756,399.581207 
	C355.035461,393.838928 352.892365,392.003387 346.094910,392.002350 
	C317.108398,391.997833 288.121857,392.000397 259.135345,392.000427 
	C243.309372,392.000427 227.483383,391.981812 211.657455,392.012146 
	C207.009811,392.021057 203.962158,395.120026 204.000153,399.626526 
	C204.039215,404.262573 207.331055,406.990509 213.051392,406.992767 
	C249.867599,407.007416 286.683807,407.000244 324.500000,407.000214 
M313.500000,237.999786 
	C324.831299,237.999680 336.162750,238.034897 347.493835,237.983231 
	C352.486267,237.960464 355.010071,235.349533 354.999847,230.474030 
	C354.990112,225.812347 351.698547,223.012268 346.047028,223.008392 
	C317.885437,222.989151 289.723816,222.994568 261.562225,223.003571 
	C255.606598,223.005463 252.994858,225.321701 253.000046,230.515472 
	C253.005585,236.036499 255.204483,237.991302 261.509155,237.995651 
	C278.506104,238.007401 295.503052,237.999741 313.500000,237.999786 
M302.952637,306.937805 
	C301.875122,303.865845 299.868622,302.003998 296.464203,302.003601 
	C267.856842,302.000427 239.249405,301.964478 210.642242,302.039368 
	C206.076324,302.051300 203.857803,304.730743 204.000732,309.324402 
	C204.150436,314.134827 207.372314,316.984222 212.874878,316.989014 
	C239.818985,317.012482 266.763153,317.007690 293.707275,316.994049 
	C300.233795,316.990753 302.787720,314.415192 302.952637,306.937805 
M245.500000,352.000275 
	C261.153198,352.000244 276.806519,352.033783 292.459351,351.956879 
	C294.373138,351.947510 296.320526,351.483978 298.189026,350.990997 
	C302.655304,349.812592 303.392120,346.246521 302.903625,342.463470 
	C302.413513,338.667847 299.776886,336.988892 295.971527,336.991211 
	C267.662567,337.008545 239.353500,336.959839 211.044739,337.033508 
	C205.061035,337.049072 202.284180,342.218384 204.883682,347.684540 
	C206.701920,351.507904 210.097107,351.910858 213.527252,351.953552 
	C223.850098,352.082153 234.175552,352.000122 245.500000,352.000275 
M313.500000,188.999634 
	C295.839478,188.999649 278.178986,188.993698 260.518463,189.003098 
	C254.770432,189.006149 252.970413,190.746094 253.000183,196.190353 
	C253.027466,201.180283 254.967911,202.993958 260.380646,202.995499 
	C289.537140,203.003738 318.693634,203.004440 347.850128,202.994507 
	C352.834900,202.992798 355.084076,200.705261 354.998993,195.822586 
	C354.918365,191.198700 352.708191,189.014893 347.988312,189.006256 
	C336.825562,188.985825 325.662781,188.999649 313.500000,188.999634 
M267.564789,168.999420 
	C278.878662,168.999298 290.192657,169.033569 301.506317,168.983459 
	C306.605988,168.960876 310.020325,165.849716 309.997925,161.452042 
	C309.975708,157.092941 306.529480,154.028503 301.416779,154.013351 
	C287.773712,153.972900 274.130310,153.967117 260.487305,154.016205 
	C255.280640,154.034943 253.161926,156.092484 253.000610,160.968002 
	C252.837509,165.898087 255.118835,168.547516 260.103821,168.965698 
	C262.251770,169.145874 264.427216,168.998169 267.564789,168.999420 
z"/>
<path fill="#000000" opacity="1.000000" stroke="none" 
	d="
M431.594055,259.061462 
	C435.764313,262.372009 439.623413,265.563141 443.338043,268.914459 
	C444.508881,269.970825 445.292542,271.456299 446.559326,272.895569 
	C452.959961,280.319458 457.265503,288.551056 460.092957,297.960693 
	C462.630280,308.190063 462.651276,318.142609 461.095154,328.571838 
	C457.398743,337.140411 453.646637,345.287109 449.834900,353.405823 
	C449.501282,354.116394 448.777130,354.643555 448.096954,355.569580 
	C441.287994,363.867279 433.373413,370.362213 423.853607,374.548889 
	C399.474518,385.270386 376.655304,382.387573 355.566925,366.069000 
	C354.286865,365.078491 352.971069,364.134125 351.226074,362.719666 
	C343.028076,354.869415 338.022186,345.696442 333.895142,335.599548 
	C330.306519,324.322113 330.215240,313.214111 331.913513,301.607513 
	C334.837341,289.556213 340.125916,279.155701 348.044220,270.112122 
	C357.170654,261.196716 367.734833,254.420700 380.037933,251.170029 
	C395.517334,247.080139 410.705017,248.661713 425.116821,256.016663 
	C427.135895,257.047089 429.189423,258.009918 431.594055,259.061462 
M359.100372,289.985260 
	C353.734924,289.728119 348.655609,290.635712 346.454468,296.186707 
	C344.230499,301.795197 345.668854,306.874969 350.392609,310.927399 
	C354.621399,314.555267 358.724487,318.329651 363.203430,322.710846 
	C363.757050,323.979004 364.956024,325.360840 364.756012,326.496246 
	C363.719574,332.379578 362.069733,338.159485 361.138855,344.055237 
	C360.414459,348.643250 360.522156,353.533478 364.568237,356.738464 
	C368.466492,359.826324 373.163422,359.820892 377.528687,357.678040 
	C381.303497,355.825104 384.697571,353.206116 388.440704,351.276398 
	C392.673981,349.093994 396.712921,345.683716 401.962006,349.886139 
	C405.467682,352.692780 409.620697,354.756134 413.653778,356.820496 
	C417.787689,358.936432 422.298462,360.532867 426.651917,357.665619 
	C430.781708,354.945618 432.907196,350.938477 431.983612,345.786591 
	C430.951904,340.031830 429.649994,334.314545 428.910889,328.524109 
	C428.645874,326.447906 429.677856,324.206146 430.727875,321.781097 
	C434.718018,318.118256 438.639099,314.376495 442.713898,310.810394 
	C449.476562,304.892059 448.861389,293.155243 439.641174,290.319611 
	C437.197083,289.567932 434.535858,289.522400 431.090027,289.021454 
	C426.840973,288.672211 422.571228,288.470520 418.356018,287.879883 
	C417.158630,287.712128 415.631805,286.658813 415.090210,285.589203 
	C412.246155,279.972504 409.501587,274.291229 407.054474,268.492310 
	C405.161163,264.005707 402.072693,261.326782 397.272552,261.049164 
	C392.285065,260.760773 388.389099,262.784576 386.183075,267.483826 
	C383.567322,273.055786 380.895233,278.603210 378.398712,284.228363 
	C377.174438,286.986908 375.379364,287.993256 372.302582,288.116241 
	C368.168762,288.281403 364.067627,289.264771 359.100372,289.985260 
z"/>
<path fill="#6071FF" opacity="1.000000" stroke="none" 
	d="
M333.833160,335.996613 
	C338.022186,345.696442 343.028076,354.869415 350.910797,362.577515 
	C345.304779,363.262939 339.568207,363.641846 333.356140,364.029541 
	C325.719452,357.083771 322.521179,347.940613 319.045959,338.954132 
	C318.644257,337.915405 318.370544,336.827209 318.555420,335.379822 
	C323.993317,335.330658 328.913239,335.663635 333.833160,335.996613 
z"/>
<path fill="#4F7FFF" opacity="1.000000" stroke="none" 
	d="
M347.709747,269.863220 
	C340.125916,279.155701 334.837341,289.556213 331.458801,301.608093 
	C326.338348,301.998291 321.752594,301.998596 317.166870,301.998901 
	C317.614380,290.479126 322.900757,280.719086 328.466217,271.073700 
	C329.265289,269.688843 330.357788,268.473328 331.633789,267.034882 
	C334.002136,267.593262 336.003937,268.594604 338.111420,268.928162 
	C341.159241,269.410553 344.283569,269.409271 347.709747,269.863220 
z"/>
<path fill="#7460FF" opacity="1.000000" stroke="none" 
	d="
M379.166840,433.000305 
	C379.118896,424.642487 379.070953,416.284668 379.094543,407.462830 
	C383.791382,406.724548 388.416748,406.450287 393.437622,406.088104 
	C393.881409,415.024017 393.929657,424.047882 393.510071,433.447571 
	C388.417114,433.549072 383.791962,433.274689 379.166840,433.000305 
z"/>
<path fill="#3694FF" opacity="1.000000" stroke="none" 
	d="
M379.621582,214.998260 
	C379.118134,202.640945 379.069427,190.284042 379.488983,177.551605 
	C384.582642,177.450531 389.208008,177.724991 393.833374,177.999451 
	C393.880859,190.023148 393.928345,202.046844 393.904602,214.534241 
	C389.247681,214.998184 384.662018,214.998428 379.621582,214.998260 
z"/>
<path fill="#3198FF" opacity="1.000000" stroke="none" 
	d="
M407.366821,226.650742 
	C407.123077,221.634995 407.071991,216.286362 407.092102,210.475616 
	C407.442322,213.048599 407.721344,216.083694 408.002625,219.561554 
	C407.856415,222.108826 407.707947,224.213348 407.366821,226.650742 
z"/>
<path fill="#19ACFF" opacity="1.000000" stroke="none" 
	d="
M407.376221,121.008865 
	C407.117340,117.647766 407.066376,114.283447 407.086731,110.466446 
	C407.438690,113.375710 407.719330,116.737640 408.000000,120.549179 
	C408.000000,120.998779 407.584167,121.005638 407.376221,121.008865 
z"/>
<path fill="#3198FF" opacity="1.000000" stroke="none" 
	d="
M407.359985,151.656372 
	C407.118713,148.971497 407.070221,145.944366 407.096558,142.470337 
	C407.298492,145.120346 407.425598,148.217209 407.359985,151.656372 
z"/>
<path fill="#8453FF" opacity="1.000000" stroke="none" 
	d="
M79.833061,458.002686 
	C79.833061,460.478882 79.833061,462.955048 79.833061,465.712646 
	C179.672089,465.712646 279.086304,465.712646 379.023163,465.712646 
	C379.023163,464.414581 379.023163,463.148224 379.490356,461.353210 
	C384.582764,460.550232 389.207947,460.275818 393.833160,460.001404 
	C393.888092,464.825623 394.044250,469.651428 393.966858,474.473541 
	C393.901184,478.564575 391.627197,480.745270 387.544250,480.989410 
	C386.548889,481.048889 385.546997,481.000488 384.548126,481.000488 
	C281.163544,481.000580 177.778976,481.000946 74.394409,480.999878 
	C66.534019,480.999817 64.999603,479.432526 65.001289,471.414978 
	C65.002167,467.253052 65.015892,463.091156 65.550049,458.465454 
	C70.661880,458.002014 75.247475,458.002350 79.833061,458.002686 
z"/>
<path fill="#22A4FF" opacity="1.000000" stroke="none" 
	d="
M79.378624,108.998001 
	C79.880936,119.688835 79.928459,130.380341 79.455559,141.535980 
	C74.345520,142.333206 69.755898,142.666290 65.166275,142.999359 
	C65.117302,131.974564 65.068321,120.949776 65.092873,109.461258 
	C69.752220,108.997910 74.338028,108.998283 79.378624,108.998001 
z"/>
<path fill="#6071FF" opacity="1.000000" stroke="none" 
	d="
M79.833466,331.999084 
	C79.881424,342.689087 79.929382,353.379089 79.450867,364.533142 
	C74.338470,364.996857 69.752563,364.996490 65.166656,364.996155 
	C65.118774,354.306061 65.070900,343.615967 65.549568,332.462280 
	C70.661896,331.998840 75.247673,331.998962 79.833466,331.999084 
z"/>
<path fill="#4687FF" opacity="1.000000" stroke="none" 
	d="
M79.833969,237.002762 
	C79.881424,247.358978 79.928886,257.715210 79.499985,268.504089 
	C74.404739,268.957062 69.785866,268.977325 65.166992,268.997589 
	C65.118553,258.308380 65.070114,247.619156 65.542984,236.466064 
	C70.654182,236.335709 75.244072,236.669235 79.833969,237.002762 
z"/>
<path fill="#5878FF" opacity="1.000000" stroke="none" 
	d="
M79.905136,331.535339 
	C75.247673,331.998962 70.661896,331.998840 65.621437,331.998413 
	C65.118782,321.640869 65.070793,311.283661 65.549530,300.462891 
	C70.661842,299.999512 75.247414,299.999695 79.832993,299.999878 
	C79.880928,310.357117 79.928864,320.714386 79.905136,331.535339 
z"/>
<path fill="#6969FF" opacity="1.000000" stroke="none" 
	d="
M65.094971,365.460388 
	C69.752563,364.996490 74.338470,364.996857 79.379082,364.996704 
	C79.881729,375.355042 79.929665,385.713898 79.450836,396.536438 
	C74.338196,397.000122 69.752319,397.000153 65.166443,397.000183 
	C65.118721,386.641663 65.071007,376.283112 65.094971,365.460388 
z"/>
<path fill="#2C9CFF" opacity="1.000000" stroke="none" 
	d="
M65.093071,143.462952 
	C69.755898,142.666290 74.345520,142.333206 79.384308,141.999802 
	C79.881104,152.357697 79.928734,162.715912 79.453995,173.537994 
	C74.343048,174.335220 69.754471,174.668564 65.165886,175.001892 
	C65.117210,164.643448 65.068535,154.284973 65.093071,143.462952 
z"/>
<path fill="#4F7FFF" opacity="1.000000" stroke="none" 
	d="
M79.904526,299.536041 
	C75.247414,299.999695 70.661842,299.999512 65.621605,299.999084 
	C65.118835,289.974396 65.070717,279.949951 65.094803,269.461548 
	C69.785866,268.977325 74.404739,268.957062 79.428452,268.967834 
	C79.880882,279.023346 79.928474,289.047760 79.904526,299.536041 
z"/>
<path fill="#408CFF" opacity="1.000000" stroke="none" 
	d="
M79.905563,236.538635 
	C75.244072,236.669235 70.654182,236.335709 65.615089,236.002502 
	C65.117432,225.979523 65.068970,215.956223 65.547729,205.468781 
	C70.661453,205.005188 75.247948,205.005737 79.834450,205.006287 
	C79.882027,215.362366 79.929596,225.718430 79.905563,236.538635 
z"/>
<path fill="#7460FF" opacity="1.000000" stroke="none" 
	d="
M65.095016,397.464020 
	C69.752319,397.000153 74.338196,397.000122 79.378754,397.000214 
	C79.881462,407.025604 79.929482,417.050903 79.450500,427.539581 
	C74.338013,428.003357 69.752525,428.003723 65.167038,428.004089 
	C65.119225,417.978668 65.071411,407.953278 65.095016,397.464020 
z"/>
<path fill="#3694FF" opacity="1.000000" stroke="none" 
	d="
M79.905655,204.541702 
	C75.247948,205.005737 70.661453,205.005188 65.620186,205.005493 
	C65.117012,195.313751 65.068604,185.621170 65.093040,175.465240 
	C69.754471,174.668564 74.343048,174.335220 79.382782,174.001999 
	C79.881577,184.027115 79.929214,194.052124 79.905655,204.541702 
z"/>
<path fill="#7D58FF" opacity="1.000000" stroke="none" 
	d="
M65.095520,428.467529 
	C69.752525,428.003723 74.338013,428.003357 79.378143,428.003571 
	C79.881180,437.694336 79.929573,447.384552 79.905518,457.538696 
	C75.247475,458.002350 70.661880,458.002014 65.621635,458.002136 
	C65.119316,448.312073 65.071663,438.621521 65.095520,428.467529 
z"/>
<path fill="#7D58FF" opacity="1.000000" stroke="none" 
	d="
M393.905548,459.537598 
	C389.207947,460.275818 384.582764,460.550232 379.562012,460.912842 
	C379.118896,451.976715 379.071289,442.952362 379.095276,433.464142 
	C383.791962,433.274689 388.417114,433.549072 393.437744,433.911224 
	C393.881500,442.357269 393.929718,450.715515 393.905548,459.537598 
z"/>
<path fill="#22A4FF" opacity="1.000000" stroke="none" 
	d="
M379.166840,142.997742 
	C379.117767,132.306686 379.068665,121.615608 379.093170,110.460754 
	C383.784119,110.309586 388.401489,110.622200 393.425934,110.965744 
	C393.880615,122.021011 393.928192,133.045349 393.459381,144.533966 
	C388.350952,144.331406 383.758881,143.664581 379.166840,142.997742 
z"/>
<path fill="#2C9CFF" opacity="1.000000" stroke="none" 
	d="
M379.093567,143.461487 
	C383.758881,143.664581 388.350952,144.331406 393.388062,144.997620 
	C393.880737,155.688568 393.928284,166.380127 393.904602,177.535568 
	C389.208008,177.724991 384.582642,177.450531 379.561707,177.087936 
	C379.117523,165.974945 379.068909,154.950104 379.093567,143.461487 
z"/>
<path fill="#795CFF" opacity="1.000000" stroke="none" 
	d="
M300.000000,427.000397 
	C315.976013,427.000427 331.452087,426.985321 346.928070,427.008240 
	C352.759521,427.016876 354.969971,429.083405 354.999664,434.399841 
	C355.025055,438.944397 351.837616,441.977753 346.684540,441.981476 
	C301.920563,442.013947 257.156616,442.014740 212.392654,441.980438 
	C207.112579,441.976379 203.919159,438.745117 204.000916,433.836090 
	C204.080963,429.030670 206.439285,427.009735 212.135361,427.006958 
	C241.256912,426.992706 270.378448,427.000397 300.000000,427.000397 
z"/>
<path fill="#6F64FF" opacity="1.000000" stroke="none" 
	d="
M324.000000,407.000214 
	C286.683807,407.000244 249.867599,407.007416 213.051392,406.992767 
	C207.331055,406.990509 204.039215,404.262573 204.000153,399.626526 
	C203.962158,395.120026 207.009811,392.021057 211.657455,392.012146 
	C227.483383,391.981812 243.309372,392.000427 259.135345,392.000427 
	C288.121857,392.000397 317.108398,391.997833 346.094910,392.002350 
	C352.892365,392.003387 355.035461,393.838928 354.999756,399.581207 
	C354.970856,404.228546 351.677551,406.969147 345.989990,406.992950 
	C338.826782,407.022919 331.663330,407.000214 324.000000,407.000214 
z"/>
<path fill="#4B83FF" opacity="1.000000" stroke="none" 
	d="
M234.833313,255.999756 
	C234.997406,268.608582 225.701538,277.694489 212.548325,277.876373 
	C183.813187,278.273743 155.064896,278.265106 126.330360,277.846863 
	C116.994202,277.710938 109.525444,273.155121 106.332382,263.244141 
	C109.955688,262.476776 113.271111,262.421387 116.516655,261.916656 
	C118.091362,261.671783 119.535187,260.585236 121.352966,260.020508 
	C123.500755,260.774109 125.333839,261.386993 127.616150,261.999939 
	C132.654648,261.666656 137.243912,261.333313 141.925903,261.428497 
	C143.460052,262.237915 144.899292,262.939667 146.343231,262.949463 
	C159.085068,263.036041 171.827744,262.999725 184.570160,262.999756 
	C188.991791,262.999756 193.413437,262.999695 197.829971,262.999695 
	C197.963623,260.618469 198.065201,258.808502 198.614731,256.998718 
	C203.652527,257.665802 208.242371,258.332703 212.904434,259.375000 
	C213.042557,260.728851 213.108475,261.707306 213.167511,262.583832 
	C217.810242,262.041779 219.823868,259.260742 220.562119,255.088028 
	C225.582932,255.451019 230.208115,255.725388 234.833313,255.999756 
z"/>
<path fill="#3198FF" opacity="1.000000" stroke="none" 
	d="
M196.846985,167.972244 
	C195.753265,169.737473 194.659546,171.502701 193.225372,173.817429 
	C199.536896,175.575592 205.802094,177.155289 211.960373,179.077515 
	C219.959076,181.574173 227.685608,184.617630 231.925552,192.689484 
	C231.997894,192.827194 231.972549,193.016205 231.684357,193.785675 
	C229.434372,194.593124 227.492706,194.795273 225.551239,194.999451 
	C222.020584,195.370743 218.490082,195.743286 214.576843,196.056183 
	C203.835754,193.016434 193.480286,190.025513 183.117966,187.058487 
	C174.993057,184.732132 166.925461,184.252472 158.613724,186.628601 
	C150.864487,188.843933 142.903992,190.320236 134.702026,191.870346 
	C128.118118,191.412140 121.858009,191.354813 115.625542,190.910110 
	C113.690231,190.772018 111.829895,189.583267 109.935226,188.875534 
	C116.672607,181.710587 125.735138,179.398331 134.753204,177.012619 
	C138.722473,175.962555 142.715149,175.001022 146.784027,173.977478 
	C145.007904,171.300735 143.498703,169.026245 142.350983,166.311829 
	C147.847412,165.234573 152.982346,164.597275 158.429260,164.093628 
	C164.766678,171.197067 171.487976,171.154861 177.421631,167.070557 
	C178.181580,166.547440 179.111389,166.271103 180.295746,166.130554 
	C186.034958,166.911194 191.440979,167.441727 196.846985,167.972244 
z"/>
<path fill="#6C67FF" opacity="1.000000" stroke="none" 
	d="
M104.166542,404.997528 
	C104.594116,398.030457 102.406837,390.926300 105.905937,384.109192 
	C109.009705,378.062225 114.118027,375.222260 120.387177,375.104645 
	C136.827835,374.796265 153.285645,374.701904 169.721573,375.117584 
	C178.941376,375.350769 186.429871,381.786621 186.968002,392.113220 
	C187.157928,395.757629 186.985001,399.420959 186.451080,403.537231 
	C181.338547,403.998901 176.752686,403.999054 172.094894,403.544434 
	C172.014557,400.262482 172.561432,397.274994 171.807587,394.662903 
	C171.282318,392.842865 169.002182,390.238678 167.456177,390.203949 
	C152.495651,389.868317 137.523331,389.921936 122.558937,390.155579 
	C121.356483,390.174347 119.371063,392.228485 119.163025,393.557983 
	C118.628815,396.971985 118.890312,400.510498 118.382431,403.999146 
	C113.342926,404.331879 108.754730,404.664703 104.166542,404.997528 
z"/>
<path fill="#527CFF" opacity="1.000000" stroke="none" 
	d="
M104.166687,313.997833 
	C104.111191,309.841217 104.093636,305.683685 103.992523,301.528168 
	C103.761490,292.032837 111.000404,285.355438 119.844193,285.128784 
	C136.973633,284.689789 154.123962,284.860779 171.262253,285.063873 
	C179.144424,285.157257 186.760864,293.217346 186.982620,301.094727 
	C187.076248,304.420074 186.984207,307.750702 186.450287,311.539429 
	C181.338318,311.999817 176.752609,311.999756 172.095428,311.552673 
	C172.015366,308.943237 172.591660,306.541779 171.833252,304.685699 
	C171.078857,302.839508 169.012772,300.239258 167.471664,300.204681 
	C152.507858,299.868744 137.532242,299.922119 122.564537,300.155487 
	C121.360191,300.174255 119.407112,302.210297 119.161591,303.556854 
	C118.602707,306.622101 118.889595,309.841583 118.381523,312.998474 
	C113.342407,313.331665 108.754547,313.664734 104.166687,313.997833 
z"/>
<path fill="#408CFF" opacity="1.000000" stroke="none" 
	d="
M313.000000,237.999786 
	C295.503052,237.999741 278.506104,238.007401 261.509155,237.995651 
	C255.204483,237.991302 253.005585,236.036499 253.000046,230.515472 
	C252.994858,225.321701 255.606598,223.005463 261.562225,223.003571 
	C289.723816,222.994568 317.885437,222.989151 346.047028,223.008392 
	C351.698547,223.012268 354.990112,225.812347 354.999847,230.474030 
	C355.010071,235.349533 352.486267,237.960464 347.493835,237.983231 
	C336.162750,238.034897 324.831299,237.999680 313.000000,237.999786 
z"/>
<path fill="#5679FF" opacity="1.000000" stroke="none" 
	d="
M302.972900,307.346252 
	C302.787720,314.415192 300.233795,316.990753 293.707275,316.994049 
	C266.763153,317.007690 239.818985,317.012482 212.874878,316.989014 
	C207.372314,316.984222 204.150436,314.134827 204.000732,309.324402 
	C203.857803,304.730743 206.076324,302.051300 210.642242,302.039368 
	C239.249405,301.964478 267.856842,302.000427 296.464203,302.003601 
	C299.868622,302.003998 301.875122,303.865845 302.972900,307.346252 
z"/>
<path fill="#6071FF" opacity="1.000000" stroke="none" 
	d="
M245.000000,352.000275 
	C234.175552,352.000122 223.850098,352.082153 213.527252,351.953552 
	C210.097107,351.910858 206.701920,351.507904 204.883682,347.684540 
	C202.284180,342.218384 205.061035,337.049072 211.044739,337.033508 
	C239.353500,336.959839 267.662567,337.008545 295.971527,336.991211 
	C299.776886,336.988892 302.413513,338.667847 302.903625,342.463470 
	C303.392120,346.246521 302.655304,349.812592 298.189026,350.990997 
	C296.320526,351.483978 294.373138,351.947510 292.459351,351.956879 
	C276.806519,352.033783 261.153198,352.000244 245.000000,352.000275 
z"/>
<path fill="#636EFF" opacity="1.000000" stroke="none" 
	d="
M186.833145,343.000336 
	C187.007904,349.367188 187.717865,355.615417 183.417221,361.409760 
	C180.139587,365.825775 175.989365,367.838654 171.048477,367.908203 
	C154.073914,368.147247 137.093826,368.027557 120.115974,367.989014 
	C110.848602,367.967957 104.009621,361.089813 104.001663,351.906219 
	C103.999641,349.575989 104.015732,347.245758 104.544296,344.457275 
	C109.654633,344.332611 114.244164,344.666229 118.905113,345.447876 
	C118.976524,348.158691 118.976524,350.421478 118.976524,352.999939 
	C133.526138,352.999939 147.481812,352.999908 161.437469,352.999939 
	C171.641754,352.999939 171.641754,352.999969 172.621460,343.000000 
	C177.661926,343.000122 182.247543,343.000244 186.833145,343.000336 
z"/>
<path fill="#3694FF" opacity="1.000000" stroke="none" 
	d="
M314.000000,188.999634 
	C325.662781,188.999649 336.825562,188.985825 347.988312,189.006256 
	C352.708191,189.014893 354.918365,191.198700 354.998993,195.822586 
	C355.084076,200.705261 352.834900,202.992798 347.850128,202.994507 
	C318.693634,203.004440 289.537140,203.003738 260.380646,202.995499 
	C254.967911,202.993958 253.027466,201.180283 253.000183,196.190353 
	C252.970413,190.746094 254.770432,189.006149 260.518463,189.003098 
	C278.178986,188.993698 295.839478,188.999649 314.000000,188.999634 
z"/>
<path fill="#7D58FF" opacity="1.000000" stroke="none" 
	d="
M186.833481,434.000000 
	C186.262161,438.818695 186.339676,443.832062 184.966217,448.410126 
	C182.947510,455.139008 177.436340,457.946655 170.624146,457.976624 
	C153.960617,458.049988 137.296555,458.001740 120.632713,458.000092 
	C110.577332,457.999115 104.002083,451.439484 104.001678,441.409760 
	C104.001602,439.576813 104.015976,437.743835 104.549652,435.455200 
	C109.661751,434.998749 114.247871,434.998016 118.905159,435.445801 
	C118.976326,438.157684 118.976326,440.421082 118.976326,443.000793 
	C135.355835,443.000793 151.146027,442.884949 166.932281,443.082397 
	C170.872437,443.131683 172.559296,441.970795 172.028534,437.980896 
	C171.899445,437.010437 172.111359,435.994659 172.615814,434.999512 
	C177.654602,434.666229 182.244034,434.333130 186.833481,434.000000 
z"/>
<path fill="#22A4FF" opacity="1.000000" stroke="none" 
	d="
M138.166946,137.881042 
	C141.641296,119.405548 160.654846,112.121490 175.505890,114.616295 
	C190.226364,117.089172 198.517288,125.243202 201.441101,139.611084 
	C196.240448,140.011078 191.560043,140.023926 186.570267,139.880371 
	C183.704590,132.802414 178.224731,129.470078 171.357254,129.140045 
	C164.145157,128.793442 157.371918,130.508423 153.372772,137.997986 
	C147.998016,137.959427 143.082474,137.920227 138.166946,137.881042 
z"/>
<path fill="#2C9CFF" opacity="1.000000" stroke="none" 
	d="
M267.077454,168.999420 
	C264.427216,168.998169 262.251770,169.145874 260.103821,168.965698 
	C255.118835,168.547516 252.837509,165.898087 253.000610,160.968002 
	C253.161926,156.092484 255.280640,154.034943 260.487305,154.016205 
	C274.130310,153.967117 287.773712,153.972900 301.416779,154.013351 
	C306.529480,154.028503 309.975708,157.092941 309.997925,161.452042 
	C310.020325,165.849716 306.605988,168.960876 301.506317,168.983459 
	C290.192657,169.033569 278.878662,168.999298 267.077454,168.999420 
z"/>
<path fill="#5878FF" opacity="1.000000" stroke="none" 
	d="
M316.964417,302.378876 
	C321.752594,301.998596 326.338348,301.998291 331.378754,301.997375 
	C330.215240,313.214111 330.306519,324.322113 333.895142,335.599548 
	C328.913239,335.663635 323.993317,335.330658 318.619995,334.997192 
	C317.444946,325.151917 316.699036,315.308777 316.042999,305.459625 
	C315.984375,304.579224 316.508484,303.660034 316.964417,302.378876 
z"/>
<path fill="#3892FF" opacity="1.000000" stroke="none" 
	d="
M214.959503,196.115311 
	C218.490082,195.743286 222.020584,195.370743 225.551239,194.999451 
	C227.492706,194.795273 229.434372,194.593124 231.713074,194.142349 
	C233.032669,196.719238 234.620697,199.489532 234.879776,202.378998 
	C235.555664,209.916351 235.649460,217.505890 235.490448,225.527069 
	C230.392624,225.651978 225.779724,225.324448 221.095612,224.537521 
	C220.683151,218.845230 219.969070,213.602463 220.107315,208.382278 
	C220.241028,203.333237 219.013535,199.227676 214.959503,196.115311 
z"/>
<path fill="#5B75FF" opacity="1.000000" stroke="none" 
	d="
M118.833702,344.999817 
	C114.244164,344.666229 109.654633,344.332611 104.616028,343.999084 
	C104.118942,334.308075 104.070915,324.616974 104.094788,314.461853 
	C108.754547,313.664734 113.342407,313.331665 118.453384,313.462463 
	C118.928902,324.284149 118.881302,334.641998 118.833702,344.999817 
z"/>
<path fill="#5B75FF" opacity="1.000000" stroke="none" 
	d="
M186.904907,342.536499 
	C182.247543,343.000244 177.661926,343.000122 172.549683,342.536133 
	C172.070984,332.048096 172.118958,322.023895 172.166916,311.999695 
	C176.752609,311.999756 181.338318,311.999817 186.378632,311.999634 
	C186.881058,322.023804 186.928864,332.048218 186.904907,342.536499 
z"/>
<path fill="#7460FF" opacity="1.000000" stroke="none" 
	d="
M118.834000,434.997284 
	C114.247871,434.998016 109.661751,434.998749 104.620956,434.999756 
	C104.118668,425.308594 104.071053,415.617218 104.094986,405.461670 
	C108.754730,404.664703 113.342926,404.331879 118.454018,404.463135 
	C118.929283,414.950562 118.881638,424.973907 118.834000,434.997284 
z"/>
<path fill="#7460FF" opacity="1.000000" stroke="none" 
	d="
M186.905731,433.536316 
	C182.244034,434.333130 177.654602,434.666229 172.543533,434.535828 
	C172.070221,424.047943 172.118515,414.023590 172.166809,403.999207 
	C176.752686,403.999054 181.338547,403.998901 186.379089,403.998779 
	C186.881836,413.690033 186.929916,423.381317 186.905731,433.536316 
z"/>
<path fill="#4389FF" opacity="1.000000" stroke="none" 
	d="
M221.166840,224.996933 
	C225.779724,225.324448 230.392624,225.651978 235.419205,225.987640 
	C235.547348,235.702759 235.261810,245.409714 234.904785,255.558228 
	C230.208115,255.725388 225.582932,255.451019 220.490601,254.650848 
	C220.404587,244.415680 220.785721,234.706314 221.166840,224.996933 
z"/>
<path fill="#3892FF" opacity="1.000000" stroke="none" 
	d="
M109.611084,189.042740 
	C111.829895,189.583267 113.690231,190.772018 115.625542,190.910110 
	C121.858009,191.354813 128.118118,191.412140 134.517761,192.197083 
	C127.525398,194.643799 120.262878,196.458008 119.244370,205.585678 
	C118.860100,209.029404 118.956459,212.526749 118.428688,216.031113 
	C113.404587,216.041687 108.785507,216.020813 104.166435,215.999924 
	C103.412231,206.599533 104.566605,197.563950 109.611084,189.042740 
z"/>
<path fill="#299FFF" opacity="1.000000" stroke="none" 
	d="
M186.879639,140.036789 
	C191.560043,140.023926 196.240448,140.011078 201.376953,139.997620 
	C202.331467,149.453400 202.679565,158.884109 197.007278,167.643097 
	C191.440979,167.441727 186.034958,166.911194 180.433136,165.814026 
	C186.918457,158.020782 188.048920,149.331741 186.879639,140.036789 
z"/>
<path fill="#299FFF" opacity="1.000000" stroke="none" 
	d="
M138.088806,138.249619 
	C143.082474,137.920227 147.998016,137.959427 153.311752,138.383789 
	C153.140182,141.228577 152.177994,143.672119 152.076385,146.150925 
	C151.803940,152.796631 154.416260,158.593384 158.117294,163.959991 
	C152.982346,164.597275 147.847412,165.234573 142.297729,165.955994 
	C137.246948,157.371857 135.579285,148.284454 138.088806,138.249619 
z"/>
<path fill="#408CFF" opacity="1.000000" stroke="none" 
	d="
M104.093979,216.463593 
	C108.785507,216.020813 113.404587,216.041687 118.501129,216.494843 
	C118.930084,225.617645 118.881561,234.308182 118.378204,242.998901 
	C113.337875,242.998840 108.752396,242.998581 104.166908,242.998337 
	C104.118446,234.307968 104.069984,225.617615 104.093979,216.463593 
z"/>
<path fill="#4687FF" opacity="1.000000" stroke="none" 
	d="
M104.094696,243.460754 
	C108.752396,242.998581 113.337875,242.998840 118.450378,243.458588 
	C119.664352,249.238647 120.351311,254.559204 121.038269,259.879761 
	C119.535187,260.585236 118.091362,261.671783 116.516655,261.916656 
	C113.271111,262.421387 109.955688,262.476776 106.279854,262.881927 
	C105.267960,256.672241 104.645226,250.297714 104.094696,243.460754 
z"/>
<path fill="#5E72FF" opacity="1.000000" stroke="none" 
	d="
M430.117859,322.039948 
	C429.677856,324.206146 428.645874,326.447906 428.910889,328.524109 
	C429.649994,334.314545 430.951904,340.031830 431.983612,345.786591 
	C432.907196,350.938477 430.781708,354.945618 426.651917,357.665619 
	C422.298462,360.532867 417.787689,358.936432 413.653778,356.820496 
	C409.620697,354.756134 405.467682,352.692780 401.962006,349.886139 
	C396.712921,345.683716 392.673981,349.093994 388.440704,351.276398 
	C384.697571,353.206116 381.303497,355.825104 377.528687,357.678040 
	C373.163422,359.820892 368.466492,359.826324 364.568237,356.738464 
	C360.522156,353.533478 360.414459,348.643250 361.138855,344.055237 
	C362.069733,338.159485 363.719574,332.379578 364.756012,326.496246 
	C364.956024,325.360840 363.757050,323.979004 363.518372,322.366272 
	C369.499939,322.014404 375.166595,322.007080 380.894653,322.401978 
	C379.808258,328.306854 378.660461,333.809448 377.376312,339.965637 
	C382.210327,337.448486 386.496399,335.772491 390.130829,333.182190 
	C394.587402,330.005981 398.477234,330.696625 402.729828,333.180115 
	C406.627625,335.456390 410.651154,337.517273 415.260986,340.021698 
	C414.162384,333.622711 413.164642,327.811279 412.624512,321.999939 
	C418.760712,322.013336 424.439301,322.026642 430.117859,322.039948 
z"/>
<path fill="#547BFF" opacity="1.000000" stroke="none" 
	d="
M430.422852,321.910522 
	C424.439301,322.026642 418.760712,322.013336 412.553711,321.628235 
	C412.945160,319.411743 413.611633,317.375366 414.833862,315.759277 
	C418.107544,311.430756 421.619415,307.282410 425.036621,303.062469 
	C423.560272,303.757599 420.569275,303.449585 417.602814,302.984772 
	C410.983124,301.947479 403.371399,302.421143 402.185181,292.788757 
	C404.257446,291.976715 406.090851,291.118500 407.946075,291.068329 
	C414.395416,290.893890 420.855988,291.117188 427.303650,290.914520 
	C428.877472,290.865082 430.418335,289.768036 431.974335,289.152649 
	C434.535858,289.522400 437.197083,289.567932 439.641174,290.319611 
	C448.861389,293.155243 449.476562,304.892059 442.713898,310.810394 
	C438.639099,314.376495 434.718018,318.118256 430.422852,321.910522 
z"/>
<path fill="#4F7FFF" opacity="1.000000" stroke="none" 
	d="
M431.532166,289.087036 
	C430.418335,289.768036 428.877472,290.865082 427.303650,290.914520 
	C420.855988,291.117188 414.395416,290.893890 407.946075,291.068329 
	C406.090851,291.118500 404.257446,291.976715 401.858673,292.610779 
	C399.815613,289.269318 398.327911,285.781555 396.719635,282.011047 
	C394.678467,285.664856 392.897766,288.852448 390.641144,292.031067 
	C381.756775,292.014374 373.345428,292.119049 364.942291,291.903870 
	C363.263000,291.860901 361.614929,290.597565 359.952484,289.896912 
	C364.067627,289.264771 368.168762,288.281403 372.302582,288.116241 
	C375.379364,287.993256 377.174438,286.986908 378.398712,284.228363 
	C380.895233,278.603210 383.567322,273.055786 386.183075,267.483826 
	C388.389099,262.784576 392.285065,260.760773 397.272552,261.049164 
	C402.072693,261.326782 405.161163,264.005707 407.054474,268.492310 
	C409.501587,274.291229 412.246155,279.972504 415.090210,285.589203 
	C415.631805,286.658813 417.158630,287.712128 418.356018,287.879883 
	C422.571228,288.470520 426.840973,288.672211 431.532166,289.087036 
z"/>
<path fill="#547BFF" opacity="1.000000" stroke="none" 
	d="
M359.526428,289.941101 
	C361.614929,290.597565 363.263000,291.860901 364.942291,291.903870 
	C373.345428,292.119049 381.756775,292.014374 390.583557,292.405273 
	C389.340912,299.031189 385.684296,302.250549 378.819550,302.151062 
	C374.687683,302.091187 370.535461,303.435608 365.276215,304.341125 
	C368.071838,306.499298 370.170654,307.630157 371.604034,309.324097 
	C374.979218,313.312836 380.933594,315.483429 380.833252,321.999756 
	C375.166595,322.007080 369.499939,322.014404 363.358154,322.030548 
	C358.724487,318.329651 354.621399,314.555267 350.392609,310.927399 
	C345.668854,306.874969 344.230499,301.795197 346.454468,296.186707 
	C348.655609,290.635712 353.734924,289.728119 359.526428,289.941101 
z"/>
<path fill="#000000" opacity="1.000000" stroke="none" 
	d="
M121.352966,260.020508 
	C120.351311,254.559204 119.664352,249.238647 118.905212,243.458405 
	C118.881561,234.308182 118.930084,225.617645 118.906158,216.463379 
	C118.956459,212.526749 118.860100,209.029404 119.244370,205.585678 
	C120.262878,196.458008 127.525398,194.643799 134.852234,192.448608 
	C142.903992,190.320236 150.864487,188.843933 158.613724,186.628601 
	C166.925461,184.252472 174.993057,184.732132 183.117966,187.058487 
	C193.480286,190.025513 203.835754,193.016434 214.576843,196.056183 
	C219.013535,199.227676 220.241028,203.333237 220.107315,208.382278 
	C219.969070,213.602463 220.683151,218.845230 221.095612,224.537521 
	C220.785721,234.706314 220.404587,244.415680 220.094986,254.562225 
	C219.823868,259.260742 217.810242,262.041779 213.167511,262.583832 
	C213.108475,261.707306 213.042557,260.728851 212.976059,258.911163 
	C212.984146,250.412048 213.077789,242.750717 212.951645,235.093033 
	C212.911911,232.680786 212.762543,230.064911 211.809540,227.921951 
	C210.428680,224.816971 207.687637,222.785965 204.049240,223.549164 
	C200.461563,224.301697 197.841797,226.123734 197.951080,230.533951 
	C198.169556,239.351837 198.110977,248.176590 198.166779,256.998505 
	C198.065201,258.808502 197.963623,260.618469 197.829971,262.999695 
	C193.413437,262.999695 188.991791,262.999756 184.570160,262.999756 
	C171.827744,262.999725 159.085068,263.036041 146.343231,262.949463 
	C144.899292,262.939667 143.460052,262.237915 141.997559,260.966431 
	C141.928650,255.050049 141.880814,250.024292 141.904587,244.535843 
	C141.983658,239.602112 142.088745,235.128494 141.970154,230.660797 
	C141.859329,226.486252 138.493027,223.267059 134.457825,223.211426 
	C130.308304,223.154190 127.153084,226.144501 127.038994,230.596954 
	C126.924629,235.059967 127.111923,239.530716 127.094734,244.461182 
	C127.070625,250.616165 127.118774,256.308014 127.166924,261.999878 
	C125.333839,261.386993 123.500755,260.774109 121.352966,260.020508 
z"/>
<path fill="#4389FF" opacity="1.000000" stroke="none" 
	d="
M198.614746,256.998718 
	C198.110977,248.176590 198.169556,239.351837 197.951080,230.533951 
	C197.841797,226.123734 200.461563,224.301697 204.049240,223.549164 
	C207.687637,222.785965 210.428680,224.816971 211.809540,227.921951 
	C212.762543,230.064911 212.911911,232.680786 212.951645,235.093033 
	C213.077789,242.750717 212.984146,250.412048 212.903839,258.535767 
	C208.242371,258.332703 203.652527,257.665802 198.614746,256.998718 
z"/>
<path fill="#4687FF" opacity="1.000000" stroke="none" 
	d="
M127.616150,261.999939 
	C127.118774,256.308014 127.070625,250.616165 127.543861,244.461548 
	C132.654480,244.332031 137.243729,244.665268 141.832962,244.998535 
	C141.880814,250.024292 141.928650,255.050049 141.904831,260.537872 
	C137.243912,261.333313 132.654648,261.666656 127.616150,261.999939 
z"/>
<path fill="#000000" opacity="1.000000" stroke="none" 
	d="
M158.429260,164.093628 
	C154.416260,158.593384 151.803940,152.796631 152.076385,146.150925 
	C152.177994,143.672119 153.140182,141.228577 153.770981,138.383148 
	C157.371918,130.508423 164.145157,128.793442 171.357254,129.140045 
	C178.224731,129.470078 183.704590,132.802414 186.570267,139.880371 
	C188.048920,149.331741 186.918457,158.020782 180.099930,165.563904 
	C179.111389,166.271103 178.181580,166.547440 177.421631,167.070557 
	C171.487976,171.154861 164.766678,171.197067 158.429260,164.093628 
z"/>
<path fill="#000000" opacity="1.000000" stroke="none" 
	d="
M172.094894,403.544434 
	C172.118515,414.023590 172.070221,424.047943 172.094208,434.536011 
	C172.111359,435.994659 171.899445,437.010437 172.028534,437.980896 
	C172.559296,441.970795 170.872437,443.131683 166.932281,443.082397 
	C151.146027,442.884949 135.355835,443.000793 118.976326,443.000793 
	C118.976326,440.421082 118.976326,438.157684 118.905167,435.445801 
	C118.881638,424.973907 118.929283,414.950562 118.905334,404.463196 
	C118.890312,400.510498 118.628815,396.971985 119.163025,393.557983 
	C119.371063,392.228485 121.356483,390.174347 122.558937,390.155579 
	C137.523331,389.921936 152.495651,389.868317 167.456177,390.203949 
	C169.002182,390.238678 171.282318,392.842865 171.807587,394.662903 
	C172.561432,397.274994 172.014557,400.262482 172.094894,403.544434 
M158.487686,437.000977 
	C164.268158,436.454437 167.465729,432.045837 164.860382,426.974121 
	C162.823624,423.009277 159.292114,419.812256 156.161835,415.949615 
	C157.136108,415.085968 158.409561,414.012451 159.618408,412.870514 
	C160.947083,411.615417 162.268173,410.344788 163.501373,408.997467 
	C166.756271,405.441284 166.769440,401.052551 163.593216,398.113525 
	C160.482056,395.234741 156.431259,395.282043 153.077194,398.440308 
	C150.493774,400.872894 148.097366,403.504089 145.511948,406.155518 
	C143.000290,403.585663 140.899857,401.455658 138.820602,399.305115 
	C134.557648,394.895935 129.592056,395.541412 126.845100,398.586914 
	C123.939049,401.808746 124.080383,406.574402 127.955894,410.332031 
	C130.168839,412.477661 132.848007,414.142426 135.317245,416.023743 
	C133.796158,417.553741 133.724396,417.712158 133.609756,417.828247 
	C131.624863,419.839050 129.632767,421.842743 127.646172,423.851837 
	C124.406654,427.127960 124.005745,432.530884 126.795860,435.267883 
	C129.594666,438.013397 134.943085,437.595001 138.191254,434.279694 
	C140.368912,432.056946 142.424698,429.714813 143.861130,428.156921 
	C149.055771,431.482330 153.365707,434.241394 158.487686,437.000977 
z"/>
<path fill="#000000" opacity="1.000000" stroke="none" 
	d="
M172.095428,311.552673 
	C172.118958,322.023895 172.070984,332.048096 172.094803,342.536133 
	C171.641754,352.999969 171.641754,352.999939 161.437469,352.999939 
	C147.481812,352.999908 133.526138,352.999939 118.976524,352.999939 
	C118.976524,350.421478 118.976524,348.158691 118.905113,345.447876 
	C118.881302,334.641998 118.928902,324.284149 118.904633,313.462341 
	C118.889595,309.841583 118.602707,306.622101 119.161591,303.556854 
	C119.407112,302.210297 121.360191,300.174255 122.564537,300.155487 
	C137.532242,299.922119 152.507858,299.868744 167.471664,300.204681 
	C169.012772,300.239258 171.078857,302.839508 171.833252,304.685699 
	C172.591660,306.541779 172.015366,308.943237 172.095428,311.552673 
M147.033569,339.454010 
	C153.223663,333.275665 159.471664,327.153809 165.579971,320.895660 
	C168.734451,317.663757 169.010117,312.256836 166.409790,309.907959 
	C163.100510,306.918671 158.222748,307.324463 154.642242,310.883118 
	C149.761749,315.733856 144.878998,320.582336 139.780899,325.646637 
	C138.106415,323.010376 137.085495,320.934998 135.637619,319.220154 
	C132.544479,315.556671 128.457870,314.815613 125.201141,317.416565 
	C121.863853,320.081848 120.922684,323.499908 123.157547,327.441284 
	C125.001205,330.692749 126.821854,333.957275 128.660202,337.211731 
	C134.736649,347.968933 138.991257,348.836273 147.033569,339.454010 
z"/>
<path fill="#000000" opacity="1.000000" stroke="none" 
	d="
M380.894653,322.401978 
	C380.933594,315.483429 374.979218,313.312836 371.604034,309.324097 
	C370.170654,307.630157 368.071838,306.499298 365.276215,304.341125 
	C370.535461,303.435608 374.687683,302.091187 378.819550,302.151062 
	C385.684296,302.250549 389.340912,299.031189 391.059509,292.414246 
	C392.897766,288.852448 394.678467,285.664856 396.719635,282.011047 
	C398.327911,285.781555 399.815613,289.269318 401.629791,292.935059 
	C403.371399,302.421143 410.983124,301.947479 417.602814,302.984772 
	C420.569275,303.449585 423.560272,303.757599 425.036621,303.062469 
	C421.619415,307.282410 418.107544,311.430756 414.833862,315.759277 
	C413.611633,317.375366 412.945160,319.411743 412.096069,321.628143 
	C413.164642,327.811279 414.162384,333.622711 415.260986,340.021698 
	C410.651154,337.517273 406.627625,335.456390 402.729828,333.180115 
	C398.477234,330.696625 394.587402,330.005981 390.130829,333.182190 
	C386.496399,335.772491 382.210327,337.448486 377.376312,339.965637 
	C378.660461,333.809448 379.808258,328.306854 380.894653,322.401978 
z"/>
<path fill="#408CFF" opacity="1.000000" stroke="none" 
	d="
M141.904587,244.535828 
	C137.243729,244.665268 132.654480,244.332031 127.616119,243.998413 
	C127.111923,239.530716 126.924629,235.059967 127.038994,230.596954 
	C127.153084,226.144501 130.308304,223.154190 134.457825,223.211426 
	C138.493027,223.267059 141.859329,226.486252 141.970154,230.660797 
	C142.088745,235.128494 141.983658,239.602112 141.904587,244.535828 
z"/>
<path fill="#7460FF" opacity="1.000000" stroke="none" 
	d="
M158.081665,437.000702 
	C153.365707,434.241394 149.055771,431.482330 143.861130,428.156921 
	C142.424698,429.714813 140.368912,432.056946 138.191254,434.279694 
	C134.943085,437.595001 129.594666,438.013397 126.795860,435.267883 
	C124.005745,432.530884 124.406654,427.127960 127.646172,423.851837 
	C129.632767,421.842743 131.624863,419.839050 133.609756,417.828247 
	C133.724396,417.712158 133.796158,417.553741 135.317245,416.023743 
	C132.848007,414.142426 130.168839,412.477661 127.955894,410.332031 
	C124.080383,406.574402 123.939049,401.808746 126.845100,398.586914 
	C129.592056,395.541412 134.557648,394.895935 138.820602,399.305115 
	C140.899857,401.455658 143.000290,403.585663 145.511948,406.155518 
	C148.097366,403.504089 150.493774,400.872894 153.077194,398.440308 
	C156.431259,395.282043 160.482056,395.234741 163.593216,398.113525 
	C166.769440,401.052551 166.756271,405.441284 163.501373,408.997467 
	C162.268173,410.344788 160.947083,411.615417 159.618408,412.870514 
	C158.409561,414.012451 157.136108,415.085968 156.161835,415.949615 
	C159.292114,419.812256 162.823624,423.009277 164.860382,426.974121 
	C167.465729,432.045837 164.268158,436.454437 158.081665,437.000702 
z"/>
<path fill="#5B75FF" opacity="1.000000" stroke="none" 
	d="
M146.778778,339.718750 
	C138.991257,348.836273 134.736649,347.968933 128.660202,337.211731 
	C126.821854,333.957275 125.001205,330.692749 123.157547,327.441284 
	C120.922684,323.499908 121.863853,320.081848 125.201141,317.416565 
	C128.457870,314.815613 132.544479,315.556671 135.637619,319.220154 
	C137.085495,320.934998 138.106415,323.010376 139.780899,325.646637 
	C144.878998,320.582336 149.761749,315.733856 154.642242,310.883118 
	C158.222748,307.324463 163.100510,306.918671 166.409790,309.907959 
	C169.010117,312.256836 168.734451,317.663757 165.579971,320.895660 
	C159.471664,327.153809 153.223663,333.275665 146.778778,339.718750 
z"/>
</svg>