<svg version="1.1" id="Layer_1" xmlns="http://www.w3.org/2000/svg" xmlns:xlink="http://www.w3.org/1999/xlink" x="0px" y="0px"
	 width="100%" viewBox="0 0 275 183" enable-background="new 0 0 275 183" xml:space="preserve">
<path fill="#FFFEFE" opacity="1.000000" stroke="none" 
	d="
M276.000000,92.000000 
	C276.000000,122.637413 276.000000,153.274826 276.000000,183.956116 
	C184.450027,183.956116 92.900040,183.956116 1.000000,183.956116 
	C1.000000,153.646667 1.000000,123.291992 1.249048,92.566849 
	C1.670932,92.151886 1.843768,92.107399 2.473115,92.174454 
	C92.625481,92.300377 182.321335,92.315620 272.017181,92.318108 
	C273.006439,92.318138 273.995728,92.151672 275.243866,92.129921 
	C275.668488,92.131279 275.834259,92.065636 276.000000,92.000000 
z"/>
<path fill="#ED2939" opacity="1.000000" stroke="none" 
	d="
M274.984985,92.062927 
	C273.995728,92.151672 273.006439,92.318138 272.017181,92.318108 
	C182.321335,92.315620 92.625481,92.300377 2.365831,91.943634 
	C1.534692,91.400848 1.267346,91.200424 1.000000,91.000000 
	C1.000000,61.028866 1.000000,31.057732 1.000000,1.043299 
	C92.549583,1.043299 184.099197,1.043299 276.000000,1.043299 
	C276.000000,30.686638 276.000000,60.374660 275.773224,90.646545 
	C275.359314,91.507919 275.172150,91.785423 274.984985,92.062927 
M26.688749,37.253693 
	C19.470823,62.595100 41.396362,85.119904 65.237808,79.391899 
	C51.628517,74.304893 42.457005,65.296814 41.077923,50.489620 
	C39.399391,32.467278 48.364998,20.696995 65.252167,13.977471 
	C49.174042,10.115127 31.442835,20.817028 26.688749,37.253693 
M90.087875,67.416397 
	C91.161621,67.897591 92.235374,68.378784 94.960258,69.599930 
	C90.680626,64.402390 94.121735,62.129250 95.820900,60.302475 
	C93.155029,58.631992 90.716446,57.103931 88.984703,56.018787 
	C86.950294,57.416592 84.521767,59.085197 82.544907,60.443462 
	C83.335892,62.802273 84.281433,65.621986 85.123863,68.134224 
	C86.174973,67.823006 88.028305,67.274261 90.087875,67.416397 
M74.183159,24.298166 
	C72.823212,24.577621 71.463264,24.857079 71.133080,24.924927 
	C72.064278,28.016165 72.897568,30.782396 73.495972,32.768875 
	C76.012276,32.768875 79.034935,32.768875 82.053268,32.768875 
	C81.759438,31.498259 81.401009,29.948320 81.073364,28.531488 
	C82.471077,27.329937 83.620224,26.342068 83.925705,26.079462 
	C81.484154,24.068783 79.206436,22.193027 77.114494,20.470263 
	C76.646736,21.131321 75.709343,22.456081 74.183159,24.298166 
M66.288879,38.967583 
	C63.737358,37.312603 61.185837,35.657619 58.481552,33.903553 
	C58.099884,34.775951 57.453362,36.253754 56.793823,37.761307 
	C54.981190,37.932888 53.217369,38.099850 49.999130,38.404480 
	C55.329899,40.420078 55.779247,43.504444 53.956837,47.588787 
	C56.212151,46.306961 57.872524,45.363274 59.423698,44.481651 
	C60.781696,45.754704 61.833904,46.741100 62.886116,47.727497 
	C63.284454,44.423126 61.475895,40.991131 66.288879,38.967583 
M69.252861,68.028564 
	C69.761269,68.124352 70.269684,68.220139 70.778091,68.315918 
	C71.203804,65.399109 71.629517,62.482304 72.028084,59.751511 
	C68.968925,60.631298 67.195717,58.314266 66.775040,55.435745 
	C64.233681,57.233917 61.687012,59.035847 58.773251,61.097519 
	C60.004784,61.884232 61.355213,62.746899 62.664284,63.583141 
	C62.227207,65.292809 61.825291,66.864929 61.423378,68.437057 
	C64.050110,66.977478 66.018166,65.007690 69.252861,68.028564 
M95.101212,33.902885 
	C92.803276,35.672337 90.505341,37.441788 89.087151,38.533821 
	C90.311859,40.975967 91.428200,43.202007 92.627853,45.594193 
	C94.677315,45.774685 97.600838,46.032154 99.093216,46.163589 
	C100.423630,43.144764 101.563934,40.557327 102.671761,38.043575 
	C101.473923,37.989422 99.835678,37.915356 98.536369,37.856617 
	C97.407600,36.135487 96.475922,34.714874 95.101212,33.902885 
z"/>
<path fill="#EC142A" opacity="1.000000" stroke="none" 
	d="
M1.000000,91.250000 
	C1.267346,91.200424 1.534692,91.400848 1.909321,91.832092 
	C1.843768,92.107399 1.670932,92.151886 1.249048,92.098190 
	C1.000000,92.000000 1.000000,91.500000 1.000000,91.250000 
z"/>
<path fill="#EC142A" opacity="1.000000" stroke="none" 
	d="
M275.243866,92.129929 
	C275.172150,91.785423 275.359314,91.507919 275.773224,91.115204 
	C276.000000,91.000000 276.000000,91.500000 276.000000,91.750000 
	C275.834259,92.065636 275.668488,92.131279 275.243866,92.129929 
z"/>
<path fill="#FEFAFA" opacity="1.000000" stroke="none" 
	d="
M26.822002,36.870159 
	C31.442835,20.817028 49.174042,10.115127 65.252167,13.977471 
	C48.364998,20.696995 39.399391,32.467278 41.077923,50.489620 
	C42.457005,65.296814 51.628517,74.304893 65.237808,79.391899 
	C41.396362,85.119904 19.470823,62.595100 26.822002,36.870159 
z"/>
<path fill="#FDF0F1" opacity="1.000000" stroke="none" 
	d="
M89.984756,67.070953 
	C88.028305,67.274261 86.174973,67.823006 85.123863,68.134224 
	C84.281433,65.621986 83.335892,62.802273 82.544907,60.443462 
	C84.521767,59.085197 86.950294,57.416592 88.984703,56.018787 
	C90.716446,57.103931 93.155029,58.631992 95.820900,60.302475 
	C94.121735,62.129250 90.680626,64.402390 94.960258,69.599930 
	C92.235374,68.378784 91.161621,67.897591 89.984756,67.070953 
z"/>
<path fill="#FDF1F1" opacity="1.000000" stroke="none" 
	d="
M74.477554,24.039503 
	C75.709343,22.456081 76.646736,21.131321 77.114494,20.470263 
	C79.206436,22.193027 81.484154,24.068783 83.925705,26.079462 
	C83.620224,26.342068 82.471077,27.329937 81.073364,28.531488 
	C81.401009,29.948320 81.759438,31.498259 82.053268,32.768875 
	C79.034935,32.768875 76.012276,32.768875 73.495972,32.768875 
	C72.897568,30.782396 72.064278,28.016165 71.133080,24.924927 
	C71.463264,24.857079 72.823212,24.577621 74.477554,24.039503 
z"/>
<path fill="#FDF0F1" opacity="1.000000" stroke="none" 
	d="
M66.016350,39.218246 
	C61.475895,40.991131 63.284454,44.423126 62.886116,47.727497 
	C61.833904,46.741100 60.781696,45.754704 59.423698,44.481651 
	C57.872524,45.363274 56.212151,46.306961 53.956837,47.588787 
	C55.779247,43.504444 55.329899,40.420078 49.999130,38.404480 
	C53.217369,38.099850 54.981190,37.932888 56.793823,37.761307 
	C57.453362,36.253754 58.099884,34.775951 58.481552,33.903553 
	C61.185837,35.657619 63.737358,37.312603 66.016350,39.218246 
z"/>
<path fill="#FDF0F0" opacity="1.000000" stroke="none" 
	d="
M68.925446,67.867142 
	C66.018166,65.007690 64.050110,66.977478 61.423378,68.437057 
	C61.825291,66.864929 62.227207,65.292809 62.664284,63.583141 
	C61.355213,62.746899 60.004784,61.884232 58.773251,61.097519 
	C61.687012,59.035847 64.233681,57.233917 66.775040,55.435745 
	C67.195717,58.314266 68.968925,60.631298 72.028084,59.751511 
	C71.629517,62.482304 71.203804,65.399109 70.778091,68.315918 
	C70.269684,68.220139 69.761269,68.124352 68.925446,67.867142 
z"/>
<path fill="#FDF0F1" opacity="1.000000" stroke="none" 
	d="
M95.322723,33.598576 
	C96.475922,34.714874 97.407600,36.135487 98.536369,37.856617 
	C99.835678,37.915356 101.473923,37.989422 102.671761,38.043575 
	C101.563934,40.557327 100.423630,43.144764 99.093216,46.163589 
	C97.600838,46.032154 94.677315,45.774685 92.627853,45.594193 
	C91.428200,43.202007 90.311859,40.975967 89.087151,38.533821 
	C90.505341,37.441788 92.803276,35.672337 95.322723,33.598576 
z"/>
</svg>