<svg version="1.1" id="Layer_1" xmlns="http://www.w3.org/2000/svg" xmlns:xlink="http://www.w3.org/1999/xlink" x="0px" y="0px"
	 width="100%" viewBox="0 0 512 512" enable-background="new 0 0 512 512" xml:space="preserve">
<path fill="#000000" opacity="1.000000" stroke="none" 
	d="
M513.000000,180.000000 
	C513.000000,291.306274 513.000000,402.112549 513.000000,512.959412 
	C342.402039,512.959412 171.804092,512.959412 1.103063,512.959412 
	C1.103063,342.443756 1.103063,171.887421 1.103063,1.165548 
	C171.666534,1.165548 342.333252,1.165548 513.000000,1.165548 
	C513.000000,60.529209 513.000000,120.014603 513.000000,180.000000 
M279.977203,329.070587 
	C279.929169,318.046692 279.881104,307.022827 279.975891,295.103088 
	C279.975891,292.841736 279.975891,290.580383 279.975891,287.999390 
	C292.511261,287.999390 304.460785,287.845001 316.402893,288.075287 
	C321.190063,288.167542 323.037689,285.140503 323.585724,281.589630 
	C324.097687,278.272491 322.155426,275.248260 318.706024,274.087036 
	C316.591187,273.375061 314.251617,273.067017 312.008392,273.045013 
	C301.423767,272.941162 290.837616,272.998718 279.833435,272.998718 
	C279.833435,269.603821 279.833435,266.801819 279.976349,263.072083 
	C279.928650,252.714203 279.880981,242.356308 279.976318,231.070999 
	C279.928558,219.379944 279.880829,207.688889 279.975311,195.075684 
	C279.975311,190.811447 279.975311,186.547195 279.975311,181.999817 
	C281.731049,181.999817 282.868408,181.999832 284.005737,181.999817 
	C294.652069,181.999664 305.298737,182.050659 315.944519,181.975250 
	C320.480164,181.943130 323.891113,178.806839 323.895203,174.970718 
	C323.899963,170.500473 320.484863,167.039536 315.762970,167.020325 
	C301.457214,166.962097 287.150665,166.940155 272.845276,167.032288 
	C267.948547,167.063812 265.000427,170.216934 265.010254,175.050919 
	C265.025146,182.366653 265.111023,189.682251 265.021057,197.925476 
	C265.069672,209.283112 265.118286,220.640732 265.021942,232.925995 
	C265.070251,243.616867 265.118591,254.307724 265.022766,265.894501 
	C265.022766,268.152863 265.022766,270.411224 265.022766,272.998688 
	C261.323944,272.998688 258.193817,272.885498 255.074921,273.024414 
	C250.013290,273.249908 244.944458,273.496277 239.906006,274.004791 
	C235.423615,274.457184 233.826309,278.162231 234.243576,281.637634 
	C234.702271,285.458099 237.233841,288.250000 242.041122,288.073425 
	C249.606934,287.795593 257.190430,287.999634 265.166840,287.999634 
	C265.166840,291.402802 265.166840,294.200836 265.022766,297.926605 
	C265.070709,308.617004 265.118622,319.307434 265.022736,330.925659 
	C265.070679,342.283234 265.118622,353.640778 265.023560,365.926208 
	C265.015717,372.911713 264.991272,379.897278 265.005859,386.882751 
	C265.015533,391.514038 267.822174,394.901611 272.283936,394.944885 
	C286.752686,395.085358 301.225342,395.123932 315.692993,394.934601 
	C321.447418,394.859283 325.122772,389.384277 322.957336,384.220062 
	C321.684387,381.184357 319.469574,379.884918 316.003723,379.934540 
	C304.096588,380.105072 292.185486,380.000061 279.833832,380.000061 
	C279.833832,374.923981 279.833832,370.460602 279.977509,365.070221 
	C279.929626,353.379425 279.881744,341.688599 279.977203,329.070587 
M326.781738,29.306473 
	C324.853088,26.704823 323.149292,23.893505 320.954712,21.539818 
	C313.619476,13.672880 304.317902,11.148636 293.836914,11.984688 
	C282.075317,12.922893 273.266663,18.290068 267.239410,29.293737 
	C263.999939,35.164711 263.520996,41.489166 263.773987,48.681179 
	C252.997147,46.792625 242.251373,44.697117 231.434906,43.072449 
	C220.117599,41.372559 211.389572,49.583950 211.983047,60.067524 
	C212.151260,63.038654 212.111130,66.021576 212.019409,69.926285 
	C212.019409,78.523354 212.019409,87.120422 212.019409,95.695969 
	C268.970886,95.695969 325.340851,95.695969 381.833466,95.695969 
	C381.833466,86.929642 381.833466,78.464134 381.977142,69.075691 
	C381.984619,66.086403 381.787628,63.079990 382.036377,60.110916 
	C382.927338,49.476334 372.845337,41.583679 363.485992,43.048744 
	C352.474884,44.772362 341.521973,46.867737 330.279144,48.848530 
	C330.130127,47.223946 329.982300,45.612274 329.978058,43.137516 
	C328.929657,38.758144 327.881226,34.378773 326.781738,29.306473 
M482.976044,136.070877 
	C482.928406,126.046310 482.880798,116.021751 482.976257,105.070030 
	C482.595398,97.046204 482.214539,89.022369 481.966675,80.247238 
	C477.961243,66.955048 465.599518,58.683762 451.526093,58.927471 
	C434.378174,59.224415 417.221191,58.992466 400.068146,59.007408 
	C398.464966,59.008804 396.861938,59.140270 395.166809,59.215424 
	C395.166809,66.734306 395.166809,73.866432 395.020050,81.891586 
	C395.020050,83.822411 395.020050,85.753235 395.020050,88.136169 
	C414.931305,88.136169 434.324371,88.136169 454.166412,88.136169 
	C454.166412,94.063957 454.166412,99.530838 454.019440,105.925156 
	C454.068451,115.949760 454.117462,125.974373 454.019897,136.926285 
	C454.068970,147.282990 454.118073,157.639709 454.021332,168.924316 
	C454.069946,179.281433 454.118591,189.638535 454.021332,200.923447 
	C454.069885,211.282074 454.118439,221.640717 454.022064,232.926804 
	C454.070282,243.284439 454.118500,253.642090 454.022308,264.927216 
	C454.070557,275.284790 454.118805,285.642334 454.022888,296.927429 
	C454.070740,307.617645 454.118561,318.307831 454.022705,329.926056 
	C454.070648,339.951782 454.118622,349.977509 454.023621,360.930481 
	C454.071320,371.287811 454.119049,381.645172 454.023499,392.929657 
	C454.071198,403.286865 454.118896,413.644104 454.023743,424.928833 
	C454.071320,435.953094 454.118927,446.977356 454.023895,458.926208 
	C454.023895,463.527039 454.023895,468.127838 454.023895,472.701294 
	C349.023102,472.701294 244.659775,472.701294 139.833710,472.701294 
	C139.833710,468.270752 139.833710,464.135071 139.978729,459.072235 
	C139.930298,448.380829 139.881882,437.689423 139.977997,426.070831 
	C139.977997,413.487030 139.977997,400.903259 139.977997,388.320587 
	C130.030441,388.320587 120.647995,388.320587 111.166420,388.320587 
	C111.166420,401.758789 111.166420,414.878387 111.023537,428.926147 
	C111.071075,439.283813 111.118614,449.641510 111.023514,460.926392 
	C111.642830,468.297241 112.262146,475.668091 112.985283,483.790466 
	C114.952385,492.583435 127.686783,502.144714 137.164627,502.126801 
	C242.731720,501.927521 348.299927,501.840118 453.866028,502.222046 
	C465.928070,502.265686 478.102692,494.111877 481.978943,481.138489 
	C482.263794,473.426208 482.548615,465.713959 482.978485,457.074036 
	C482.930054,446.049805 482.881622,435.025543 482.977661,423.073608 
	C482.929626,412.716522 482.881592,402.359436 482.977570,391.074554 
	C482.929504,380.717468 482.881439,370.360352 482.977051,359.075073 
	C482.929169,348.716095 482.881287,338.357086 482.976776,327.070770 
	C482.928955,316.713806 482.881134,306.356873 482.976349,295.072205 
	C482.928558,284.714691 482.880768,274.357208 482.976044,263.072021 
	C482.928528,252.714462 482.881012,242.356888 482.976166,231.071671 
	C482.928314,220.713043 482.880463,210.354401 482.975037,199.068832 
	C482.927704,189.044586 482.880341,179.020325 482.976074,168.068939 
	C482.928558,157.712097 482.881012,147.355270 482.976044,136.070877 
M111.021141,146.923874 
	C111.021141,155.512970 111.021141,164.102066 111.021141,172.682404 
	C120.969971,172.682404 130.351868,172.682404 139.832581,172.682404 
	C139.832581,163.577621 139.832581,154.786728 139.976135,145.068787 
	C139.928223,134.710144 139.880310,124.351494 139.974655,113.066017 
	C139.974655,104.802605 139.974655,96.539200 139.974655,88.000900 
	C141.904984,88.000900 143.215225,88.000908 144.525452,88.000908 
	C161.349808,88.000854 178.174179,88.012680 194.998489,87.984787 
	C196.966690,87.981522 199.782684,88.841377 198.976700,84.069420 
	C198.976700,75.808563 198.976700,67.547714 198.976700,59.001770 
	C178.296600,59.001770 158.178940,58.951965 138.062241,59.068153 
	C135.689255,59.081856 133.220963,59.731312 130.968323,60.555016 
	C119.533310,64.736351 112.792061,72.818817 111.020607,85.924446 
	C111.069565,95.280685 111.118523,104.636917 111.019661,114.921341 
	C111.068855,125.279518 111.118050,135.637695 111.021141,146.923874 
M47.048077,261.992828 
	C43.421398,262.660645 39.814690,263.483643 36.162544,263.953522 
	C32.362259,264.442444 30.900452,266.547150 30.988720,270.168579 
	C31.092957,274.445068 31.111109,278.723633 31.023031,283.909882 
	C31.015331,285.882385 31.121967,287.863342 30.977571,289.825775 
	C30.607836,294.850769 32.222782,297.462341 37.838749,298.273743 
	C42.393906,298.931915 48.491886,298.396790 50.035114,305.747467 
	C52.412300,311.164337 54.789482,316.581177 56.865505,322.632904 
	C54.561981,326.052338 52.258453,329.471802 49.278442,333.282837 
	C49.980900,335.815369 50.065369,338.807098 51.527615,340.775116 
	C53.842701,343.890961 57.080246,346.321442 60.191933,349.660614 
	C70.800842,360.570953 69.733696,359.433807 80.904205,352.003754 
	C81.687729,351.482605 82.331573,350.751465 83.765671,350.016998 
	C84.496109,350.045929 85.226540,350.074890 86.316757,350.746918 
	C89.014130,351.830475 91.653023,353.102386 94.420082,353.961548 
	C102.052597,356.331329 108.652084,359.162720 108.268860,369.192780 
	C108.122757,373.016571 110.802185,375.469788 115.586876,375.118195 
	C122.051819,374.643097 128.596542,374.696777 135.071960,375.094452 
	C140.414917,375.422607 143.008560,373.915283 143.147064,368.128265 
	C143.320511,360.882874 147.110886,356.452209 154.564804,354.851807 
	C158.226440,354.065582 161.558533,351.744446 165.734848,350.017426 
	C166.823563,350.289459 167.912262,350.561523 169.636307,351.136810 
	C182.311752,359.998016 179.719696,360.728912 190.607407,349.861053 
	C190.828629,349.640228 190.948502,349.317841 191.726471,348.783722 
	C193.945343,346.563751 196.522552,344.591522 198.278625,342.051605 
	C199.917221,339.681610 200.683304,336.708374 201.771988,333.305023 
	C196.396027,326.900513 192.971497,320.184998 198.388504,312.062042 
	C198.480682,311.923798 198.592865,311.798920 198.983734,311.009186 
	C200.908005,302.241852 206.515671,298.106110 215.333298,297.978851 
	C215.810379,297.971985 216.494629,297.925598 216.724686,297.624390 
	C217.881683,296.109406 219.750809,294.553406 219.848633,292.920624 
	C220.185471,287.299652 219.888626,281.640686 219.975525,275.103058 
	C219.983109,274.437469 219.997345,273.771881 219.997253,273.106293 
	C219.995819,263.854187 220.749680,264.692627 212.193771,263.334320 
	C205.964096,262.345337 202.189194,260.361328 200.491257,254.158981 
	C199.435486,250.302383 197.418625,246.708893 195.732330,242.260986 
	C195.857574,240.640869 195.573547,238.835953 196.202362,237.443207 
	C197.186844,235.262619 198.768311,233.346954 200.132919,231.343597 
	C202.767609,227.475677 203.100067,223.993286 199.145142,220.577103 
	C195.894302,217.769135 193.043594,214.501328 189.973495,211.480042 
	C180.839310,202.491196 182.332413,201.661636 170.812378,209.507355 
	C169.231216,210.584183 166.945938,210.627197 164.240097,211.009872 
	C161.127594,209.684509 158.122452,207.924942 154.880432,207.123337 
	C147.939957,205.407318 144.015335,201.690384 142.928879,194.265930 
	C141.739868,186.140579 141.010818,186.007477 132.795654,186.000793 
	C128.146957,185.996994 123.498253,185.999390 118.849556,186.000259 
	C109.723602,186.001968 109.253662,186.255814 108.048096,195.158737 
	C107.316429,200.562012 105.362396,204.306427 99.579002,205.958984 
	C94.857544,207.308136 90.482094,209.868179 85.228493,211.984024 
	C84.500038,211.951721 83.771576,211.919418 82.770950,211.262177 
	C69.860893,201.770447 71.178131,201.111679 60.782177,211.743439 
	C60.104549,212.436432 59.516628,213.217148 58.274494,214.214188 
	C55.925308,216.563248 53.124794,218.623077 51.373753,221.355453 
	C50.040382,223.436096 48.860104,226.880173 49.696972,228.816345 
	C51.315376,232.560715 54.404800,235.669266 56.718815,239.756851 
	C53.776058,247.155411 50.833302,254.553955 47.048077,261.992828 
M417.976135,267.073151 
	C417.984039,263.247955 417.822449,259.413361 418.033600,255.599426 
	C418.542603,246.405930 411.542053,242.169189 405.160614,242.082291 
	C387.700714,241.844559 370.232117,241.805847 352.774048,242.103714 
	C346.440277,242.211761 339.962097,245.988480 340.936737,254.542862 
	C341.367279,258.321655 341.110962,262.178711 341.022278,266.927643 
	C341.070374,274.952148 341.118469,282.976624 341.022522,291.928314 
	C341.015198,297.592651 340.915100,303.258759 341.025787,308.920807 
	C341.143616,314.948395 345.282227,318.987762 351.192413,318.993378 
	C369.684998,319.010925 388.177582,319.009094 406.670166,318.994781 
	C413.092529,318.989838 417.832367,314.451782 417.967529,307.982086 
	C418.071808,302.991211 417.888611,297.994324 417.976410,292.072418 
	C417.928558,284.047882 417.880707,276.023376 417.976135,267.073151 
M417.977692,386.073517 
	C417.984985,377.417572 418.084015,368.760437 417.969452,360.106110 
	C417.883545,353.613373 413.139709,349.012360 406.770599,349.006378 
	C388.459808,348.989258 370.149017,348.978851 351.838287,349.012177 
	C345.515869,349.023712 341.086151,353.049866 341.035858,359.047119 
	C340.957794,368.364075 341.111298,377.682953 341.023834,387.928589 
	C341.015808,396.754517 340.996887,405.580475 341.003326,414.406403 
	C341.008209,421.153473 345.510712,425.936066 352.252228,425.970093 
	C370.070312,426.060059 387.889435,426.054260 405.707611,425.973358 
	C412.514893,425.942444 417.885559,420.699463 417.961151,413.967346 
	C418.062042,404.980255 417.889008,395.990112 417.977692,386.073517 
M417.975555,173.070740 
	C417.983856,164.748322 418.086365,156.424591 417.970459,148.103897 
	C417.878571,141.508255 413.034363,136.063995 407.114960,136.033310 
	C388.639557,135.937515 370.162811,135.919907 351.687744,136.045013 
	C345.841217,136.084595 341.065796,140.690704 341.030579,146.044708 
	C340.971436,155.028549 341.110657,164.013718 341.020203,173.925735 
	C341.013885,183.418762 340.968048,192.911972 341.016083,202.404724 
	C341.044861,208.093124 345.606079,212.951080 351.105469,212.971436 
	C369.758301,213.040497 388.411865,213.059799 407.064423,212.961411 
	C412.961456,212.930298 417.913605,207.892654 417.963104,201.966049 
	C418.040924,192.644485 417.888458,183.321030 417.975555,173.070740 
z"/>
<path fill="#8B4DFF" opacity="1.000000" stroke="none" 
	d="
M481.835602,481.996460 
	C478.102692,494.111877 465.928070,502.265686 453.866028,502.222046 
	C348.299927,501.840118 242.731720,501.927521 137.164627,502.126801 
	C127.686783,502.144714 114.952385,492.583435 113.361000,483.379059 
	C117.034744,482.645081 120.332664,482.041901 123.630821,482.040527 
	C243.032410,481.991028 362.433990,481.997650 481.835602,481.996460 
z"/>
<path fill="#14B0FF" opacity="1.000000" stroke="none" 
	d="
M381.833466,69.998634 
	C381.833466,78.464134 381.833466,86.929642 381.833466,95.695969 
	C325.340851,95.695969 268.970886,95.695969 212.019409,95.695969 
	C212.019409,87.120422 212.019409,78.523354 212.490662,69.551956 
	C215.595917,69.451752 218.229706,69.962769 220.863937,69.965034 
	C274.520416,70.011162 328.176941,69.999084 381.833466,69.998634 
z"/>
<path fill="#8651FF" opacity="1.000000" stroke="none" 
	d="
M481.907288,481.567474 
	C362.433990,481.997650 243.032410,481.991028 123.630821,482.040527 
	C120.332664,482.041901 117.034744,482.645081 113.309097,483.003296 
	C112.262146,475.668091 111.642830,468.297241 111.552902,460.462769 
	C121.332764,459.999207 130.583237,459.999298 139.833710,459.999359 
	C139.833710,464.135071 139.833710,468.270752 139.833710,472.701294 
	C244.659775,472.701294 349.023102,472.701294 454.023895,472.701294 
	C454.023895,468.127838 454.023895,463.527039 454.553223,458.463409 
	C464.332855,458.000977 473.583160,458.001312 482.833435,458.001678 
	C482.548615,465.713959 482.263794,473.426208 481.907288,481.567474 
z"/>
<path fill="#0DB6FF" opacity="1.000000" stroke="none" 
	d="
M381.905304,69.537163 
	C328.176941,69.999084 274.520416,70.011162 220.863937,69.965034 
	C218.229706,69.962769 215.595917,69.451752 212.564240,69.088364 
	C212.111130,66.021576 212.151260,63.038654 211.983047,60.067524 
	C211.389572,49.583950 220.117599,41.372559 231.434906,43.072449 
	C242.251373,44.697117 252.997147,46.792625 264.428406,48.340137 
	C272.427612,47.986191 279.772400,47.973286 287.428009,48.112289 
	C292.396423,56.004364 299.996582,57.030075 304.990540,50.277752 
	C306.406738,48.362907 306.477448,45.452976 307.562988,43.089386 
	C315.251984,43.453117 322.543213,43.726860 329.834473,44.000603 
	C329.982300,45.612274 330.130127,47.223946 330.279144,48.848530 
	C341.521973,46.867737 352.474884,44.772362 363.485992,43.048744 
	C372.845337,41.583679 382.927338,49.476334 382.036377,60.110916 
	C381.787628,63.079990 381.984619,66.086403 381.905304,69.537163 
z"/>
<path fill="#3E8DFF" opacity="1.000000" stroke="none" 
	d="
M83.043121,211.887115 
	C83.771576,211.919418 84.500038,211.951721 85.928848,212.185120 
	C87.261505,212.569351 87.893524,212.911499 88.526161,212.912674 
	C112.779327,212.957352 137.032639,212.997818 161.285477,212.909988 
	C162.521317,212.905502 163.753021,211.762009 164.986649,211.148834 
	C166.945938,210.627197 169.231216,210.584183 170.812378,209.507355 
	C182.332413,201.661636 180.839310,202.491196 189.973495,211.480042 
	C193.043594,214.501328 195.894302,217.769135 199.145142,220.577103 
	C203.100067,223.993286 202.767609,227.475677 200.132919,231.343597 
	C198.768311,233.346954 197.186844,235.262619 196.202362,237.443207 
	C195.573547,238.835953 195.857574,240.640869 195.324692,242.629608 
	C184.326569,242.998611 173.733932,242.888062 163.147461,243.094315 
	C161.067612,243.134842 159.011612,244.399307 156.631165,244.960541 
	C140.707199,231.335785 119.020088,228.950485 99.805595,240.497040 
	C97.935020,239.771423 96.240036,239.063568 94.540520,239.052505 
	C81.989021,238.970764 69.436623,239.027893 56.884506,239.041351 
	C54.404800,235.669266 51.315376,232.560715 49.696972,228.816345 
	C48.860104,226.880173 50.040382,223.436096 51.373753,221.355453 
	C53.124794,218.623077 55.925308,216.563248 59.014412,214.087021 
	C65.141975,213.639481 70.534920,213.387131 75.914841,212.967636 
	C78.304489,212.781326 80.667839,212.257660 83.043121,211.887115 
z"/>
<path fill="#3595FF" opacity="1.000000" stroke="none" 
	d="
M417.833466,173.998352 
	C417.888458,183.321030 418.040924,192.644485 417.963104,201.966049 
	C417.913605,207.892654 412.961456,212.930298 407.064423,212.961411 
	C388.411865,213.059799 369.758301,213.040497 351.105469,212.971436 
	C345.606079,212.951080 341.044861,208.093124 341.016083,202.404724 
	C340.968048,192.911972 341.013885,183.418762 341.548309,173.462463 
	C346.423767,172.986420 350.771088,172.973648 355.430115,173.118668 
	C358.643616,178.489807 361.399200,183.791595 364.484192,188.894257 
	C368.377838,195.334427 371.803131,195.622772 377.177887,190.330475 
	C383.069214,184.529495 388.980286,178.748566 395.358337,172.968170 
	C403.167145,173.317749 410.500305,173.658051 417.833466,173.998352 
z"/>
<path fill="#7361FF" opacity="1.000000" stroke="none" 
	d="
M417.833618,387.001282 
	C417.889008,395.990112 418.062042,404.980255 417.961151,413.967346 
	C417.885559,420.699463 412.514893,425.942444 405.707611,425.973358 
	C387.889435,426.054260 370.070312,426.060059 352.252228,425.970093 
	C345.510712,425.936066 341.008209,421.153473 341.003326,414.406403 
	C340.996887,405.580475 341.015808,396.754517 341.551208,387.464478 
	C346.750031,386.978790 351.421509,386.957184 356.409363,387.099365 
	C359.254272,391.752411 361.808533,396.227417 364.305267,400.734344 
	C368.023956,407.446930 372.358032,408.057373 377.910858,402.609436 
	C383.568146,397.059021 389.225891,391.509064 395.275421,386.122314 
	C403.056152,386.524261 410.444885,386.762756 417.833618,387.001282 
z"/>
<path fill="#676BFF" opacity="1.000000" stroke="none" 
	d="
M356.092987,386.935577 
	C351.421509,386.957184 346.750031,386.978790 341.622620,387.000732 
	C341.111298,377.682953 340.957794,368.364075 341.035858,359.047119 
	C341.086151,353.049866 345.515869,349.023712 351.838287,349.012177 
	C370.149017,348.978851 388.459808,348.989258 406.770599,349.006378 
	C413.139709,349.012360 417.883545,353.613373 417.969452,360.106110 
	C418.084015,368.760437 417.984985,377.417572 417.905670,386.537384 
	C410.444885,386.762756 403.056152,386.524261 395.412415,385.812408 
	C397.035187,383.465454 399.000977,381.670929 400.770691,379.700317 
	C403.694153,376.445007 403.887756,371.829224 401.005188,369.617706 
	C397.639221,367.035217 394.623840,367.486023 391.586151,370.814667 
	C385.703491,377.260773 379.459503,383.377136 372.962830,390.043030 
	C370.812653,386.471954 369.520752,383.627472 367.592682,381.312897 
	C365.497681,378.797882 363.291718,375.577576 359.068817,377.985107 
	C355.366730,380.095703 354.244354,383.007538 356.092987,386.935577 
z"/>
<path fill="#299FFF" opacity="1.000000" stroke="none" 
	d="
M355.118439,172.960892 
	C350.771088,172.973648 346.423767,172.986420 341.621399,172.998749 
	C341.110657,164.013718 340.971436,155.028549 341.030579,146.044708 
	C341.065796,140.690704 345.841217,136.084595 351.687744,136.045013 
	C370.162811,135.919907 388.639557,135.937515 407.114960,136.033310 
	C413.034363,136.063995 417.878571,141.508255 417.970459,148.103897 
	C418.086365,156.424591 417.983856,164.748322 417.904510,173.534546 
	C410.500305,173.658051 403.167145,173.317749 395.495972,172.658569 
	C397.139709,170.345078 399.255951,168.464951 401.072906,166.330124 
	C404.097046,162.776855 403.682556,159.282547 400.124420,156.640228 
	C396.894897,154.241928 394.123596,155.379929 391.642944,157.893646 
	C385.520905,164.097290 379.439880,170.341354 372.793060,177.130188 
	C371.002777,174.149048 369.613403,172.181351 368.582214,170.041077 
	C366.833405,166.411301 364.306793,163.976669 360.115356,165.114334 
	C356.364899,166.132339 355.049744,169.234772 355.118439,172.960892 
z"/>
<path fill="#12B2FF" opacity="1.000000" stroke="none" 
	d="
M111.167252,84.996727 
	C112.792061,72.818817 119.533310,64.736351 130.968323,60.555016 
	C133.220963,59.731312 135.689255,59.081856 138.062241,59.068153 
	C158.178940,58.951965 178.296600,59.001770 198.976700,59.001770 
	C198.976700,67.547714 198.976700,75.808563 198.446503,84.533600 
	C168.999969,84.997421 140.083603,84.997070 111.167252,84.996727 
z"/>
<path fill="#5F71FF" opacity="1.000000" stroke="none" 
	d="
M85.956970,350.103821 
	C85.226540,350.074890 84.496109,350.045929 83.245438,349.701660 
	C75.125946,349.271515 67.526703,349.156738 59.927460,349.041931 
	C57.080246,346.321442 53.842701,343.890961 51.527615,340.775116 
	C50.065369,338.807098 49.980900,335.815369 49.954178,333.335083 
	C52.760956,333.591553 54.891880,333.972534 57.023071,333.974030 
	C105.293175,334.007996 153.563324,334.000427 201.833435,334.000671 
	C200.683304,336.708374 199.917221,339.681610 198.278625,342.051605 
	C196.522552,344.591522 193.945343,346.563751 190.993774,348.876770 
	C184.742844,348.658997 179.222549,348.125977 173.707733,348.177826 
	C172.130646,348.192627 170.569458,349.901520 169.000977,350.833588 
	C167.912262,350.561523 166.823563,350.289459 165.229828,349.701782 
	C163.050095,348.924438 161.376938,348.067261 159.700455,348.060699 
	C137.034561,347.971924 114.367859,347.950714 91.702492,348.092621 
	C89.783195,348.104614 87.871956,349.403046 85.956970,350.103821 
z"/>
<path fill="#5B74FF" opacity="1.000000" stroke="none" 
	d="
M201.802719,333.652832 
	C153.563324,334.000427 105.293175,334.007996 57.023071,333.974030 
	C54.891880,333.972534 52.760956,333.591553 50.292419,333.139282 
	C52.258453,329.471802 54.561981,326.052338 57.474125,322.315857 
	C69.836693,321.999054 81.591064,322.048798 93.344170,321.949432 
	C95.245461,321.933380 97.141167,321.254669 99.406265,320.939056 
	C109.248459,326.243378 118.946739,329.400452 130.230621,328.193970 
	C145.144501,326.599335 156.025421,319.141479 165.127777,308.238403 
	C166.945511,309.069611 168.600830,309.902710 170.271927,309.935577 
	C177.730530,310.082489 185.196640,309.884949 192.653152,310.078125 
	C194.679703,310.130646 196.682205,311.112488 198.695740,311.667786 
	C198.592865,311.798920 198.480682,311.923798 198.388504,312.062042 
	C192.971497,320.184998 196.396027,326.900513 201.802719,333.652832 
z"/>
<path fill="#557AFF" opacity="1.000000" stroke="none" 
	d="
M417.833221,293.000122 
	C417.888611,297.994324 418.071808,302.991211 417.967529,307.982086 
	C417.832367,314.451782 413.092529,318.989838 406.670166,318.994781 
	C388.177582,319.009094 369.684998,319.010925 351.192413,318.993378 
	C345.282227,318.987762 341.143616,314.948395 341.025787,308.920807 
	C340.915100,303.258759 341.015198,297.592651 341.552307,291.464661 
	C348.403046,290.630219 354.723969,290.259399 361.367554,290.036682 
	C362.757996,291.979401 363.858734,293.755371 364.887421,295.572113 
	C367.852539,300.808685 371.984741,301.443024 376.188965,297.321259 
	C378.413452,295.140442 380.701569,293.024567 383.232788,291.159973 
	C385.696594,291.960114 387.881104,292.888031 390.081757,292.928101 
	C399.329620,293.096649 408.582306,292.999786 417.833221,293.000122 
z"/>
<path fill="#4686FF" opacity="1.000000" stroke="none" 
	d="
M341.166473,266.000244 
	C341.110962,262.178711 341.367279,258.321655 340.936737,254.542862 
	C339.962097,245.988480 346.440277,242.211761 352.774048,242.103714 
	C370.232117,241.805847 387.700714,241.844559 405.160614,242.082291 
	C411.542053,242.169189 418.542603,246.405930 418.033600,255.599426 
	C417.822449,259.413361 417.984039,263.247955 417.449890,267.536285 
	C412.338104,267.999420 407.752594,267.999420 403.094757,267.621399 
	C401.116730,261.858063 397.041260,260.229004 392.524902,263.205811 
	C390.912537,264.268555 389.576813,265.751038 387.722992,266.878418 
	C385.207123,266.476746 383.084015,266.042664 380.958893,266.032501 
	C367.695007,265.969025 354.430664,266.000305 341.166473,266.000244 
z"/>
<path fill="#12B2FF" opacity="1.000000" stroke="none" 
	d="
M395.166809,80.998558 
	C395.166809,73.866432 395.166809,66.734306 395.166809,59.215424 
	C396.861938,59.140270 398.464966,59.008804 400.068146,59.007408 
	C417.221191,58.992466 434.378174,59.224415 451.526093,58.927471 
	C465.599518,58.683762 477.961243,66.955048 481.442078,80.623245 
	C452.333923,80.999023 423.750366,80.998795 395.166809,80.998558 
z"/>
<path fill="#4E80FF" opacity="1.000000" stroke="none" 
	d="
M265.166840,296.998871 
	C265.166840,294.200836 265.166840,291.402802 265.166840,287.999634 
	C257.190430,287.999634 249.606934,287.795593 242.041122,288.073425 
	C237.233841,288.250000 234.702271,285.458099 234.243576,281.637634 
	C233.826309,278.162231 235.423615,274.457184 239.906006,274.004791 
	C244.944458,273.496277 250.013290,273.249908 255.074921,273.024414 
	C258.193817,272.885498 261.323944,272.998688 265.022766,272.998688 
	C265.022766,270.411224 265.022766,268.152863 265.545929,265.446838 
	C270.657196,264.666077 275.245331,264.332947 279.833435,263.999817 
	C279.833435,266.801819 279.833435,269.603821 279.833435,272.998718 
	C290.837616,272.998718 301.423767,272.941162 312.008392,273.045013 
	C314.251617,273.067017 316.591187,273.375061 318.706024,274.087036 
	C322.155426,275.248260 324.097687,278.272491 323.585724,281.589630 
	C323.037689,285.140503 321.190063,288.167542 316.402893,288.075287 
	C304.460785,287.845001 292.511261,287.999390 279.975891,287.999390 
	C279.975891,290.580383 279.975891,292.841736 279.490723,295.560364 
	C274.392639,296.344696 269.779755,296.671783 265.166840,296.998871 
z"/>
<path fill="#517DFF" opacity="1.000000" stroke="none" 
	d="
M198.839737,311.338501 
	C196.682205,311.112488 194.679703,310.130646 192.653152,310.078125 
	C185.196640,309.884949 177.730530,310.082489 170.271927,309.935577 
	C168.600830,309.902710 166.945511,309.069611 165.267151,307.918884 
	C166.498306,305.016754 167.795486,302.827240 168.983047,300.579834 
	C173.067993,292.849335 173.221725,284.437653 173.625031,275.996338 
	C189.333221,275.996643 204.583206,275.996429 219.833191,275.996216 
	C219.888626,281.640686 220.185471,287.299652 219.848633,292.920624 
	C219.750809,294.553406 217.881683,296.109406 216.724686,297.624390 
	C216.494629,297.925598 215.810379,297.971985 215.333298,297.978851 
	C206.515671,298.106110 200.908005,302.241852 198.839737,311.338501 
z"/>
<path fill="#4686FF" opacity="1.000000" stroke="none" 
	d="
M219.904358,275.549622 
	C204.583206,275.996429 189.333221,275.996643 173.553680,275.586975 
	C171.622299,263.035248 165.515305,253.408737 156.944611,245.099304 
	C159.011612,244.399307 161.067612,243.134842 163.147461,243.094315 
	C173.733932,242.888062 184.326569,242.998611 195.375092,242.997772 
	C197.418625,246.708893 199.435486,250.302383 200.491257,254.158981 
	C202.189194,260.361328 205.964096,262.345337 212.193771,263.334320 
	C220.749680,264.692627 219.995819,263.854187 219.997253,273.106293 
	C219.997345,273.771881 219.983109,274.437469 219.904358,275.549622 
z"/>
<path fill="#646DFF" opacity="1.000000" stroke="none" 
	d="
M86.136864,350.425354 
	C87.871956,349.403046 89.783195,348.104614 91.702492,348.092621 
	C114.367859,347.950714 137.034561,347.971924 159.700455,348.060699 
	C161.376938,348.067261 163.050095,348.924438 164.882263,349.752045 
	C161.558533,351.744446 158.226440,354.065582 154.564804,354.851807 
	C147.110886,356.452209 143.320511,360.882874 143.147064,368.128265 
	C143.008560,373.915283 140.414917,375.422607 135.071960,375.094452 
	C128.596542,374.696777 122.051819,374.643097 115.586876,375.118195 
	C110.802185,375.469788 108.122757,373.016571 108.268860,369.192780 
	C108.652084,359.162720 102.052597,356.331329 94.420082,353.961548 
	C91.653023,353.102386 89.014130,351.830475 86.136864,350.425354 
z"/>
<path fill="#3595FF" opacity="1.000000" stroke="none" 
	d="
M164.613373,211.079346 
	C163.753021,211.762009 162.521317,212.905502 161.285477,212.909988 
	C137.032639,212.997818 112.779327,212.957352 88.526161,212.912674 
	C87.893524,212.911499 87.261505,212.569351 86.291214,212.138794 
	C90.482094,209.868179 94.857544,207.308136 99.579002,205.958984 
	C105.362396,204.306427 107.316429,200.562012 108.048096,195.158737 
	C109.253662,186.255814 109.723602,186.001968 118.849556,186.000259 
	C123.498253,185.999390 128.146957,185.996994 132.795654,186.000793 
	C141.010818,186.007477 141.739868,186.140579 142.928879,194.265930 
	C144.015335,201.690384 147.939957,205.407318 154.880432,207.123337 
	C158.122452,207.924942 161.127594,209.684509 164.613373,211.079346 
z"/>
<path fill="#7361FF" opacity="1.000000" stroke="none" 
	d="
M111.166420,427.997986 
	C111.166420,414.878387 111.166420,401.758789 111.166420,388.320587 
	C120.647995,388.320587 130.030441,388.320587 139.977997,388.320587 
	C139.977997,400.903259 139.977997,413.487030 139.447693,426.534668 
	C129.667068,427.331665 120.416740,427.664825 111.166420,427.997986 
z"/>
<path fill="#17AEFF" opacity="1.000000" stroke="none" 
	d="
M395.093445,81.445068 
	C423.750366,80.998795 452.333923,80.999023 481.375549,80.998901 
	C482.214539,89.022369 482.595398,97.046204 482.446655,105.534241 
	C472.666870,105.664871 463.416626,105.331299 454.166412,104.997726 
	C454.166412,99.530838 454.166412,94.063957 454.166412,88.136169 
	C434.324371,88.136169 414.931305,88.136169 395.020050,88.136169 
	C395.020050,85.753235 395.020050,83.822411 395.093445,81.445068 
z"/>
<path fill="#3099FF" opacity="1.000000" stroke="none" 
	d="
M265.166748,196.997910 
	C265.111023,189.682251 265.025146,182.366653 265.010254,175.050919 
	C265.000427,170.216934 267.948547,167.063812 272.845276,167.032288 
	C287.150665,166.940155 301.457214,166.962097 315.762970,167.020325 
	C320.484863,167.039536 323.899963,170.500473 323.895203,174.970718 
	C323.891113,178.806839 320.480164,181.943130 315.944519,181.975250 
	C305.298737,182.050659 294.652069,181.999664 284.005737,181.999817 
	C282.868408,181.999832 281.731049,181.999817 279.975311,181.999817 
	C279.975311,186.547195 279.975311,190.811447 279.497192,195.569366 
	C274.401611,196.374664 269.784180,196.686295 265.166748,196.997910 
z"/>
<path fill="#6C67FF" opacity="1.000000" stroke="none" 
	d="
M279.833832,365.997192 
	C279.833832,370.460602 279.833832,374.923981 279.833832,380.000061 
	C292.185486,380.000061 304.096588,380.105072 316.003723,379.934540 
	C319.469574,379.884918 321.684387,381.184357 322.957336,384.220062 
	C325.122772,389.384277 321.447418,394.859283 315.692993,394.934601 
	C301.225342,395.123932 286.752686,395.085358 272.283936,394.944885 
	C267.822174,394.901611 265.015533,391.514038 265.005859,386.882751 
	C264.991272,379.897278 265.015717,372.911713 265.544189,365.462433 
	C270.654510,365.331482 275.244171,365.664337 279.833832,365.997192 
z"/>
<path fill="#17AEFF" opacity="1.000000" stroke="none" 
	d="
M111.093933,85.460587 
	C140.083603,84.997070 168.999969,84.997421 198.374313,84.997101 
	C199.782684,88.841377 196.966690,87.981522 194.998489,87.984787 
	C178.174179,88.012680 161.349808,88.000854 144.525452,88.000908 
	C143.215225,88.000908 141.904984,88.000900 139.974655,88.000900 
	C139.974655,96.539200 139.974655,104.802605 139.445526,113.530754 
	C129.666763,113.994713 120.417122,113.993935 111.167473,113.993156 
	C111.118523,104.636917 111.069565,95.280685 111.093933,85.460587 
z"/>
<path fill="#7C59FF" opacity="1.000000" stroke="none" 
	d="
M482.905945,457.537842 
	C473.583160,458.001312 464.332855,458.000977 454.624542,458.001099 
	C454.118927,446.977356 454.071320,435.953094 454.553223,424.464722 
	C464.332855,424.000824 473.583038,424.001068 482.833191,424.001312 
	C482.881622,435.025543 482.930054,446.049805 482.905945,457.537842 
z"/>
<path fill="#517DFF" opacity="1.000000" stroke="none" 
	d="
M50.166927,304.998077 
	C48.491886,298.396790 42.393906,298.931915 37.838749,298.273743 
	C32.222782,297.462341 30.607836,294.850769 30.977571,289.825775 
	C31.121967,287.863342 31.015331,285.882385 31.552841,283.455383 
	C47.332928,283.334198 62.583199,283.667542 77.906197,284.408081 
	C80.025276,291.530487 82.071640,298.245667 83.642014,304.969360 
	C72.166328,304.984589 61.166630,304.991333 50.166927,304.998077 
z"/>
<path fill="#4E80FF" opacity="1.000000" stroke="none" 
	d="
M77.833473,284.000885 
	C62.583199,283.667542 47.332928,283.334198 31.624617,283.001099 
	C31.111109,278.723633 31.092957,274.445068 30.988720,270.168579 
	C30.900452,266.547150 32.362259,264.442444 36.162544,263.953522 
	C39.814690,263.483643 43.421398,262.660645 47.860252,262.138367 
	C50.448322,262.522827 52.222458,262.952209 54.000408,262.968597 
	C63.038170,263.052032 72.076920,263.028473 81.065018,263.443695 
	C79.954292,270.563629 78.893883,277.282257 77.833473,284.000885 
z"/>
<path fill="#7C59FF" opacity="1.000000" stroke="none" 
	d="
M111.094978,428.462067 
	C120.416740,427.664825 129.667068,427.331665 139.375427,426.998291 
	C139.881882,437.689423 139.930298,448.380829 139.906219,459.535797 
	C130.583237,459.999298 121.332764,459.999207 111.624222,459.999146 
	C111.118614,449.641510 111.071075,439.283813 111.094978,428.462067 
z"/>
<path fill="#5778FF" opacity="1.000000" stroke="none" 
	d="
M482.833313,295.999908 
	C482.881134,306.356873 482.928955,316.713806 482.483185,327.536926 
	C472.715179,328.334747 463.440796,328.666412 454.166382,328.998047 
	C454.118561,318.307831 454.070740,307.617645 454.552979,296.463715 
	C464.333130,295.999969 473.583221,295.999939 482.833313,295.999908 
z"/>
<path fill="#4E80FF" opacity="1.000000" stroke="none" 
	d="
M482.904846,295.536072 
	C473.583221,295.999939 464.333130,295.999969 454.625031,295.999939 
	C454.118805,285.642334 454.070557,275.284790 454.552551,264.463623 
	C464.332825,263.999908 473.582916,263.999786 482.832977,263.999695 
	C482.880768,274.357208 482.928558,284.714691 482.904846,295.536072 
z"/>
<path fill="#6C67FF" opacity="1.000000" stroke="none" 
	d="
M454.166748,392.002502 
	C454.119049,381.645172 454.071320,371.287811 454.553131,360.466339 
	C464.332886,360.002563 473.583130,360.002899 482.833374,360.003265 
	C482.881439,370.360352 482.929504,380.717468 482.447510,391.538086 
	C472.667236,392.001923 463.416992,392.002228 454.166748,392.002502 
z"/>
<path fill="#4488FF" opacity="1.000000" stroke="none" 
	d="
M482.904510,263.535858 
	C473.582916,263.999786 464.332825,263.999908 454.624725,263.999878 
	C454.118500,253.642090 454.070282,243.284439 454.552551,232.463287 
	C464.333160,231.999603 473.583313,231.999466 482.833466,231.999329 
	C482.881012,242.356888 482.928528,252.714462 482.904510,263.535858 
z"/>
<path fill="#7361FF" opacity="1.000000" stroke="none" 
	d="
M454.095123,392.466064 
	C463.416992,392.002228 472.667236,392.001923 482.375519,392.001984 
	C482.881592,402.359436 482.929626,412.716522 482.905457,423.537476 
	C473.583038,424.001068 464.332855,424.000824 454.624634,424.000946 
	C454.118896,413.644104 454.071198,403.286865 454.095123,392.466064 
z"/>
<path fill="#23A4FF" opacity="1.000000" stroke="none" 
	d="
M111.093567,114.457245 
	C120.417122,113.993935 129.666763,113.994713 139.374405,113.994171 
	C139.880310,124.351494 139.928223,134.710144 139.446365,145.533081 
	C129.666809,145.996857 120.417023,145.996368 111.167236,145.995880 
	C111.118050,135.637695 111.068855,125.279518 111.093567,114.457245 
z"/>
<path fill="#3B8FFF" opacity="1.000000" stroke="none" 
	d="
M482.904816,231.535492 
	C473.583313,231.999466 464.333160,231.999603 454.625000,231.999542 
	C454.118439,221.640717 454.069885,211.282074 454.552277,200.460236 
	C464.333038,199.996613 473.582825,199.996185 482.832642,199.995773 
	C482.880463,210.354401 482.928314,220.713043 482.904816,231.535492 
z"/>
<path fill="#299FFF" opacity="1.000000" stroke="none" 
	d="
M454.167175,167.996414 
	C454.118073,157.639709 454.068970,147.282990 454.551208,136.462891 
	C464.332855,136.332474 473.583160,136.665451 482.833466,136.998428 
	C482.881012,147.355270 482.928558,157.712097 482.506775,168.444122 
	C472.747406,168.545013 463.457275,168.270706 454.167175,167.996414 
z"/>
<path fill="#3099FF" opacity="1.000000" stroke="none" 
	d="
M454.094238,168.460358 
	C463.457275,168.270706 472.747406,168.545013 482.435242,168.907684 
	C482.880341,179.020325 482.927704,189.044586 482.903839,199.532303 
	C473.582825,199.996185 464.333038,199.996613 454.625214,199.996338 
	C454.118591,189.638535 454.069946,179.281433 454.094238,168.460358 
z"/>
<path fill="#5F71FF" opacity="1.000000" stroke="none" 
	d="
M482.905212,359.539185 
	C473.583130,360.002899 464.332886,360.002563 454.624603,360.002716 
	C454.118622,349.977509 454.070648,339.951782 454.094543,329.462036 
	C463.440796,328.666412 472.715179,328.334747 482.411499,328.000610 
	C482.881287,338.357086 482.929169,348.716095 482.905212,359.539185 
z"/>
<path fill="#4686FF" opacity="1.000000" stroke="none" 
	d="
M81.115326,263.042358 
	C72.076920,263.028473 63.038170,263.052032 54.000408,262.968597 
	C52.222458,262.952209 50.448322,262.522827 48.281487,262.118225 
	C50.833302,254.553955 53.776058,247.155411 56.801659,239.399109 
	C69.436623,239.027893 81.989021,238.970764 94.540520,239.052505 
	C96.240036,239.063568 97.935020,239.771423 99.494843,240.648529 
	C91.151031,246.670471 85.763817,254.548767 81.115326,263.042358 
z"/>
<path fill="#1FA7FF" opacity="1.000000" stroke="none" 
	d="
M482.904755,136.534653 
	C473.583160,136.665451 464.332855,136.332474 454.624512,135.999237 
	C454.117462,125.974373 454.068451,115.949760 454.092926,105.461441 
	C463.416626,105.331299 472.666870,105.664871 482.375122,105.997818 
	C482.880798,116.021751 482.928406,126.046310 482.904755,136.534653 
z"/>
<path fill="#07BBFF" opacity="1.000000" stroke="none" 
	d="
M287.117188,47.960381 
	C279.772400,47.973286 272.427612,47.986191 264.624817,47.998734 
	C263.520996,41.489166 263.999939,35.164711 267.956482,29.288321 
	C270.799347,29.521898 272.924530,29.961309 275.051056,29.968231 
	C292.311493,30.024416 309.572205,29.999561 326.832825,29.999397 
	C327.881226,34.378773 328.929657,38.758144 329.906250,43.569061 
	C322.543213,43.726860 315.251984,43.453117 307.396973,42.759514 
	C304.086670,34.343613 296.524628,32.585636 290.959045,36.560368 
	C286.954285,39.420429 286.553009,43.538128 287.117188,47.960381 
z"/>
<path fill="#03BEFF" opacity="1.000000" stroke="none" 
	d="
M326.807281,29.652935 
	C309.572205,29.999561 292.311493,30.024416 275.051056,29.968231 
	C272.924530,29.961309 270.799347,29.521898 268.282715,29.117340 
	C273.266663,18.290068 282.075317,12.922893 293.836914,11.984688 
	C304.317902,11.148636 313.619476,13.672880 320.954712,21.539818 
	C323.149292,23.893505 324.853088,26.704823 326.807281,29.652935 
z"/>
<path fill="#299FFF" opacity="1.000000" stroke="none" 
	d="
M111.094193,146.459869 
	C120.417023,145.996368 129.666809,145.996857 139.374588,145.996597 
	C139.832581,154.786728 139.832581,163.577621 139.832581,172.682404 
	C130.351868,172.682404 120.969971,172.682404 111.021141,172.682404 
	C111.021141,164.102066 111.021141,155.512970 111.094193,146.459869 
z"/>
<path fill="#4E80FF" opacity="1.000000" stroke="none" 
	d="
M341.094360,266.463928 
	C354.430664,266.000305 367.695007,265.969025 380.958893,266.032501 
	C383.084015,266.042664 385.207123,266.476746 387.587036,267.187561 
	C382.825562,272.840851 377.808167,278.021423 372.617645,283.380798 
	C370.491699,279.909241 368.798828,277.171478 367.132721,274.417480 
	C365.032654,270.946167 362.044586,269.807922 358.587250,271.969330 
	C355.477570,273.913361 354.069397,276.776550 356.150146,280.502228 
	C357.869965,283.581696 359.419769,286.756165 361.044922,289.888550 
	C354.723969,290.259399 348.403046,290.630219 341.624329,291.001099 
	C341.118469,282.976624 341.070374,274.952148 341.094360,266.463928 
z"/>
<path fill="#5778FF" opacity="1.000000" stroke="none" 
	d="
M50.101021,305.372772 
	C61.166630,304.991333 72.166328,304.984589 83.956406,305.107513 
	C89.511002,310.452209 94.275230,315.667236 99.039459,320.882263 
	C97.141167,321.254669 95.245461,321.933380 93.344170,321.949432 
	C81.591064,322.048798 69.836693,321.999054 57.624706,321.998444 
	C54.789482,316.581177 52.412300,311.164337 50.101021,305.372772 
z"/>
<path fill="#4E80FF" opacity="1.000000" stroke="none" 
	d="
M403.167053,267.999420 
	C407.752594,267.999420 412.338104,267.999420 417.378235,267.999146 
	C417.880707,276.023376 417.928558,284.047882 417.904816,292.536255 
	C408.582306,292.999786 399.329620,293.096649 390.081757,292.928101 
	C387.881104,292.888031 385.696594,291.960114 383.362244,290.855225 
	C388.979340,284.517853 394.809906,278.833923 400.443878,272.961365 
	C401.705200,271.646637 402.277527,269.670868 403.167053,267.999420 
z"/>
<path fill="#3B8FFF" opacity="1.000000" stroke="none" 
	d="
M265.093903,197.461700 
	C269.784180,196.686295 274.401611,196.374664 279.426056,196.030441 
	C279.880829,207.688889 279.928558,219.379944 279.450134,231.535034 
	C274.338257,231.998840 269.752594,231.998611 265.166901,231.998367 
	C265.118286,220.640732 265.069672,209.283112 265.093903,197.461700 
z"/>
<path fill="#5F71FF" opacity="1.000000" stroke="none" 
	d="
M279.905670,365.533691 
	C275.244171,365.664337 270.654510,365.331482 265.615723,364.998505 
	C265.118622,353.640778 265.070679,342.283234 265.549316,330.462067 
	C270.661896,329.998230 275.247864,329.998016 279.833832,329.997803 
	C279.881744,341.688599 279.929626,353.379425 279.905670,365.533691 
z"/>
<path fill="#5778FF" opacity="1.000000" stroke="none" 
	d="
M279.905518,329.534180 
	C275.247864,329.998016 270.661896,329.998230 265.621216,329.998169 
	C265.118622,319.307434 265.070709,308.617004 265.094788,297.462738 
	C269.779755,296.671783 274.392639,296.344696 279.419312,296.008270 
	C279.881104,307.022827 279.929169,318.046692 279.905518,329.534180 
z"/>
<path fill="#4488FF" opacity="1.000000" stroke="none" 
	d="
M265.094421,232.462189 
	C269.752594,231.998611 274.338257,231.998840 279.378601,231.998749 
	C279.880981,242.356308 279.928650,252.714203 279.904907,263.535950 
	C275.245331,264.332947 270.657196,264.666077 265.618011,264.998901 
	C265.118591,254.307724 265.070251,243.616867 265.094421,232.462189 
z"/>
<path fill="#646DFF" opacity="1.000000" stroke="none" 
	d="
M60.059692,349.351288 
	C67.526703,349.156738 75.125946,349.271515 82.882782,349.752136 
	C82.331573,350.751465 81.687729,351.482605 80.904205,352.003754 
	C69.733696,359.433807 70.800842,360.570953 60.059692,349.351288 
z"/>
<path fill="#646DFF" opacity="1.000000" stroke="none" 
	d="
M169.318634,350.985199 
	C170.569458,349.901520 172.130646,348.192627 173.707733,348.177826 
	C179.222549,348.125977 184.742844,348.658997 190.688354,349.006317 
	C190.948502,349.317841 190.828629,349.640228 190.607407,349.861053 
	C179.719696,360.728912 182.311752,359.998016 169.318634,350.985199 
z"/>
<path fill="#3595FF" opacity="1.000000" stroke="none" 
	d="
M82.907036,211.574646 
	C80.667839,212.257660 78.304489,212.781326 75.914841,212.967636 
	C70.534920,213.387131 65.141975,213.639481 59.320648,213.958450 
	C59.516628,213.217148 60.104549,212.436432 60.782177,211.743439 
	C71.178131,201.111679 69.860893,201.770447 82.907036,211.574646 
z"/>
<path fill="#000000" opacity="1.000000" stroke="none" 
	d="
M287.428009,48.112289 
	C286.553009,43.538128 286.954285,39.420429 290.959045,36.560368 
	C296.524628,32.585636 304.086670,34.343613 306.999207,42.669525 
	C306.477448,45.452976 306.406738,48.362907 304.990540,50.277752 
	C299.996582,57.030075 292.396423,56.004364 287.428009,48.112289 
z"/>
<path fill="#000000" opacity="1.000000" stroke="none" 
	d="
M99.406265,320.939056 
	C94.275230,315.667236 89.511002,310.452209 84.432388,305.098999 
	C82.071640,298.245667 80.025276,291.530487 77.906197,284.408081 
	C78.893883,277.282257 79.954292,270.563629 81.065018,263.443665 
	C85.763817,254.548767 91.151031,246.670471 99.668320,240.988922 
	C119.020088,228.950485 140.707199,231.335785 156.631165,244.960541 
	C165.515305,253.408737 171.622299,263.035248 173.095490,275.586456 
	C173.221725,284.437653 173.067993,292.849335 168.983047,300.579834 
	C167.795486,302.827240 166.498306,305.016754 165.112015,307.552307 
	C156.025421,319.141479 145.144501,326.599335 130.230621,328.193970 
	C118.946739,329.400452 109.248459,326.243378 99.406265,320.939056 
z"/>
<path fill="#000000" opacity="1.000000" stroke="none" 
	d="
M355.430115,173.118668 
	C355.049744,169.234772 356.364899,166.132339 360.115356,165.114334 
	C364.306793,163.976669 366.833405,166.411301 368.582214,170.041077 
	C369.613403,172.181351 371.002777,174.149048 372.793060,177.130188 
	C379.439880,170.341354 385.520905,164.097290 391.642944,157.893646 
	C394.123596,155.379929 396.894897,154.241928 400.124420,156.640228 
	C403.682556,159.282547 404.097046,162.776855 401.072906,166.330124 
	C399.255951,168.464951 397.139709,170.345078 395.020355,172.649292 
	C388.980286,178.748566 383.069214,184.529495 377.177887,190.330475 
	C371.803131,195.622772 368.377838,195.334427 364.484192,188.894257 
	C361.399200,183.791595 358.643616,178.489807 355.430115,173.118668 
z"/>
<path fill="#000000" opacity="1.000000" stroke="none" 
	d="
M356.409363,387.099365 
	C354.244354,383.007538 355.366730,380.095703 359.068817,377.985107 
	C363.291718,375.577576 365.497681,378.797882 367.592682,381.312897 
	C369.520752,383.627472 370.812653,386.471954 372.962830,390.043030 
	C379.459503,383.377136 385.703491,377.260773 391.586151,370.814667 
	C394.623840,367.486023 397.639221,367.035217 401.005188,369.617706 
	C403.887756,371.829224 403.694153,376.445007 400.770691,379.700317 
	C399.000977,381.670929 397.035187,383.465454 395.020447,385.648987 
	C389.225891,391.509064 383.568146,397.059021 377.910858,402.609436 
	C372.358032,408.057373 368.023956,407.446930 364.305267,400.734344 
	C361.808533,396.227417 359.254272,391.752411 356.409363,387.099365 
z"/>
<path fill="#000000" opacity="1.000000" stroke="none" 
	d="
M403.094788,267.621399 
	C402.277527,269.670868 401.705200,271.646637 400.443878,272.961365 
	C394.809906,278.833923 388.979340,284.517853 383.090363,290.574615 
	C380.701569,293.024567 378.413452,295.140442 376.188965,297.321259 
	C371.984741,301.443024 367.852539,300.808685 364.887421,295.572113 
	C363.858734,293.755371 362.757996,291.979401 361.367554,290.036682 
	C359.419769,286.756165 357.869965,283.581696 356.150146,280.502228 
	C354.069397,276.776550 355.477570,273.913361 358.587250,271.969330 
	C362.044586,269.807922 365.032654,270.946167 367.132721,274.417480 
	C368.798828,277.171478 370.491699,279.909241 372.617645,283.380798 
	C377.808167,278.021423 382.825562,272.840851 387.978882,267.351105 
	C389.576813,265.751038 390.912537,264.268555 392.524902,263.205811 
	C397.041260,260.229004 401.116730,261.858063 403.094788,267.621399 
z"/>
</svg>