<svg version="1.1" id="Layer_1" xmlns="http://www.w3.org/2000/svg" xmlns:xlink="http://www.w3.org/1999/xlink" x="0px" y="0px"
	 width="100%" viewBox="0 0 512 444" enable-background="new 0 0 512 444" xml:space="preserve">
<path fill="#000000" opacity="1.000000" stroke="none" 
	d="
M348.000000,445.000000 
	C232.000000,445.000000 116.500000,445.000000 1.000000,445.000000 
	C1.000000,297.000000 1.000000,149.000000 1.000000,1.000000 
	C171.666672,1.000000 342.333344,1.000000 513.000000,1.000000 
	C513.000000,149.000000 513.000000,297.000000 513.000000,445.000000 
	C458.166656,445.000000 403.333344,445.000000 348.000000,445.000000 
M176.174301,203.390686 
	C176.450317,203.648209 176.726334,203.905731 177.220764,204.643036 
	C177.934814,204.954010 178.648849,205.264969 179.772949,206.232727 
	C186.829071,210.307556 193.769226,214.601974 200.968918,218.404968 
	C211.373825,223.900986 222.902344,225.972885 234.367874,226.812912 
	C254.952850,228.321075 274.563965,223.974731 292.806000,214.039398 
	C307.041534,206.286148 318.442627,195.493774 327.018890,181.785446 
	C333.066101,172.119598 338.203705,162.072998 338.081940,150.195389 
	C337.950104,137.332886 339.596771,124.169914 337.391296,111.681305 
	C334.542389,95.549553 328.674316,79.947311 324.008209,64.146034 
	C323.556885,62.617661 322.414764,61.293289 321.405579,59.549957 
	C317.618286,65.520630 314.304535,70.744728 310.879456,76.144348 
	C298.725677,65.028427 285.270203,58.389492 270.438477,54.127750 
	C249.913284,48.230049 229.412933,48.849167 209.330765,55.213306 
	C193.769836,60.144630 180.181732,68.640251 168.582840,80.653618 
	C154.469635,95.271103 146.544159,112.440948 145.186646,132.349106 
	C144.034973,149.238708 146.831955,165.685623 156.147827,180.365845 
	C161.588303,188.939102 167.188553,197.435196 176.236099,202.804779 
	C176.236099,202.804779 176.210159,202.818069 176.174301,203.390686 
M468.933136,384.140106 
	C469.961365,380.036957 471.828094,375.944153 471.878815,371.828949 
	C472.162140,348.846313 471.825317,325.855988 472.107574,302.873322 
	C472.195160,295.741730 465.621765,292.107452 459.653534,293.361725 
	C453.426117,294.670471 450.665192,299.158234 450.736816,304.690125 
	C446.293304,301.518982 442.312256,297.225555 437.416473,295.439575 
	C417.946136,288.336639 396.868225,295.182953 387.905365,314.757385 
	C380.037415,331.940521 380.766510,349.201752 391.153137,365.795471 
	C402.405579,383.772339 429.446808,386.948578 444.214752,375.929443 
	C446.059814,374.552765 447.725708,372.936005 449.877380,371.083771 
	C448.796021,383.750854 438.801971,388.223663 429.311981,388.939941 
	C418.962646,389.721069 409.040192,388.146484 399.731018,383.015350 
	C394.470276,380.115692 389.751373,382.161804 387.142487,387.621094 
	C384.784454,392.555511 386.380646,395.995972 392.055634,399.039124 
	C404.324646,405.618225 417.581207,407.883179 431.182404,406.800842 
	C439.541840,406.135681 448.035461,404.823975 455.488434,399.922211 
	C461.359711,396.060760 465.254852,390.754578 468.933136,384.140106 
M201.925522,314.861267 
	C194.762680,303.373657 185.737656,294.843781 171.283096,293.513092 
	C162.766373,292.729065 154.714767,293.006134 147.523972,298.048828 
	C144.316620,300.298065 141.463882,303.052948 138.318039,305.689056 
	C137.593918,297.979340 133.257507,292.776306 128.059494,293.097992 
	C119.522858,293.626282 117.186142,296.307343 117.003593,305.795471 
	C116.984367,306.794708 117.000198,307.794647 117.000191,308.794250 
	C117.000145,335.783722 116.967239,362.773254 117.043068,389.762512 
	C117.052231,393.025360 117.508202,396.308136 118.005539,399.543518 
	C118.786880,404.626465 123.610413,408.486206 128.279831,407.981628 
	C133.656555,407.400635 137.988983,402.770111 137.996552,397.553925 
	C138.009491,388.640747 138.000122,379.727570 138.000122,370.885376 
	C138.709625,370.806427 138.912888,370.718811 139.000351,370.784790 
	C139.528992,371.183289 140.078049,371.571686 140.535202,372.045532 
	C149.468979,381.305817 160.313370,384.168640 172.827133,382.027893 
	C182.770889,380.326752 191.062500,376.006744 197.060837,367.749603 
	C208.964798,351.362915 208.036392,333.734711 201.925522,314.861267 
M354.137085,322.558044 
	C356.864136,328.278900 356.172272,334.313171 356.128815,340.389221 
	C356.053253,350.943085 356.681732,361.499939 356.819611,372.058075 
	C356.909576,378.947357 359.510132,381.923828 366.064392,381.999634 
	C374.214447,382.093903 376.989899,379.653076 376.996094,372.312256 
	C377.009491,356.496552 376.732452,340.675049 377.075226,324.866760 
	C377.419617,308.985229 365.901276,292.142914 346.315765,293.573914 
	C336.170410,294.315216 327.752167,296.483154 320.693726,304.058685 
	C320.405884,303.397308 320.128876,303.009369 320.071320,302.591248 
	C319.216522,296.377197 315.059265,292.561401 309.139404,293.239258 
	C302.259857,294.027069 299.171692,297.491211 299.101318,303.793152 
	C298.846619,326.598175 298.812225,349.410034 299.087799,372.214569 
	C299.205139,381.922333 307.892273,384.125824 315.571533,380.773438 
	C320.258636,378.727356 321.215210,374.188477 320.696198,368.146057 
	C320.108063,361.299316 320.336731,354.381226 320.240417,347.493774 
	C320.169006,342.386139 320.352661,337.265259 320.042419,332.173431 
	C319.735596,327.137604 324.437500,318.235352 328.815460,315.539093 
	C337.695740,310.069946 348.252441,311.733673 354.137085,322.558044 
M52.396812,376.091492 
	C58.095810,377.973358 63.696136,380.991241 69.514694,381.496643 
	C81.032463,382.497040 92.587692,383.464783 102.925011,375.187836 
	C113.579758,366.656708 113.038864,346.468048 105.501579,339.811279 
	C99.131691,334.185516 91.496750,331.774780 83.855026,329.006531 
	C78.942749,327.227081 74.057289,325.294312 69.367050,323.005524 
	C65.399803,321.069580 65.206871,317.068451 67.750702,313.633209 
	C71.662895,308.350098 81.894577,309.267792 89.355934,312.814789 
	C92.572258,314.343781 95.962791,316.250671 99.357063,316.431671 
	C102.207222,316.583679 105.628807,315.057404 107.975220,313.222656 
	C110.626839,311.149292 110.253700,307.925934 108.983192,304.620270 
	C107.193954,299.964966 102.906952,299.253418 99.288605,297.792603 
	C85.163589,292.089935 71.039673,290.772949 57.208054,298.946350 
	C47.844891,304.479218 42.996044,321.860413 48.596901,330.975189 
	C53.252296,338.551300 60.984295,341.966949 68.908737,344.866211 
	C74.862114,347.044312 81.094536,348.551941 86.841476,351.155487 
	C89.059052,352.160095 91.694534,355.451630 91.568855,357.547058 
	C91.434059,359.794464 88.604538,363.166107 86.366478,363.730927 
	C81.859764,364.868286 76.743675,365.396912 72.269875,364.408112 
	C66.499382,363.132751 61.095631,360.163330 55.564404,357.850586 
	C50.683033,355.809601 44.247524,357.434357 42.352802,361.277466 
	C40.289532,365.462433 43.204582,371.650604 48.287487,373.989990 
	C49.458984,374.529175 50.540852,375.263123 52.396812,376.091492 
M239.019547,298.470581 
	C237.113373,299.979340 235.207214,301.488098 233.341751,302.964661 
	C232.338745,296.191162 228.557693,292.946564 221.824875,293.181274 
	C216.769165,293.357544 212.042847,297.940277 212.029083,303.042542 
	C211.966248,326.349457 211.955887,349.656769 212.033188,372.963593 
	C212.052536,378.795929 216.319214,382.103027 223.160324,381.999420 
	C229.845520,381.898163 232.965256,379.096008 232.989044,373.018860 
	C233.029449,362.697296 232.583755,352.353180 233.134659,342.060913 
	C233.566635,333.989899 236.480499,326.788300 242.527451,320.715363 
	C247.066589,316.156799 252.808411,315.176300 258.222504,313.059082 
	C263.055145,311.169281 264.559418,307.420441 263.917908,302.795807 
	C263.353943,298.729767 262.385132,294.289520 257.193298,293.788696 
	C250.928528,293.184387 244.648819,293.274353 239.019547,298.470581 
M286.428986,294.858185 
	C275.328003,291.492157 270.000397,295.291290 270.000488,306.572693 
	C270.000671,328.389771 270.042267,350.207001 269.963959,372.023804 
	C269.948914,376.211212 271.394196,380.108124 275.117218,381.200745 
	C278.605286,382.224426 282.906342,381.734985 286.486176,380.679138 
	C288.386536,380.118622 290.591888,377.047119 290.799469,374.927002 
	C291.558807,367.171661 291.753510,359.339996 291.760132,351.536743 
	C291.771301,338.430817 291.633514,325.319855 291.237427,312.220703 
	C291.058929,306.316528 292.752136,299.797363 286.428986,294.858185 
M274.163940,279.662476 
	C277.209869,280.098083 280.341614,281.195709 283.281677,280.814606 
	C287.726257,280.238464 290.308777,277.162567 291.062225,272.541992 
	C291.854340,267.684570 290.399628,263.940765 286.081512,261.612396 
	C282.155548,259.495483 278.408997,258.812347 274.278809,262.053375 
	C268.613647,266.498901 268.276550,273.870667 274.163940,279.662476 
z"/>
<path fill="#6EB440" opacity="1.000000" stroke="none" 
	d="
M176.256500,202.784973 
	C167.188553,197.435196 161.588303,188.939102 156.147827,180.365845 
	C146.831955,165.685623 144.034973,149.238708 145.186646,132.349106 
	C146.544159,112.440948 154.469635,95.271103 168.582840,80.653618 
	C180.181732,68.640251 193.769836,60.144630 209.330765,55.213306 
	C229.412933,48.849167 249.913284,48.230049 270.438477,54.127750 
	C285.270203,58.389492 298.725677,65.028427 310.879456,76.144348 
	C314.304535,70.744728 317.618286,65.520630 321.405579,59.549957 
	C322.414764,61.293289 323.556885,62.617661 324.008209,64.146034 
	C328.674316,79.947311 334.542389,95.549553 337.391296,111.681305 
	C339.596771,124.169914 337.950104,137.332886 338.081940,150.195389 
	C338.203705,162.072998 333.066101,172.119598 327.018890,181.785446 
	C318.442627,195.493774 307.041534,206.286148 292.806000,214.039398 
	C274.563965,223.974731 254.952850,228.321075 234.367874,226.812912 
	C222.902344,225.972885 211.373825,223.900986 200.968918,218.404968 
	C193.769226,214.601974 186.829071,210.307556 180.076599,205.948242 
	C181.532410,205.814423 182.685715,206.101715 183.836472,206.091797 
	C188.522659,206.051422 192.073532,202.724075 192.023941,198.521774 
	C191.967438,193.732635 188.615204,190.785690 183.425858,190.963165 
	C177.420471,191.168533 174.951859,195.239120 176.256500,202.784973 
M292.536987,153.019012 
	C291.501129,154.102676 290.461517,155.182831 289.429932,156.270569 
	C276.385101,170.025284 261.274475,180.574554 242.972183,186.145081 
	C231.771378,189.554153 220.555740,192.914459 209.346756,196.296677 
	C211.273102,197.616776 213.132965,197.956833 214.983810,197.913437 
	C219.269211,197.812958 223.548035,197.437225 227.833435,197.331512 
	C246.949127,196.859924 266.117767,197.122467 285.157471,195.675293 
	C292.814117,195.093307 300.694336,191.741013 307.593170,188.019119 
	C325.181488,178.530365 332.024017,162.074951 334.215942,143.156647 
	C336.113495,126.779167 332.599487,110.986305 328.602722,95.322037 
	C326.507599,87.110641 323.576874,79.112442 320.745178,70.135597 
	C309.015533,88.390236 293.022400,98.694954 274.215729,105.514252 
	C261.389191,110.165161 248.070923,110.097061 234.820297,110.973129 
	C217.755127,112.101379 201.515564,115.251816 188.250900,127.340965 
	C174.535156,139.841248 170.643585,159.199539 178.901505,175.585068 
	C182.319626,182.367386 188.999908,187.162338 194.455688,186.004166 
	C209.249329,182.863724 224.088806,179.832870 238.699814,175.964264 
	C259.019745,170.584106 276.731812,160.194901 291.670135,145.411636 
	C297.511108,139.631287 302.589142,133.080002 308.746155,126.043884 
	C305.412964,136.702194 299.392883,144.693741 292.536987,153.019012 
z"/>
<path fill="#6DB33F" opacity="1.000000" stroke="none" 
	d="
M468.775299,384.495300 
	C465.254852,390.754578 461.359711,396.060760 455.488434,399.922211 
	C448.035461,404.823975 439.541840,406.135681 431.182404,406.800842 
	C417.581207,407.883179 404.324646,405.618225 392.055634,399.039124 
	C386.380646,395.995972 384.784454,392.555511 387.142487,387.621094 
	C389.751373,382.161804 394.470276,380.115692 399.731018,383.015350 
	C409.040192,388.146484 418.962646,389.721069 429.311981,388.939941 
	C438.801971,388.223663 448.796021,383.750854 449.877380,371.083771 
	C447.725708,372.936005 446.059814,374.552765 444.214752,375.929443 
	C429.446808,386.948578 402.405579,383.772339 391.153137,365.795471 
	C380.766510,349.201752 380.037415,331.940521 387.905365,314.757385 
	C396.868225,295.182953 417.946136,288.336639 437.416473,295.439575 
	C442.312256,297.225555 446.293304,301.518982 450.736816,304.690125 
	C450.665192,299.158234 453.426117,294.670471 459.653534,293.361725 
	C465.621765,292.107452 472.195160,295.741730 472.107574,302.873322 
	C471.825317,325.855988 472.162140,348.846313 471.878815,371.828949 
	C471.828094,375.944153 469.961365,380.036957 468.775299,384.495300 
M447.174286,352.511139 
	C448.069977,351.410950 449.622772,350.381439 449.749939,349.198639 
	C450.370300,343.429291 451.490051,337.514740 450.818359,331.842804 
	C448.835510,315.098846 430.406189,306.894379 418.852051,313.015472 
	C406.981018,319.304535 401.100861,334.168030 405.689758,346.484467 
	C410.235535,358.685272 417.047394,364.150055 429.803314,363.999054 
	C437.703796,363.905548 442.365265,358.631836 447.174286,352.511139 
z"/>
<path fill="#6DB33F" opacity="1.000000" stroke="none" 
	d="
M201.968231,315.247223 
	C208.036392,333.734711 208.964798,351.362915 197.060837,367.749603 
	C191.062500,376.006744 182.770889,380.326752 172.827133,382.027893 
	C160.313370,384.168640 149.468979,381.305817 140.535202,372.045532 
	C140.078049,371.571686 139.528992,371.183289 139.000351,370.784790 
	C138.912888,370.718811 138.709625,370.806427 138.000122,370.885376 
	C138.000122,379.727570 138.009491,388.640747 137.996552,397.553925 
	C137.988983,402.770111 133.656555,407.400635 128.279831,407.981628 
	C123.610413,408.486206 118.786880,404.626465 118.005539,399.543518 
	C117.508202,396.308136 117.052231,393.025360 117.043068,389.762512 
	C116.967239,362.773254 117.000145,335.783722 117.000191,308.794250 
	C117.000198,307.794647 116.984367,306.794708 117.003593,305.795471 
	C117.186142,296.307343 119.522858,293.626282 128.059494,293.097992 
	C133.257507,292.776306 137.593918,297.979340 138.318039,305.689056 
	C141.463882,303.052948 144.316620,300.298065 147.523972,298.048828 
	C154.714767,293.006134 162.766373,292.729065 171.283096,293.513092 
	C185.737656,294.843781 194.762680,303.373657 201.968231,315.247223 
M139.380508,328.162415 
	C137.083176,336.876770 136.781143,345.563446 142.131348,353.235565 
	C152.338242,367.872223 168.973602,367.580750 178.154358,356.882111 
	C186.647491,346.984802 188.649933,332.174652 178.584167,319.952271 
	C173.359299,313.607941 166.803833,309.993896 158.983643,311.303070 
	C149.872406,312.828339 142.873764,318.137085 139.380508,328.162415 
z"/>
<path fill="#6DB33F" opacity="1.000000" stroke="none" 
	d="
M354.039032,322.187531 
	C348.252441,311.733673 337.695740,310.069946 328.815460,315.539093 
	C324.437500,318.235352 319.735596,327.137604 320.042419,332.173431 
	C320.352661,337.265259 320.169006,342.386139 320.240417,347.493774 
	C320.336731,354.381226 320.108063,361.299316 320.696198,368.146057 
	C321.215210,374.188477 320.258636,378.727356 315.571533,380.773438 
	C307.892273,384.125824 299.205139,381.922333 299.087799,372.214569 
	C298.812225,349.410034 298.846619,326.598175 299.101318,303.793152 
	C299.171692,297.491211 302.259857,294.027069 309.139404,293.239258 
	C315.059265,292.561401 319.216522,296.377197 320.071320,302.591248 
	C320.128876,303.009369 320.405884,303.397308 320.693726,304.058685 
	C327.752167,296.483154 336.170410,294.315216 346.315765,293.573914 
	C365.901276,292.142914 377.419617,308.985229 377.075226,324.866760 
	C376.732452,340.675049 377.009491,356.496552 376.996094,372.312256 
	C376.989899,379.653076 374.214447,382.093903 366.064392,381.999634 
	C359.510132,381.923828 356.909576,378.947357 356.819611,372.058075 
	C356.681732,361.499939 356.053253,350.943085 356.128815,340.389221 
	C356.172272,334.313171 356.864136,328.278900 354.039032,322.187531 
z"/>
<path fill="#6DB33F" opacity="1.000000" stroke="none" 
	d="
M52.030392,375.999451 
	C50.540852,375.263123 49.458984,374.529175 48.287487,373.989990 
	C43.204582,371.650604 40.289532,365.462433 42.352802,361.277466 
	C44.247524,357.434357 50.683033,355.809601 55.564404,357.850586 
	C61.095631,360.163330 66.499382,363.132751 72.269875,364.408112 
	C76.743675,365.396912 81.859764,364.868286 86.366478,363.730927 
	C88.604538,363.166107 91.434059,359.794464 91.568855,357.547058 
	C91.694534,355.451630 89.059052,352.160095 86.841476,351.155487 
	C81.094536,348.551941 74.862114,347.044312 68.908737,344.866211 
	C60.984295,341.966949 53.252296,338.551300 48.596901,330.975189 
	C42.996044,321.860413 47.844891,304.479218 57.208054,298.946350 
	C71.039673,290.772949 85.163589,292.089935 99.288605,297.792603 
	C102.906952,299.253418 107.193954,299.964966 108.983192,304.620270 
	C110.253700,307.925934 110.626839,311.149292 107.975220,313.222656 
	C105.628807,315.057404 102.207222,316.583679 99.357063,316.431671 
	C95.962791,316.250671 92.572258,314.343781 89.355934,312.814789 
	C81.894577,309.267792 71.662895,308.350098 67.750702,313.633209 
	C65.206871,317.068451 65.399803,321.069580 69.367050,323.005524 
	C74.057289,325.294312 78.942749,327.227081 83.855026,329.006531 
	C91.496750,331.774780 99.131691,334.185516 105.501579,339.811279 
	C113.038864,346.468048 113.579758,366.656708 102.925011,375.187836 
	C92.587692,383.464783 81.032463,382.497040 69.514694,381.496643 
	C63.696136,380.991241 58.095810,377.973358 52.030392,375.999451 
z"/>
<path fill="#6DB33F" opacity="1.000000" stroke="none" 
	d="
M239.285019,298.213013 
	C244.648819,293.274353 250.928528,293.184387 257.193298,293.788696 
	C262.385132,294.289520 263.353943,298.729767 263.917908,302.795807 
	C264.559418,307.420441 263.055145,311.169281 258.222504,313.059082 
	C252.808411,315.176300 247.066589,316.156799 242.527451,320.715363 
	C236.480499,326.788300 233.566635,333.989899 233.134659,342.060913 
	C232.583755,352.353180 233.029449,362.697296 232.989044,373.018860 
	C232.965256,379.096008 229.845520,381.898163 223.160324,381.999420 
	C216.319214,382.103027 212.052536,378.795929 212.033188,372.963593 
	C211.955887,349.656769 211.966248,326.349457 212.029083,303.042542 
	C212.042847,297.940277 216.769165,293.357544 221.824875,293.181274 
	C228.557693,292.946564 232.338745,296.191162 233.341751,302.964661 
	C235.207214,301.488098 237.113373,299.979340 239.285019,298.213013 
z"/>
<path fill="#6DB33F" opacity="1.000000" stroke="none" 
	d="
M286.803497,294.982391 
	C292.752136,299.797363 291.058929,306.316528 291.237427,312.220703 
	C291.633514,325.319855 291.771301,338.430817 291.760132,351.536743 
	C291.753510,359.339996 291.558807,367.171661 290.799469,374.927002 
	C290.591888,377.047119 288.386536,380.118622 286.486176,380.679138 
	C282.906342,381.734985 278.605286,382.224426 275.117218,381.200745 
	C271.394196,380.108124 269.948914,376.211212 269.963959,372.023804 
	C270.042267,350.207001 270.000671,328.389771 270.000488,306.572693 
	C270.000397,295.291290 275.328003,291.492157 286.803497,294.982391 
z"/>
<path fill="#6DB33F" opacity="1.000000" stroke="none" 
	d="
M273.885437,279.372681 
	C268.276550,273.870667 268.613647,266.498901 274.278809,262.053375 
	C278.408997,258.812347 282.155548,259.495483 286.081512,261.612396 
	C290.399628,263.940765 291.854340,267.684570 291.062225,272.541992 
	C290.308777,277.162567 287.726257,280.238464 283.281677,280.814606 
	C280.341614,281.195709 277.209869,280.098083 273.885437,279.372681 
z"/>
<path fill="#F9FCF7" opacity="1.000000" stroke="none" 
	d="
M176.246307,202.794876 
	C174.951859,195.239120 177.420471,191.168533 183.425858,190.963165 
	C188.615204,190.785690 191.967438,193.732635 192.023941,198.521774 
	C192.073532,202.724075 188.522659,206.051422 183.836472,206.091797 
	C182.685715,206.101715 181.532410,205.814423 179.871582,205.619843 
	C178.648849,205.264969 177.934814,204.954010 177.178070,204.085266 
	C176.826981,203.291031 176.518570,203.054550 176.210159,202.818069 
	C176.210159,202.818069 176.236099,202.804779 176.246307,202.794876 
z"/>
<path fill="#6EB440" opacity="1.000000" stroke="none" 
	d="
M176.192230,203.104370 
	C176.518570,203.054550 176.826981,203.291031 177.068878,203.845383 
	C176.726334,203.905731 176.450317,203.648209 176.192230,203.104370 
z"/>
<path fill="#FEFEFD" opacity="1.000000" stroke="none" 
	d="
M292.751282,152.736450 
	C299.392883,144.693741 305.412964,136.702194 308.746155,126.043884 
	C302.589142,133.080002 297.511108,139.631287 291.670135,145.411636 
	C276.731812,160.194901 259.019745,170.584106 238.699814,175.964264 
	C224.088806,179.832870 209.249329,182.863724 194.455688,186.004166 
	C188.999908,187.162338 182.319626,182.367386 178.901505,175.585068 
	C170.643585,159.199539 174.535156,139.841248 188.250900,127.340965 
	C201.515564,115.251816 217.755127,112.101379 234.820297,110.973129 
	C248.070923,110.097061 261.389191,110.165161 274.215729,105.514252 
	C293.022400,98.694954 309.015533,88.390236 320.745178,70.135597 
	C323.576874,79.112442 326.507599,87.110641 328.602722,95.322037 
	C332.599487,110.986305 336.113495,126.779167 334.215942,143.156647 
	C332.024017,162.074951 325.181488,178.530365 307.593170,188.019119 
	C300.694336,191.741013 292.814117,195.093307 285.157471,195.675293 
	C266.117767,197.122467 246.949127,196.859924 227.833435,197.331512 
	C223.548035,197.437225 219.269211,197.812958 214.983810,197.913437 
	C213.132965,197.956833 211.273102,197.616776 209.346756,196.296677 
	C220.555740,192.914459 231.771378,189.554153 242.972183,186.145081 
	C261.274475,180.574554 276.385101,170.025284 289.429932,156.270569 
	C290.461517,155.182831 291.501129,154.102676 292.751282,152.736450 
z"/>
<path fill="#000000" opacity="1.000000" stroke="none" 
	d="
M447.060425,352.875366 
	C442.365265,358.631836 437.703796,363.905548 429.803314,363.999054 
	C417.047394,364.150055 410.235535,358.685272 405.689758,346.484467 
	C401.100861,334.168030 406.981018,319.304535 418.852051,313.015472 
	C430.406189,306.894379 448.835510,315.098846 450.818359,331.842804 
	C451.490051,337.514740 450.370300,343.429291 449.749939,349.198639 
	C449.622772,350.381439 448.069977,351.410950 447.060425,352.875366 
z"/>
<path fill="#000000" opacity="1.000000" stroke="none" 
	d="
M139.624603,327.835327 
	C142.873764,318.137085 149.872406,312.828339 158.983643,311.303070 
	C166.803833,309.993896 173.359299,313.607941 178.584167,319.952271 
	C188.649933,332.174652 186.647491,346.984802 178.154358,356.882111 
	C168.973602,367.580750 152.338242,367.872223 142.131348,353.235565 
	C136.781143,345.563446 137.083176,336.876770 139.624603,327.835327 
z"/>
</svg>