<svg version="1.1" id="Layer_1" xmlns="http://www.w3.org/2000/svg" xmlns:xlink="http://www.w3.org/1999/xlink" x="0px" y="0px"
	 width="100%" viewBox="0 0 512 512" enable-background="new 0 0 512 512" xml:space="preserve">
<path fill="#000000" opacity="1.000000" stroke="none" 
	d="
M513.000000,167.000000 
	C513.000000,282.638550 513.000000,397.777100 513.000000,512.957825 
	C342.403107,512.957825 171.806198,512.957825 1.104650,512.957825 
	C1.104650,342.444824 1.104650,171.889542 1.104650,1.167135 
	C171.666534,1.167135 342.333252,1.167135 513.000000,1.167135 
	C513.000000,56.193760 513.000000,111.346878 513.000000,167.000000 
M120.972870,88.069580 
	C120.926376,80.379585 120.879883,72.689590 120.973373,64.073654 
	C120.926743,58.715855 120.880104,53.358059 120.973465,47.072853 
	C120.927010,41.048012 120.880547,35.023170 120.971512,28.224428 
	C119.568619,17.441263 107.914627,8.392409 96.827812,8.773520 
	C74.707008,9.533922 52.541649,8.978736 30.394745,9.007636 
	C19.861338,9.021381 10.169995,18.193935 9.024219,29.925621 
	C9.071658,35.950500 9.119098,41.975376 9.025043,48.928005 
	C9.072254,56.284870 9.119466,63.641731 9.024921,71.926643 
	C9.072332,82.617142 9.119743,93.307648 9.025867,104.926109 
	C9.072895,111.950943 9.119923,118.975784 9.026272,126.927994 
	C9.073301,133.285492 9.120330,139.642990 9.027591,146.842438 
	C7.721560,157.191895 20.311617,169.426407 31.228046,169.163818 
	C53.859524,168.619431 76.520081,168.671280 99.154831,169.142929 
	C109.908211,169.367004 122.991631,156.589951 120.973198,145.072922 
	C120.926483,138.715485 120.879768,132.358063 120.973175,125.075943 
	C120.926598,120.050255 120.880020,115.024559 120.973427,109.071251 
	C120.926605,102.379921 120.879776,95.688583 120.972870,88.069580 
M504.972473,56.072128 
	C504.926208,47.380642 504.879974,38.689152 504.972809,29.199295 
	C503.616302,17.670391 494.115723,9.002692 482.801575,9.001023 
	C444.831726,8.995420 406.852722,9.471051 368.897217,8.733210 
	C356.249481,8.487343 342.421417,21.242819 345.024017,34.929390 
	C345.071320,44.286541 345.118652,53.643688 345.024902,63.928513 
	C345.072205,71.951950 345.119507,79.975380 345.025787,88.925484 
	C345.072601,94.617279 345.119415,100.309067 345.025665,106.920311 
	C345.405731,111.947174 345.785828,116.974030 346.240234,122.694458 
	C351.254761,132.213760 358.575592,137.679764 369.905029,137.076614 
	C377.497040,136.672409 385.127960,136.999725 392.829803,136.999725 
	C392.960541,139.714218 393.063721,141.856842 393.026855,144.903900 
	C393.026855,147.503555 393.026855,150.103210 393.026855,153.189194 
	C387.334076,153.189194 382.276398,153.189194 377.401428,153.189194 
	C377.401428,158.770447 377.401428,163.824753 377.401428,168.603363 
	C409.486450,168.603363 441.169006,168.603363 472.734070,168.603363 
	C472.734070,163.270081 472.734070,158.336411 472.734070,152.906403 
	C467.416595,152.906403 462.348541,152.906403 456.833099,152.906403 
	C456.833099,149.603592 456.833099,146.801590 456.973511,143.108871 
	C456.973511,141.188812 456.973511,139.268738 456.973511,136.999619 
	C466.136688,136.999619 474.735626,136.614166 483.285492,137.097412 
	C493.914337,137.698166 507.033020,124.464340 504.972748,113.070694 
	C504.926514,103.380981 504.880310,93.691277 504.973602,83.072983 
	C504.926819,74.382095 504.880035,65.691208 504.972473,56.072128 
M25.025553,390.930267 
	C25.072432,399.953979 25.119312,408.977722 25.026722,418.929413 
	C25.073313,428.954254 25.119904,438.979065 25.027050,449.892609 
	C25.027050,452.173645 25.027050,454.454681 25.027050,456.953400 
	C18.113806,456.571106 12.824936,459.243713 10.755898,465.052948 
	C9.121140,469.642822 9.616664,474.991455 9.268791,480.739471 
	C9.512540,481.329254 9.834311,481.899353 9.988566,482.511688 
	C13.389220,496.010559 26.827980,505.207428 39.997650,505.114380 
	C82.484604,504.814148 124.976860,504.780457 167.462936,505.136902 
	C180.312851,505.244720 189.788223,500.375824 197.159500,489.325470 
	C199.963806,484.241943 201.697418,478.917542 200.978241,472.176483 
	C200.003036,468.978638 199.935074,464.862396 197.842697,462.795502 
	C194.602356,459.594574 189.980453,457.792236 184.834030,454.737915 
	C184.834030,452.952423 184.834030,449.477936 184.981201,445.075989 
	C184.931915,433.718811 184.882629,422.361633 184.978729,410.076447 
	C184.930130,400.052612 184.881531,390.028809 184.978195,379.078186 
	C184.527664,371.807709 186.501053,364.285431 182.272385,356.841370 
	C177.073044,348.874298 170.187363,344.787811 160.202438,344.872040 
	C122.268204,345.192169 84.329666,344.992401 46.392742,345.007935 
	C38.088345,345.011322 29.780943,350.995026 26.208801,359.381622 
	C25.861927,363.588623 25.515053,367.795593 25.027401,372.928772 
	C25.073910,378.620117 25.120419,384.311432 25.025553,390.930267 
M416.009186,261.064636 
	C413.965332,255.348389 411.921478,249.632141 410.371490,243.234238 
	C412.214142,245.102737 413.539764,244.829498 415.629822,243.017212 
	C425.447632,234.504166 436.849213,232.362213 449.528931,234.786575 
	C457.209991,236.255203 463.360352,240.140793 468.506348,244.696579 
	C472.713959,240.523468 476.680145,236.589767 481.397217,231.911346 
	C475.104095,228.228546 469.117310,223.523102 462.321808,220.972031 
	C441.364777,213.104614 421.599274,215.343063 404.186371,230.392441 
	C401.831024,232.428070 400.289368,232.204636 397.777466,230.454895 
	C392.748566,226.951843 387.308990,224.038406 381.646912,220.232010 
	C372.053162,218.721436 362.459381,217.210861 352.153961,215.588242 
	C351.034119,211.833511 349.545593,206.842697 347.982239,201.107712 
	C344.267334,193.742172 340.552460,186.376633 336.779114,178.327499 
	C334.763824,175.645264 333.019531,172.692596 330.672729,170.341217 
	C326.686859,166.347519 322.321381,162.732697 317.825897,158.331390 
	C312.313660,154.571960 307.114349,150.209137 301.233917,147.159744 
	C278.338654,135.287048 254.107086,133.799530 229.573883,140.383926 
	C215.347458,144.202118 202.233978,150.900101 191.279297,162.221527 
	C183.485352,169.797623 175.873520,177.510941 171.266266,188.296387 
	C168.139618,197.849792 165.012955,207.403198 161.068756,216.993958 
	C159.329880,217.330185 157.561127,217.556549 155.856766,218.019745 
	C140.354095,222.233032 127.854202,230.441452 119.839943,245.657791 
	C114.005051,254.978928 112.093102,265.162750 113.027687,276.885925 
	C113.031242,288.777039 117.732452,298.879608 125.176476,308.670258 
	C127.808281,311.303589 130.233627,314.191711 133.110275,316.522949 
	C142.037506,323.757599 152.072647,328.902557 163.766663,328.928864 
	C230.057755,329.078064 296.349609,329.079834 362.640350,328.868988 
	C368.717743,328.849640 375.114288,327.857361 380.785950,325.758545 
	C388.935486,322.742767 396.801208,318.645874 402.672546,310.828339 
	C409.128021,304.489349 412.986023,296.732758 415.789368,287.591675 
	C415.979309,286.459625 416.338593,285.326508 416.331726,284.195648 
	C416.286560,276.750763 416.162537,269.306335 416.009186,261.064636 
M361.028168,473.927643 
	C361.019928,477.424805 360.955475,480.922943 361.014252,484.418976 
	C361.178558,494.190399 371.540131,504.931641 381.253479,504.961456 
	C415.725983,505.067230 450.199158,505.059509 484.671722,504.965515 
	C494.110596,504.939789 504.671753,494.394196 504.966522,484.983551 
	C505.091431,480.995850 504.887451,476.997864 504.981659,472.081573 
	C504.938507,467.614197 506.390167,462.353516 504.530884,458.849945 
	C501.013184,452.221313 500.570007,446.405334 504.836823,439.559875 
	C504.835663,430.374054 504.834503,421.188202 504.966034,411.255310 
	C503.698364,408.676453 502.300385,406.150482 501.222809,403.494476 
	C500.747284,402.322449 500.307800,400.419891 500.897675,399.643402 
	C506.153656,392.724518 505.068817,384.808563 504.979065,376.080963 
	C504.986664,372.584106 505.051849,369.086243 504.990845,365.590576 
	C504.820068,355.804169 494.470825,345.075287 484.738770,345.044678 
	C450.269562,344.936279 415.799683,344.943848 381.330414,345.040527 
	C371.866669,345.067078 361.330292,355.592438 361.029297,365.027618 
	C360.902100,369.014374 361.110504,373.011841 361.028229,377.927643 
	C360.962860,386.026672 359.881165,394.339233 365.333435,400.071320 
	C363.768982,404.926086 362.467712,408.964203 361.026428,413.930145 
	C361.073059,422.287842 361.119720,430.645569 361.256927,439.723083 
	C362.452576,441.983490 363.749786,444.198151 364.798035,446.524933 
	C365.271790,447.576630 365.854401,449.339325 365.360931,449.950500 
	C359.735229,456.917725 360.967438,465.040924 361.028168,473.927643 
M197.526443,70.016754 
	C200.427307,72.996849 203.328156,75.976944 206.231125,78.959206 
	C234.380295,50.091484 281.272705,51.347874 307.418518,78.686508 
	C311.554016,74.622223 315.691833,70.555649 319.828827,66.489899 
	C284.719238,30.903683 225.791367,33.169285 193.957672,66.983521 
	C194.972275,67.826286 195.998520,68.678734 197.526443,70.016754 
M122.943657,222.463943 
	C127.343498,218.576996 131.743332,214.690048 136.162308,210.786209 
	C101.383621,175.875900 43.685230,176.262817 10.287038,210.372238 
	C14.411413,214.458771 18.536123,218.545624 22.656292,222.627975 
	C50.522198,193.485153 97.694023,196.156845 122.943657,222.463943 
M282.289978,372.077026 
	C248.933243,363.889038 219.377243,370.469971 194.441895,393.997314 
	C198.832825,398.361511 202.907028,402.410889 206.969345,406.448486 
	C233.140564,378.553741 280.908936,378.833954 307.450317,406.850250 
	C311.536011,402.730133 315.621429,398.610260 319.913391,394.282135 
	C309.147614,384.505219 297.354004,376.369629 282.289978,372.077026 
M394.357666,197.929733 
	C388.814240,201.903992 383.270782,205.878265 377.540771,209.986282 
	C382.285034,214.631042 386.445251,218.704056 390.520569,222.693909 
	C404.522430,209.079346 421.036560,201.744614 441.065613,201.870468 
	C460.955811,201.995453 477.539062,209.131195 491.241760,222.444046 
	C495.408386,218.416718 499.568939,214.395279 503.928314,210.181625 
	C501.392975,208.064270 499.108917,205.567688 496.319031,203.935974 
	C487.512421,198.785294 478.923309,192.909637 469.498077,189.252365 
	C455.327728,183.753860 440.247955,183.780380 425.263275,186.013702 
	C414.345093,187.640945 404.233948,191.471619 394.357666,197.929733 
M235.441895,404.924652 
	C229.112961,408.627869 222.784042,412.331055 216.193497,416.187347 
	C221.037033,421.021942 224.999039,424.976624 229.150803,429.120697 
	C236.888718,421.718292 245.974701,417.966156 256.901154,417.886963 
	C268.031891,417.806335 277.146027,421.918213 284.312531,428.453918 
	C288.739624,424.416962 292.876617,420.644531 297.523346,416.407288 
	C291.965698,412.813629 286.981415,408.803497 281.365173,406.112061 
	C266.628021,399.049561 251.390915,399.077850 235.441895,404.924652 
M267.236053,91.005417 
	C273.297546,93.983704 279.359070,96.961998 285.771576,100.112747 
	C288.910187,96.959526 292.848846,93.002563 296.791473,89.041580 
	C276.408875,66.514412 235.678802,67.902252 217.434860,88.820015 
	C221.445190,92.781868 225.427048,96.715599 229.491699,100.731110 
	C239.790833,90.988853 252.252594,87.875191 267.236053,91.005417 
M85.506088,235.891724 
	C90.895325,238.714767 96.284561,241.537811 100.595604,243.796066 
	C104.700211,240.243637 108.926399,236.585983 113.059174,233.009171 
	C101.636955,222.375626 88.739830,216.838516 73.128159,216.834488 
	C57.380531,216.830429 44.284451,222.158661 33.623314,232.403564 
	C37.438171,236.630737 41.261765,240.867584 45.029140,245.042145 
	C46.922993,243.562225 48.571514,242.224854 50.270226,240.954605 
	C60.822502,233.063751 72.570839,232.535004 85.506088,235.891724 
M267.507935,118.994331 
	C270.066467,116.954140 272.624969,114.913948 275.095093,112.944252 
	C265.371490,102.201408 247.238983,102.459503 240.057816,112.153000 
	C243.920593,115.952316 247.790085,119.758224 250.891464,122.808655 
	C255.290283,122.808655 258.972992,122.808655 262.655670,122.808655 
	C262.824982,123.223824 262.994293,123.639000 263.163605,124.054169 
	C264.444183,122.533653 265.724792,121.013138 267.507935,118.994331 
M437.821259,249.002930 
	C432.523254,249.908524 427.245880,250.854675 423.680145,256.370758 
	C427.097687,259.723969 430.457123,263.125031 433.965363,266.364929 
	C434.591431,266.943115 435.837494,267.052948 436.791412,267.036530 
	C440.161255,266.978516 443.528534,266.771637 446.716461,266.629242 
	C450.239105,263.261505 454.053345,259.614960 458.057617,255.786743 
	C453.079712,249.388092 446.030548,248.847778 437.821259,249.002930 
M243.480591,443.989410 
	C245.971588,446.661560 248.462585,449.333740 249.848679,450.820618 
	C255.215622,450.820618 259.048950,450.820618 261.624420,450.820618 
	C265.822021,446.781219 269.725189,443.025208 273.621796,439.275513 
	C265.175995,430.177795 247.146408,430.475067 239.959274,440.301636 
	C240.950058,441.343140 241.967010,442.412109 243.480591,443.989410 
M85.003960,261.492828 
	C86.966965,259.981842 88.929970,258.470856 90.754326,257.066589 
	C82.243141,246.197144 62.969349,246.324966 56.234886,256.001038 
	C60.053154,259.942596 63.840057,263.851746 66.722000,266.826752 
	C71.412331,266.826752 75.090813,266.826752 79.833321,266.826752 
	C80.814651,265.812012 82.660828,263.902985 85.003960,261.492828 
z"/>
<path fill="#6860EF" opacity="1.000000" stroke="none" 
	d="
M402.050690,311.107666 
	C396.801208,318.645874 388.935486,322.742767 380.785950,325.758545 
	C375.114288,327.857361 368.717743,328.849640 362.640350,328.868988 
	C296.349609,329.079834 230.057755,329.078064 163.766663,328.928864 
	C152.072647,328.902557 142.037506,323.757599 133.110275,316.522949 
	C130.233627,314.191711 127.808281,311.303589 125.425629,308.195312 
	C127.612007,307.480469 129.543320,307.161713 131.487610,307.015778 
	C136.694962,306.624756 141.907883,306.307770 147.440674,306.107605 
	C155.882492,311.543518 165.144424,312.880035 174.430206,312.908661 
	C233.418121,313.090546 292.407837,313.168518 351.394287,312.820618 
	C360.232971,312.768463 369.057373,310.302094 378.280426,309.114838 
	C382.759430,309.517273 386.850983,309.698517 390.932037,310.014954 
	C394.644196,310.302856 398.344910,310.737640 402.050690,311.107666 
z"/>
<path fill="#933AFB" opacity="1.000000" stroke="none" 
	d="
M184.834030,446.003418 
	C184.834030,449.477936 184.834030,452.952423 184.834030,454.737915 
	C189.980453,457.792236 194.602356,459.594574 197.842697,462.795502 
	C199.935074,464.862396 200.003036,468.978638 200.448959,472.591064 
	C194.668137,473.345337 189.416595,473.684967 183.927734,473.647339 
	C182.701324,473.180908 181.712234,473.013855 180.723114,473.013580 
	C130.414597,473.000824 80.106071,473.001160 29.797552,473.009033 
	C28.651917,473.009216 27.506298,473.111969 25.697268,473.198669 
	C26.213511,475.653076 26.666548,477.806946 26.644424,479.969208 
	C20.501554,479.986084 14.833843,479.994598 9.166130,480.003113 
	C9.616664,474.991455 9.121140,469.642822 10.755898,465.052948 
	C12.824936,459.243713 18.113806,456.571106 25.027050,456.953400 
	C25.027050,454.454681 25.027050,452.173645 25.552444,449.447327 
	C30.996395,449.002472 35.914955,449.002869 40.903297,449.451355 
	C40.973083,452.162781 40.973083,454.426178 40.973083,456.704254 
	C83.953941,456.704254 126.333076,456.704254 169.165970,456.704254 
	C169.165970,452.941315 169.165970,449.472107 169.621887,446.002014 
	C174.996536,446.001892 179.915283,446.002655 184.834030,446.003418 
z"/>
<path fill="#9C31FE" opacity="1.000000" stroke="none" 
	d="
M9.217461,480.371277 
	C14.833843,479.994598 20.501554,479.986084 26.950344,480.124146 
	C28.007231,480.855896 28.186249,481.516296 28.573687,482.014740 
	C32.913048,487.597565 39.112602,488.943878 45.620560,488.958344 
	C84.584831,489.044983 123.549675,489.069672 162.513474,488.908142 
	C166.999466,488.889526 171.480164,487.589539 176.130508,487.242371 
	C178.106186,488.067230 179.891525,488.780090 181.727585,488.952209 
	C186.750732,489.423096 191.795227,489.666321 196.831268,489.999695 
	C189.788223,500.375824 180.312851,505.244720 167.462936,505.136902 
	C124.976860,504.780457 82.484604,504.814148 39.997650,505.114380 
	C26.827980,505.207428 13.389220,496.010559 9.988566,482.511688 
	C9.834311,481.899353 9.512540,481.329254 9.217461,480.371277 
z"/>
<path fill="#7F4BF6" opacity="1.000000" stroke="none" 
	d="
M504.833649,377.004395 
	C505.068817,384.808563 506.153656,392.724518 500.897675,399.643402 
	C500.307800,400.419891 500.747284,402.322449 501.222809,403.494476 
	C502.300385,406.150482 503.698364,408.676453 504.444153,411.628296 
	C498.327026,412.331085 492.731781,412.660919 486.976074,412.655151 
	C483.494232,411.213623 480.180878,409.176208 476.850281,409.147614 
	C447.536560,408.895905 418.218414,408.873444 388.905701,409.177307 
	C385.545502,409.212128 382.210327,411.661407 378.447998,412.981140 
	C372.410492,412.981476 366.788452,412.991913 361.166443,413.002319 
	C362.467712,408.964203 363.768982,404.926086 365.333435,400.071320 
	C359.881165,394.339233 360.962860,386.026672 361.552979,377.465088 
	C366.996338,377.002960 371.915009,377.003387 376.902557,377.441650 
	C377.068237,390.476227 379.625488,393.001190 392.287170,393.001221 
	C418.893707,393.001282 445.501312,392.858185 472.106293,393.059906 
	C485.986481,393.165131 489.175568,390.776520 489.622253,377.003052 
	C494.996643,377.002960 499.915131,377.003662 504.833649,377.004395 
z"/>
<path fill="#8F3DFA" opacity="1.000000" stroke="none" 
	d="
M504.116608,440.043793 
	C500.570007,446.405334 501.013184,452.221313 504.530884,458.849945 
	C506.390167,462.353516 504.938507,467.614197 504.451660,472.542084 
	C499.003448,473.003296 494.085266,473.003998 489.092834,472.567017 
	C488.925720,459.581360 486.318237,457.001312 473.729065,457.001282 
	C447.112244,457.001190 420.494385,457.141846 393.879028,456.943024 
	C380.201843,456.840851 376.840576,459.083191 376.377106,473.003601 
	C371.003204,473.003204 366.085114,473.003815 361.167053,473.004425 
	C360.967438,465.040924 359.735229,456.917725 365.360931,449.950500 
	C365.854401,449.339325 365.271790,447.576630 364.798035,446.524933 
	C363.749786,444.198151 362.452576,441.983490 361.668884,439.362488 
	C367.733551,438.629089 373.386230,438.256287 379.379578,438.046387 
	C383.262573,439.140533 386.798431,440.849976 390.348236,440.879364 
	C417.560730,441.104584 444.776581,441.098297 471.989685,440.911102 
	C476.627106,440.879211 481.256195,439.637970 486.363495,438.965027 
	C492.597443,439.330994 498.357025,439.687378 504.116608,440.043793 
z"/>
<path fill="#259ADB" opacity="1.000000" stroke="none" 
	d="
M504.834076,84.001564 
	C504.880310,93.691277 504.926514,103.380981 504.446350,113.534912 
	C498.669128,113.999336 493.418304,113.999542 488.254211,113.598328 
	C488.628113,110.647293 488.915344,108.097664 489.228607,105.317238 
	C487.876831,105.172760 487.079529,105.013237 486.282196,105.012978 
	C445.658508,104.999939 405.034821,104.991959 364.411194,105.041542 
	C363.218262,105.042999 362.026154,105.666611 360.377747,106.000427 
	C355.003296,106.000755 350.084778,106.000809 345.166229,106.000862 
	C345.119415,100.309067 345.072601,94.617279 345.549561,88.462326 
	C350.993408,87.665802 355.913452,87.332436 360.928894,87.425575 
	C362.642303,88.234604 364.259827,88.948570 365.878448,88.951126 
	C405.237152,89.013275 444.596008,88.999634 483.954834,88.999634 
	C485.574860,88.999634 487.194916,88.999641 488.819397,88.999641 
	C488.959778,86.974449 489.062866,85.487785 489.621826,84.001144 
	C494.996521,84.001297 499.915314,84.001434 504.834076,84.001564 
z"/>
<path fill="#2F91DE" opacity="1.000000" stroke="none" 
	d="
M488.167511,113.999748 
	C493.418304,113.999542 498.669128,113.999336 504.376495,113.998871 
	C507.033020,124.464340 493.914337,137.698166 483.285492,137.097412 
	C474.735626,136.614166 466.136688,136.999619 456.973511,136.999619 
	C456.973511,139.268738 456.973511,141.188812 456.447723,143.554382 
	C451.003601,143.999908 446.085236,143.999954 441.096680,143.554596 
	C441.026489,141.184097 441.026489,139.259003 441.026489,137.294006 
	C430.028290,137.294006 419.641510,137.294006 409.154724,137.294006 
	C409.038300,139.721375 408.935699,141.860672 408.377258,143.999985 
	C403.003235,143.999832 398.085052,143.999649 393.166901,143.999466 
	C393.063721,141.856842 392.960541,139.714218 392.829803,136.999725 
	C385.127960,136.999725 377.497040,136.672409 369.905029,137.076614 
	C358.575592,137.679764 351.254761,132.213760 346.661072,122.347534 
	C349.056152,122.000526 351.036194,122.098343 353.003479,121.981514 
	C358.351837,121.663910 363.694794,121.255424 369.503693,120.932205 
	C405.588470,120.987518 441.209534,121.039696 476.830231,120.946754 
	C481.806458,120.933769 486.775269,120.198746 488.167511,113.999748 
z"/>
<path fill="#7356F2" opacity="1.000000" stroke="none" 
	d="
M504.906372,376.542664 
	C499.915131,377.003662 494.996643,377.002960 489.549683,376.565308 
	C488.923981,363.536469 486.356750,361.000549 473.705841,361.000519 
	C447.104340,361.000427 420.501831,361.140808 393.901794,360.942627 
	C380.150970,360.840179 376.849762,363.057465 376.833649,377.003815 
	C371.915009,377.003387 366.996338,377.002960 361.622009,377.003479 
	C361.110504,373.011841 360.902100,369.014374 361.029297,365.027618 
	C361.330292,355.592438 371.866669,345.067078 381.330414,345.040527 
	C415.799683,344.943848 450.269562,344.936279 484.738770,345.044678 
	C494.470825,345.075287 504.820068,355.804169 504.990845,365.590576 
	C505.051849,369.086243 504.986664,372.584106 504.906372,376.542664 
z"/>
<path fill="#9C32FE" opacity="1.000000" stroke="none" 
	d="
M489.167053,473.004700 
	C494.085266,473.003998 499.003448,473.003296 504.377319,473.003571 
	C504.887451,476.997864 505.091431,480.995850 504.966522,484.983551 
	C504.671753,494.394196 494.110596,504.939789 484.671722,504.965515 
	C450.199158,505.059509 415.725983,505.067230 381.253479,504.961456 
	C371.540131,504.931641 361.178558,494.190399 361.014252,484.418976 
	C360.955475,480.922943 361.019928,477.424805 361.097595,473.466034 
	C366.085114,473.003815 371.003204,473.003204 376.446411,473.441559 
	C377.062927,486.424622 379.668610,489.000580 392.266266,489.000610 
	C418.884216,489.000671 445.503265,488.858032 472.119690,489.059753 
	C485.788422,489.163361 489.170074,486.961517 489.167053,473.004700 
z"/>
<path fill="#0EAFD4" opacity="1.000000" stroke="none" 
	d="
M345.166382,34.002293 
	C342.421417,21.242819 356.249481,8.487343 368.897217,8.733210 
	C406.852722,9.471051 444.831726,8.995420 482.801575,9.001023 
	C494.115723,9.002692 503.616302,17.670391 504.449402,29.598970 
	C498.672516,30.331371 493.419098,30.664097 487.999084,30.672379 
	C485.421631,25.836231 481.191742,25.018631 476.675201,25.014734 
	C442.717957,24.985437 408.760529,25.055674 374.803619,24.948215 
	C368.403717,24.927961 363.234802,26.397907 360.419250,33.014111 
	C355.058563,33.351139 350.112457,33.676716 345.166382,34.002293 
z"/>
<path fill="#4D77E7" opacity="1.000000" stroke="none" 
	d="
M382.038940,220.881561 
	C387.308990,224.038406 392.748566,226.951843 397.777466,230.454895 
	C400.289368,232.204636 401.831024,232.428070 404.186371,230.392441 
	C421.599274,215.343063 441.364777,213.104614 462.321808,220.972031 
	C469.117310,223.523102 475.104095,228.228546 481.397217,231.911346 
	C476.680145,236.589767 472.713959,240.523468 468.506348,244.696579 
	C463.360352,240.140793 457.209991,236.255203 449.528931,234.786575 
	C436.849213,232.362213 425.447632,234.504166 415.629822,243.017212 
	C413.539764,244.829498 412.214142,245.102737 410.161621,243.610306 
	C409.951752,243.986374 410.002625,244.074844 410.351074,243.878464 
	C410.169098,243.136810 409.638672,242.591537 408.828766,241.871368 
	C400.426147,238.407806 392.193390,239.790955 383.641846,240.970215 
	C368.497925,230.059601 353.003021,233.269577 336.973480,239.689621 
	C336.670654,233.427795 336.418488,228.214081 336.624573,223.000214 
	C350.215027,222.999725 363.348419,223.082565 376.478271,222.904892 
	C378.340607,222.879669 380.185822,221.587387 382.038940,220.881561 
z"/>
<path fill="#19A4D7" opacity="1.000000" stroke="none" 
	d="
M197.275604,69.773972 
	C195.998520,68.678734 194.972275,67.826286 193.957672,66.983521 
	C225.791367,33.169285 284.719238,30.903683 319.828827,66.489899 
	C315.691833,70.555649 311.554016,74.622223 307.418518,78.686508 
	C281.272705,51.347874 234.380295,50.091484 206.231125,78.959206 
	C203.328156,75.976944 200.427307,72.996849 197.275604,69.773972 
z"/>
<path fill="#447FE4" opacity="1.000000" stroke="none" 
	d="
M122.704819,222.208511 
	C97.694023,196.156845 50.522198,193.485153 22.656292,222.627975 
	C18.536123,218.545624 14.411413,214.458771 10.287038,210.372238 
	C43.685230,176.262817 101.383621,175.875900 136.162308,210.786209 
	C131.743332,214.690048 127.343498,218.576996 122.704819,222.208511 
z"/>
<path fill="#7B4FF4" opacity="1.000000" stroke="none" 
	d="
M282.644287,372.291260 
	C297.354004,376.369629 309.147614,384.505219 319.913391,394.282135 
	C315.621429,398.610260 311.536011,402.730133 307.450317,406.850250 
	C280.908936,378.833954 233.140564,378.553741 206.969345,406.448486 
	C202.907028,402.410889 198.832825,398.361511 194.441895,393.997314 
	C219.377243,370.469971 248.933243,363.889038 282.644287,372.291260 
z"/>
<path fill="#447FE4" opacity="1.000000" stroke="none" 
	d="
M394.665070,197.716980 
	C404.233948,191.471619 414.345093,187.640945 425.263275,186.013702 
	C440.247955,183.780380 455.327728,183.753860 469.498077,189.252365 
	C478.923309,192.909637 487.512421,198.785294 496.319031,203.935974 
	C499.108917,205.567688 501.392975,208.064270 503.928314,210.181625 
	C499.568939,214.395279 495.408386,218.416718 491.241760,222.444046 
	C477.539062,209.131195 460.955811,201.995453 441.065613,201.870468 
	C421.036560,201.744614 404.522430,209.079346 390.520569,222.693909 
	C386.445251,218.704056 382.285034,214.631042 377.540771,209.986282 
	C383.270782,205.878265 388.814240,201.903992 394.665070,197.716980 
z"/>
<path fill="#7257F1" opacity="1.000000" stroke="none" 
	d="
M26.882277,358.960724 
	C29.780943,350.995026 38.088345,345.011322 46.392742,345.007935 
	C84.329666,344.992401 122.268204,345.192169 160.202438,344.872040 
	C170.187363,344.787811 177.073044,348.874298 182.107498,357.384338 
	C180.015366,358.284576 178.088409,358.951935 176.160843,358.953674 
	C126.401360,358.998230 76.641815,358.973480 26.882277,358.960724 
z"/>
<path fill="#358CE0" opacity="1.000000" stroke="none" 
	d="
M191.886627,161.955811 
	C202.233978,150.900101 215.347458,144.202118 229.573883,140.383926 
	C254.107086,133.799530 278.338654,135.287048 301.233917,147.159744 
	C307.114349,150.209137 312.313660,154.571960 317.554291,158.733856 
	C312.865936,159.424606 308.447296,159.686859 304.032990,160.008560 
	C299.635345,160.329041 295.242004,160.709137 290.480560,161.016830 
	C279.616089,155.600906 268.149048,153.364670 256.680969,153.381973 
	C243.131622,153.402405 229.978989,156.841370 217.353424,163.323059 
	C214.375748,163.164948 211.914474,163.126022 209.458420,162.991379 
	C203.599838,162.670227 197.743729,162.303909 191.886627,161.955811 
z"/>
<path fill="#388AE0" opacity="1.000000" stroke="none" 
	d="
M120.832840,146.000595 
	C122.991631,156.589951 109.908211,169.367004 99.154831,169.142929 
	C76.520081,168.671280 53.859524,168.619431 31.228046,169.163818 
	C20.311617,169.426407 7.721560,157.191895 9.553226,146.421326 
	C15.066012,145.630173 20.053162,145.260132 25.362701,145.076782 
	C26.467176,151.303177 31.063530,152.845779 35.898106,152.903137 
	C55.377209,153.134277 74.862381,153.135300 94.341217,152.892792 
	C98.739883,152.838013 103.152657,151.505875 104.624802,146.000168 
	C110.331978,146.000244 115.582405,146.000427 120.832840,146.000595 
z"/>
<path fill="#388AE0" opacity="1.000000" stroke="none" 
	d="
M441.166901,144.000000 
	C446.085236,143.999954 451.003601,143.999908 456.377502,143.999725 
	C456.833099,146.801590 456.833099,149.603592 456.833099,152.906403 
	C462.348541,152.906403 467.416595,152.906403 472.734070,152.906403 
	C472.734070,158.336411 472.734070,163.270081 472.734070,168.603363 
	C441.169006,168.603363 409.486450,168.603363 377.401428,168.603363 
	C377.401428,163.824753 377.401428,158.770447 377.401428,153.189194 
	C382.276398,153.189194 387.334076,153.189194 393.026855,153.189194 
	C393.026855,150.103210 393.026855,147.503555 393.096863,144.451691 
	C398.085052,143.999649 403.003235,143.999832 408.447266,144.452179 
	C408.973114,147.499985 408.973114,150.095657 408.973114,152.693878 
	C419.976990,152.693878 430.347809,152.693878 441.166901,152.693878 
	C441.166901,149.593735 441.166901,146.796860 441.166901,144.000000 
z"/>
<path fill="#0EAFD4" opacity="1.000000" stroke="none" 
	d="
M9.166084,28.998287 
	C10.169995,18.193935 19.861338,9.021381 30.394745,9.007636 
	C52.541649,8.978736 74.707008,9.533922 96.827812,8.773520 
	C107.914627,8.392409 119.568619,17.441263 120.449677,28.611771 
	C114.567474,29.352894 109.207100,29.706673 103.529221,29.891151 
	C100.242371,28.148138 97.300209,25.274235 94.299316,25.211542 
	C74.698265,24.802053 55.079388,24.778904 35.480068,25.228336 
	C32.335728,25.300438 29.260214,28.374079 25.759010,29.897533 
	C19.965452,29.489365 14.565768,29.243826 9.166084,28.998287 
z"/>
<path fill="#3090DE" opacity="1.000000" stroke="none" 
	d="
M25.040312,144.890091 
	C20.053162,145.260132 15.066012,145.630173 9.623110,146.000336 
	C9.120330,139.642990 9.073301,133.285492 9.554593,126.464172 
	C46.999626,126.000443 83.916344,126.000534 120.833054,126.000626 
	C120.879768,132.358063 120.926483,138.715485 120.903015,145.536758 
	C115.582405,146.000427 110.331978,146.000244 104.710968,145.598663 
	C104.628639,142.653687 104.916885,140.110092 105.239433,137.263824 
	C78.230270,137.263824 51.789062,137.263824 25.040312,137.263824 
	C25.040312,139.979614 25.040312,142.434860 25.040312,144.890091 
z"/>
<path fill="#19A4D7" opacity="1.000000" stroke="none" 
	d="
M120.833466,48.000259 
	C120.880104,53.358059 120.926743,58.715855 120.447769,64.536758 
	C115.003647,64.999962 110.085121,65.000061 105.096741,64.552544 
	C105.026886,61.844597 105.026886,59.584267 105.026886,57.307800 
	C78.039719,57.307800 51.679123,57.307800 24.833324,57.307800 
	C24.833324,62.071812 24.833324,66.535469 24.377443,70.999344 
	C19.003267,70.999245 14.084972,70.998917 9.166677,70.998596 
	C9.119466,63.641731 9.072254,56.284870 9.553807,48.464119 
	C46.999535,48.000244 83.916504,48.000252 120.833466,48.000259 
z"/>
<path fill="#8447F7" opacity="1.000000" stroke="none" 
	d="
M235.756989,404.678589 
	C251.390915,399.077850 266.628021,399.049561 281.365173,406.112061 
	C286.981415,408.803497 291.965698,412.813629 297.523346,416.407288 
	C292.876617,420.644531 288.739624,424.416962 284.312531,428.453918 
	C277.146027,421.918213 268.031891,417.806335 256.901154,417.886963 
	C245.974701,417.966156 236.888718,421.718292 229.150803,429.120697 
	C224.999039,424.976624 221.037033,421.021942 216.193497,416.187347 
	C222.784042,412.331055 229.112961,408.627869 235.756989,404.678589 
z"/>
<path fill="#229DDA" opacity="1.000000" stroke="none" 
	d="
M266.804169,90.993629 
	C252.252594,87.875191 239.790833,90.988853 229.491699,100.731110 
	C225.427048,96.715599 221.445190,92.781868 217.434860,88.820015 
	C235.678802,67.902252 276.408875,66.514412 296.791473,89.041580 
	C292.848846,93.002563 288.910187,96.959526 285.771576,100.112747 
	C279.359070,96.961998 273.297546,93.983704 266.804169,90.993629 
z"/>
<path fill="#4D77E7" opacity="1.000000" stroke="none" 
	d="
M85.182480,235.631409 
	C72.570839,232.535004 60.822502,233.063751 50.270226,240.954605 
	C48.571514,242.224854 46.922993,243.562225 45.029140,245.042145 
	C41.261765,240.867584 37.438171,236.630737 33.623314,232.403564 
	C44.284451,222.158661 57.380531,216.830429 73.128159,216.834488 
	C88.739830,216.838516 101.636955,222.375626 113.059174,233.009171 
	C108.926399,236.585983 104.700211,240.243637 100.595604,243.796066 
	C96.284561,241.537811 90.895325,238.714767 85.182480,235.631409 
z"/>
<path fill="#15A9D6" opacity="1.000000" stroke="none" 
	d="
M120.903465,47.536556 
	C83.916504,48.000252 46.999535,48.000244 9.624554,48.000244 
	C9.119098,41.975376 9.071658,35.950500 9.095152,29.461954 
	C14.565768,29.243826 19.965452,29.489365 25.693275,30.313795 
	C25.576912,34.067852 25.132406,37.243015 24.657776,40.633369 
	C51.875984,40.633369 78.361755,40.633369 105.423180,40.633369 
	C104.853317,36.811398 104.350021,33.435928 103.846733,30.060452 
	C109.207100,29.706673 114.567474,29.352894 120.380966,28.998722 
	C120.880547,35.023170 120.927010,41.048012 120.903465,47.536556 
z"/>
<path fill="#2C94DD" opacity="1.000000" stroke="none" 
	d="
M120.903114,125.538284 
	C83.916344,126.000534 46.999626,126.000443 9.624932,126.000481 
	C9.119923,118.975784 9.072895,111.950943 9.552084,104.462448 
	C14.996486,103.998421 19.914669,103.998055 24.903481,104.461281 
	C24.974110,110.181320 24.974110,115.437767 24.974110,120.693115 
	C51.984066,120.693115 78.337318,120.693115 105.166550,120.693115 
	C105.166550,116.926178 105.166550,113.462311 105.622437,109.998596 
	C110.996704,109.998795 115.915070,109.998833 120.833443,109.998871 
	C120.880020,115.024559 120.926598,120.050255 120.903114,125.538284 
z"/>
<path fill="#4D77E7" opacity="1.000000" stroke="none" 
	d="
M120.166939,245.002792 
	C127.854202,230.441452 140.354095,222.233032 155.856766,218.019745 
	C157.561127,217.556549 159.329880,217.330185 161.951935,216.984390 
	C168.167770,216.982620 173.500427,216.990402 178.902740,217.423813 
	C178.237869,223.239624 177.503342,228.629791 176.705551,234.484192 
	C162.106918,232.165222 150.055252,235.976135 139.723618,245.879395 
	C132.943024,245.479843 126.554985,245.241318 120.166939,245.002792 
z"/>
<path fill="#7554F3" opacity="1.000000" stroke="none" 
	d="
M26.545540,359.171173 
	C76.641815,358.973480 126.401360,358.998230 176.160843,358.953674 
	C178.088409,358.951935 180.015366,358.284576 182.332458,357.643982 
	C186.501053,364.285431 184.527664,371.807709 184.449951,379.540588 
	C179.003494,380.003784 174.085281,380.004547 169.094574,379.551758 
	C169.013947,377.933014 168.999496,376.767914 168.998734,375.602783 
	C168.990875,363.783539 166.161057,360.998779 154.152710,360.998749 
	C120.361320,360.998596 86.569939,360.994720 52.778553,361.001587 
	C44.807690,361.003204 41.652386,363.926575 40.376053,372.003418 
	C35.002914,372.002747 30.085545,372.002655 25.168177,372.002594 
	C25.515053,367.795593 25.861927,363.588623 26.545540,359.171173 
z"/>
<path fill="#3D85E2" opacity="1.000000" stroke="none" 
	d="
M191.582962,162.088669 
	C197.743729,162.303909 203.599838,162.670227 209.458420,162.991379 
	C211.914474,163.126022 214.375748,163.164948 217.258972,163.513855 
	C217.683289,163.780319 217.262161,163.843307 217.041016,163.991669 
	C216.550797,164.363785 216.281754,164.587555 215.695633,164.969025 
	C205.035339,171.481323 196.670746,179.842255 189.701431,189.951752 
	C187.519684,189.578461 185.762497,189.204712 183.985672,189.025131 
	C179.958069,188.618073 175.920776,188.306656 171.887436,187.956360 
	C175.873520,177.510941 183.485352,169.797623 191.582962,162.088669 
z"/>
<path fill="#6067EC" opacity="1.000000" stroke="none" 
	d="
M147.118591,305.961365 
	C141.907883,306.307770 136.694962,306.624756 131.487610,307.015778 
	C129.543320,307.161713 127.612007,307.480469 125.283173,307.883362 
	C117.732452,298.879608 113.031242,288.777039 113.552139,276.443848 
	C119.329094,275.668701 124.581596,275.335602 129.903290,275.434052 
	C130.328476,288.950836 137.252045,298.294434 147.118591,305.961365 
z"/>
<path fill="#8844F8" opacity="1.000000" stroke="none" 
	d="
M184.907623,445.539703 
	C179.915283,446.002655 174.996536,446.001892 169.548294,445.538330 
	C169.068085,433.718353 169.117371,422.361176 169.622528,411.003296 
	C174.996719,411.003204 179.915024,411.003845 184.833344,411.004456 
	C184.882629,422.361633 184.931915,433.718811 184.907623,445.539703 
z"/>
<path fill="#576FEA" opacity="1.000000" stroke="none" 
	d="
M129.834091,275.002533 
	C124.581596,275.335602 119.329094,275.668701 113.621613,276.002441 
	C112.093102,265.162750 114.005051,254.978928 120.003441,245.330292 
	C126.554985,245.241318 132.943024,245.479843 139.579025,246.192047 
	C132.367523,254.655441 129.320847,264.201294 129.834091,275.002533 
z"/>
<path fill="#229DDA" opacity="1.000000" stroke="none" 
	d="
M24.832853,103.997688 
	C19.914669,103.998055 14.996486,103.998421 9.622728,103.998459 
	C9.119743,93.307648 9.072332,82.617142 9.095799,71.462616 
	C14.084972,70.998917 19.003267,70.999245 24.448322,71.463333 
	C24.927671,82.617294 24.880262,93.307487 24.832853,103.997688 
z"/>
<path fill="#447FE4" opacity="1.000000" stroke="none" 
	d="
M171.576843,188.126373 
	C175.920776,188.306656 179.958069,188.618073 183.985672,189.025131 
	C185.762497,189.204712 187.519684,189.578461 189.551514,190.274445 
	C187.340408,195.508041 184.603058,200.219574 182.471771,205.190933 
	C180.858109,208.954880 180.017654,213.050278 178.833099,216.998184 
	C173.500427,216.990402 168.167770,216.982620 162.360687,216.965729 
	C165.012955,207.403198 168.139618,197.849792 171.576843,188.126373 
z"/>
<path fill="#3D85E2" opacity="1.000000" stroke="none" 
	d="
M290.846802,161.063080 
	C295.242004,160.709137 299.635345,160.329041 304.032990,160.008560 
	C308.447296,159.686859 312.865936,159.424606 317.699036,159.047485 
	C322.321381,162.732697 326.686859,166.347519 330.672729,170.341217 
	C333.019531,172.692596 334.763824,175.645264 336.410950,178.759033 
	C329.315430,179.476013 322.588104,179.761444 315.563110,179.879608 
	C314.170990,178.307907 313.329620,176.547623 311.939453,175.559128 
	C304.987671,170.615906 297.891907,165.875076 290.846802,161.063080 
z"/>
<path fill="#497BE5" opacity="1.000000" stroke="none" 
	d="
M381.842926,220.556793 
	C380.185822,221.587387 378.340607,222.879669 376.478271,222.904892 
	C363.348419,223.082565 350.215027,222.999725 336.542145,222.603027 
	C334.295532,215.816772 332.589508,209.427582 331.358154,203.030609 
	C337.240875,202.632507 342.648987,202.242188 348.057068,201.851868 
	C349.545593,206.842697 351.034119,211.833511 352.153961,215.588242 
	C362.459381,217.210861 372.053162,218.721436 381.842926,220.556793 
z"/>
<path fill="#8942F9" opacity="1.000000" stroke="none" 
	d="
M40.833511,449.003265 
	C35.914955,449.002869 30.996395,449.002472 25.622166,449.002991 
	C25.119904,438.979065 25.073313,428.954254 25.552139,418.464844 
	C30.996309,418.000458 35.915062,418.000610 40.903542,418.464966 
	C40.926682,428.953857 40.880096,438.978546 40.833511,449.003265 
z"/>
<path fill="#7F4BF6" opacity="1.000000" stroke="none" 
	d="
M184.906036,410.540466 
	C179.915024,411.003845 174.996719,411.003204 169.549835,410.539307 
	C169.069885,400.052429 169.118484,390.028900 169.167084,380.005341 
	C174.085281,380.004547 179.003494,380.003784 184.377304,380.003998 
	C184.881531,390.028809 184.930130,400.052612 184.906036,410.540466 
z"/>
<path fill="#6067EC" opacity="1.000000" stroke="none" 
	d="
M402.361633,310.968018 
	C398.344910,310.737640 394.644196,310.302856 390.932037,310.014954 
	C386.850983,309.698517 382.759430,309.517273 378.445190,308.802216 
	C387.368256,304.044464 393.165924,296.524475 398.357727,287.969177 
	C404.259827,287.995667 409.686798,288.013763 415.113800,288.031860 
	C412.986023,296.732758 409.128021,304.489349 402.361633,310.968018 
z"/>
<path fill="#19A4D7" opacity="1.000000" stroke="none" 
	d="
M345.095215,34.465843 
	C350.112457,33.676716 355.058563,33.351139 360.490387,33.477551 
	C360.928772,43.620117 360.881409,53.310692 360.378113,63.001316 
	C355.003448,63.001190 350.084686,63.001015 345.165955,63.000839 
	C345.118652,53.643688 345.071320,44.286541 345.095215,34.465843 
z"/>
<path fill="#447FE4" opacity="1.000000" stroke="none" 
	d="
M348.019653,201.479797 
	C342.648987,202.242188 337.240875,202.632507 331.048431,202.862030 
	C325.462982,195.149780 320.661865,187.598328 315.860779,180.046875 
	C322.588104,179.761444 329.315430,179.476013 336.440186,179.100830 
	C340.552460,186.376633 344.267334,193.742172 348.019653,201.479797 
z"/>
<path fill="#5570E9" opacity="1.000000" stroke="none" 
	d="
M383.961914,241.119705 
	C392.193390,239.790955 400.426147,238.407806 408.787231,242.187195 
	C409.350952,243.143570 409.676788,243.609207 410.002625,244.074829 
	C410.002625,244.074844 409.951752,243.986374 409.914703,243.951141 
	C411.921478,249.632141 413.965332,255.348389 415.695129,261.706635 
	C409.976929,262.568512 404.572815,262.788391 399.090210,262.632935 
	C396.280518,253.584503 391.298431,246.513947 383.961914,241.119705 
z"/>
<path fill="#7F4BF6" opacity="1.000000" stroke="none" 
	d="
M40.833817,418.000763 
	C35.915062,418.000610 30.996309,418.000458 25.621874,418.000854 
	C25.119312,408.977722 25.072432,399.953979 25.551865,390.465881 
	C30.996477,390.001740 35.914776,390.001984 40.903763,390.466003 
	C40.927570,399.953430 40.880692,408.977112 40.833817,418.000763 
z"/>
<path fill="#8844F8" opacity="1.000000" stroke="none" 
	d="
M504.476715,439.801819 
	C498.357025,439.687378 492.597443,439.330994 486.522888,438.624054 
	C490.551544,429.994110 489.843292,421.529144 487.136566,412.990753 
	C492.731781,412.660919 498.327026,412.331085 504.377808,412.001831 
	C504.834503,421.188202 504.835663,430.374054 504.476715,439.801819 
z"/>
<path fill="#2C94DD" opacity="1.000000" stroke="none" 
	d="
M267.256653,119.243477 
	C265.724792,121.013138 264.444183,122.533653 263.163605,124.054169 
	C262.994293,123.639000 262.824982,123.223824 262.655670,122.808655 
	C258.972992,122.808655 255.290283,122.808655 250.891464,122.808655 
	C247.790085,119.758224 243.920593,115.952316 240.057816,112.153000 
	C247.238983,102.459503 265.371490,102.201408 275.095093,112.944252 
	C272.624969,114.913948 270.066467,116.954140 267.256653,119.243477 
z"/>
<path fill="#5570E9" opacity="1.000000" stroke="none" 
	d="
M438.274353,249.002441 
	C446.030548,248.847778 453.079712,249.388092 458.057617,255.786743 
	C454.053345,259.614960 450.239105,263.261505 446.716461,266.629242 
	C443.528534,266.771637 440.161255,266.978516 436.791412,267.036530 
	C435.837494,267.052948 434.591431,266.943115 433.965363,266.364929 
	C430.457123,263.125031 427.097687,259.723969 423.680145,256.370758 
	C427.245880,250.854675 432.523254,249.908524 438.274353,249.002441 
z"/>
<path fill="#8942F9" opacity="1.000000" stroke="none" 
	d="
M243.232269,443.735260 
	C241.967010,442.412109 240.950058,441.343140 239.959274,440.301636 
	C247.146408,430.475067 265.175995,430.177795 273.621796,439.275513 
	C269.725189,443.025208 265.822021,446.781219 261.624420,450.820618 
	C259.048950,450.820618 255.215622,450.820618 249.848679,450.820618 
	C248.462585,449.333740 245.971588,446.661560 243.232269,443.735260 
z"/>
<path fill="#5570E9" opacity="1.000000" stroke="none" 
	d="
M84.755478,261.743408 
	C82.660828,263.902985 80.814651,265.812012 79.833321,266.826752 
	C75.090813,266.826752 71.412331,266.826752 66.722000,266.826752 
	C63.840057,263.851746 60.053154,259.942596 56.234886,256.001038 
	C62.969349,246.324966 82.243141,246.197144 90.754326,257.066589 
	C88.929970,258.470856 86.966965,259.981842 84.755478,261.743408 
z"/>
<path fill="#8844F8" opacity="1.000000" stroke="none" 
	d="
M379.038910,437.883484 
	C373.386230,438.256287 367.733551,438.629089 361.623596,439.002563 
	C361.119720,430.645569 361.073059,422.287842 361.096436,413.466248 
	C366.788452,412.991913 372.410492,412.981476 378.392944,413.371918 
	C375.786102,421.845947 376.229950,429.878723 379.038910,437.883484 
z"/>
<path fill="#5D69EC" opacity="1.000000" stroke="none" 
	d="
M399.168701,263.008270 
	C404.572815,262.788391 409.976929,262.568512 415.722656,262.105194 
	C416.162537,269.306335 416.286560,276.750763 416.331726,284.195648 
	C416.338593,285.326508 415.979309,286.459625 415.451599,287.811768 
	C409.686798,288.013763 404.259827,287.995667 398.408569,287.560791 
	C400.432068,279.199524 400.743805,271.150208 399.168701,263.008270 
z"/>
<path fill="#15A9D6" opacity="1.000000" stroke="none" 
	d="
M488.165649,30.996820 
	C493.419098,30.664097 498.672516,30.331371 504.379852,29.998154 
	C504.879974,38.689152 504.926208,47.380642 504.447266,56.536327 
	C499.003601,57.000652 494.085175,57.000778 489.097137,56.536629 
	C488.740234,47.713840 488.452942,39.355331 488.165649,30.996820 
z"/>
<path fill="#1F9FD9" opacity="1.000000" stroke="none" 
	d="
M489.166748,57.000904 
	C494.085175,57.000778 499.003601,57.000652 504.377686,57.000427 
	C504.880035,65.691208 504.926819,74.382095 504.903839,83.537277 
	C499.915314,84.001434 494.996521,84.001297 489.552094,83.536880 
	C489.073181,74.382034 489.119965,65.691467 489.166748,57.000904 
z"/>
<path fill="#1F9FD9" opacity="1.000000" stroke="none" 
	d="
M345.095428,63.464676 
	C350.084686,63.001015 355.003448,63.001190 360.448608,63.465103 
	C360.927887,71.618919 360.880676,79.308990 360.833496,86.999069 
	C355.913452,87.332436 350.993408,87.665802 345.620056,87.998993 
	C345.119507,79.975380 345.072205,71.951950 345.095428,63.464676 
z"/>
<path fill="#1F9FD9" opacity="1.000000" stroke="none" 
	d="
M105.166603,65.000160 
	C110.085121,65.000061 115.003647,64.999962 120.377777,64.999725 
	C120.879883,72.689590 120.926376,80.379585 120.447327,88.533897 
	C115.003540,88.998070 110.085297,88.997925 105.097092,88.533951 
	C105.073616,80.380135 105.120110,72.690147 105.166603,65.000160 
z"/>
<path fill="#259ADB" opacity="1.000000" stroke="none" 
	d="
M105.167053,88.997780 
	C110.085297,88.997925 115.003540,88.998070 120.377365,88.997734 
	C120.879776,95.688583 120.926605,102.379921 120.903435,109.535065 
	C115.915070,109.998833 110.996704,109.998795 105.552444,109.534821 
	C105.073395,102.379837 105.120224,95.688812 105.167053,88.997780 
z"/>
<path fill="#9C32FE" opacity="1.000000" stroke="none" 
	d="
M196.995392,489.662598 
	C191.795227,489.666321 186.750732,489.423096 181.727585,488.952209 
	C179.891525,488.780090 178.106186,488.067230 176.282715,486.934937 
	C181.176514,483.655640 183.789474,479.561676 184.165054,474.024597 
	C189.416595,473.684967 194.668137,473.345337 200.375122,473.006897 
	C201.697418,478.917542 199.963806,484.241943 196.995392,489.662598 
z"/>
<path fill="#7B4FF4" opacity="1.000000" stroke="none" 
	d="
M40.833073,390.002258 
	C35.914776,390.001984 30.996477,390.001740 25.622553,390.002136 
	C25.120419,384.311432 25.073910,378.620117 25.097790,372.465698 
	C30.085545,372.002655 35.002914,372.002747 40.446442,372.466309 
	C40.926094,378.620636 40.879585,384.311432 40.833073,390.002258 
z"/>
<path fill="#2C94DD" opacity="1.000000" stroke="none" 
	d="
M369.039886,120.882965 
	C363.694794,121.255424 358.351837,121.663910 353.003479,121.981514 
	C351.036194,122.098343 349.056152,122.000526 346.623901,122.000755 
	C345.785828,116.974030 345.405731,111.947174 345.095947,106.460587 
	C350.084778,106.000809 355.003296,106.000755 360.447937,106.430344 
	C361.056793,115.951523 362.608398,118.649094 369.039886,120.882965 
z"/>
<path fill="#000000" opacity="1.000000" stroke="none" 
	d="
M399.090210,262.632935 
	C400.743805,271.150208 400.432068,279.199524 397.933472,287.552399 
	C393.165924,296.524475 387.368256,304.044464 378.053162,308.639954 
	C369.057373,310.302094 360.232971,312.768463 351.394287,312.820618 
	C292.407837,313.168518 233.418121,313.090546 174.430206,312.908661 
	C165.144424,312.880035 155.882492,311.543518 147.440674,306.107605 
	C137.252045,298.294434 130.328476,288.950836 129.903290,275.434052 
	C129.320847,264.201294 132.367523,254.655441 139.971573,246.353088 
	C150.055252,235.976135 162.106918,232.165222 176.705551,234.484192 
	C177.503342,228.629791 178.237869,223.239624 178.902740,217.423813 
	C180.017654,213.050278 180.858109,208.954880 182.471771,205.190933 
	C184.603058,200.219574 187.340408,195.508041 189.967163,190.362122 
	C196.670746,179.842255 205.035339,171.481323 215.985596,164.963257 
	C216.815811,164.480972 217.038986,164.162140 217.262161,163.843307 
	C217.262161,163.843307 217.683289,163.780319 217.777740,163.589523 
	C229.978989,156.841370 243.131622,153.402405 256.680969,153.381973 
	C268.149048,153.364670 279.616089,155.600906 290.480560,161.016830 
	C297.891907,165.875076 304.987671,170.615906 311.939453,175.559128 
	C313.329620,176.547623 314.170990,178.307907 315.563110,179.879608 
	C320.661865,187.598328 325.462982,195.149780 330.573792,202.869812 
	C332.589508,209.427582 334.295532,215.816772 336.083923,222.603149 
	C336.418488,228.214081 336.670654,233.427795 336.973480,239.689621 
	C353.003021,233.269577 368.497925,230.059601 383.641846,240.970215 
	C391.298431,246.513947 396.280518,253.584503 399.090210,262.632935 
M198.008453,207.029846 
	C194.197220,215.136215 192.166992,223.556335 193.291687,233.001312 
	C196.129089,233.001312 198.755875,233.001312 201.382675,233.001312 
	C204.156448,233.001312 206.930237,233.001312 209.645782,233.001312 
	C210.683380,219.345306 213.091980,214.013229 217.158707,207.344513 
	C222.489166,199.395508 229.993546,193.936630 238.844070,189.014679 
	C244.791580,187.681503 250.739105,186.348312 256.599487,185.034668 
	C256.599487,179.879730 256.599487,174.500259 256.599487,168.976791 
	C239.848541,168.332199 226.093292,174.472092 213.324707,185.176804 
	C206.774765,191.149124 201.887817,198.302551 198.008453,207.029846 
M169.027985,273.861450 
	C168.915024,288.727356 178.932220,297.105133 196.180588,297.061462 
	C206.308365,297.035828 219.214417,284.671722 216.974182,272.140137 
	C217.084229,257.277924 207.056854,248.895248 189.817261,248.940521 
	C179.760300,248.966919 166.777237,261.273834 169.027985,273.861450 
M233.027985,273.861450 
	C232.915009,288.727356 242.932220,297.105133 260.180603,297.061493 
	C270.308441,297.035858 283.214447,284.671570 280.974182,272.140167 
	C281.084229,257.277893 271.056885,248.895279 253.817276,248.940521 
	C243.760300,248.966919 230.777237,261.273834 233.027985,273.861450 
M297.027985,273.861450 
	C296.915009,288.727325 306.932251,297.105103 324.180573,297.061462 
	C334.308411,297.035858 347.214447,284.671539 344.974182,272.140167 
	C345.084229,257.277924 335.056885,248.895325 317.817291,248.940536 
	C307.760315,248.966919 294.777283,261.273773 297.027985,273.861450 
z"/>
<path fill="#000000" opacity="1.000000" stroke="none" 
	d="
M40.903763,390.466003 
	C40.879585,384.311432 40.926094,378.620636 40.902218,372.466888 
	C41.652386,363.926575 44.807690,361.003204 52.778553,361.001587 
	C86.569939,360.994720 120.361320,360.998596 154.152710,360.998749 
	C166.161057,360.998779 168.990875,363.783539 168.998734,375.602783 
	C168.999496,376.767914 169.013947,377.933014 169.094574,379.551758 
	C169.118484,390.028900 169.069885,400.052429 169.093964,410.539978 
	C169.117371,422.361176 169.068085,433.718353 169.092377,445.539185 
	C169.165970,449.472107 169.165970,452.941315 169.165970,456.704254 
	C126.333076,456.704254 83.953941,456.704254 40.973083,456.704254 
	C40.973083,454.426178 40.973083,452.162781 40.903297,449.451355 
	C40.880096,438.978546 40.926682,428.953857 40.903542,418.464966 
	C40.880692,408.977112 40.927570,399.953430 40.903763,390.466003 
M152.977402,420.075562 
	C152.928970,412.384949 152.880539,404.694305 152.977417,396.076233 
	C152.977417,389.816040 152.977417,383.555817 152.977417,377.311768 
	C120.689018,377.311768 88.996254,377.311768 57.166668,377.311768 
	C57.166668,384.747864 57.166668,391.875092 57.026718,399.930115 
	C57.073261,407.620850 57.119808,415.311615 57.025143,423.928986 
	C57.025143,429.522552 57.025143,435.116089 57.025143,440.694885 
	C89.308441,440.694885 121.005257,440.694885 152.832748,440.694885 
	C152.832748,433.927643 152.832748,427.465576 152.977402,420.075562 
z"/>
<path fill="#000000" opacity="1.000000" stroke="none" 
	d="
M183.927734,473.647369 
	C183.789474,479.561676 181.176514,483.655640 176.115509,486.576233 
	C171.480164,487.589539 166.999466,488.889526 162.513474,488.908142 
	C123.549675,489.069672 84.584831,489.044983 45.620560,488.958344 
	C39.112602,488.943878 32.913048,487.597565 28.573687,482.014740 
	C28.186249,481.516296 28.007231,480.855896 27.425503,480.115784 
	C26.666548,477.806946 26.213511,475.653076 25.697268,473.198669 
	C27.506298,473.111969 28.651917,473.009216 29.797552,473.009033 
	C80.106071,473.001160 130.414597,473.000824 180.723114,473.013580 
	C181.712234,473.013855 182.701324,473.180908 183.927734,473.647369 
z"/>
<path fill="#000000" opacity="1.000000" stroke="none" 
	d="
M379.379578,438.046387 
	C376.229950,429.878723 375.786102,421.845947 378.808441,413.381989 
	C382.210327,411.661407 385.545502,409.212128 388.905701,409.177307 
	C418.218414,408.873444 447.536560,408.895905 476.850281,409.147614 
	C480.180878,409.176208 483.494232,411.213623 486.976074,412.655151 
	C489.843292,421.529144 490.551544,429.994110 486.048523,438.614502 
	C481.256195,439.637970 476.627106,440.879211 471.989685,440.911102 
	C444.776581,441.098297 417.560730,441.104584 390.348236,440.879364 
	C386.798431,440.849976 383.262573,439.140533 379.379578,438.046387 
z"/>
<path fill="#000000" opacity="1.000000" stroke="none" 
	d="
M376.902557,377.441650 
	C376.849762,363.057465 380.150970,360.840179 393.901794,360.942627 
	C420.501831,361.140808 447.104340,361.000427 473.705841,361.000519 
	C486.356750,361.000549 488.923981,363.536469 489.093811,376.566132 
	C489.175568,390.776520 485.986481,393.165131 472.106293,393.059906 
	C445.501312,392.858185 418.893707,393.001282 392.287170,393.001221 
	C379.625488,393.001190 377.068237,390.476227 376.902557,377.441650 
z"/>
<path fill="#000000" opacity="1.000000" stroke="none" 
	d="
M489.092834,472.567017 
	C489.170074,486.961517 485.788422,489.163361 472.119690,489.059753 
	C445.503265,488.858032 418.884216,489.000671 392.266266,489.000610 
	C379.668610,489.000580 377.062927,486.424622 376.902222,473.442566 
	C376.840576,459.083191 380.201843,456.840851 393.879028,456.943024 
	C420.494385,457.141846 447.112244,457.001190 473.729065,457.001282 
	C486.318237,457.001312 488.925720,459.581360 489.092834,472.567017 
z"/>
<path fill="#000000" opacity="1.000000" stroke="none" 
	d="
M360.928894,87.425575 
	C360.880676,79.308990 360.927887,71.618919 360.904541,63.465054 
	C360.881409,53.310692 360.928772,43.620117 360.904968,33.466103 
	C363.234802,26.397907 368.403717,24.927961 374.803619,24.948215 
	C408.760529,25.055674 442.717957,24.985437 476.675201,25.014734 
	C481.191742,25.018631 485.421631,25.836231 487.999084,30.672377 
	C488.452942,39.355331 488.740234,47.713840 489.097168,56.536629 
	C489.119965,65.691467 489.073181,74.382034 489.096191,83.536865 
	C489.062866,85.487785 488.959778,86.974449 488.819397,88.999641 
	C487.194916,88.999641 485.574860,88.999634 483.954834,88.999634 
	C444.596008,88.999634 405.237152,89.013275 365.878448,88.951126 
	C364.259827,88.948570 362.642303,88.234604 360.928894,87.425575 
z"/>
<path fill="#000000" opacity="1.000000" stroke="none" 
	d="
M369.503693,120.932213 
	C362.608398,118.649094 361.056793,115.951523 360.903809,106.430061 
	C362.026154,105.666611 363.218262,105.042999 364.411194,105.041542 
	C405.034821,104.991959 445.658508,104.999939 486.282196,105.012978 
	C487.079529,105.013237 487.876831,105.172760 489.228607,105.317238 
	C488.915344,108.097664 488.628113,110.647293 488.254211,113.598328 
	C486.775269,120.198746 481.806458,120.933769 476.830231,120.946754 
	C441.209534,121.039696 405.588470,120.987518 369.503693,120.932213 
z"/>
<path fill="#000000" opacity="1.000000" stroke="none" 
	d="
M441.096680,143.554596 
	C441.166901,146.796860 441.166901,149.593735 441.166901,152.693878 
	C430.347809,152.693878 419.976990,152.693878 408.973114,152.693878 
	C408.973114,150.095657 408.973114,147.499985 408.903137,144.452148 
	C408.935699,141.860672 409.038300,139.721375 409.154724,137.294006 
	C419.641510,137.294006 430.028290,137.294006 441.026489,137.294006 
	C441.026489,139.259003 441.026489,141.184097 441.096680,143.554596 
z"/>
<path fill="#000000" opacity="1.000000" stroke="none" 
	d="
M410.351105,243.878448 
	C409.676788,243.609207 409.350952,243.143570 409.066650,242.362091 
	C409.638672,242.591537 410.169098,243.136810 410.351105,243.878448 
z"/>
<path fill="#000000" opacity="1.000000" stroke="none" 
	d="
M25.362701,145.076782 
	C25.040312,142.434860 25.040312,139.979614 25.040312,137.263824 
	C51.789062,137.263824 78.230270,137.263824 105.239433,137.263824 
	C104.916885,140.110092 104.628639,142.653687 104.254227,145.598770 
	C103.152657,151.505875 98.739883,152.838013 94.341217,152.892792 
	C74.862381,153.135300 55.377209,153.134277 35.898106,152.903137 
	C31.063530,152.845779 26.467176,151.303177 25.362701,145.076782 
z"/>
<path fill="#000000" opacity="1.000000" stroke="none" 
	d="
M103.529221,29.891151 
	C104.350021,33.435928 104.853317,36.811398 105.423180,40.633369 
	C78.361755,40.633369 51.875984,40.633369 24.657776,40.633369 
	C25.132406,37.243015 25.576912,34.067852 26.087151,30.476425 
	C29.260214,28.374079 32.335728,25.300438 35.480068,25.228336 
	C55.079388,24.778904 74.698265,24.802053 94.299316,25.211542 
	C97.300209,25.274235 100.242371,28.148138 103.529221,29.891151 
z"/>
<path fill="#000000" opacity="1.000000" stroke="none" 
	d="
M105.097084,88.533951 
	C105.120224,95.688812 105.073395,102.379837 105.096558,109.534653 
	C105.166550,113.462311 105.166550,116.926178 105.166550,120.693115 
	C78.337318,120.693115 51.984066,120.693115 24.974110,120.693115 
	C24.974110,115.437767 24.974110,110.181320 24.903481,104.461281 
	C24.880262,93.307487 24.927671,82.617294 24.904202,71.463104 
	C24.833324,66.535469 24.833324,62.071812 24.833324,57.307800 
	C51.679123,57.307800 78.039719,57.307800 105.026886,57.307800 
	C105.026886,59.584267 105.026886,61.844597 105.096741,64.552544 
	C105.120110,72.690147 105.073616,80.380135 105.097084,88.533951 
z"/>
<path fill="#358CE0" opacity="1.000000" stroke="none" 
	d="
M217.041016,163.991669 
	C217.038986,164.162140 216.815811,164.480972 216.302673,164.805573 
	C216.281754,164.587555 216.550797,164.363785 217.041016,163.991669 
z"/>
<path fill="#576FEA" opacity="1.000000" stroke="none" 
	d="
M297.167694,273.000732 
	C294.777283,261.273773 307.760315,248.966919 317.817291,248.940536 
	C335.056885,248.895325 345.084229,257.277924 344.446838,272.570190 
	C338.666046,273.000885 333.412537,273.001526 328.087646,272.621887 
	C327.544037,267.611725 324.736603,265.779053 320.364044,266.021667 
	C315.347504,266.299988 313.937897,269.642395 313.472046,273.832153 
	C307.791199,273.441620 302.479431,273.221161 297.167694,273.000732 
z"/>
<path fill="#576FEA" opacity="1.000000" stroke="none" 
	d="
M233.167709,273.000732 
	C230.777237,261.273834 243.760300,248.966919 253.817276,248.940521 
	C271.056885,248.895279 281.084229,257.277893 280.446838,272.570190 
	C274.666046,273.000885 269.412537,273.001526 264.087646,272.621887 
	C263.544037,267.611725 260.736603,265.779053 256.364044,266.021637 
	C251.347473,266.299957 249.937897,269.642395 249.472061,273.832153 
	C243.791199,273.441620 238.479446,273.221161 233.167709,273.000732 
z"/>
<path fill="#576FEA" opacity="1.000000" stroke="none" 
	d="
M169.167709,273.000732 
	C166.777237,261.273834 179.760300,248.966919 189.817261,248.940521 
	C207.056854,248.895248 217.084229,257.277924 216.446854,272.570190 
	C210.666031,273.000885 205.412552,273.001526 200.087616,272.621887 
	C199.543945,267.611816 196.736572,265.779053 192.364014,266.021637 
	C187.347473,266.299988 185.937881,269.642395 185.472061,273.832153 
	C179.791199,273.441650 174.479446,273.221191 169.167709,273.000732 
z"/>
<path fill="#5D69EC" opacity="1.000000" stroke="none" 
	d="
M169.097839,273.431091 
	C174.479446,273.221191 179.791199,273.441650 185.546417,274.202881 
	C187.080734,278.989868 190.083542,280.388428 194.103638,279.967865 
	C198.195480,279.539825 199.881912,276.839417 200.159058,273.002167 
	C205.412552,273.001526 210.666031,273.000885 216.376114,273.000488 
	C219.214417,284.671722 206.308365,297.035828 196.180588,297.061462 
	C178.932220,297.105133 168.915024,288.727356 169.097839,273.431091 
z"/>
<path fill="#5D69EC" opacity="1.000000" stroke="none" 
	d="
M233.097839,273.431091 
	C238.479446,273.221161 243.791199,273.441620 249.546417,274.202881 
	C251.080719,278.989899 254.083557,280.388458 258.103638,279.967896 
	C262.195465,279.539795 263.881897,276.839386 264.159058,273.002167 
	C269.412537,273.001526 274.666046,273.000885 280.376099,273.000488 
	C283.214447,284.671570 270.308441,297.035858 260.180603,297.061493 
	C242.932220,297.105133 232.915009,288.727356 233.097839,273.431091 
z"/>
<path fill="#5D69EC" opacity="1.000000" stroke="none" 
	d="
M297.097839,273.431091 
	C302.479431,273.221161 307.791199,273.441620 313.546448,274.202881 
	C315.080719,278.989899 318.083527,280.388397 322.103638,279.967865 
	C326.195465,279.539795 327.881927,276.839417 328.159058,273.002167 
	C333.412537,273.001526 338.666046,273.000885 344.376099,273.000488 
	C347.214447,284.671539 334.308411,297.035858 324.180573,297.061462 
	C306.932251,297.105103 296.915009,288.727325 297.097839,273.431091 
z"/>
<path fill="#3D85E2" opacity="1.000000" stroke="none" 
	d="
M213.944427,184.915985 
	C226.093292,174.472092 239.848541,168.332199 256.599487,168.976791 
	C256.599487,174.500259 256.599487,179.879730 256.599487,185.034668 
	C250.739105,186.348312 244.791580,187.681503 238.147461,188.814850 
	C231.458237,188.076523 225.450363,187.661774 219.481827,186.927475 
	C217.582291,186.693771 215.787277,185.610504 213.944427,184.915985 
z"/>
<path fill="#447FE4" opacity="1.000000" stroke="none" 
	d="
M213.634567,185.046387 
	C215.787277,185.610504 217.582291,186.693771 219.481827,186.927475 
	C225.450363,187.661774 231.458237,188.076523 237.749451,188.861450 
	C229.993546,193.936630 222.489166,199.395508 216.556763,207.666748 
	C210.062485,207.446960 204.170166,206.904938 198.277847,206.362900 
	C201.887817,198.302551 206.774765,191.149124 213.634567,185.046387 
z"/>
<path fill="#497BE5" opacity="1.000000" stroke="none" 
	d="
M198.143158,206.696381 
	C204.170166,206.904938 210.062485,207.446960 216.414856,207.983322 
	C213.091980,214.013229 210.683380,219.345306 209.645782,233.001312 
	C206.930237,233.001312 204.156448,233.001312 201.382675,233.001312 
	C198.755875,233.001312 196.129089,233.001312 193.291687,233.001312 
	C192.166992,223.556335 194.197220,215.136215 198.143158,206.696381 
z"/>
<path fill="#7B4FF4" opacity="1.000000" stroke="none" 
	d="
M57.166668,399.002289 
	C57.166668,391.875092 57.166668,384.747864 57.166668,377.311768 
	C88.996254,377.311768 120.689018,377.311768 152.977417,377.311768 
	C152.977417,383.555817 152.977417,389.816040 152.449203,396.539368 
	C147.003296,397.003021 142.085587,397.003479 137.094971,396.567566 
	C137.582794,392.776215 135.407394,392.972839 133.128998,392.978119 
	C115.086380,393.020081 97.043602,393.001373 79.000877,393.001282 
	C77.062454,393.001282 75.124031,393.001282 73.176315,393.001282 
	C73.040138,395.384064 72.936737,397.193329 72.377464,399.001953 
	C67.003281,399.001648 62.084976,399.001984 57.166668,399.002289 
z"/>
<path fill="#8942F9" opacity="1.000000" stroke="none" 
	d="
M152.832748,421.003540 
	C152.832748,427.465576 152.832748,433.927643 152.832748,440.694885 
	C121.005257,440.694885 89.308441,440.694885 57.025143,440.694885 
	C57.025143,435.116089 57.025143,429.522552 57.551422,423.465149 
	C62.996349,423.001465 67.915001,423.001648 72.925774,423.430328 
	C74.628204,424.239685 76.236946,424.943817 77.849060,424.951630 
	C94.581619,425.032593 111.314728,425.001465 128.047684,425.001465 
	C130.976990,425.001465 133.906311,425.001465 136.806870,425.001465 
	C136.959625,423.306885 137.063446,422.154968 137.623108,421.002625 
	C142.996857,421.002625 147.914810,421.003082 152.832748,421.003540 
z"/>
<path fill="#8447F7" opacity="1.000000" stroke="none" 
	d="
M72.833656,423.001831 
	C67.915001,423.001648 62.996349,423.001465 57.622025,423.001831 
	C57.119808,415.311615 57.073261,407.620850 57.096695,399.466187 
	C62.084976,399.001984 67.003281,399.001648 72.447441,399.465851 
	C72.926743,407.620850 72.880203,415.311340 72.833656,423.001831 
z"/>
<path fill="#8447F7" opacity="1.000000" stroke="none" 
	d="
M152.905075,420.539551 
	C147.914810,421.003082 142.996857,421.002625 137.550751,420.538635 
	C137.071030,412.384735 137.119461,404.694366 137.167892,397.003967 
	C142.085587,397.003479 147.003296,397.003021 152.376556,397.003113 
	C152.880539,404.694305 152.928970,412.384949 152.905075,420.539551 
z"/>
<path fill="#000000" opacity="1.000000" stroke="none" 
	d="
M328.087646,272.621887 
	C327.881927,276.839417 326.195465,279.539795 322.103638,279.967865 
	C318.083527,280.388397 315.080719,278.989899 313.915558,274.372925 
	C313.937897,269.642395 315.347504,266.299988 320.364044,266.021667 
	C324.736603,265.779053 327.544037,267.611725 328.087646,272.621887 
z"/>
<path fill="#000000" opacity="1.000000" stroke="none" 
	d="
M264.087646,272.621887 
	C263.881897,276.839386 262.195465,279.539795 258.103638,279.967896 
	C254.083557,280.388458 251.080719,278.989899 249.915558,274.372925 
	C249.937897,269.642395 251.347473,266.299957 256.364044,266.021637 
	C260.736603,265.779053 263.544037,267.611725 264.087646,272.621887 
z"/>
<path fill="#000000" opacity="1.000000" stroke="none" 
	d="
M200.087616,272.621887 
	C199.881912,276.839417 198.195480,279.539825 194.103638,279.967865 
	C190.083542,280.388428 187.080734,278.989868 185.915558,274.372925 
	C185.937881,269.642395 187.347473,266.299988 192.364014,266.021637 
	C196.736572,265.779053 199.543945,267.611816 200.087616,272.621887 
z"/>
<path fill="#000000" opacity="1.000000" stroke="none" 
	d="
M137.094971,396.567566 
	C137.119461,404.694366 137.071030,412.384735 137.094940,420.539124 
	C137.063446,422.154968 136.959625,423.306885 136.806870,425.001465 
	C133.906311,425.001465 130.976990,425.001465 128.047684,425.001465 
	C111.314728,425.001465 94.581619,425.032593 77.849060,424.951630 
	C76.236946,424.943817 74.628204,424.239685 72.925774,423.430328 
	C72.880203,415.311340 72.926743,407.620850 72.903313,399.466461 
	C72.936737,397.193329 73.040138,395.384064 73.176315,393.001282 
	C75.124031,393.001282 77.062454,393.001282 79.000877,393.001282 
	C97.043602,393.001373 115.086380,393.020081 133.128998,392.978119 
	C135.407394,392.972839 137.582794,392.776215 137.094971,396.567566 
z"/>
</svg>