<svg version="1.1" id="Layer_1" xmlns="http://www.w3.org/2000/svg" xmlns:xlink="http://www.w3.org/1999/xlink" x="0px" y="0px"
	 width="100%" viewBox="0 0 300 298" enable-background="new 0 0 300 298" xml:space="preserve">
<path fill="#000000" opacity="1.000000" stroke="none" 
	d="
M301.000000,142.000000 
	C301.000000,145.030594 301.000000,148.061188 300.531342,151.546600 
	C283.458954,152.001434 266.855225,152.001434 250.417511,152.001434 
	C247.419174,179.221039 235.348862,200.426987 211.951538,213.844910 
	C188.474838,227.308350 163.949936,227.622345 139.114090,216.267731 
	C130.115997,230.720139 121.108406,245.187790 111.717087,260.271759 
	C119.520721,263.545532 126.678482,267.267303 134.264191,269.593536 
	C155.552170,276.121674 177.277740,276.800354 199.183365,273.003540 
	C201.867157,272.538361 203.108490,271.423248 203.091873,268.451385 
	C203.073700,265.202271 203.260880,261.776794 204.262817,258.725098 
	C211.910660,235.431244 237.234283,223.557938 260.458832,236.410416 
	C264.060303,238.403442 265.536377,237.157654 267.494720,235.038040 
	C268.480316,233.971283 269.086395,232.556320 270.061249,231.476868 
	C285.001923,214.933105 294.252502,195.547104 299.047119,173.891769 
	C299.280975,172.835510 300.330353,171.959793 301.000000,171.000000 
	C301.000000,213.560349 301.000000,256.120697 301.000000,299.000000 
	C285.313873,299.000000 269.625610,299.000000 253.129166,298.740387 
	C252.778412,298.026306 253.154358,297.361786 253.705154,297.148224 
	C266.299988,292.264893 272.371735,282.037720 272.628326,269.585907 
	C272.885529,257.106262 266.568359,247.226471 254.471359,241.832504 
	C244.268936,237.283279 234.564453,237.846298 225.259735,243.971451 
	C215.761063,250.224258 210.614883,259.409912 211.233322,270.487366 
	C211.919861,282.784821 217.897400,292.452362 230.141129,297.148315 
	C230.597092,297.323181 230.721222,298.363190 231.000000,299.000000 
	C154.424301,299.000000 77.848610,299.000000 1.000000,299.000000 
	C1.000000,252.979462 1.000000,206.958389 1.254811,160.134216 
	C2.287086,160.363235 3.282692,161.295349 3.808887,162.442703 
	C10.403863,176.823151 24.208817,181.013153 36.901917,178.747849 
	C51.569588,176.130127 59.957245,165.882751 61.514828,151.469070 
	C62.640068,141.056259 58.339214,131.989532 49.707462,125.062035 
	C35.744900,113.856247 10.983773,117.587418 2.939780,136.612442 
	C2.675816,137.236740 1.663484,137.544617 1.000000,138.000000 
	C1.000000,92.388115 1.000000,46.776230 1.000000,1.000000 
	C76.687485,1.000000 152.375076,1.000000 228.732483,1.330376 
	C224.708542,5.491676 218.891663,8.539217 215.557922,13.318760 
	C208.890167,22.878290 207.655762,34.058052 213.369263,44.454597 
	C219.078293,54.843010 228.125900,61.157703 240.753189,61.031864 
	C255.238617,60.887501 267.835510,51.544521 270.636078,37.317776 
	C273.169861,24.446375 268.772430,10.472747 254.882248,3.906713 
	C253.722610,3.358540 252.951569,1.988307 252.000000,1.000003 
	C268.291931,1.000000 284.583832,1.000000 301.000000,1.000000 
	C301.000000,42.020817 301.000000,83.041748 300.632050,124.762810 
	C299.851898,124.791840 299.193207,124.165154 299.063141,123.443245 
	C294.630920,98.842270 283.527222,77.628021 266.587982,59.281769 
	C254.601013,69.317841 241.047928,73.452850 226.164734,67.453720 
	C206.025742,59.336075 199.613159,43.039303 202.242889,22.642912 
	C166.719650,13.549685 131.164856,22.437513 107.045258,37.464352 
	C116.502968,51.775326 125.954308,66.076660 135.357483,80.305122 
	C160.579987,66.766708 185.504761,66.490990 209.669861,79.539032 
	C234.041702,92.698692 247.132645,114.256432 250.303970,142.000000 
	C267.409180,142.000000 284.204590,142.000000 301.000000,142.000000 
M98.065811,165.203217 
	C96.188004,155.324432 95.199120,145.517303 96.876343,135.383682 
	C100.098557,115.915421 108.634064,99.733688 124.053627,87.220467 
	C125.055862,86.407150 125.591064,83.444405 124.919395,82.381012 
	C116.359642,68.829132 107.539314,55.441833 98.652306,41.808769 
	C95.562302,44.186550 92.705833,46.114388 90.158272,48.388302 
	C71.870865,64.711365 58.217693,84.053932 50.499866,107.585678 
	C48.678490,113.139076 49.623547,115.385986 54.412411,118.318459 
	C67.353668,126.243080 73.609322,142.207565 70.168098,157.992706 
	C67.559769,169.957306 60.268284,177.921143 50.197884,184.179230 
	C59.957996,213.684738 77.550369,236.925552 103.157890,254.151123 
	C112.369423,239.407349 121.302551,225.109177 130.306396,210.697815 
	C114.178490,199.391418 103.359764,184.755753 98.065811,165.203217 
z"/>
<path fill="#D40000" opacity="1.000000" stroke="none" 
	d="
M301.000000,170.531708 
	C300.330353,171.959793 299.280975,172.835510 299.047119,173.891769 
	C294.252502,195.547104 285.001923,214.933105 270.061249,231.476868 
	C269.086395,232.556320 268.480316,233.971283 267.494720,235.038040 
	C265.536377,237.157654 264.060303,238.403442 260.458832,236.410416 
	C237.234283,223.557938 211.910660,235.431244 204.262817,258.725098 
	C203.260880,261.776794 203.073700,265.202271 203.091873,268.451385 
	C203.108490,271.423248 201.867157,272.538361 199.183365,273.003540 
	C177.277740,276.800354 155.552170,276.121674 134.264191,269.593536 
	C126.678482,267.267303 119.520721,263.545532 111.717087,260.271759 
	C121.108406,245.187790 130.115997,230.720139 139.114090,216.267731 
	C163.949936,227.622345 188.474838,227.308350 211.951538,213.844910 
	C235.348862,200.426987 247.419174,179.221039 250.417511,152.001434 
	C266.855225,152.001434 283.458954,152.001434 300.531342,152.000717 
	C301.000000,158.021149 301.000000,164.042297 301.000000,170.531708 
z"/>
<path fill="#F44800" opacity="1.000000" stroke="none" 
	d="
M301.000000,141.532394 
	C284.204590,142.000000 267.409180,142.000000 250.303970,142.000000 
	C247.132645,114.256432 234.041702,92.698692 209.669861,79.539032 
	C185.504761,66.490990 160.579987,66.766708 135.357483,80.305122 
	C125.954308,66.076660 116.502968,51.775326 107.045258,37.464352 
	C131.164856,22.437513 166.719650,13.549685 202.242889,22.642912 
	C199.613159,43.039303 206.025742,59.336075 226.164734,67.453720 
	C241.047928,73.452850 254.601013,69.317841 266.587982,59.281769 
	C283.527222,77.628021 294.630920,98.842270 299.063141,123.443245 
	C299.193207,124.165154 299.851898,124.791840 300.632050,125.231468 
	C301.000000,130.354935 301.000000,135.709854 301.000000,141.532394 
z"/>
<path fill="#D40000" opacity="1.000000" stroke="none" 
	d="
M251.531372,1.000003 
	C252.951569,1.988307 253.722610,3.358540 254.882248,3.906713 
	C268.772430,10.472747 273.169861,24.446375 270.636078,37.317776 
	C267.835510,51.544521 255.238617,60.887501 240.753189,61.031864 
	C228.125900,61.157703 219.078293,54.843010 213.369263,44.454597 
	C207.655762,34.058052 208.890167,22.878290 215.557922,13.318760 
	C218.891663,8.539217 224.708542,5.491676 229.201141,1.330376 
	C236.354248,1.000000 243.708496,1.000000 251.531372,1.000003 
z"/>
<path fill="#FB8B00" opacity="1.000000" stroke="none" 
	d="
M231.468567,299.000000 
	C230.721222,298.363190 230.597092,297.323181 230.141129,297.148315 
	C217.897400,292.452362 211.919861,282.784821 211.233322,270.487366 
	C210.614883,259.409912 215.761063,250.224258 225.259735,243.971451 
	C234.564453,237.846298 244.268936,237.283279 254.471359,241.832504 
	C266.568359,247.226471 272.885529,257.106262 272.628326,269.585907 
	C272.371735,282.037720 266.299988,292.264893 253.705154,297.148224 
	C253.154358,297.361786 252.778412,298.026306 252.660507,298.740387 
	C245.979050,299.000000 238.958099,299.000000 231.468567,299.000000 
z"/>
<path fill="#F44800" opacity="1.000000" stroke="none" 
	d="
M1.000000,138.468567 
	C1.663484,137.544617 2.675816,137.236740 2.939780,136.612442 
	C10.983773,117.587418 35.744900,113.856247 49.707462,125.062035 
	C58.339214,131.989532 62.640068,141.056259 61.514828,151.469070 
	C59.957245,165.882751 51.569588,176.130127 36.901917,178.747849 
	C24.208817,181.013153 10.403863,176.823151 3.808887,162.442703 
	C3.282692,161.295349 2.287086,160.363235 1.254811,159.665558 
	C1.000000,152.979050 1.000000,145.958099 1.000000,138.468567 
z"/>
<path fill="#FB8B00" opacity="1.000000" stroke="none" 
	d="
M98.259705,165.580383 
	C103.359764,184.755753 114.178490,199.391418 130.306396,210.697815 
	C121.302551,225.109177 112.369423,239.407349 103.157890,254.151123 
	C77.550369,236.925552 59.957996,213.684738 50.197884,184.179230 
	C60.268284,177.921143 67.559769,169.957306 70.168098,157.992706 
	C73.609322,142.207565 67.353668,126.243080 54.412411,118.318459 
	C49.623547,115.385986 48.678490,113.139076 50.499866,107.585678 
	C58.217693,84.053932 71.870865,64.711365 90.158272,48.388302 
	C92.705833,46.114388 95.562302,44.186550 98.652306,41.808769 
	C107.539314,55.441833 116.359642,68.829132 124.919395,82.381012 
	C125.591064,83.444405 125.055862,86.407150 124.053627,87.220467 
	C108.634064,99.733688 100.098557,115.915421 96.876343,135.383682 
	C95.199120,145.517303 96.188004,155.324432 98.259705,165.580383 
z"/>
</svg>