<?xml version="1.0" encoding="UTF-8"?>
<svg version="1.1" xmlns="http://www.w3.org/2000/svg" width="60" height="60">
<path d="M0 0 C0.76699219 0.09667969 1.53398438 0.19335938 2.32421875 0.29296875 C4.3125 0.8125 4.3125 0.8125 6.3125 2.8125 C9.21217757 3.11925232 12.03033178 3.32423371 14.9375 3.4375 C15.73929688 3.47617188 16.54109375 3.51484375 17.3671875 3.5546875 C19.34857556 3.64903931 21.33050645 3.73186215 23.3125 3.8125 C22.76598968 7.73683917 22.47738442 8.65127968 19.5 11.5625 C15.40062261 14.45617816 15.40062261 14.45617816 12.3125 14.8125 C12.57123102 19.21092734 12.87356889 21.30772922 15.8125 24.6875 C16.6375 25.38875 17.4625 26.09 18.3125 26.8125 C19.90144072 28.40144072 19.48248411 30.06051424 19.5 32.25 C19.51417969 33.05308594 19.52835938 33.85617188 19.54296875 34.68359375 C19.3125 36.8125 19.3125 36.8125 17.3125 38.8125 C16.3225 38.8125 15.3325 38.8125 14.3125 38.8125 C14.8075 43.2675 14.8075 43.2675 15.3125 47.8125 C5.88603592 51.85241318 -5.36669718 52.57574144 -15.1875 49.3125 C-16.3425 48.8175 -17.4975 48.3225 -18.6875 47.8125 C-18.3575 44.8425 -18.0275 41.8725 -17.6875 38.8125 C-19.0075 38.4825 -20.3275 38.1525 -21.6875 37.8125 C-23.25668492 36.24331508 -22.97008943 34.67164841 -23.0625 32.5 C-23.046875 30.01171875 -23.046875 30.01171875 -22.6875 27.8125 C-21.05489286 26.43767293 -19.38524938 25.10602333 -17.6875 23.8125 C-16.66161205 20.86371656 -16.12927015 17.8982975 -15.6875 14.8125 C-16.574375 14.585625 -17.46125 14.35875 -18.375 14.125 C-22.19077495 12.61308917 -24.07318606 10.94967673 -26.6875 7.8125 C-27.32421875 5.6484375 -27.32421875 5.6484375 -27.6875 3.8125 C-26.44613281 3.77511719 -25.20476563 3.73773438 -23.92578125 3.69921875 C-22.28382489 3.6335405 -20.64189913 3.5670938 -19 3.5 C-17.77506836 3.46616211 -17.77506836 3.46616211 -16.52539062 3.43164062 C-10.42454107 3.15994287 -5.79706973 -0.83658901 0 0 Z " fill="#F7BE01" transform="translate(31.6875,5.1875)"/>
<path d="M0 0 C0.76699219 0.09667969 1.53398438 0.19335938 2.32421875 0.29296875 C4.3125 0.8125 4.3125 0.8125 6.3125 2.8125 C9.21217757 3.11925232 12.03033178 3.32423371 14.9375 3.4375 C15.73929688 3.47617188 16.54109375 3.51484375 17.3671875 3.5546875 C19.34857556 3.64903931 21.33050645 3.73186215 23.3125 3.8125 C22.68483559 8.02278822 21.73414633 10.05450236 18.27734375 12.7421875 C14.56545617 14.76417 10.46102597 15.26318925 6.3125 15.8125 C6.3125 16.4725 6.3125 17.1325 6.3125 17.8125 C2.61862782 20.27508145 -1.39478667 20.53949177 -5.6875 19.8125 C-7.37925663 18.51114875 -9.04454805 17.17494796 -10.6875 15.8125 C-12.80868166 15.20303483 -12.80868166 15.20303483 -15.125 14.8125 C-19.39703355 14.00793368 -22.25691298 12.57370418 -25.6875 9.8125 C-27.6875 6.8125 -27.6875 6.8125 -27.6875 3.8125 C-26.44613281 3.77511719 -25.20476563 3.73773438 -23.92578125 3.69921875 C-22.28382489 3.6335405 -20.64189913 3.5670938 -19 3.5 C-17.77506836 3.46616211 -17.77506836 3.46616211 -16.52539062 3.43164062 C-10.42454107 3.15994287 -5.79706973 -0.83658901 0 0 Z " fill="#4DAA08" transform="translate(31.6875,5.1875)"/>
<path d="M0 0 C0.3403125 0.8353125 0.3403125 0.8353125 0.6875 1.6875 C2.36151077 4.63694755 4.54956349 6.6752269 7 9 C8.58894072 10.58894072 8.16998411 12.24801424 8.1875 14.4375 C8.20167969 15.24058594 8.21585938 16.04367188 8.23046875 16.87109375 C8 19 8 19 6 21 C5.01 21 4.02 21 3 21 C3.495 25.455 3.495 25.455 4 30 C-5.42646408 34.03991318 -16.67919718 34.76324144 -26.5 31.5 C-28.2325 30.7575 -28.2325 30.7575 -30 30 C-30 29.34 -30 28.68 -30 28 C-29.09121094 28.2165625 -29.09121094 28.2165625 -28.1640625 28.4375 C-27.32617188 28.623125 -26.48828125 28.80875 -25.625 29 C-24.81289063 29.185625 -24.00078125 29.37125 -23.1640625 29.5625 C-18.81499712 30.16385225 -14.39044351 30 -10 30 C-10 22.74 -10 15.48 -10 8 C-12.97 8 -15.94 8 -19 8 C-19.99 7.01 -20.98 6.02 -22 5 C-21.319375 5.165 -20.63875 5.33 -19.9375 5.5 C-13.4290555 6.60782034 -8.89940555 6.06315288 -3 3 C-1.11970761 1.46048953 -1.11970761 1.46048953 0 0 Z " fill="#F1BB04" transform="translate(43,23)"/>
<path d="M0 0 C2.1875 -0.25 2.1875 -0.25 5 0 C5.763125 0.66 6.52625 1.32 7.3125 2 C11.1337414 4.84371453 13.2926352 4.37360038 18 4 C20.35529281 3.58268982 20.35529281 3.58268982 22 3 C22 2.34 22 1.68 22 1 C23.98 0.67 25.96 0.34 28 0 C27.74706737 3.41459045 26.74051411 4.24795319 24.1875 6.6875 C19.36393258 10.18695088 15.95888657 10.41095769 10 10 C5.85767739 8.37555976 2.81798279 6.46828651 0 3 C0 2.01 0 1.02 0 0 Z " fill="#F8E571" transform="translate(16,20)"/>
<path d="M0 0 C1.98 0 3.96 0 6 0 C6 7.26 6 14.52 6 22 C4.02 22 2.04 22 0 22 C0 14.74 0 7.48 0 0 Z " fill="#FDEA75" transform="translate(27,31)"/>
<path d="M0 0 C3.63 0 7.26 0 11 0 C11.33 1.32 11.66 2.64 12 4 C11.45730469 4.26554688 10.91460937 4.53109375 10.35546875 4.8046875 C9.64003906 5.15789063 8.92460938 5.51109375 8.1875 5.875 C7.47980469 6.22304688 6.77210937 6.57109375 6.04296875 6.9296875 C3.78753582 8.0656486 3.78753582 8.0656486 1 10 C0.34 9.67 -0.32 9.34 -1 9 C-0.67 6.03 -0.34 3.06 0 0 Z " fill="#64A724" transform="translate(39,11)"/>
<path d="M0 0 C0.55945312 0.144375 1.11890625 0.28875 1.6953125 0.4375 C12.50450423 2.93994953 23.26299407 2.77084024 34 0 C33.67 0.99 33.34 1.98 33 3 C22.83812821 6.94031763 9.88345472 6.23576631 0 2 C0 1.34 0 0.68 0 0 Z " fill="#040300" transform="translate(13,51)"/>
<path d="M0 0 C1.485 0.99 1.485 0.99 3 2 C3 2.66 3 3.32 3 4 C3.99 4.33 4.98 4.66 6 5 C6.66 4.34 7.32 3.68 8 3 C12.455 4.98 12.455 4.98 17 7 C17 7.99 17 8.98 17 10 C11.44013663 10.57915243 8.30080165 9.58165973 3.66796875 6.4453125 C1.49750491 4.56458271 0.63619654 2.78335987 0 0 Z " fill="#2C6008" transform="translate(4,10)"/>
<path d="M0 0 C1.32 0.66 2.64 1.32 4 2 C4 2.99 4 3.98 4 5 C-2.75 9 -2.75 9 -5 9 C-5.66 7.68 -6.32 6.36 -7 5 C-4.69 3.35 -2.38 1.7 0 0 Z " fill="#FBE970" transform="translate(47,31)"/>
<path d="M0 0 C3.93673644 1.31224548 6.22719294 2.91910327 9 6 C8.01 7.485 8.01 7.485 7 9 C3.9168649 7.80100302 0.93720508 6.52299523 -2 5 C-1.125 1.125 -1.125 1.125 0 0 Z " fill="#FCEA72" transform="translate(11,31)"/>
<path d="M0 0 C4.75 1.875 4.75 1.875 7 3 C6.67 4.65 6.34 6.3 6 8 C1.125 7.125 1.125 7.125 0 6 C-0.04080783 4.00041636 -0.04254356 1.99954746 0 0 Z " fill="#2F6F04" transform="translate(9,36)"/>
<path d="M0 0 C0.125 2.875 0.125 2.875 0 6 C-0.66 6.66 -1.32 7.32 -2 8 C-3.32 8 -4.64 8 -6 8 C-6.33 6.35 -6.66 4.7 -7 3 C-2.25 0 -2.25 0 0 0 Z " fill="#2D6D02" transform="translate(51,36)"/>
<path d="M0 0 C2.97 0 5.94 0 9 0 C9 1.32 9 2.64 9 4 C4.53159589 3.50351065 3.31012244 3.31012244 0 0 Z " fill="#F6BEB7" transform="translate(11,12)"/>
<path d="M0 0 C2.97 0 5.94 0 9 0 C5.68987756 3.31012244 4.46840411 3.50351065 0 4 C0 2.68 0 1.36 0 0 Z " fill="#FABFBA" transform="translate(40,12)"/>
</svg>
