<svg version="1.1" id="Layer_1" xmlns="http://www.w3.org/2000/svg" xmlns:xlink="http://www.w3.org/1999/xlink" x="0px" y="0px"
	 width="100%" viewBox="0 0 768 832" enable-background="new 0 0 768 832" xml:space="preserve">
<path fill="#000000" opacity="1.000000" stroke="none" 
	d="
M1.000000,644.468384 
	C1.602668,648.602783 6.577362,649.850098 8.371459,653.568726 
	C8.727061,654.305664 9.769308,654.581970 10.598800,654.201355 
	C18.249699,650.690369 27.404289,649.373596 30.042835,639.033203 
	C30.981543,635.354431 33.772434,632.129395 37.820297,630.799011 
	C39.657444,632.434570 39.437092,634.437866 39.203873,636.124390 
	C38.411667,641.853394 41.718590,644.104248 46.444363,645.553040 
	C52.285694,647.343750 52.316803,647.553345 49.864483,653.345276 
	C49.050884,655.266846 49.363468,657.287415 49.362865,659.266235 
	C49.345974,714.710510 49.351002,770.154724 49.345631,825.598999 
	C49.345421,827.762207 49.278183,829.925415 49.121086,832.544312 
	C33.036728,833.000000 17.073460,833.000000 1.000000,833.000000 
	C1.000000,785.645813 1.000000,738.291565 1.349628,690.598022 
	C6.736389,692.014160 11.679037,693.042603 17.228310,692.123718 
	C25.277300,690.790894 27.463207,688.109314 25.217596,680.225525 
	C24.135736,676.427368 22.184971,673.180847 19.021194,670.811890 
	C15.935266,668.501160 12.967684,666.147095 11.199798,662.588806 
	C10.590996,661.363403 9.409990,659.877136 8.156260,660.951538 
	C6.012280,662.788879 2.849894,661.803955 1.000000,664.000000 
	C1.000000,657.645569 1.000000,651.291199 1.000000,644.468384 
z"/>
<path fill="#000000" opacity="1.000000" stroke="none" 
	d="
M769.000000,367.541931 
	C763.358521,365.793121 757.498596,364.953644 751.505432,365.678192 
	C744.689453,366.502136 741.076294,370.996063 739.124207,377.175446 
	C738.641296,378.704315 738.667358,380.482117 737.009949,381.693176 
	C736.662659,381.193817 736.231628,380.848724 736.170654,380.447388 
	C729.767456,338.302704 730.727539,295.856323 731.021057,253.438858 
	C731.045288,249.935211 731.261841,246.422150 733.296692,243.342590 
	C734.458740,241.583954 734.060303,240.422104 732.158386,239.364212 
	C721.388916,233.374100 710.671204,227.290863 699.942505,221.227631 
	C689.565063,215.362869 679.247803,209.389404 668.810669,203.633087 
	C652.660950,194.726120 636.534424,185.794037 620.858887,176.053802 
	C616.524170,173.360336 611.718811,171.350723 606.975708,169.401398 
	C590.507385,162.633240 576.951782,150.998001 561.556458,142.449921 
	C548.742981,135.335449 535.839111,128.378708 523.131470,121.080185 
	C511.424408,114.356308 499.996216,107.147972 488.314178,100.379143 
	C477.184235,93.930267 465.867645,87.804298 454.665222,81.479546 
	C443.752869,75.318596 432.901276,69.050087 421.985962,62.894424 
	C411.390747,56.919270 400.674164,51.155457 390.157532,45.046383 
	C384.711090,41.882572 380.054199,43.161282 375.304901,46.356277 
	C372.945038,47.943832 370.850952,50.386189 367.244293,49.218361 
	C371.369202,46.737465 374.040955,41.916573 379.741913,42.047573 
	C379.908325,42.051395 380.082092,42.071102 380.240631,42.033543 
	C393.802124,38.820950 404.533356,45.246044 415.275909,52.063530 
	C423.487732,57.274925 431.955292,62.087818 440.367096,66.978233 
	C448.901855,71.940125 457.399628,76.983070 466.112976,81.615532 
	C474.813416,86.241158 483.138580,91.503151 491.850647,96.125320 
	C502.128387,101.578148 511.860046,108.059792 521.834839,114.084846 
	C522.680542,114.595657 523.630066,115.511978 524.437134,115.419319 
	C531.860657,114.567039 538.401123,118.514732 545.029297,120.340233 
	C553.881531,122.778259 562.408936,122.073975 571.085938,122.609215 
	C572.224426,122.679443 573.378540,122.495026 574.228333,122.445778 
	C576.013672,121.169037 573.933594,119.238182 575.650024,118.098145 
	C575.972839,118.113129 576.602600,117.944420 576.894775,118.185265 
	C582.256775,122.604630 588.568665,124.386658 595.252930,125.939621 
	C601.705505,127.438751 607.940735,130.188446 613.976379,133.018204 
	C616.538574,134.219498 618.918091,134.815842 621.551575,134.617538 
	C626.821106,134.220749 631.444580,135.795990 636.110901,138.167709 
	C642.050110,141.186371 648.914185,142.132553 654.651367,145.681610 
	C660.731812,149.442993 667.381897,151.940262 673.861145,154.823944 
	C675.216187,155.427048 675.351440,156.589706 675.280701,157.727280 
	C675.010071,162.079529 676.414001,166.347244 676.210144,170.604385 
	C675.930176,176.451935 677.385193,181.614578 681.083557,185.888367 
	C685.405212,190.882263 685.722290,197.512924 686.675781,203.050720 
	C687.914856,210.248032 692.279419,212.749283 697.156799,215.406631 
	C704.107361,219.193542 710.982849,223.088989 717.769714,227.154160 
	C718.272217,227.455185 718.992554,227.392670 720.688721,227.684387 
	C720.688721,221.597443 721.077942,215.837708 720.571106,210.157944 
	C720.129761,205.211151 722.177185,203.396561 726.658325,202.552475 
	C730.009644,201.921204 733.196350,200.415619 736.505371,199.282562 
	C737.903320,201.628876 737.310852,203.999237 737.312744,206.245163 
	C737.354065,254.235748 737.416931,302.226624 737.242920,350.216614 
	C737.225037,355.157013 738.375549,357.019989 743.587402,356.779816 
	C751.731262,356.404480 759.909851,356.781555 768.536865,356.919922 
	C769.000000,360.361298 769.000000,363.722565 769.000000,367.541931 
z"/>
<path fill="#000000" opacity="1.000000" stroke="none" 
	d="
M343.468628,833.000000 
	C334.040802,826.634705 324.335480,821.479065 314.993530,815.734436 
	C288.761963,799.604248 262.507172,783.511658 236.280914,767.372803 
	C232.609329,765.113403 228.696884,763.222656 225.584518,760.081482 
	C224.579819,759.067505 222.975845,758.016235 221.665878,758.040833 
	C214.509567,758.175110 208.740601,753.292786 201.511902,753.055542 
	C196.273087,752.883606 190.914490,750.436035 185.930511,748.765259 
	C179.027771,746.451233 171.882996,745.020447 164.957916,743.006104 
	C157.767471,740.914551 150.355042,739.114441 143.128189,737.080566 
	C135.548981,734.947510 127.751572,733.591431 120.308281,730.841003 
	C114.869499,728.831177 109.557770,727.072571 105.274216,722.810913 
	C98.643867,716.214539 96.710022,707.682556 94.711380,699.124939 
	C93.139168,692.393250 90.916306,685.845032 89.457993,679.066101 
	C88.390579,674.104248 83.580193,672.516418 79.354362,671.065979 
	C74.255325,669.315796 69.491447,667.056824 65.187279,663.828613 
	C64.257355,663.131165 63.194473,662.497803 62.524822,661.589966 
	C61.098648,659.656616 58.503349,657.682983 60.111382,655.072327 
	C61.857510,652.237366 64.956467,653.135437 67.334122,654.339294 
	C71.482216,656.439514 75.933708,658.370728 79.356941,661.393311 
	C90.498848,671.231079 104.139755,676.911133 116.608704,684.507629 
	C135.083633,695.763306 153.669785,706.828430 172.059433,718.234009 
	C188.736465,728.577332 205.932541,738.126343 223.214218,747.442261 
	C249.463333,761.592346 274.872314,777.124512 300.284576,792.688049 
	C319.861694,804.677979 339.792816,816.089539 359.545319,827.794067 
	C361.965881,829.228455 364.650818,830.290894 366.793579,832.732483 
	C359.312408,833.000000 351.624847,833.000000 343.468628,833.000000 
z"/>
<path fill="#000000" opacity="1.000000" stroke="none" 
	d="
M721.468628,833.000000 
	C720.885193,831.346436 720.670654,829.692932 720.670105,828.039307 
	C720.655396,784.274475 720.656433,740.509705 720.680786,696.744873 
	C720.682312,693.947510 720.433411,691.106506 721.343079,688.143921 
	C724.984009,688.299805 726.861145,690.803406 727.988770,693.405762 
	C730.786743,699.863159 736.031067,704.362000 740.250122,709.672363 
	C742.875488,712.976868 746.586975,714.343079 750.689880,714.911987 
	C761.824402,716.455750 764.054199,718.496033 766.804077,729.333313 
	C767.069824,730.380615 766.803040,731.807800 768.725708,732.016907 
	C769.000000,738.354431 769.000000,744.708801 768.822632,751.303162 
	C767.999756,750.876221 768.563782,749.537903 767.314636,749.125610 
	C766.442627,765.697449 765.505859,782.201721 767.082336,798.721741 
	C767.242188,800.396851 767.249390,802.069885 769.000000,803.000000 
	C769.000000,812.943542 769.000000,822.887146 769.000000,833.000000 
	C753.312805,833.000000 737.625061,833.000000 721.468628,833.000000 
z"/>
<path fill="#000000" opacity="1.000000" stroke="none" 
	d="
M401.468658,833.000000 
	C401.849274,832.230347 402.582123,831.238464 403.564880,830.723450 
	C429.814667,816.968262 455.974518,803.043945 481.578735,788.114319 
	C500.859894,776.871643 519.969055,765.324707 539.728333,754.931885 
	C570.551758,738.719666 599.664307,719.514954 630.452759,703.249390 
	C634.729431,700.989990 639.071838,698.860596 643.770386,697.596741 
	C645.536255,697.121704 647.568481,696.425964 648.844177,698.234497 
	C650.121338,700.044922 648.207764,701.247314 647.331665,702.547607 
	C645.322266,705.529785 642.321411,707.378906 639.374329,709.265076 
	C620.302429,721.471741 601.464783,734.030945 580.890747,743.752686 
	C574.258850,746.886414 569.922668,753.386230 564.678894,758.444275 
	C550.199951,772.410706 536.191895,786.865356 522.003906,801.133240 
	C516.528198,806.639709 511.027649,812.122437 505.612610,817.688110 
	C497.393738,826.135681 487.628967,828.253418 476.156464,826.256836 
	C468.483856,824.921570 461.471710,821.269531 453.555206,820.800476 
	C450.911469,820.643799 448.612488,820.629150 446.449738,821.853577 
	C440.374969,825.292908 434.394531,828.898926 428.188446,832.719604 
	C419.312439,833.000000 410.624878,833.000000 401.468658,833.000000 
z"/>
<path fill="#000000" opacity="1.000000" stroke="none" 
	d="
M769.000000,433.531342 
	C767.126892,430.955505 768.411133,427.475342 767.658264,423.949219 
	C766.340698,425.831421 767.699524,428.042053 766.328003,429.624146 
	C764.557617,430.032043 765.427734,427.643311 763.699280,427.485718 
	C763.212952,431.928558 759.722595,432.946014 756.016541,434.340942 
	C747.164001,437.673126 741.887268,444.516022 739.198792,453.442627 
	C738.534973,455.646698 738.029663,457.898499 736.377808,460.042389 
	C736.377808,437.763611 736.377808,415.484833 736.377808,392.273285 
	C746.627991,397.943298 757.243896,399.024628 768.537598,398.962067 
	C769.000000,410.354218 769.000000,421.708466 769.000000,433.531342 
z"/>
<path fill="#000000" opacity="1.000000" stroke="none" 
	d="
M268.450562,106.523026 
	C252.635742,114.715790 237.921280,124.096481 222.321655,131.992355 
	C210.669174,137.890335 199.287445,144.562134 188.055298,151.360901 
	C185.683273,152.796692 183.164932,153.990814 180.671844,155.318756 
	C179.498108,153.449829 180.955490,152.665268 181.754898,151.864609 
	C211.867188,121.704262 241.991791,91.556114 272.164581,61.456295 
	C279.034973,54.602520 287.399750,52.844765 296.805115,54.497730 
	C307.200958,56.324768 317.340240,59.034843 327.320770,62.429230 
	C331.696594,63.917450 336.373657,63.582607 341.322662,64.108276 
	C339.123993,67.089371 336.375763,68.502220 333.678070,69.975792 
	C315.653656,79.821442 297.605164,89.623367 279.620361,99.540794 
	C275.888794,101.598488 272.391418,104.080940 268.450562,106.523026 
z"/>
<path fill="#000000" opacity="1.000000" stroke="none" 
	d="
M327.997345,387.355042 
	C309.502625,387.340698 291.505981,387.444336 273.513092,387.231476 
	C268.889221,387.176819 266.967102,388.368713 267.085297,393.381317 
	C267.383850,406.037201 267.333527,418.708984 267.064026,431.366760 
	C266.960632,436.224548 268.758942,437.794037 273.470154,437.756958 
	C294.296753,437.592987 315.125244,437.662689 335.953064,437.675995 
	C338.393799,437.677551 341.137115,437.171143 342.112549,440.487366 
	C343.264740,444.404419 341.573883,446.358795 336.726624,446.369934 
	C318.231598,446.412415 299.736389,446.388641 281.241272,446.391449 
	C277.908875,446.391968 274.575958,446.439575 271.244232,446.395142 
	C268.260101,446.355377 267.140747,447.819702 267.150635,450.724396 
	C267.203430,466.218262 267.214874,481.712646 267.126343,497.206207 
	C267.106873,500.612732 268.581543,502.109192 271.877533,502.104279 
	C278.199921,502.094879 284.522400,502.118073 290.844818,502.116455 
	C306.840607,502.112305 322.836365,502.097015 338.832153,502.101288 
	C340.495880,502.101746 342.171631,502.096130 343.820618,502.281586 
	C346.651398,502.600037 348.642059,504.177917 348.596100,507.093536 
	C348.547150,510.198090 346.228058,511.251709 343.427582,511.266968 
	C336.596283,511.304108 329.764709,511.294922 322.933228,511.296570 
	C303.271729,511.301331 283.610229,511.321136 263.948761,511.293793 
	C257.564026,511.284943 256.684021,510.327545 256.690033,504.127960 
	C256.727966,464.971863 256.752960,425.815735 256.779999,386.659637 
	C256.785461,378.760956 257.814606,377.737122 265.688263,377.741486 
	C290.181793,377.755035 314.675323,377.748352 339.168823,377.780060 
	C342.824860,377.784790 347.634949,377.380676 347.662537,382.329437 
	C347.690948,387.416229 342.980957,387.429077 338.992737,387.354218 
	C335.495361,387.288574 331.995544,387.349976 327.997345,387.355042 
z"/>
<path fill="#000000" opacity="1.000000" stroke="none" 
	d="
M443.885651,503.076538 
	C432.167389,486.887238 420.667542,470.981445 409.174194,455.070953 
	C406.068237,450.771393 405.116425,450.644379 402.005829,454.891815 
	C389.423187,472.073120 376.854889,489.266266 364.469177,506.589355 
	C362.084717,509.924408 359.479065,511.782318 355.348816,511.283844 
	C351.847534,510.861206 350.876526,509.414276 353.109894,506.369659 
	C360.984863,495.634155 368.817596,484.867706 376.692047,474.131866 
	C383.189056,465.273895 389.540771,456.299774 396.325928,447.667206 
	C399.183533,444.031616 398.732666,441.359894 396.226501,437.941650 
	C383.925720,421.164642 371.777557,404.275757 359.575500,387.426392 
	C359.086884,386.751678 358.393219,386.143677 358.148102,385.389801 
	C357.426361,383.170319 353.237793,381.778137 356.195099,378.719971 
	C358.302338,376.540771 363.691742,377.746429 365.970062,380.835052 
	C371.497711,388.328796 376.903992,395.912048 382.354065,403.462952 
	C388.972046,412.631958 395.587799,421.802582 402.198090,430.977142 
	C404.456543,434.111694 406.319214,434.734833 409.013367,431.026703 
	C430.235809,401.817139 451.614258,372.722260 474.156067,344.502747 
	C481.204895,335.678497 487.429688,326.184784 495.608459,318.285950 
	C496.165802,317.747681 496.554016,316.912201 498.266632,317.331268 
	C495.234406,322.187225 492.508392,326.994904 489.366821,331.513702 
	C464.774628,366.886658 440.132507,402.225006 415.410736,437.507446 
	C412.856842,441.152222 412.626770,444.076019 415.386749,447.823975 
	C429.495026,466.982666 443.379028,486.306396 457.368378,505.552826 
	C458.246582,506.761078 459.609558,507.803192 458.879181,509.480286 
	C458.072876,511.331635 456.259613,511.142334 454.585388,511.313751 
	C448.568298,511.929688 447.052582,506.722534 443.885651,503.076538 
z"/>
<path fill="#000000" opacity="1.000000" stroke="none" 
	d="
M249.554901,525.408447 
	C218.007996,482.413483 189.196838,437.927734 158.569092,394.962463 
	C156.416840,395.750580 156.354156,396.943939 156.437134,398.113556 
	C158.041885,420.734436 157.361725,443.398712 156.881119,466.011658 
	C156.605499,478.980011 156.534393,491.955414 156.322250,504.925629 
	C156.261826,508.619812 155.356537,511.246155 151.145432,511.218353 
	C147.145554,511.191925 145.704453,508.913361 145.711502,505.070648 
	C145.785126,464.923035 145.802322,424.775269 145.788452,384.627563 
	C145.787369,381.500061 146.432037,378.904602 149.857635,378.117188 
	C153.682816,377.237823 157.192413,377.731750 159.598312,381.293365 
	C167.137390,392.453979 174.655472,403.628845 182.177322,414.801117 
	C198.889908,439.624390 215.582916,464.460907 232.315750,489.270538 
	C248.307755,512.981750 264.356964,536.654358 280.340424,560.371277 
	C283.526642,565.099182 286.529327,569.950806 288.971039,575.199646 
	C274.077454,560.108765 262.703949,542.281067 249.554901,525.408447 
z"/>
<path fill="#000000" opacity="1.000000" stroke="none" 
	d="
M519.251587,496.972534 
	C519.245117,500.132690 519.257507,502.798767 519.226196,505.464294 
	C519.181152,509.297943 517.379395,511.391785 513.385193,511.258820 
	C509.487427,511.129028 508.563263,508.988129 508.576843,505.318848 
	C508.714508,468.163177 508.702332,431.006989 508.706848,393.850922 
	C508.707581,387.796234 508.173798,387.308105 502.098663,387.309967 
	C491.435028,387.313202 480.771301,387.359833 470.107788,387.334167 
	C468.459076,387.330200 466.757751,387.242157 465.176147,386.828400 
	C463.194733,386.310028 462.295898,384.655426 462.083496,382.696564 
	C461.849609,380.539703 463.077942,379.358643 464.920502,378.510040 
	C466.828003,377.631500 468.810516,377.735352 470.804749,377.735718 
	C499.463318,377.740692 528.121948,377.719818 556.780396,377.782776 
	C560.296387,377.790497 564.675537,376.904388 565.389282,382.175903 
	C565.862976,385.674774 562.880249,387.373138 556.901184,387.375336 
	C546.237549,387.379303 535.573853,387.335907 524.910278,387.352844 
	C518.953674,387.362305 518.185547,388.315002 518.987488,394.026764 
	C519.240662,395.829926 519.243286,397.677826 519.244019,399.505310 
	C519.257080,431.829620 519.252075,464.153900 519.251587,496.972534 
z"/>
<path fill="#000000" opacity="1.000000" stroke="none" 
	d="
M33.057434,453.782410 
	C32.518024,441.339447 32.194744,429.323029 30.094761,417.513885 
	C28.852161,410.526245 30.353125,403.521118 29.172855,396.644775 
	C27.710033,388.122223 25.992977,379.666504 25.429914,370.995850 
	C24.858845,362.201935 23.804729,353.438477 22.915255,344.666443 
	C22.090151,336.529266 24.332220,328.811768 26.034948,321.014435 
	C27.148300,315.916046 27.302183,310.847900 26.256371,305.661896 
	C24.933037,299.099731 28.720766,295.259308 35.525986,295.856476 
	C37.572670,296.036072 39.032787,296.931183 39.179436,299.184692 
	C39.276680,300.679169 39.323811,302.179565 39.323120,303.677277 
	C39.298317,357.643463 39.277859,411.609680 39.193394,465.575775 
	C39.189461,468.088074 39.881035,470.863007 37.551514,473.529083 
	C33.117130,467.497375 34.156452,460.612000 33.057434,453.782410 
z"/>
<path fill="#000000" opacity="1.000000" stroke="none" 
	d="
M704.992065,43.418976 
	C687.389709,43.419590 670.285828,43.419590 653.182007,43.419590 
	C654.778320,41.293892 656.729614,41.642296 658.550049,41.640896 
	C682.873474,41.622204 707.197632,41.751144 731.519653,41.573128 
	C736.119263,41.539463 737.574951,42.989571 737.437012,47.549221 
	C737.142090,57.296227 737.346680,67.058342 737.346680,77.028694 
	C736.142822,76.807137 735.638550,76.798370 735.202026,76.621796 
	C720.661194,70.740028 720.740112,70.737198 720.647034,55.034004 
	C720.567200,41.559357 722.483337,43.625141 708.989136,43.418991 
	C707.823242,43.401176 706.656799,43.417759 704.992065,43.418976 
z"/>
<path fill="#000000" opacity="1.000000" stroke="none" 
	d="
M619.532715,504.824524 
	C622.014038,504.415405 623.949036,503.644196 624.286621,501.318695 
	C624.662537,498.728973 622.341797,497.989410 620.617065,497.197418 
	C617.610657,495.816772 614.518127,494.562408 611.358276,493.591553 
	C606.319031,492.043182 604.029846,488.390747 603.996094,483.554230 
	C603.969482,479.751953 609.358032,474.718842 613.753784,473.863190 
	C620.173584,472.613617 625.577698,474.576538 629.866272,479.524841 
	C631.020508,480.856598 631.864868,482.377472 630.519165,483.986908 
	C629.195679,485.569733 627.759766,484.341919 626.466003,483.762817 
	C623.183960,482.293579 620.366821,479.704315 616.302612,480.238861 
	C614.056458,480.534241 612.416870,481.001434 612.299255,483.630310 
	C612.195435,485.951599 613.000000,487.542145 615.467346,487.893036 
	C618.818726,488.369659 621.836060,489.755096 624.833984,491.222687 
	C628.621765,493.076874 631.327026,495.449890 631.411621,500.251251 
	C631.502808,505.431488 628.442932,508.347748 624.639587,510.459076 
	C618.678223,513.768372 609.515320,511.622437 605.036316,506.377319 
	C603.933350,505.085632 602.688354,503.618927 603.996399,501.965820 
	C605.342773,500.264313 607.324463,500.375946 608.927307,501.615631 
	C611.968140,503.967529 615.300598,505.138977 619.532715,504.824524 
z"/>
<path fill="#000000" opacity="1.000000" stroke="none" 
	d="
M589.748291,489.003998 
	C589.803833,485.020569 589.659485,481.511139 589.992737,478.047638 
	C590.178406,476.118286 590.925598,473.901093 593.561890,474.026245 
	C595.782837,474.131653 596.778931,475.981323 596.874695,477.825134 
	C597.313721,486.275665 598.226501,494.794373 596.133423,503.130066 
	C595.050293,507.443542 592.039795,510.346375 587.515503,511.190704 
	C582.469788,512.132385 578.366638,510.199493 575.074768,506.485718 
	C573.983521,505.254578 572.923889,503.569305 574.184631,501.980103 
	C575.500854,500.320923 577.369934,500.578705 579.185547,501.443268 
	C589.300171,506.259644 589.722595,505.974792 589.738037,494.487427 
	C589.740295,492.824005 589.744690,491.160614 589.748291,489.003998 
z"/>
<path fill="#000000" opacity="1.000000" stroke="none" 
	d="
M562.991699,504.583740 
	C565.547668,503.329346 567.483398,503.641571 568.736206,505.910309 
	C569.431274,507.169067 569.207153,508.492004 568.151367,509.513367 
	C566.836304,510.785553 565.165955,510.995789 563.583435,510.316589 
	C560.562012,509.019836 560.997559,506.984772 562.991699,504.583740 
z"/>
<path fill="#000000" opacity="1.000000" stroke="none" 
	d="
M737.817078,547.573242 
	C737.625793,552.690918 738.661133,557.465088 736.420166,562.061218 
	C736.420166,555.461853 736.420166,548.862488 736.420166,542.263123 
	C736.544617,542.221375 736.669067,542.179626 736.793518,542.137817 
	C737.125366,543.806091 737.457153,545.474426 737.817078,547.573242 
z"/>
</svg>